%
M48
M72
T01C0.0240
T02C0.0320
T03C0.0394
T04C0.0400
T05C0.0440
T06C0.1250
%
T01
X9260Y9020
X10700Y10730
X12140Y8840
X11420Y8480
X11780Y8030
X13490Y9020
X15020Y9650
X15740Y10910
X15380Y8030
X15020Y7130
X17180Y6230
X18170Y7220
X20780Y3890
X19070Y1640
X13670Y5060
X12230Y5510
X22850Y6410
X22760Y15860
X17720Y19910
X17090Y19820
X8810Y17210
T02
X15300Y16380
X15300Y15380
X15300Y14380
X15300Y13380
X18300Y13380
X18300Y14380
X18300Y15380
X18300Y16380
X24300Y14880
X24300Y13880
X24300Y17880
X24300Y18880
X22800Y8880
X21800Y8880
X20800Y8880
X19800Y8880
X18800Y8880
X17800Y8880
X16800Y8880
X16800Y4880
X17800Y4880
X18800Y4880
X19800Y4880
X20800Y4880
X21800Y4880
X22800Y4880
X2800Y3880
X1800Y3880
T03
X2300Y5880
X2300Y6880
X4800Y2380
X5800Y2380
X7300Y2380
X8300Y2380
X9800Y2380
X10800Y2380
X12300Y2380
X13300Y2380
X14800Y2380
X15800Y2380
X17300Y2380
X18300Y2380
T04
X25800Y3380
X25800Y4380
X25800Y5380
X25800Y6380
X25800Y7380
X25800Y8380
X25800Y9380
X25800Y10380
X25800Y12380
X25800Y13380
X25800Y14380
X25800Y16380
X25800Y17380
X25800Y18380
X23100Y20480
X22100Y20480
X22100Y21480
X23100Y21480
X21100Y21480
X21100Y20480
X20100Y20480
X19100Y20480
X19100Y21480
X20100Y21480
X18100Y21480
X18100Y20480
X17100Y20480
X16100Y20480
X16100Y21480
X17100Y21480
X15100Y21480
X15100Y20480
X14100Y20480
X13100Y20480
X13100Y21480
X14100Y21480
X12100Y21480
X12100Y20480
X11100Y20480
X10100Y20480
X10100Y21480
X11100Y21480
X9100Y21480
X9100Y20480
X8100Y20480
X7100Y20480
X7100Y21480
X8100Y21480
X6100Y21480
X6100Y20480
X5100Y20480
X4100Y20480
X4100Y21480
X5100Y21480
T05
X4300Y16380
X4300Y15380
X4300Y14380
X4300Y13380
X4300Y12380
X4300Y11380
X4300Y10380
X4300Y9380
X7300Y9380
X7300Y10380
X7300Y11380
X7300Y12380
X7300Y13380
X7300Y14380
X7300Y15380
X7300Y16380
X9800Y16380
X9800Y15380
X9800Y14380
X9800Y13380
X9800Y12380
X9800Y11380
X9800Y10380
X9800Y9380
X12800Y9380
X12800Y10380
X12800Y11380
X12800Y12380
X12800Y13380
X12800Y14380
X12800Y15380
X12800Y16380
T06
X2180Y1760
X25010Y1760
X25010Y21050
X2180Y21050
M30
