%
M48
M72
T01C0.02400
T02C0.03200
T03C0.03937
T04C0.04000
T05C0.04400
T06C0.12500
%
T01
X92600Y90200
X107000Y107300
X121400Y88400
X114200Y84800
X117800Y80300
X134900Y90200
X150200Y96500
X157400Y109100
X153800Y80300
X150200Y71300
X171800Y62300
X181700Y72200
X207800Y38900
X190700Y16400
X136700Y50600
X122300Y55100
X228500Y64100
X227600Y158600
X177200Y199100
X170900Y198200
X88100Y172100
T02
X153000Y163800
X153000Y153800
X153000Y143800
X153000Y133800
X183000Y133800
X183000Y143800
X183000Y153800
X183000Y163800
X243000Y148800
X243000Y138800
X243000Y178800
X243000Y188800
X228000Y88800
X218000Y88800
X208000Y88800
X198000Y88800
X188000Y88800
X178000Y88800
X168000Y88800
X168000Y48800
X178000Y48800
X188000Y48800
X198000Y48800
X208000Y48800
X218000Y48800
X228000Y48800
X28000Y38800
X18000Y38800
T03
X23000Y58800
X23000Y68800
X48000Y23800
X58000Y23800
X73000Y23800
X83000Y23800
X98000Y23800
X108000Y23800
X123000Y23800
X133000Y23800
X148000Y23800
X158000Y23800
X173000Y23800
X183000Y23800
T04
X258000Y33800
X258000Y43800
X258000Y53800
X258000Y63800
X258000Y73800
X258000Y83800
X258000Y93800
X258000Y103800
X258000Y123800
X258000Y133800
X258000Y143800
X258000Y163800
X258000Y173800
X258000Y183800
X231000Y204800
X221000Y204800
X221000Y214800
X231000Y214800
X211000Y214800
X211000Y204800
X201000Y204800
X191000Y204800
X191000Y214800
X201000Y214800
X181000Y214800
X181000Y204800
X171000Y204800
X161000Y204800
X161000Y214800
X171000Y214800
X151000Y214800
X151000Y204800
X141000Y204800
X131000Y204800
X131000Y214800
X141000Y214800
X121000Y214800
X121000Y204800
X111000Y204800
X101000Y204800
X101000Y214800
X111000Y214800
X91000Y214800
X91000Y204800
X81000Y204800
X71000Y204800
X71000Y214800
X81000Y214800
X61000Y214800
X61000Y204800
X51000Y204800
X41000Y204800
X41000Y214800
X51000Y214800
T05
X43000Y163800
X43000Y153800
X43000Y143800
X43000Y133800
X43000Y123800
X43000Y113800
X43000Y103800
X43000Y93800
X73000Y93800
X73000Y103800
X73000Y113800
X73000Y123800
X73000Y133800
X73000Y143800
X73000Y153800
X73000Y163800
X98000Y163800
X98000Y153800
X98000Y143800
X98000Y133800
X98000Y123800
X98000Y113800
X98000Y103800
X98000Y93800
X128000Y93800
X128000Y103800
X128000Y113800
X128000Y123800
X128000Y133800
X128000Y143800
X128000Y153800
X128000Y163800
T06
X21800Y17600
X250100Y17600
X250100Y210500
X21800Y210500
M30
