G75*
%MOIN*%
%OFA0B0*%
%FSLAX26Y26*%
%IPPOS*%
%LPD*%
%AMOC8*
5,1,8,0,0,1.08239X$1,22.5*
%
%ADD10R,0.066000X0.066000*%
%ADD11C,0.066000*%
%ADD12C,0.060000*%
%ADD13C,0.059370*%
%ADD14C,0.052000*%
%ADD15OC8,0.052000*%
%ADD16OC8,0.060000*%
%ADD17C,0.010000*%
%ADD18C,0.016000*%
%ADD19C,0.040000*%
%ADD20C,0.040000*%
D10*
X00560000Y01730000D03*
X01250000Y01740000D03*
D11*
X01250000Y01640000D03*
X01250000Y01540000D03*
X01250000Y01440000D03*
X01250000Y01340000D03*
X01250000Y01240000D03*
X01250000Y01140000D03*
X01250000Y01040000D03*
X01550000Y01040000D03*
X01550000Y01140000D03*
X01550000Y01240000D03*
X01550000Y01340000D03*
X01550000Y01440000D03*
X01550000Y01540000D03*
X01550000Y01640000D03*
X01550000Y01740000D03*
X00860000Y01730000D03*
X00860000Y01630000D03*
X00860000Y01530000D03*
X00860000Y01430000D03*
X00860000Y01330000D03*
X00860000Y01230000D03*
X00860000Y01130000D03*
X00860000Y01030000D03*
X00560000Y01030000D03*
X00560000Y01130000D03*
X00560000Y01230000D03*
X00560000Y01330000D03*
X00560000Y01430000D03*
X00560000Y01530000D03*
X00560000Y01630000D03*
D12*
X02460000Y01620000D02*
X02520000Y01620000D01*
X02520000Y01520000D02*
X02460000Y01520000D01*
X02460000Y01420000D02*
X02520000Y01420000D01*
X02520000Y01320000D02*
X02460000Y01320000D01*
X02460000Y01220000D02*
X02520000Y01220000D01*
X02520000Y01040000D02*
X02460000Y01040000D01*
X02460000Y00940000D02*
X02520000Y00940000D01*
X02520000Y00840000D02*
X02460000Y00840000D01*
X02460000Y00580000D02*
X02520000Y00580000D01*
X02520000Y00480000D02*
X02460000Y00480000D01*
X02460000Y00380000D02*
X02520000Y00380000D01*
X02520000Y01720000D02*
X02460000Y01720000D01*
X02460000Y01820000D02*
X02520000Y01820000D01*
X02520000Y01920000D02*
X02460000Y01920000D01*
D13*
X00430000Y00179685D02*
X00430000Y00120315D01*
X00330000Y00120315D02*
X00330000Y00179685D01*
X00179685Y00570000D02*
X00120315Y00570000D01*
X00120315Y00670000D02*
X00179685Y00670000D01*
X00179685Y00800000D02*
X00120315Y00800000D01*
X00120315Y00900000D02*
X00179685Y00900000D01*
X00179685Y01020000D02*
X00120315Y01020000D01*
X00120315Y01120000D02*
X00179685Y01120000D01*
X00179685Y01240000D02*
X00120315Y01240000D01*
X00120315Y01340000D02*
X00179685Y01340000D01*
X00179685Y01470000D02*
X00120315Y01470000D01*
X00120315Y01570000D02*
X00179685Y01570000D01*
X00179685Y01700000D02*
X00120315Y01700000D01*
X00120315Y01800000D02*
X00179685Y01800000D01*
D14*
X01580000Y00600000D03*
X01580000Y00500000D03*
X01580000Y00400000D03*
X01580000Y00300000D03*
X01880000Y00300000D03*
X01880000Y00400000D03*
X01880000Y00500000D03*
X01880000Y00600000D03*
D15*
X01990000Y00670000D03*
X01990000Y00780000D03*
X02280000Y00890000D03*
X02280000Y00990000D03*
X02390000Y00780000D03*
X02390000Y00670000D03*
X02280000Y00530000D03*
X02280000Y00430000D03*
X02370000Y00330000D03*
X02290000Y00150000D03*
X02190000Y00150000D03*
X01970000Y00330000D03*
X01410000Y00250000D03*
X01310000Y00250000D03*
X01200000Y00250000D03*
X01100000Y00250000D03*
X01100000Y00650000D03*
X01200000Y00650000D03*
X01310000Y00650000D03*
X01410000Y00650000D03*
D16*
X01430000Y02010000D03*
X01330000Y02010000D03*
X01230000Y02010000D03*
X01130000Y02010000D03*
X01030000Y02010000D03*
X00930000Y02010000D03*
X00830000Y02010000D03*
X00730000Y02010000D03*
X00730000Y02110000D03*
X00830000Y02110000D03*
X00930000Y02110000D03*
X01030000Y02110000D03*
X01130000Y02110000D03*
X01230000Y02110000D03*
X01330000Y02110000D03*
X01430000Y02110000D03*
X01530000Y02110000D03*
X01630000Y02110000D03*
X01730000Y02110000D03*
X01830000Y02110000D03*
X01930000Y02110000D03*
X02030000Y02110000D03*
X02130000Y02110000D03*
X02130000Y02010000D03*
X02030000Y02010000D03*
X01930000Y02010000D03*
X01830000Y02010000D03*
X01730000Y02010000D03*
X01630000Y02010000D03*
X01530000Y02010000D03*
X02230000Y02010000D03*
X02230000Y02110000D03*
X00630000Y02110000D03*
X00530000Y02110000D03*
X00430000Y02110000D03*
X00330000Y02110000D03*
X00330000Y02010000D03*
X00430000Y02010000D03*
X00530000Y02010000D03*
X00630000Y02010000D03*
D17*
X00640000Y02065000D02*
X00575000Y02065000D01*
X00530000Y02110000D01*
X00430000Y02110000D02*
X00430000Y02075000D01*
X00485000Y02020000D01*
X00485000Y01805000D01*
X00560000Y01730000D01*
X00860000Y01730000D01*
X00960000Y01630000D01*
X00960000Y01160000D01*
X00957500Y01157500D01*
X01025000Y01090000D01*
X01270000Y01090000D01*
X01272500Y01092500D01*
X01300000Y01065000D01*
X01300000Y00695000D01*
X01185000Y00695000D01*
X01140000Y00650000D01*
X01100000Y00650000D01*
X01200000Y00650000D02*
X00700000Y00150000D01*
X00430000Y00150000D01*
X00150000Y00570000D02*
X00475000Y00895000D01*
X00475000Y00940000D01*
X00445000Y01095000D02*
X00150000Y00800000D01*
X00075000Y00780000D02*
X00075000Y00825000D01*
X00150000Y00900000D01*
X00145000Y00900000D01*
X00075000Y00970000D01*
X00075000Y01045000D01*
X00150000Y01120000D01*
X00145000Y01120000D01*
X00075000Y01190000D01*
X00075000Y01265000D01*
X00150000Y01340000D01*
X00145000Y01340000D01*
X00075000Y01410000D01*
X00075000Y01495000D01*
X00150000Y01570000D01*
X00145000Y01570000D01*
X00145000Y01610000D01*
X00075000Y01680000D01*
X00075000Y01725000D01*
X00150000Y01800000D01*
X00150000Y01830000D01*
X00330000Y02010000D01*
X00330000Y02110000D02*
X00430000Y02110000D01*
X00640000Y02065000D02*
X00695000Y02010000D01*
X00730000Y02010000D01*
X00785000Y02030000D02*
X00785000Y01875000D01*
X01050000Y01610000D01*
X01050000Y01160000D01*
X01070000Y01140000D01*
X01250000Y01140000D01*
X01272500Y01092500D02*
X01300000Y01120000D01*
X01300000Y01160000D01*
X01270000Y01190000D01*
X01230000Y01190000D01*
X01200000Y01220000D01*
X01200000Y01260000D01*
X01230000Y01290000D01*
X01270000Y01290000D01*
X01290000Y01270000D01*
X01480000Y01270000D01*
X01480000Y01480000D01*
X01250000Y01710000D01*
X01250000Y01740000D01*
X01290000Y01790000D02*
X01185000Y01790000D01*
X00985000Y01990000D01*
X00985000Y02020000D01*
X00950000Y02055000D01*
X00920000Y02055000D01*
X00865000Y02110000D01*
X00830000Y02110000D01*
X00810000Y02055000D02*
X00785000Y02030000D01*
X00810000Y02055000D02*
X00850000Y02055000D01*
X00895000Y02010000D01*
X00930000Y02010000D01*
X00865000Y02010000D02*
X01235000Y01640000D01*
X01250000Y01640000D01*
X01085000Y01605000D02*
X01085000Y01175000D01*
X00957500Y01157500D02*
X00860000Y01060000D01*
X00860000Y01030000D01*
X00610000Y01180000D02*
X00610000Y01250000D01*
X00840000Y01480000D01*
X00880000Y01480000D01*
X00925000Y01525000D01*
X00860000Y01430000D02*
X00860000Y01330000D01*
X00610000Y01180000D02*
X00560000Y01130000D01*
X00560000Y01330000D02*
X00560000Y01430000D01*
X01030000Y01660000D02*
X01030000Y01795000D01*
X01030000Y01660000D02*
X01085000Y01605000D01*
X01250000Y01440000D02*
X01250000Y01340000D01*
X01480000Y01270000D02*
X01480000Y01110000D01*
X01550000Y01040000D01*
X01550000Y01140000D02*
X01500000Y01190000D01*
X01500000Y01580000D01*
X01290000Y01790000D01*
X01265000Y01810000D02*
X01345000Y01810000D01*
X01515000Y01640000D01*
X01550000Y01640000D01*
X01445000Y01760000D02*
X01635000Y01950000D01*
X01565000Y02010000D02*
X01620000Y02065000D01*
X01685000Y02065000D01*
X01730000Y02110000D01*
X01715000Y02090000D01*
X01775000Y02030000D01*
X01775000Y02000000D01*
X01810000Y01965000D01*
X02150000Y01965000D01*
X02195000Y02010000D01*
X02230000Y02010000D01*
X02275000Y01990000D02*
X02060000Y01775000D01*
X02055000Y01775000D01*
X01825000Y01675000D02*
X01825000Y01390000D01*
X01775000Y01340000D02*
X01775000Y01675000D01*
X01550000Y01440000D02*
X01550000Y01340000D01*
X01265000Y01810000D02*
X01085000Y01990000D01*
X01085000Y02020000D01*
X01030000Y02075000D01*
X01030000Y02110000D01*
X00865000Y02010000D02*
X00830000Y02010000D01*
X01230000Y02110000D02*
X01265000Y02110000D01*
X01320000Y02055000D01*
X01485000Y02055000D01*
X01530000Y02010000D01*
X01565000Y02010000D01*
X01830000Y02110000D02*
X01880000Y02060000D01*
X02065000Y02060000D01*
X02230000Y02075000D02*
X02275000Y02030000D01*
X02275000Y01990000D01*
X02230000Y02075000D02*
X02230000Y02110000D01*
X02160000Y01040000D02*
X02490000Y01040000D01*
X02490000Y00940000D02*
X02565000Y00865000D01*
X02565000Y00735000D01*
X02095000Y00735000D01*
X02005000Y00825000D01*
X01975000Y00825000D01*
X01880000Y00730000D01*
X01880000Y00600000D01*
X01880000Y00540000D02*
X01945000Y00605000D01*
X01945000Y00735000D01*
X01990000Y00780000D01*
X01835000Y00715000D02*
X02160000Y01040000D01*
X02280000Y00990000D02*
X02340000Y00990000D01*
X02490000Y00840000D01*
X02390000Y00780000D02*
X02280000Y00890000D01*
X02390000Y00670000D02*
X02390000Y00580000D01*
X02280000Y00470000D01*
X02280000Y00430000D01*
X02370000Y00360000D02*
X02490000Y00480000D01*
X02565000Y00555000D01*
X02565000Y00735000D01*
X02370000Y00360000D02*
X02370000Y00330000D01*
X02290000Y00150000D02*
X02250000Y00150000D01*
X02205000Y00105000D01*
X01775000Y00105000D01*
X01580000Y00300000D01*
X01410000Y00250000D02*
X01365000Y00205000D01*
X01295000Y00205000D01*
X01250000Y00250000D01*
X01200000Y00250000D01*
X01185000Y00295000D02*
X01265000Y00295000D01*
X01310000Y00250000D01*
X01310000Y00255000D01*
X01555000Y00500000D01*
X01580000Y00500000D01*
X01410000Y00650000D02*
X01365000Y00695000D01*
X01300000Y00695000D01*
X01310000Y00650000D02*
X01200000Y00650000D01*
X01185000Y00295000D02*
X01140000Y00250000D01*
X01100000Y00250000D01*
X01835000Y00385000D02*
X01835000Y00715000D01*
X01880000Y00540000D02*
X01880000Y00500000D01*
X01835000Y00385000D02*
X01880000Y00340000D01*
X01880000Y00300000D01*
X01970000Y00330000D02*
X02010000Y00330000D01*
X02190000Y00150000D01*
X00150000Y00670000D02*
X00150000Y00705000D01*
X00075000Y00780000D01*
D18*
X00205849Y00049578D02*
X00203115Y00048000D01*
X02355885Y00048000D01*
X02353151Y00049578D01*
X02332578Y00070151D01*
X02318030Y00095349D01*
X02313707Y00111482D01*
X02308225Y00106000D01*
X02290000Y00106000D01*
X02290000Y00149999D01*
X02289999Y00149999D01*
X02289999Y00106000D01*
X02271775Y00106000D01*
X02246000Y00131775D01*
X02246000Y00149999D01*
X02289999Y00149999D01*
X02289999Y00150000D01*
X02246000Y00150000D01*
X02246000Y00168225D01*
X02271775Y00194000D01*
X02289999Y00194000D01*
X02289999Y00150001D01*
X02290000Y00150001D01*
X02290000Y00194000D01*
X02308225Y00194000D01*
X02319327Y00182898D01*
X02332578Y00205849D01*
X02353151Y00226422D01*
X02378349Y00240969D01*
X02406452Y00248500D01*
X02435548Y00248500D01*
X02463651Y00240969D01*
X02488849Y00226422D01*
X02509422Y00205849D01*
X02523969Y00180651D01*
X02531500Y00152548D01*
X02531500Y00123452D01*
X02523969Y00095349D01*
X02509422Y00070151D01*
X02488849Y00049578D01*
X02486115Y00048000D01*
X02569008Y00048000D01*
X02569008Y00526481D01*
X02555204Y00512678D01*
X02560692Y00507190D01*
X02568000Y00489548D01*
X02568000Y00470452D01*
X02560692Y00452810D01*
X02547190Y00439308D01*
X02529548Y00432000D01*
X02474527Y00432000D01*
X02470527Y00428000D01*
X02488000Y00428000D01*
X02488000Y00382001D01*
X02492000Y00382001D01*
X02492000Y00428000D01*
X02523778Y00428000D01*
X02531240Y00426818D01*
X02538426Y00424483D01*
X02545157Y00421053D01*
X02551270Y00416612D01*
X02556612Y00411270D01*
X02561053Y00405157D01*
X02564483Y00398426D01*
X02566818Y00391240D01*
X02568000Y00383778D01*
X02568000Y00382000D01*
X02492001Y00382000D01*
X02492001Y00378000D01*
X02568000Y00378000D01*
X02568000Y00376222D01*
X02566818Y00368760D01*
X02564483Y00361574D01*
X02561053Y00354843D01*
X02556612Y00348730D01*
X02551270Y00343388D01*
X02545157Y00338947D01*
X02538426Y00335517D01*
X02531240Y00333182D01*
X02523778Y00332000D01*
X02492000Y00332000D01*
X02492000Y00377999D01*
X02488000Y00377999D01*
X02488000Y00332000D01*
X02456222Y00332000D01*
X02448760Y00333182D01*
X02441574Y00335517D01*
X02434843Y00338947D01*
X02428730Y00343388D01*
X02423388Y00348730D01*
X02418947Y00354843D01*
X02415517Y00361574D01*
X02413182Y00368760D01*
X02412923Y00370396D01*
X02402376Y00359849D01*
X02414000Y00348225D01*
X02414000Y00311775D01*
X02388225Y00286000D01*
X02351775Y00286000D01*
X02326000Y00311775D01*
X02326000Y00348225D01*
X02347000Y00369225D01*
X02347000Y00369527D01*
X02424796Y00447322D01*
X02419308Y00452810D01*
X02412000Y00470452D01*
X02412000Y00489548D01*
X02419308Y00507190D01*
X02432810Y00520692D01*
X02450452Y00528000D01*
X02505473Y00528000D01*
X02509473Y00532000D01*
X02450452Y00532000D01*
X02432810Y00539308D01*
X02419308Y00552810D01*
X02412287Y00569760D01*
X02399527Y00557000D01*
X02307376Y00464849D01*
X02324000Y00448225D01*
X02324000Y00411775D01*
X02298225Y00386000D01*
X02261775Y00386000D01*
X02236000Y00411775D01*
X02236000Y00448225D01*
X02257000Y00469225D01*
X02257000Y00479527D01*
X02263473Y00486000D01*
X02261775Y00486000D01*
X02236000Y00511775D01*
X02236000Y00529999D01*
X02279999Y00529999D01*
X02279999Y00530000D01*
X02236000Y00530000D01*
X02236000Y00548225D01*
X02261775Y00574000D01*
X02279999Y00574000D01*
X02279999Y00530001D01*
X02280000Y00530001D01*
X02280000Y00574000D01*
X02298225Y00574000D01*
X02324000Y00548225D01*
X02324000Y00546527D01*
X02367000Y00589527D01*
X02367000Y00630775D01*
X02346000Y00651775D01*
X02346000Y00688225D01*
X02369775Y00712000D01*
X02085473Y00712000D01*
X02034000Y00763473D01*
X02034000Y00761775D01*
X02008225Y00736000D01*
X01978527Y00736000D01*
X01968000Y00725473D01*
X01968000Y00710225D01*
X01971775Y00714000D01*
X02008225Y00714000D01*
X02034000Y00688225D01*
X02034000Y00651775D01*
X02008225Y00626000D01*
X01971775Y00626000D01*
X01968000Y00629775D01*
X01968000Y00595473D01*
X01954527Y00582000D01*
X01907376Y00534849D01*
X01917301Y00524924D01*
X01924000Y00508752D01*
X01924000Y00491248D01*
X01917301Y00475076D01*
X01904924Y00462699D01*
X01888752Y00456000D01*
X01871248Y00456000D01*
X01858000Y00461487D01*
X01858000Y00438512D01*
X01871248Y00444000D01*
X01888752Y00444000D01*
X01904924Y00437301D01*
X01917301Y00424924D01*
X01924000Y00408752D01*
X01924000Y00391248D01*
X01917301Y00375076D01*
X01904924Y00362699D01*
X01894250Y00358277D01*
X01903000Y00349527D01*
X01903000Y00338098D01*
X01904924Y00337301D01*
X01917301Y00324924D01*
X01924000Y00308752D01*
X01924000Y00291248D01*
X01917301Y00275076D01*
X01904924Y00262699D01*
X01888752Y00256000D01*
X01871248Y00256000D01*
X01855076Y00262699D01*
X01842699Y00275076D01*
X01836000Y00291248D01*
X01836000Y00308752D01*
X01842699Y00324924D01*
X01852624Y00334849D01*
X01825473Y00362000D01*
X01812000Y00375473D01*
X01812000Y00724527D01*
X02137000Y01049527D01*
X02150473Y01063000D01*
X02417572Y01063000D01*
X02419308Y01067190D01*
X02432810Y01080692D01*
X02450452Y01088000D01*
X02529548Y01088000D01*
X02547190Y01080692D01*
X02560692Y01067190D01*
X02568000Y01049548D01*
X02568000Y01030452D01*
X02560692Y01012810D01*
X02547190Y00999308D01*
X02529548Y00992000D01*
X02450452Y00992000D01*
X02432810Y00999308D01*
X02419308Y01012810D01*
X02417572Y01017000D01*
X02315225Y01017000D01*
X02324000Y01008225D01*
X02324000Y00990000D01*
X02280001Y00990000D01*
X02280001Y00989999D01*
X02324000Y00989999D01*
X02324000Y00971775D01*
X02298225Y00946000D01*
X02280000Y00946000D01*
X02280000Y00989999D01*
X02279999Y00989999D01*
X02279999Y00946000D01*
X02261775Y00946000D01*
X02236000Y00971775D01*
X02236000Y00989999D01*
X02279999Y00989999D01*
X02279999Y00990000D01*
X02236000Y00990000D01*
X02236000Y01008225D01*
X02244775Y01017000D01*
X02169527Y01017000D01*
X02000527Y00848000D01*
X02014527Y00848000D01*
X02028000Y00834527D01*
X02104527Y00758000D01*
X02349775Y00758000D01*
X02346000Y00761775D01*
X02346000Y00791473D01*
X02291473Y00846000D01*
X02261775Y00846000D01*
X02236000Y00871775D01*
X02236000Y00908225D01*
X02261775Y00934000D01*
X02298225Y00934000D01*
X02324000Y00908225D01*
X02324000Y00878527D01*
X02378527Y00824000D01*
X02408225Y00824000D01*
X02423103Y00809122D01*
X02418947Y00814843D01*
X02415517Y00821574D01*
X02413182Y00828760D01*
X02412000Y00836222D01*
X02412000Y00838000D01*
X02487999Y00838000D01*
X02487999Y00842000D01*
X02412000Y00842000D01*
X02412000Y00843778D01*
X02413182Y00851240D01*
X02415517Y00858426D01*
X02418947Y00865157D01*
X02423388Y00871270D01*
X02428730Y00876612D01*
X02434843Y00881053D01*
X02441574Y00884483D01*
X02448760Y00886818D01*
X02456222Y00888000D01*
X02488000Y00888000D01*
X02488000Y00842001D01*
X02492000Y00842001D01*
X02492000Y00888000D01*
X02509473Y00888000D01*
X02505473Y00892000D01*
X02450452Y00892000D01*
X02432810Y00899308D01*
X02419308Y00912810D01*
X02412000Y00930452D01*
X02412000Y00949548D01*
X02419308Y00967190D01*
X02432810Y00980692D01*
X02450452Y00988000D01*
X02529548Y00988000D01*
X02547190Y00980692D01*
X02560692Y00967190D01*
X02568000Y00949548D01*
X02568000Y00930452D01*
X02560692Y00912810D01*
X02555204Y00907322D01*
X02569008Y00893519D01*
X02569008Y02151606D01*
X02492664Y02151606D01*
X02509422Y02134849D01*
X02523969Y02109651D01*
X02531500Y02081548D01*
X02531500Y02052452D01*
X02523969Y02024349D01*
X02509422Y01999151D01*
X02488849Y01978578D01*
X02470526Y01968000D01*
X02529548Y01968000D01*
X02547190Y01960692D01*
X02560692Y01947190D01*
X02568000Y01929548D01*
X02568000Y01910452D01*
X02560692Y01892810D01*
X02547190Y01879308D01*
X02529548Y01872000D01*
X02450452Y01872000D01*
X02432810Y01879308D01*
X02430118Y01882000D01*
X02274972Y01882000D01*
X02286525Y01877215D01*
X02297215Y01866525D01*
X02300994Y01857400D01*
X02302441Y01858000D01*
X02430118Y01858000D01*
X02432810Y01860692D01*
X02450452Y01868000D01*
X02529548Y01868000D01*
X02547190Y01860692D01*
X02560692Y01847190D01*
X02568000Y01829548D01*
X02568000Y01810452D01*
X02560692Y01792810D01*
X02547190Y01779308D01*
X02529548Y01772000D01*
X02450452Y01772000D01*
X02432810Y01779308D01*
X02430118Y01782000D01*
X02325740Y01782000D01*
X02301740Y01758000D01*
X02430118Y01758000D01*
X02432810Y01760692D01*
X02450452Y01768000D01*
X02529548Y01768000D01*
X02547190Y01760692D01*
X02560692Y01747190D01*
X02568000Y01729548D01*
X02568000Y01710452D01*
X02560692Y01692810D01*
X02547190Y01679308D01*
X02529548Y01672000D01*
X02450452Y01672000D01*
X02432810Y01679308D01*
X02430118Y01682000D01*
X02295740Y01682000D01*
X02271740Y01658000D01*
X02430118Y01658000D01*
X02432810Y01660692D01*
X02450452Y01668000D01*
X02529548Y01668000D01*
X02547190Y01660692D01*
X02560692Y01647190D01*
X02568000Y01629548D01*
X02568000Y01610452D01*
X02560692Y01592810D01*
X02547190Y01579308D01*
X02529548Y01572000D01*
X02450452Y01572000D01*
X02432810Y01579308D01*
X02430118Y01582000D01*
X02265740Y01582000D01*
X02141740Y01458000D01*
X02430118Y01458000D01*
X02432810Y01460692D01*
X02450452Y01468000D01*
X02529548Y01468000D01*
X02547190Y01460692D01*
X02560692Y01447190D01*
X02568000Y01429548D01*
X02568000Y01410452D01*
X02560692Y01392810D01*
X02547190Y01379308D01*
X02529548Y01372000D01*
X02450452Y01372000D01*
X02432810Y01379308D01*
X02430118Y01382000D01*
X01945740Y01382000D01*
X01921740Y01358000D01*
X02430118Y01358000D01*
X02432810Y01360692D01*
X02450452Y01368000D01*
X02529548Y01368000D01*
X02547190Y01360692D01*
X02560692Y01347190D01*
X02568000Y01329548D01*
X02568000Y01310452D01*
X02560692Y01292810D01*
X02547190Y01279308D01*
X02529548Y01272000D01*
X02450452Y01272000D01*
X02432810Y01279308D01*
X02430118Y01282000D01*
X01935740Y01282000D01*
X01911740Y01258000D01*
X02430118Y01258000D01*
X02432810Y01260692D01*
X02450452Y01268000D01*
X02529548Y01268000D01*
X02547190Y01260692D01*
X02560692Y01247190D01*
X02568000Y01229548D01*
X02568000Y01210452D01*
X02560692Y01192810D01*
X02547190Y01179308D01*
X02529548Y01172000D01*
X02450452Y01172000D01*
X02432810Y01179308D01*
X02430118Y01182000D01*
X01905740Y01182000D01*
X01627215Y00903475D01*
X01616525Y00892785D01*
X01602559Y00887000D01*
X01497441Y00887000D01*
X01483475Y00892785D01*
X01393475Y00982785D01*
X01382785Y00993475D01*
X01377000Y01007441D01*
X01377000Y01022559D01*
X01382785Y01036525D01*
X01393475Y01047215D01*
X01397414Y01048846D01*
X01323000Y01123260D01*
X01323000Y01110473D01*
X01305027Y01092500D01*
X01323000Y01074527D01*
X01323000Y00718000D01*
X01374527Y00718000D01*
X01398527Y00694000D01*
X01428225Y00694000D01*
X01454000Y00668225D01*
X01454000Y00631775D01*
X01428225Y00606000D01*
X01391775Y00606000D01*
X01366000Y00631775D01*
X01366000Y00661473D01*
X01355473Y00672000D01*
X01350225Y00672000D01*
X01354000Y00668225D01*
X01354000Y00650000D01*
X01310001Y00650000D01*
X01310001Y00649999D01*
X01354000Y00649999D01*
X01354000Y00631775D01*
X01328225Y00606000D01*
X01310000Y00606000D01*
X01310000Y00649999D01*
X01309999Y00649999D01*
X01309999Y00606000D01*
X01291775Y00606000D01*
X01266000Y00631775D01*
X01266000Y00649999D01*
X01309999Y00649999D01*
X01309999Y00650000D01*
X01266000Y00650000D01*
X01266000Y00668225D01*
X01269775Y00672000D01*
X01240225Y00672000D01*
X01244000Y00668225D01*
X01244000Y00650000D01*
X01200001Y00650000D01*
X01200001Y00649999D01*
X01244000Y00649999D01*
X01244000Y00631775D01*
X01218225Y00606000D01*
X01200000Y00606000D01*
X01200000Y00649999D01*
X01199999Y00649999D01*
X01199999Y00606000D01*
X01181775Y00606000D01*
X01156000Y00631775D01*
X01156000Y00633473D01*
X01149527Y00627000D01*
X01139225Y00627000D01*
X01118225Y00606000D01*
X01081775Y00606000D01*
X01056000Y00631775D01*
X01056000Y00668225D01*
X01081775Y00694000D01*
X01118225Y00694000D01*
X01134849Y00677376D01*
X01162000Y00704527D01*
X01175473Y00718000D01*
X01277000Y00718000D01*
X01277000Y00995982D01*
X01260145Y00989000D01*
X01239855Y00989000D01*
X01221111Y00996764D01*
X01215875Y01002000D01*
X00975740Y01002000D01*
X00917215Y00943475D01*
X00906525Y00932785D01*
X00892559Y00927000D01*
X00613000Y00927000D01*
X00613000Y00837441D01*
X00607215Y00823475D01*
X00368000Y00584260D01*
X00368000Y00209122D01*
X00370425Y00206696D01*
X00377685Y00189170D01*
X00377685Y00110830D01*
X00370425Y00093304D01*
X00357011Y00079890D01*
X00339485Y00072630D01*
X00320515Y00072630D01*
X00302989Y00079890D01*
X00289575Y00093304D01*
X00282315Y00110830D01*
X00282315Y00189170D01*
X00289575Y00206696D01*
X00292000Y00209122D01*
X00292000Y00607559D01*
X00297785Y00621525D01*
X00507414Y00831154D01*
X00503475Y00832785D01*
X00492785Y00843475D01*
X00487000Y00857441D01*
X00487000Y00874473D01*
X00484527Y00872000D01*
X00214824Y00602297D01*
X00220110Y00597011D01*
X00227370Y00579485D01*
X00227370Y00560515D01*
X00220110Y00542989D01*
X00206696Y00529575D01*
X00189170Y00522315D01*
X00110830Y00522315D01*
X00093304Y00529575D01*
X00079890Y00542989D01*
X00072630Y00560515D01*
X00072630Y00579485D01*
X00079890Y00597011D01*
X00093304Y00610425D01*
X00110830Y00617685D01*
X00165158Y00617685D01*
X00169788Y00622315D01*
X00110830Y00622315D01*
X00093304Y00629575D01*
X00079890Y00642989D01*
X00072630Y00660515D01*
X00072630Y00679485D01*
X00079890Y00697011D01*
X00093304Y00710425D01*
X00106558Y00715915D01*
X00065473Y00757000D01*
X00052000Y00770473D01*
X00052000Y00834527D01*
X00085176Y00867703D01*
X00079890Y00872989D01*
X00072630Y00890515D01*
X00072630Y00909485D01*
X00079890Y00927011D01*
X00082676Y00929797D01*
X00052000Y00960473D01*
X00052000Y01054527D01*
X00065473Y01068000D01*
X00085176Y01087703D01*
X00079890Y01092989D01*
X00072630Y01110515D01*
X00072630Y01129485D01*
X00079890Y01147011D01*
X00082676Y01149797D01*
X00052000Y01180473D01*
X00052000Y01274527D01*
X00085176Y01307703D01*
X00079890Y01312989D01*
X00072630Y01330515D01*
X00072630Y01349485D01*
X00079890Y01367011D01*
X00082676Y01369797D01*
X00052000Y01400473D01*
X00052000Y01504527D01*
X00065473Y01518000D01*
X00085176Y01537702D01*
X00079890Y01542989D01*
X00072630Y01560515D01*
X00072630Y01579485D01*
X00079890Y01597011D01*
X00093304Y01610425D01*
X00106558Y01615915D01*
X00065473Y01657000D01*
X00052000Y01670473D01*
X00052000Y01734527D01*
X00085176Y01767702D01*
X00079890Y01772989D01*
X00072630Y01790515D01*
X00072630Y01809485D01*
X00079890Y01827011D01*
X00093304Y01840425D01*
X00110830Y01847685D01*
X00135158Y01847685D01*
X00282000Y01994527D01*
X00282000Y02029882D01*
X00310118Y02058000D01*
X00349882Y02058000D01*
X00378000Y02029882D01*
X00378000Y01990118D01*
X00349882Y01962000D01*
X00314527Y01962000D01*
X00196978Y01844451D01*
X00206696Y01840425D01*
X00220110Y01827011D01*
X00227370Y01809485D01*
X00227370Y01790515D01*
X00220110Y01772989D01*
X00206696Y01759575D01*
X00189170Y01752315D01*
X00134842Y01752315D01*
X00130212Y01747685D01*
X00189170Y01747685D01*
X00206696Y01740425D01*
X00220110Y01727011D01*
X00227370Y01709485D01*
X00227370Y01690515D01*
X00220110Y01672989D01*
X00206696Y01659575D01*
X00189170Y01652315D01*
X00135212Y01652315D01*
X00168000Y01619527D01*
X00168000Y01617685D01*
X00189170Y01617685D01*
X00206696Y01610425D01*
X00220110Y01597011D01*
X00227370Y01579485D01*
X00227370Y01560515D01*
X00220110Y01542989D01*
X00206696Y01529575D01*
X00189170Y01522315D01*
X00134842Y01522315D01*
X00130212Y01517685D01*
X00189170Y01517685D01*
X00206696Y01510425D01*
X00220110Y01497011D01*
X00227370Y01479485D01*
X00227370Y01460515D01*
X00220110Y01442989D01*
X00206696Y01429575D01*
X00189170Y01422315D01*
X00110830Y01422315D01*
X00098000Y01427629D01*
X00098000Y01419527D01*
X00129842Y01387685D01*
X00189170Y01387685D01*
X00206696Y01380425D01*
X00220110Y01367011D01*
X00227370Y01349485D01*
X00227370Y01330515D01*
X00220110Y01312989D01*
X00206696Y01299575D01*
X00189170Y01292315D01*
X00134842Y01292315D01*
X00130212Y01287685D01*
X00189170Y01287685D01*
X00206696Y01280425D01*
X00220110Y01267011D01*
X00227370Y01249485D01*
X00227370Y01230515D01*
X00220110Y01212989D01*
X00206696Y01199575D01*
X00189170Y01192315D01*
X00110830Y01192315D01*
X00101239Y01196288D01*
X00129842Y01167685D01*
X00189170Y01167685D01*
X00206696Y01160425D01*
X00220110Y01147011D01*
X00227370Y01129485D01*
X00227370Y01110515D01*
X00220110Y01092989D01*
X00206696Y01079575D01*
X00189170Y01072315D01*
X00134842Y01072315D01*
X00130212Y01067685D01*
X00189170Y01067685D01*
X00206696Y01060425D01*
X00220110Y01047011D01*
X00227370Y01029485D01*
X00227370Y01010515D01*
X00220110Y00992989D01*
X00206696Y00979575D01*
X00189170Y00972315D01*
X00110830Y00972315D01*
X00101239Y00976288D01*
X00129842Y00947685D01*
X00189170Y00947685D01*
X00206696Y00940425D01*
X00220110Y00927011D01*
X00227249Y00909776D01*
X00407000Y01089527D01*
X00407000Y01102559D01*
X00412785Y01116525D01*
X00423475Y01127215D01*
X00437441Y01133000D01*
X00452559Y01133000D01*
X00457000Y01131160D01*
X00457000Y01472559D01*
X00462785Y01486525D01*
X00509000Y01532740D01*
X00509000Y01540145D01*
X00516764Y01558889D01*
X00531111Y01573236D01*
X00547441Y01580000D01*
X00531111Y01586764D01*
X00516764Y01601111D01*
X00509000Y01619855D01*
X00509000Y01640145D01*
X00516764Y01658889D01*
X00531111Y01673236D01*
X00545028Y01679000D01*
X00519544Y01679000D01*
X00509000Y01689544D01*
X00509000Y01748473D01*
X00462000Y01795473D01*
X00462000Y01974118D01*
X00449882Y01962000D01*
X00410118Y01962000D01*
X00382000Y01990118D01*
X00382000Y02029882D01*
X00410118Y02058000D01*
X00414473Y02058000D01*
X00410473Y02062000D01*
X00410118Y02062000D01*
X00385118Y02087000D01*
X00374882Y02087000D01*
X00349882Y02062000D01*
X00310118Y02062000D01*
X00282000Y02090118D01*
X00282000Y02129882D01*
X00303724Y02151606D01*
X00209664Y02151606D01*
X00226422Y02134849D01*
X00240969Y02109651D01*
X00248500Y02081548D01*
X00248500Y02052452D01*
X00240969Y02024349D01*
X00226422Y01999151D01*
X00205849Y01978578D01*
X00180651Y01964030D01*
X00152548Y01956500D01*
X00123452Y01956500D01*
X00095349Y01964030D01*
X00070151Y01978578D01*
X00049578Y01999151D01*
X00048000Y02001885D01*
X00048000Y00203115D01*
X00049578Y00205849D01*
X00070151Y00226422D01*
X00095349Y00240969D01*
X00123452Y00248500D01*
X00152548Y00248500D01*
X00180651Y00240969D01*
X00205849Y00226422D01*
X00226422Y00205849D01*
X00240969Y00180651D01*
X00248500Y00152548D01*
X00248500Y00123452D01*
X00240969Y00095349D01*
X00226422Y00070151D01*
X00205849Y00049578D01*
X00220265Y00063994D02*
X02338735Y00063994D01*
X02326896Y00079993D02*
X00455628Y00079993D01*
X00454992Y00079531D02*
X00461065Y00083943D01*
X00466372Y00089250D01*
X00470784Y00095322D01*
X00474191Y00102010D01*
X00476511Y00109149D01*
X00477685Y00116562D01*
X00477685Y00148157D01*
X00431843Y00148157D01*
X00431843Y00151843D01*
X00477685Y00151843D01*
X00477685Y00183438D01*
X00476511Y00190851D01*
X00474191Y00197990D01*
X00470784Y00204677D01*
X00466372Y00210750D01*
X00461065Y00216057D01*
X00454992Y00220469D01*
X00448305Y00223876D01*
X00441166Y00226196D01*
X00433753Y00227370D01*
X00431843Y00227370D01*
X00431843Y00151843D01*
X00428157Y00151843D01*
X00428157Y00227370D01*
X00426247Y00227370D01*
X00418834Y00226196D01*
X00411695Y00223876D01*
X00405008Y00220469D01*
X00398935Y00216057D01*
X00393628Y00210750D01*
X00389216Y00204677D01*
X00385809Y00197990D01*
X00383489Y00190851D01*
X00382315Y00183438D01*
X00382315Y00151843D01*
X00428157Y00151843D01*
X00428157Y00148157D01*
X00431843Y00148157D01*
X00431843Y00072630D01*
X00433753Y00072630D01*
X00441166Y00073804D01*
X00448305Y00076124D01*
X00454992Y00079531D01*
X00471125Y00095991D02*
X02317858Y00095991D01*
X02290000Y00111990D02*
X02289999Y00111990D01*
X02289999Y00127988D02*
X02290000Y00127988D01*
X02289999Y00143987D02*
X02290000Y00143987D01*
X02289999Y00159985D02*
X02290000Y00159985D01*
X02289999Y00175984D02*
X02290000Y00175984D01*
X02289999Y00191982D02*
X02290000Y00191982D01*
X02310243Y00191982D02*
X02324572Y00191982D01*
X02334710Y00207981D02*
X02164546Y00207981D01*
X02178527Y00194000D02*
X02019527Y00353000D01*
X02009225Y00353000D01*
X01988225Y00374000D01*
X01951775Y00374000D01*
X01926000Y00348225D01*
X01926000Y00311775D01*
X01951775Y00286000D01*
X01988225Y00286000D01*
X02004849Y00302624D01*
X02146000Y00161473D01*
X02146000Y00131775D01*
X02171775Y00106000D01*
X02208225Y00106000D01*
X02234000Y00131775D01*
X02234000Y00168225D01*
X02208225Y00194000D01*
X02178527Y00194000D01*
X02210243Y00191982D02*
X02269757Y00191982D01*
X02253758Y00175984D02*
X02226241Y00175984D01*
X02234000Y00159985D02*
X02246000Y00159985D01*
X02246000Y00143987D02*
X02234000Y00143987D01*
X02230213Y00127988D02*
X02249786Y00127988D01*
X02265785Y00111990D02*
X02214215Y00111990D01*
X02165785Y00111990D02*
X00476961Y00111990D01*
X00477685Y00127988D02*
X02149786Y00127988D01*
X02146000Y00143987D02*
X00477685Y00143987D01*
X00477685Y00159985D02*
X02146000Y00159985D01*
X02131489Y00175984D02*
X00477685Y00175984D01*
X00476143Y00191982D02*
X01275491Y00191982D01*
X01272000Y00195473D02*
X01285473Y00182000D01*
X01374527Y00182000D01*
X01398527Y00206000D01*
X01428225Y00206000D01*
X01454000Y00231775D01*
X01454000Y00268225D01*
X01428225Y00294000D01*
X01391775Y00294000D01*
X01366000Y00268225D01*
X01366000Y00238527D01*
X01355473Y00228000D01*
X01350225Y00228000D01*
X01354000Y00231775D01*
X01354000Y00266473D01*
X01552651Y00465124D01*
X01555076Y00462699D01*
X01571248Y00456000D01*
X01588752Y00456000D01*
X01604924Y00462699D01*
X01617301Y00475076D01*
X01624000Y00491248D01*
X01624000Y00508752D01*
X01617301Y00524924D01*
X01604924Y00537301D01*
X01588752Y00544000D01*
X01571248Y00544000D01*
X01555076Y00537301D01*
X01542699Y00524924D01*
X01539376Y00516903D01*
X01316473Y00294000D01*
X01298527Y00294000D01*
X01274527Y00318000D01*
X01175473Y00318000D01*
X01162000Y00304527D01*
X01134849Y00277376D01*
X01118225Y00294000D01*
X01081775Y00294000D01*
X01056000Y00268225D01*
X01056000Y00231775D01*
X01081775Y00206000D01*
X01118225Y00206000D01*
X01139225Y00227000D01*
X01149527Y00227000D01*
X01156000Y00233473D01*
X01156000Y00231775D01*
X01181775Y00206000D01*
X01218225Y00206000D01*
X01239225Y00227000D01*
X01240473Y00227000D01*
X01272000Y00195473D01*
X01259492Y00207981D02*
X01220206Y00207981D01*
X01236205Y00223979D02*
X01243494Y00223979D01*
X01179794Y00207981D02*
X01120206Y00207981D01*
X01136204Y00223979D02*
X01163795Y00223979D01*
X01145447Y00287973D02*
X01124252Y00287973D01*
X01161445Y00303972D02*
X00368000Y00303972D01*
X00368000Y00287973D02*
X01075748Y00287973D01*
X01059750Y00271975D02*
X00368000Y00271975D01*
X00368000Y00255976D02*
X01056000Y00255976D01*
X01056000Y00239978D02*
X00368000Y00239978D01*
X00368000Y00223979D02*
X00412012Y00223979D01*
X00428157Y00223979D02*
X00431843Y00223979D01*
X00431843Y00207981D02*
X00428157Y00207981D01*
X00428157Y00191982D02*
X00431843Y00191982D01*
X00431843Y00175984D02*
X00428157Y00175984D01*
X00428157Y00159985D02*
X00431843Y00159985D01*
X00428157Y00148157D02*
X00382315Y00148157D01*
X00382315Y00116562D01*
X00383489Y00109149D01*
X00385809Y00102010D01*
X00389216Y00095322D01*
X00393628Y00089250D01*
X00398935Y00083943D01*
X00405008Y00079531D01*
X00411695Y00076124D01*
X00418834Y00073804D01*
X00426247Y00072630D01*
X00428157Y00072630D01*
X00428157Y00148157D01*
X00428157Y00143987D02*
X00431843Y00143987D01*
X00431843Y00127988D02*
X00428157Y00127988D01*
X00428157Y00111990D02*
X00431843Y00111990D01*
X00431843Y00095991D02*
X00428157Y00095991D01*
X00428157Y00079993D02*
X00431843Y00079993D01*
X00404372Y00079993D02*
X00357114Y00079993D01*
X00371539Y00095991D02*
X00388875Y00095991D01*
X00383039Y00111990D02*
X00377685Y00111990D01*
X00377685Y00127988D02*
X00382315Y00127988D01*
X00382315Y00143987D02*
X00377685Y00143987D01*
X00377685Y00159985D02*
X00382315Y00159985D01*
X00382315Y00175984D02*
X00377685Y00175984D01*
X00376520Y00191982D02*
X00383857Y00191982D01*
X00391616Y00207981D02*
X00369141Y00207981D01*
X00290859Y00207981D02*
X00224290Y00207981D01*
X00234428Y00191982D02*
X00283480Y00191982D01*
X00282315Y00175984D02*
X00242220Y00175984D01*
X00246507Y00159985D02*
X00282315Y00159985D01*
X00282315Y00143987D02*
X00248500Y00143987D01*
X00248500Y00127988D02*
X00282315Y00127988D01*
X00282315Y00111990D02*
X00245428Y00111990D01*
X00241142Y00095991D02*
X00288461Y00095991D01*
X00302885Y00079993D02*
X00232104Y00079993D01*
X00208291Y00223979D02*
X00292000Y00223979D01*
X00292000Y00239978D02*
X00182369Y00239978D01*
X00093631Y00239978D02*
X00048000Y00239978D01*
X00048000Y00255976D02*
X00292000Y00255976D01*
X00292000Y00271975D02*
X00048000Y00271975D01*
X00048000Y00287973D02*
X00292000Y00287973D01*
X00292000Y00303972D02*
X00048000Y00303972D01*
X00048000Y00319970D02*
X00292000Y00319970D01*
X00292000Y00335969D02*
X00048000Y00335969D01*
X00048000Y00351968D02*
X00292000Y00351968D01*
X00292000Y00367966D02*
X00048000Y00367966D01*
X00048000Y00383965D02*
X00292000Y00383965D01*
X00292000Y00399963D02*
X00048000Y00399963D01*
X00048000Y00415962D02*
X00292000Y00415962D01*
X00292000Y00431960D02*
X00048000Y00431960D01*
X00048000Y00447959D02*
X00292000Y00447959D01*
X00292000Y00463957D02*
X00048000Y00463957D01*
X00048000Y00479956D02*
X00292000Y00479956D01*
X00292000Y00495954D02*
X00048000Y00495954D01*
X00048000Y00511953D02*
X00292000Y00511953D01*
X00292000Y00527951D02*
X00202777Y00527951D01*
X00220508Y00543950D02*
X00292000Y00543950D01*
X00292000Y00559948D02*
X00227135Y00559948D01*
X00227370Y00575947D02*
X00292000Y00575947D01*
X00292000Y00591945D02*
X00222209Y00591945D01*
X00220471Y00607944D02*
X00292160Y00607944D01*
X00300202Y00623942D02*
X00236469Y00623942D01*
X00252468Y00639941D02*
X00316201Y00639941D01*
X00332199Y00655939D02*
X00268466Y00655939D01*
X00284465Y00671938D02*
X00348198Y00671938D01*
X00364196Y00687937D02*
X00300463Y00687937D01*
X00316462Y00703935D02*
X00380195Y00703935D01*
X00396194Y00719934D02*
X00332460Y00719934D01*
X00348459Y00735932D02*
X00412192Y00735932D01*
X00428191Y00751931D02*
X00364457Y00751931D01*
X00380456Y00767929D02*
X00444189Y00767929D01*
X00460188Y00783928D02*
X00396454Y00783928D01*
X00412453Y00799926D02*
X00476186Y00799926D01*
X00492185Y00815925D02*
X00428451Y00815925D01*
X00444450Y00831923D02*
X00505556Y00831923D01*
X00490943Y00847922D02*
X00460448Y00847922D01*
X00476447Y00863920D02*
X00487000Y00863920D01*
X00567668Y00783928D02*
X01277000Y00783928D01*
X01277000Y00799926D02*
X00583666Y00799926D01*
X00599665Y00815925D02*
X01277000Y00815925D01*
X01277000Y00831923D02*
X00610714Y00831923D01*
X00613000Y00847922D02*
X01277000Y00847922D01*
X01277000Y00863920D02*
X00613000Y00863920D01*
X00613000Y00879919D02*
X01277000Y00879919D01*
X01277000Y00895917D02*
X00613000Y00895917D01*
X00613000Y00911916D02*
X01277000Y00911916D01*
X01277000Y00927914D02*
X00894766Y00927914D01*
X00917653Y00943913D02*
X01277000Y00943913D01*
X01277000Y00959911D02*
X00933651Y00959911D01*
X00949650Y00975910D02*
X01277000Y00975910D01*
X01277000Y00991908D02*
X01267166Y00991908D01*
X01232834Y00991908D02*
X00965648Y00991908D01*
X00847441Y01080000D02*
X00831111Y01073236D01*
X00816764Y01058889D01*
X00809000Y01040145D01*
X00809000Y01019855D01*
X00815982Y01003000D01*
X00613000Y01003000D01*
X00613000Y01007441D01*
X00613000Y01022559D01*
X00611000Y01027387D01*
X00611000Y01040145D01*
X00603236Y01058889D01*
X00588889Y01073236D01*
X00572558Y01080000D01*
X00588889Y01086764D01*
X00603236Y01101111D01*
X00611000Y01119855D01*
X00611000Y01140145D01*
X00608560Y01146034D01*
X00633000Y01170473D01*
X00633000Y01240473D01*
X00810336Y01417810D01*
X00812736Y01410423D01*
X00816381Y01403270D01*
X00821099Y01396776D01*
X00826776Y01391099D01*
X00833270Y01386381D01*
X00840423Y01382736D01*
X00848057Y01380256D01*
X00849673Y01380000D01*
X00848057Y01379744D01*
X00840423Y01377263D01*
X00833270Y01373619D01*
X00826776Y01368900D01*
X00821099Y01363224D01*
X00816381Y01356730D01*
X00812736Y01349577D01*
X00810256Y01341943D01*
X00809000Y01334014D01*
X00809000Y01333000D01*
X00856999Y01333000D01*
X00856999Y01327000D01*
X00809000Y01327000D01*
X00809000Y01325986D01*
X00810256Y01318057D01*
X00812736Y01310423D01*
X00816381Y01303270D01*
X00821099Y01296776D01*
X00826776Y01291099D01*
X00833270Y01286381D01*
X00840423Y01282736D01*
X00848057Y01280256D01*
X00848059Y01280256D01*
X00831111Y01273236D01*
X00816764Y01258889D01*
X00809000Y01240145D01*
X00809000Y01219855D01*
X00816764Y01201111D01*
X00831111Y01186764D01*
X00847441Y01180000D01*
X00831111Y01173236D01*
X00816764Y01158889D01*
X00809000Y01140145D01*
X00809000Y01119855D01*
X00816764Y01101111D01*
X00831111Y01086764D01*
X00847441Y01080000D01*
X00829975Y01087900D02*
X00590024Y01087900D01*
X00590224Y01071901D02*
X00829776Y01071901D01*
X00815527Y01055903D02*
X00604473Y01055903D01*
X00611000Y01039904D02*
X00809000Y01039904D01*
X00809000Y01023906D02*
X00612442Y01023906D01*
X00613000Y01007907D02*
X00813949Y01007907D01*
X00815610Y01103898D02*
X00604390Y01103898D01*
X00611000Y01119897D02*
X00809000Y01119897D01*
X00809000Y01135895D02*
X00611000Y01135895D01*
X00614420Y01151894D02*
X00813867Y01151894D01*
X00825767Y01167892D02*
X00630419Y01167892D01*
X00633000Y01183891D02*
X00838048Y01183891D01*
X00817986Y01199889D02*
X00633000Y01199889D01*
X00633000Y01215888D02*
X00810643Y01215888D01*
X00809000Y01231886D02*
X00633000Y01231886D01*
X00640412Y01247885D02*
X00812206Y01247885D01*
X00821758Y01263883D02*
X00656410Y01263883D01*
X00672409Y01279882D02*
X00847156Y01279882D01*
X00871941Y01280256D02*
X00871943Y01280256D01*
X00879577Y01282736D01*
X00886730Y01286381D01*
X00893224Y01291099D01*
X00898900Y01296776D01*
X00903619Y01303270D01*
X00907263Y01310423D01*
X00909744Y01318057D01*
X00911000Y01325986D01*
X00911000Y01327000D01*
X00863001Y01327000D01*
X00863001Y01333000D01*
X00911000Y01333000D01*
X00911000Y01334014D01*
X00909744Y01341943D01*
X00907263Y01349577D01*
X00903619Y01356730D01*
X00898900Y01363224D01*
X00893224Y01368900D01*
X00886730Y01373619D01*
X00879577Y01377263D01*
X00871943Y01379744D01*
X00870327Y01380000D01*
X00871943Y01380256D01*
X00879577Y01382736D01*
X00886730Y01386381D01*
X00893224Y01391099D01*
X00898900Y01396776D01*
X00903619Y01403270D01*
X00907263Y01410423D01*
X00909744Y01418057D01*
X00911000Y01425986D01*
X00911000Y01427000D01*
X00863001Y01427000D01*
X00863001Y01433000D01*
X00911000Y01433000D01*
X00911000Y01434014D01*
X00909744Y01441943D01*
X00907263Y01449577D01*
X00903619Y01456730D01*
X00898900Y01463224D01*
X00897326Y01464799D01*
X00903000Y01470473D01*
X00919527Y01487000D01*
X00932559Y01487000D01*
X00937000Y01488840D01*
X00937000Y01169527D01*
X00934500Y01167027D01*
X00934500Y01167027D01*
X00910009Y01142536D01*
X00903236Y01158889D01*
X00888889Y01173236D01*
X00872558Y01180000D01*
X00888889Y01186764D01*
X00903236Y01201111D01*
X00911000Y01219855D01*
X00911000Y01240145D01*
X00903236Y01258889D01*
X00888889Y01273236D01*
X00871941Y01280256D01*
X00872844Y01279882D02*
X00937000Y01279882D01*
X00937000Y01295880D02*
X00898005Y01295880D01*
X00907736Y01311879D02*
X00937000Y01311879D01*
X00937000Y01327877D02*
X00863001Y01327877D01*
X00863000Y01333001D02*
X00857000Y01333001D01*
X00857000Y01426999D01*
X00863000Y01426999D01*
X00863000Y01379000D01*
X00863000Y01333001D01*
X00856999Y01327877D02*
X00720404Y01327877D01*
X00704406Y01311879D02*
X00812263Y01311879D01*
X00821995Y01295880D02*
X00688407Y01295880D01*
X00655351Y01327877D02*
X00563001Y01327877D01*
X00563001Y01327000D02*
X00563001Y01333000D01*
X00611000Y01333000D01*
X00611000Y01334014D01*
X00609744Y01341943D01*
X00607263Y01349577D01*
X00603619Y01356730D01*
X00598900Y01363224D01*
X00593224Y01368900D01*
X00586730Y01373619D01*
X00579577Y01377263D01*
X00571943Y01379744D01*
X00570327Y01380000D01*
X00571943Y01380256D01*
X00579577Y01382736D01*
X00586730Y01386381D01*
X00593224Y01391099D01*
X00598900Y01396776D01*
X00603619Y01403270D01*
X00607263Y01410423D01*
X00609744Y01418057D01*
X00611000Y01425986D01*
X00611000Y01427000D01*
X00563001Y01427000D01*
X00563001Y01433000D01*
X00611000Y01433000D01*
X00611000Y01434014D01*
X00609744Y01441943D01*
X00607263Y01449577D01*
X00603619Y01456730D01*
X00598900Y01463224D01*
X00593224Y01468900D01*
X00586730Y01473619D01*
X00579577Y01477263D01*
X00571943Y01479744D01*
X00571941Y01479744D01*
X00588889Y01486764D01*
X00603236Y01501111D01*
X00611000Y01519855D01*
X00611000Y01540145D01*
X00603236Y01558889D01*
X00588889Y01573236D01*
X00572558Y01580000D01*
X00588889Y01586764D01*
X00603236Y01601111D01*
X00611000Y01619855D01*
X00611000Y01640145D01*
X00603236Y01658889D01*
X00588889Y01673236D01*
X00574972Y01679000D01*
X00600456Y01679000D01*
X00611000Y01689544D01*
X00611000Y01707000D01*
X00814325Y01707000D01*
X00816764Y01701111D01*
X00831111Y01686764D01*
X00847441Y01680000D01*
X00831111Y01673236D01*
X00816764Y01658889D01*
X00809000Y01640145D01*
X00809000Y01619855D01*
X00816764Y01601111D01*
X00831111Y01586764D01*
X00847441Y01580000D01*
X00831111Y01573236D01*
X00816764Y01558889D01*
X00809000Y01540145D01*
X00809000Y01519855D01*
X00816764Y01501111D01*
X00822674Y01495201D01*
X00600473Y01273000D01*
X00594799Y01267326D01*
X00588889Y01273236D01*
X00571941Y01280256D01*
X00571943Y01280256D01*
X00579577Y01282736D01*
X00586730Y01286381D01*
X00593224Y01291099D01*
X00598900Y01296776D01*
X00603619Y01303270D01*
X00607263Y01310423D01*
X00609744Y01318057D01*
X00611000Y01325986D01*
X00611000Y01327000D01*
X00563001Y01327000D01*
X00563000Y01333001D02*
X00557000Y01333001D01*
X00557000Y01381000D01*
X00557000Y01426999D01*
X00563000Y01426999D01*
X00563000Y01333001D01*
X00563000Y01343876D02*
X00557000Y01343876D01*
X00557000Y01359875D02*
X00563000Y01359875D01*
X00563000Y01375873D02*
X00557000Y01375873D01*
X00557000Y01391872D02*
X00563000Y01391872D01*
X00563000Y01407870D02*
X00557000Y01407870D01*
X00557000Y01423869D02*
X00563000Y01423869D01*
X00593996Y01391872D02*
X00719345Y01391872D01*
X00735343Y01407870D02*
X00605963Y01407870D01*
X00610664Y01423869D02*
X00751342Y01423869D01*
X00767340Y01439867D02*
X00610073Y01439867D01*
X00604059Y01455866D02*
X00783339Y01455866D01*
X00799337Y01471864D02*
X00589145Y01471864D01*
X00589988Y01487863D02*
X00815336Y01487863D01*
X00815625Y01503861D02*
X00604375Y01503861D01*
X00611000Y01519860D02*
X00809000Y01519860D01*
X00809000Y01535858D02*
X00611000Y01535858D01*
X00606149Y01551857D02*
X00813851Y01551857D01*
X00825730Y01567855D02*
X00594269Y01567855D01*
X00581863Y01583854D02*
X00838137Y01583854D01*
X00818023Y01599852D02*
X00601977Y01599852D01*
X00609341Y01615851D02*
X00810659Y01615851D01*
X00809000Y01631849D02*
X00611000Y01631849D01*
X00607809Y01647848D02*
X00812191Y01647848D01*
X00821722Y01663846D02*
X00598278Y01663846D01*
X00601301Y01679845D02*
X00847067Y01679845D01*
X00822031Y01695844D02*
X00611000Y01695844D01*
X00611000Y01753000D02*
X00611000Y01770456D01*
X00600456Y01781000D01*
X00541527Y01781000D01*
X00508000Y01814527D01*
X00508000Y01964118D01*
X00510118Y01962000D01*
X00549882Y01962000D01*
X00578000Y01990118D01*
X00578000Y02029882D01*
X00549882Y02058000D01*
X00510118Y02058000D01*
X00494822Y02042704D01*
X00494527Y02043000D01*
X00462704Y02074822D01*
X00478000Y02090118D01*
X00478000Y02129882D01*
X00456276Y02151606D01*
X00503724Y02151606D01*
X00482000Y02129882D01*
X00482000Y02112000D01*
X00527999Y02112000D01*
X00527999Y02108000D01*
X00482000Y02108000D01*
X00482000Y02090118D01*
X00510118Y02062000D01*
X00528000Y02062000D01*
X00528000Y02107999D01*
X00532000Y02107999D01*
X00532000Y02062000D01*
X00549882Y02062000D01*
X00578000Y02090118D01*
X00578000Y02108000D01*
X00532001Y02108000D01*
X00532001Y02112000D01*
X00578000Y02112000D01*
X00578000Y02129882D01*
X00556276Y02151606D01*
X00603724Y02151606D01*
X00582000Y02129882D01*
X00582000Y02090118D01*
X00610118Y02062000D01*
X00649882Y02062000D01*
X00678000Y02090118D01*
X00678000Y02129882D01*
X00656276Y02151606D01*
X00703724Y02151606D01*
X00682000Y02129882D01*
X00682000Y02090118D01*
X00710118Y02062000D01*
X00749882Y02062000D01*
X00778000Y02090118D01*
X00778000Y02129882D01*
X00756276Y02151606D01*
X00803724Y02151606D01*
X00782000Y02129882D01*
X00782000Y02090118D01*
X00797296Y02074822D01*
X00775473Y02053000D01*
X00765178Y02042704D01*
X00749882Y02058000D01*
X00732000Y02058000D01*
X00732000Y02012001D01*
X00728000Y02012001D01*
X00728000Y02058000D01*
X00710118Y02058000D01*
X00682000Y02029882D01*
X00682000Y02012000D01*
X00727999Y02012000D01*
X00727999Y02008000D01*
X00682000Y02008000D01*
X00682000Y01990118D01*
X00710118Y01962000D01*
X00728000Y01962000D01*
X00728000Y02007999D01*
X00732000Y02007999D01*
X00732000Y01962000D01*
X00749882Y01962000D01*
X00762000Y01974118D01*
X00762000Y01865473D01*
X00847464Y01780009D01*
X00831111Y01773236D01*
X00816764Y01758889D01*
X00814325Y01753000D01*
X00611000Y01753000D01*
X00611000Y01759838D02*
X00817713Y01759838D01*
X00837389Y01775836D02*
X00605620Y01775836D01*
X00530692Y01791835D02*
X00835638Y01791835D01*
X00819640Y01807833D02*
X00514694Y01807833D01*
X00508000Y01823832D02*
X00803641Y01823832D01*
X00787643Y01839830D02*
X00508000Y01839830D01*
X00508000Y01855829D02*
X00771644Y01855829D01*
X00762000Y01871827D02*
X00508000Y01871827D01*
X00508000Y01887826D02*
X00762000Y01887826D01*
X00762000Y01903824D02*
X00508000Y01903824D01*
X00508000Y01919823D02*
X00762000Y01919823D01*
X00762000Y01935821D02*
X00508000Y01935821D01*
X00508000Y01951820D02*
X00762000Y01951820D01*
X00762000Y01967818D02*
X00755700Y01967818D01*
X00732000Y01967818D02*
X00728000Y01967818D01*
X00728000Y01983817D02*
X00732000Y01983817D01*
X00732000Y01999815D02*
X00728000Y01999815D01*
X00728000Y02015814D02*
X00732000Y02015814D01*
X00732000Y02031813D02*
X00728000Y02031813D01*
X00728000Y02047811D02*
X00732000Y02047811D01*
X00751692Y02063810D02*
X00786283Y02063810D01*
X00792310Y02079808D02*
X00767690Y02079808D01*
X00778000Y02095807D02*
X00782000Y02095807D01*
X00782000Y02111805D02*
X00778000Y02111805D01*
X00778000Y02127804D02*
X00782000Y02127804D01*
X00795920Y02143802D02*
X00764080Y02143802D01*
X00695920Y02143802D02*
X00664080Y02143802D01*
X00678000Y02127804D02*
X00682000Y02127804D01*
X00682000Y02111805D02*
X00678000Y02111805D01*
X00678000Y02095807D02*
X00682000Y02095807D01*
X00692310Y02079808D02*
X00667690Y02079808D01*
X00651692Y02063810D02*
X00708308Y02063810D01*
X00699929Y02047811D02*
X00660071Y02047811D01*
X00649882Y02058000D02*
X00610118Y02058000D01*
X00582000Y02029882D01*
X00582000Y01990118D01*
X00610118Y01962000D01*
X00649882Y01962000D01*
X00678000Y01990118D01*
X00678000Y02029882D01*
X00649882Y02058000D01*
X00676070Y02031813D02*
X00683930Y02031813D01*
X00682000Y02015814D02*
X00678000Y02015814D01*
X00678000Y01999815D02*
X00682000Y01999815D01*
X00688301Y01983817D02*
X00671699Y01983817D01*
X00655701Y01967818D02*
X00704299Y01967818D01*
X00760071Y02047811D02*
X00770284Y02047811D01*
X00608308Y02063810D02*
X00551692Y02063810D01*
X00560071Y02047811D02*
X00599929Y02047811D01*
X00583930Y02031813D02*
X00576070Y02031813D01*
X00578000Y02015814D02*
X00582000Y02015814D01*
X00582000Y01999815D02*
X00578000Y01999815D01*
X00571699Y01983817D02*
X00588301Y01983817D01*
X00604299Y01967818D02*
X00555701Y01967818D01*
X00462000Y01967818D02*
X00455700Y01967818D01*
X00462000Y01951820D02*
X00304347Y01951820D01*
X00288348Y01935821D02*
X00462000Y01935821D01*
X00462000Y01919823D02*
X00272350Y01919823D01*
X00256351Y01903824D02*
X00462000Y01903824D01*
X00462000Y01887826D02*
X00240352Y01887826D01*
X00224354Y01871827D02*
X00462000Y01871827D01*
X00462000Y01855829D02*
X00208355Y01855829D01*
X00207291Y01839830D02*
X00462000Y01839830D01*
X00462000Y01823832D02*
X00221427Y01823832D01*
X00227370Y01807833D02*
X00462000Y01807833D01*
X00465638Y01791835D02*
X00227370Y01791835D01*
X00221290Y01775836D02*
X00481637Y01775836D01*
X00497635Y01759838D02*
X00206959Y01759838D01*
X00198455Y01743839D02*
X00509000Y01743839D01*
X00509000Y01727841D02*
X00219281Y01727841D01*
X00226394Y01711842D02*
X00509000Y01711842D01*
X00509000Y01695844D02*
X00227370Y01695844D01*
X00222950Y01679845D02*
X00518699Y01679845D01*
X00521722Y01663846D02*
X00210968Y01663846D01*
X00193598Y01615851D02*
X00510659Y01615851D01*
X00509000Y01631849D02*
X00155677Y01631849D01*
X00139679Y01647848D02*
X00512191Y01647848D01*
X00518023Y01599852D02*
X00217269Y01599852D01*
X00225560Y01583854D02*
X00538137Y01583854D01*
X00525730Y01567855D02*
X00227370Y01567855D01*
X00223784Y01551857D02*
X00513851Y01551857D01*
X00509000Y01535858D02*
X00212980Y01535858D01*
X00213260Y01503861D02*
X00480121Y01503861D01*
X00464123Y01487863D02*
X00223900Y01487863D01*
X00227370Y01471864D02*
X00457000Y01471864D01*
X00457000Y01455866D02*
X00225444Y01455866D01*
X00216989Y01439867D02*
X00457000Y01439867D01*
X00457000Y01423869D02*
X00192921Y01423869D01*
X00211249Y01375873D02*
X00457000Y01375873D01*
X00457000Y01359875D02*
X00223067Y01359875D01*
X00227370Y01343876D02*
X00457000Y01343876D01*
X00457000Y01327877D02*
X00226277Y01327877D01*
X00219001Y01311879D02*
X00457000Y01311879D01*
X00457000Y01295880D02*
X00197778Y01295880D01*
X00207240Y01279882D02*
X00457000Y01279882D01*
X00457000Y01263883D02*
X00221406Y01263883D01*
X00227370Y01247885D02*
X00457000Y01247885D01*
X00457000Y01231886D02*
X00227370Y01231886D01*
X00221311Y01215888D02*
X00457000Y01215888D01*
X00457000Y01199889D02*
X00207011Y01199889D01*
X00215228Y01151894D02*
X00457000Y01151894D01*
X00457000Y01167892D02*
X00129634Y01167892D01*
X00113636Y01183891D02*
X00457000Y01183891D01*
X00457000Y01135895D02*
X00224715Y01135895D01*
X00227370Y01119897D02*
X00416157Y01119897D01*
X00407555Y01103898D02*
X00224629Y01103898D01*
X00215021Y01087900D02*
X00405373Y01087900D01*
X00389374Y01071901D02*
X00134428Y01071901D01*
X00084978Y01087900D02*
X00048000Y01087900D01*
X00048000Y01103898D02*
X00075371Y01103898D01*
X00072630Y01119897D02*
X00048000Y01119897D01*
X00048000Y01135895D02*
X00075285Y01135895D01*
X00080579Y01151894D02*
X00048000Y01151894D01*
X00048000Y01167892D02*
X00064581Y01167892D01*
X00052000Y01183891D02*
X00048000Y01183891D01*
X00048000Y01199889D02*
X00052000Y01199889D01*
X00052000Y01215888D02*
X00048000Y01215888D01*
X00048000Y01231886D02*
X00052000Y01231886D01*
X00052000Y01247885D02*
X00048000Y01247885D01*
X00048000Y01263883D02*
X00052000Y01263883D01*
X00048000Y01279882D02*
X00057355Y01279882D01*
X00048000Y01295880D02*
X00073354Y01295880D01*
X00080999Y01311879D02*
X00048000Y01311879D01*
X00048000Y01327877D02*
X00073722Y01327877D01*
X00072630Y01343876D02*
X00048000Y01343876D01*
X00048000Y01359875D02*
X00076933Y01359875D01*
X00076600Y01375873D02*
X00048000Y01375873D01*
X00048000Y01391872D02*
X00060602Y01391872D01*
X00052000Y01407870D02*
X00048000Y01407870D01*
X00048000Y01423869D02*
X00052000Y01423869D01*
X00052000Y01439867D02*
X00048000Y01439867D01*
X00048000Y01455866D02*
X00052000Y01455866D01*
X00052000Y01471864D02*
X00048000Y01471864D01*
X00048000Y01487863D02*
X00052000Y01487863D01*
X00052000Y01503861D02*
X00048000Y01503861D01*
X00048000Y01519860D02*
X00067333Y01519860D01*
X00083332Y01535858D02*
X00048000Y01535858D01*
X00048000Y01551857D02*
X00076216Y01551857D01*
X00072630Y01567855D02*
X00048000Y01567855D01*
X00048000Y01583854D02*
X00074440Y01583854D01*
X00082731Y01599852D02*
X00048000Y01599852D01*
X00048000Y01615851D02*
X00106402Y01615851D01*
X00090624Y01631849D02*
X00048000Y01631849D01*
X00048000Y01647848D02*
X00074625Y01647848D01*
X00058627Y01663846D02*
X00048000Y01663846D01*
X00048000Y01679845D02*
X00052000Y01679845D01*
X00052000Y01695844D02*
X00048000Y01695844D01*
X00048000Y01711842D02*
X00052000Y01711842D01*
X00052000Y01727841D02*
X00048000Y01727841D01*
X00048000Y01743839D02*
X00061312Y01743839D01*
X00048000Y01759838D02*
X00077311Y01759838D01*
X00078710Y01775836D02*
X00048000Y01775836D01*
X00048000Y01791835D02*
X00072630Y01791835D01*
X00072630Y01807833D02*
X00048000Y01807833D01*
X00048000Y01823832D02*
X00078573Y01823832D01*
X00092708Y01839830D02*
X00048000Y01839830D01*
X00048000Y01855829D02*
X00143302Y01855829D01*
X00159301Y01871827D02*
X00048000Y01871827D01*
X00048000Y01887826D02*
X00175299Y01887826D01*
X00191298Y01903824D02*
X00048000Y01903824D01*
X00048000Y01919823D02*
X00207296Y01919823D01*
X00223295Y01935821D02*
X00048000Y01935821D01*
X00048000Y01951820D02*
X00239293Y01951820D01*
X00255292Y01967818D02*
X00187212Y01967818D01*
X00211087Y01983817D02*
X00271290Y01983817D01*
X00282000Y01999815D02*
X00226805Y01999815D01*
X00236042Y02015814D02*
X00282000Y02015814D01*
X00283930Y02031813D02*
X00242969Y02031813D01*
X00247256Y02047811D02*
X00299929Y02047811D01*
X00308308Y02063810D02*
X00248500Y02063810D01*
X00248500Y02079808D02*
X00292310Y02079808D01*
X00282000Y02095807D02*
X00244679Y02095807D01*
X00239726Y02111805D02*
X00282000Y02111805D01*
X00282000Y02127804D02*
X00230489Y02127804D01*
X00217468Y02143802D02*
X00295920Y02143802D01*
X00367690Y02079808D02*
X00392310Y02079808D01*
X00408308Y02063810D02*
X00351692Y02063810D01*
X00360071Y02047811D02*
X00399929Y02047811D01*
X00383930Y02031813D02*
X00376070Y02031813D01*
X00378000Y02015814D02*
X00382000Y02015814D01*
X00382000Y01999815D02*
X00378000Y01999815D01*
X00371699Y01983817D02*
X00388301Y01983817D01*
X00404299Y01967818D02*
X00355701Y01967818D01*
X00473717Y02063810D02*
X00508308Y02063810D01*
X00499929Y02047811D02*
X00489716Y02047811D01*
X00528000Y02063810D02*
X00532000Y02063810D01*
X00532000Y02079808D02*
X00528000Y02079808D01*
X00528000Y02095807D02*
X00532000Y02095807D01*
X00532001Y02111805D02*
X00582000Y02111805D01*
X00582000Y02095807D02*
X00578000Y02095807D01*
X00567690Y02079808D02*
X00592310Y02079808D01*
X00582000Y02127804D02*
X00578000Y02127804D01*
X00564080Y02143802D02*
X00595920Y02143802D01*
X00527999Y02111805D02*
X00478000Y02111805D01*
X00478000Y02095807D02*
X00482000Y02095807D01*
X00492310Y02079808D02*
X00467690Y02079808D01*
X00478000Y02127804D02*
X00482000Y02127804D01*
X00495920Y02143802D02*
X00464080Y02143802D01*
X00088787Y01967818D02*
X00048000Y01967818D01*
X00048000Y01983817D02*
X00064912Y01983817D01*
X00049195Y01999815D02*
X00048000Y01999815D01*
X00132386Y01519860D02*
X00496120Y01519860D01*
X00457000Y01407870D02*
X00109657Y01407870D01*
X00107079Y01423869D02*
X00098000Y01423869D01*
X00125655Y01391872D02*
X00457000Y01391872D01*
X00582306Y01375873D02*
X00703346Y01375873D01*
X00687348Y01359875D02*
X00601334Y01359875D01*
X00609116Y01343876D02*
X00671349Y01343876D01*
X00639352Y01311879D02*
X00607736Y01311879D01*
X00598005Y01295880D02*
X00623354Y01295880D01*
X00607355Y01279882D02*
X00572844Y01279882D01*
X00736403Y01343876D02*
X00810884Y01343876D01*
X00818666Y01359875D02*
X00752401Y01359875D01*
X00768400Y01375873D02*
X00837694Y01375873D01*
X00857000Y01375873D02*
X00863000Y01375873D01*
X00863000Y01359875D02*
X00857000Y01359875D01*
X00857000Y01343876D02*
X00863000Y01343876D01*
X00882306Y01375873D02*
X00937000Y01375873D01*
X00937000Y01359875D02*
X00901334Y01359875D01*
X00909116Y01343876D02*
X00937000Y01343876D01*
X00937000Y01391872D02*
X00893996Y01391872D01*
X00905963Y01407870D02*
X00937000Y01407870D01*
X00937000Y01423869D02*
X00910664Y01423869D01*
X00910073Y01439867D02*
X00937000Y01439867D01*
X00937000Y01455866D02*
X00904059Y01455866D01*
X00904391Y01471864D02*
X00937000Y01471864D01*
X00937000Y01487863D02*
X00934641Y01487863D01*
X00863000Y01423869D02*
X00857000Y01423869D01*
X00857000Y01407870D02*
X00863000Y01407870D01*
X00863000Y01391872D02*
X00857000Y01391872D01*
X00826004Y01391872D02*
X00784398Y01391872D01*
X00800397Y01407870D02*
X00814037Y01407870D01*
X00898241Y01263883D02*
X00937000Y01263883D01*
X00937000Y01247885D02*
X00907794Y01247885D01*
X00911000Y01231886D02*
X00937000Y01231886D01*
X00937000Y01215888D02*
X00909356Y01215888D01*
X00902014Y01199889D02*
X00937000Y01199889D01*
X00937000Y01183891D02*
X00881952Y01183891D01*
X00894233Y01167892D02*
X00935365Y01167892D01*
X00919367Y01151894D02*
X00906133Y01151894D01*
X01108000Y01205740D02*
X01108000Y01614527D01*
X01094527Y01628000D01*
X01053000Y01669527D01*
X01053000Y01764260D01*
X01062215Y01773475D01*
X01064202Y01778272D01*
X01199000Y01643473D01*
X01199000Y01629855D01*
X01206764Y01611111D01*
X01221111Y01596764D01*
X01237441Y01590000D01*
X01221111Y01583236D01*
X01206764Y01568889D01*
X01199000Y01550145D01*
X01199000Y01529855D01*
X01206764Y01511111D01*
X01221111Y01496764D01*
X01238059Y01489744D01*
X01238057Y01489744D01*
X01230423Y01487263D01*
X01223270Y01483619D01*
X01216776Y01478900D01*
X01211099Y01473224D01*
X01206381Y01466730D01*
X01202736Y01459577D01*
X01200256Y01451943D01*
X01199000Y01444014D01*
X01199000Y01443000D01*
X01246999Y01443000D01*
X01246999Y01437000D01*
X01199000Y01437000D01*
X01199000Y01435986D01*
X01200256Y01428057D01*
X01202736Y01420423D01*
X01206381Y01413270D01*
X01211099Y01406776D01*
X01216776Y01401099D01*
X01223270Y01396381D01*
X01230423Y01392736D01*
X01238057Y01390256D01*
X01239673Y01390000D01*
X01238057Y01389744D01*
X01230423Y01387263D01*
X01223270Y01383619D01*
X01216776Y01378900D01*
X01211099Y01373224D01*
X01206381Y01366730D01*
X01202736Y01359577D01*
X01200256Y01351943D01*
X01199000Y01344014D01*
X01199000Y01343000D01*
X01246999Y01343000D01*
X01246999Y01337000D01*
X01199000Y01337000D01*
X01199000Y01335986D01*
X01200256Y01328057D01*
X01202736Y01320423D01*
X01206381Y01313270D01*
X01211099Y01306776D01*
X01212674Y01305201D01*
X01190473Y01283000D01*
X01177000Y01269527D01*
X01177000Y01210473D01*
X01207000Y01180473D01*
X01212674Y01174799D01*
X01206764Y01168889D01*
X01204325Y01163000D01*
X01121160Y01163000D01*
X01123000Y01167441D01*
X01123000Y01182559D01*
X01117215Y01196525D01*
X01108000Y01205740D01*
X01113851Y01199889D02*
X01187584Y01199889D01*
X01177000Y01215888D02*
X01108000Y01215888D01*
X01108000Y01231886D02*
X01177000Y01231886D01*
X01177000Y01247885D02*
X01108000Y01247885D01*
X01108000Y01263883D02*
X01177000Y01263883D01*
X01187355Y01279882D02*
X01108000Y01279882D01*
X01108000Y01295880D02*
X01203354Y01295880D01*
X01207392Y01311879D02*
X01108000Y01311879D01*
X01108000Y01327877D02*
X01200314Y01327877D01*
X01199000Y01343876D02*
X01108000Y01343876D01*
X01108000Y01359875D02*
X01202888Y01359875D01*
X01213748Y01375873D02*
X01108000Y01375873D01*
X01108000Y01391872D02*
X01233085Y01391872D01*
X01247000Y01391872D02*
X01253000Y01391872D01*
X01247000Y01391000D02*
X01247000Y01343001D01*
X01253000Y01343001D01*
X01253000Y01436999D01*
X01247000Y01436999D01*
X01247000Y01391000D01*
X01260327Y01390000D02*
X01261943Y01390256D01*
X01269577Y01392736D01*
X01276730Y01396381D01*
X01283224Y01401099D01*
X01288900Y01406776D01*
X01293619Y01413270D01*
X01297263Y01420423D01*
X01299744Y01428057D01*
X01300901Y01435359D01*
X01377000Y01359260D01*
X01377000Y01297441D01*
X01378840Y01293000D01*
X01299527Y01293000D01*
X01293000Y01299527D01*
X01287326Y01305201D01*
X01288900Y01306776D01*
X01293619Y01313270D01*
X01297263Y01320423D01*
X01299744Y01328057D01*
X01301000Y01335986D01*
X01301000Y01337000D01*
X01253001Y01337000D01*
X01253001Y01343000D01*
X01301000Y01343000D01*
X01301000Y01344014D01*
X01299744Y01351943D01*
X01297263Y01359577D01*
X01293619Y01366730D01*
X01288900Y01373224D01*
X01283224Y01378900D01*
X01276730Y01383619D01*
X01269577Y01387263D01*
X01261943Y01389744D01*
X01260327Y01390000D01*
X01266915Y01391872D02*
X01344388Y01391872D01*
X01328390Y01407870D02*
X01289695Y01407870D01*
X01298383Y01423869D02*
X01312391Y01423869D01*
X01286252Y01375873D02*
X01360387Y01375873D01*
X01376385Y01359875D02*
X01297112Y01359875D01*
X01301000Y01343876D02*
X01377000Y01343876D01*
X01377000Y01327877D02*
X01299686Y01327877D01*
X01292608Y01311879D02*
X01377000Y01311879D01*
X01377647Y01295880D02*
X01296646Y01295880D01*
X01253000Y01343876D02*
X01247000Y01343876D01*
X01247000Y01359875D02*
X01253000Y01359875D01*
X01253000Y01375873D02*
X01247000Y01375873D01*
X01247000Y01407870D02*
X01253000Y01407870D01*
X01253000Y01423869D02*
X01247000Y01423869D01*
X01246999Y01439867D02*
X01108000Y01439867D01*
X01108000Y01423869D02*
X01201617Y01423869D01*
X01210304Y01407870D02*
X01108000Y01407870D01*
X01108000Y01455866D02*
X01201531Y01455866D01*
X01210111Y01471864D02*
X01108000Y01471864D01*
X01108000Y01487863D02*
X01232267Y01487863D01*
X01214014Y01503861D02*
X01108000Y01503861D01*
X01108000Y01519860D02*
X01203140Y01519860D01*
X01199000Y01535858D02*
X01108000Y01535858D01*
X01108000Y01551857D02*
X01199709Y01551857D01*
X01206336Y01567855D02*
X01108000Y01567855D01*
X01108000Y01583854D02*
X01222603Y01583854D01*
X01218023Y01599852D02*
X01108000Y01599852D01*
X01106676Y01615851D02*
X01204801Y01615851D01*
X01199000Y01631849D02*
X01090677Y01631849D01*
X01074679Y01647848D02*
X01194625Y01647848D01*
X01178627Y01663846D02*
X01058680Y01663846D01*
X01053000Y01679845D02*
X01162628Y01679845D01*
X01146630Y01695844D02*
X01053000Y01695844D01*
X01053000Y01711842D02*
X01130631Y01711842D01*
X01114633Y01727841D02*
X01053000Y01727841D01*
X01053000Y01743839D02*
X01098634Y01743839D01*
X01082635Y01759838D02*
X01053000Y01759838D01*
X01063193Y01775836D02*
X01066637Y01775836D01*
X01203702Y01903824D02*
X01232000Y01903824D01*
X01232000Y01907559D02*
X01232000Y01892441D01*
X01237785Y01878475D01*
X01248475Y01867785D01*
X01262441Y01862000D01*
X01514473Y01862000D01*
X01450473Y01798000D01*
X01437441Y01798000D01*
X01423475Y01792215D01*
X01412785Y01781525D01*
X01410798Y01776728D01*
X01354527Y01833000D01*
X01274527Y01833000D01*
X01145527Y01962000D01*
X01149882Y01962000D01*
X01178000Y01990118D01*
X01178000Y02029882D01*
X01149882Y02058000D01*
X01110118Y02058000D01*
X01094822Y02042704D01*
X01094527Y02043000D01*
X01062704Y02074822D01*
X01078000Y02090118D01*
X01078000Y02129882D01*
X01056276Y02151606D01*
X01103724Y02151606D01*
X01082000Y02129882D01*
X01082000Y02090118D01*
X01110118Y02062000D01*
X01149882Y02062000D01*
X01178000Y02090118D01*
X01178000Y02129882D01*
X01156276Y02151606D01*
X01203724Y02151606D01*
X01182000Y02129882D01*
X01182000Y02112000D01*
X01227999Y02112000D01*
X01227999Y02108000D01*
X01182000Y02108000D01*
X01182000Y02090118D01*
X01210118Y02062000D01*
X01228000Y02062000D01*
X01228000Y02107999D01*
X01232000Y02107999D01*
X01232000Y02062000D01*
X01249882Y02062000D01*
X01278000Y02090118D01*
X01278000Y02108000D01*
X01232001Y02108000D01*
X01232001Y02112000D01*
X01278000Y02112000D01*
X01278000Y02129882D01*
X01256276Y02151606D01*
X01303724Y02151606D01*
X01282000Y02129882D01*
X01282000Y02090118D01*
X01310118Y02062000D01*
X01349882Y02062000D01*
X01378000Y02090118D01*
X01378000Y02129882D01*
X01356276Y02151606D01*
X01403724Y02151606D01*
X01382000Y02129882D01*
X01382000Y02090118D01*
X01410118Y02062000D01*
X01449882Y02062000D01*
X01478000Y02090118D01*
X01478000Y02129882D01*
X01456276Y02151606D01*
X01503724Y02151606D01*
X01482000Y02129882D01*
X01482000Y02090118D01*
X01510118Y02062000D01*
X01549882Y02062000D01*
X01578000Y02090118D01*
X01578000Y02129882D01*
X01556276Y02151606D01*
X01603724Y02151606D01*
X01582000Y02129882D01*
X01582000Y02090118D01*
X01610118Y02062000D01*
X01649882Y02062000D01*
X01678000Y02090118D01*
X01678000Y02129882D01*
X01656276Y02151606D01*
X01703724Y02151606D01*
X01682000Y02129882D01*
X01682000Y02112000D01*
X01727999Y02112000D01*
X01727999Y02108000D01*
X01682000Y02108000D01*
X01682000Y02090118D01*
X01710118Y02062000D01*
X01728000Y02062000D01*
X01728000Y02107999D01*
X01732000Y02107999D01*
X01732000Y02062000D01*
X01749882Y02062000D01*
X01778000Y02090118D01*
X01778000Y02108000D01*
X01732001Y02108000D01*
X01732001Y02112000D01*
X01778000Y02112000D01*
X01778000Y02129882D01*
X01756276Y02151606D01*
X01803724Y02151606D01*
X01782000Y02129882D01*
X01782000Y02090118D01*
X01810118Y02062000D01*
X01845473Y02062000D01*
X01849473Y02058000D01*
X01810118Y02058000D01*
X01782000Y02029882D01*
X01782000Y01990118D01*
X01804118Y01968000D01*
X01755882Y01968000D01*
X01778000Y01990118D01*
X01778000Y02029882D01*
X01749882Y02058000D01*
X01710118Y02058000D01*
X01682000Y02029882D01*
X01682000Y01990118D01*
X01704118Y01968000D01*
X01682441Y01968000D01*
X01670691Y01963133D01*
X01667215Y01971525D01*
X01663311Y01975429D01*
X01678000Y01990118D01*
X01678000Y02029882D01*
X01649882Y02058000D01*
X01610118Y02058000D01*
X01582000Y02029882D01*
X01582000Y01990118D01*
X01602143Y01969975D01*
X01597000Y01957559D01*
X01597000Y01944527D01*
X01569202Y01916728D01*
X01567215Y01921525D01*
X01556525Y01932215D01*
X01542559Y01938000D01*
X01262441Y01938000D01*
X01248475Y01932215D01*
X01237785Y01921525D01*
X01232000Y01907559D01*
X01237080Y01919823D02*
X01187704Y01919823D01*
X01171705Y01935821D02*
X01257182Y01935821D01*
X01249882Y01962000D02*
X01210118Y01962000D01*
X01182000Y01990118D01*
X01182000Y02029882D01*
X01210118Y02058000D01*
X01249882Y02058000D01*
X01278000Y02029882D01*
X01278000Y01990118D01*
X01249882Y01962000D01*
X01255701Y01967818D02*
X01304299Y01967818D01*
X01310118Y01962000D02*
X01349882Y01962000D01*
X01378000Y01990118D01*
X01378000Y02029882D01*
X01349882Y02058000D01*
X01310118Y02058000D01*
X01282000Y02029882D01*
X01282000Y01990118D01*
X01310118Y01962000D01*
X01288301Y01983817D02*
X01271699Y01983817D01*
X01278000Y01999815D02*
X01282000Y01999815D01*
X01282000Y02015814D02*
X01278000Y02015814D01*
X01276070Y02031813D02*
X01283930Y02031813D01*
X01299929Y02047811D02*
X01260071Y02047811D01*
X01251692Y02063810D02*
X01308308Y02063810D01*
X01292310Y02079808D02*
X01267690Y02079808D01*
X01278000Y02095807D02*
X01282000Y02095807D01*
X01282000Y02111805D02*
X01232001Y02111805D01*
X01227999Y02111805D02*
X01178000Y02111805D01*
X01178000Y02095807D02*
X01182000Y02095807D01*
X01192310Y02079808D02*
X01167690Y02079808D01*
X01151692Y02063810D02*
X01208308Y02063810D01*
X01199929Y02047811D02*
X01160071Y02047811D01*
X01176070Y02031813D02*
X01183930Y02031813D01*
X01182000Y02015814D02*
X01178000Y02015814D01*
X01178000Y01999815D02*
X01182000Y01999815D01*
X01188301Y01983817D02*
X01171699Y01983817D01*
X01155701Y01967818D02*
X01204299Y01967818D01*
X01155707Y01951820D02*
X01597000Y01951820D01*
X01601250Y01967818D02*
X01555701Y01967818D01*
X01549882Y01962000D02*
X01578000Y01990118D01*
X01578000Y02008000D01*
X01532001Y02008000D01*
X01532001Y02012000D01*
X01578000Y02012000D01*
X01578000Y02029882D01*
X01549882Y02058000D01*
X01532000Y02058000D01*
X01532000Y02012001D01*
X01528000Y02012001D01*
X01528000Y02058000D01*
X01510118Y02058000D01*
X01482000Y02029882D01*
X01482000Y02012000D01*
X01527999Y02012000D01*
X01527999Y02008000D01*
X01482000Y02008000D01*
X01482000Y01990118D01*
X01510118Y01962000D01*
X01528000Y01962000D01*
X01528000Y02007999D01*
X01532000Y02007999D01*
X01532000Y01962000D01*
X01549882Y01962000D01*
X01532000Y01967818D02*
X01528000Y01967818D01*
X01528000Y01983817D02*
X01532000Y01983817D01*
X01532000Y01999815D02*
X01528000Y01999815D01*
X01528000Y02015814D02*
X01532000Y02015814D01*
X01532000Y02031813D02*
X01528000Y02031813D01*
X01528000Y02047811D02*
X01532000Y02047811D01*
X01551692Y02063810D02*
X01608308Y02063810D01*
X01599929Y02047811D02*
X01560071Y02047811D01*
X01576070Y02031813D02*
X01583930Y02031813D01*
X01582000Y02015814D02*
X01578000Y02015814D01*
X01578000Y01999815D02*
X01582000Y01999815D01*
X01588301Y01983817D02*
X01571699Y01983817D01*
X01588295Y01935821D02*
X01547818Y01935821D01*
X01567920Y01919823D02*
X01572296Y01919823D01*
X01504299Y01967818D02*
X01455701Y01967818D01*
X01449882Y01962000D02*
X01478000Y01990118D01*
X01478000Y02029882D01*
X01449882Y02058000D01*
X01410118Y02058000D01*
X01382000Y02029882D01*
X01382000Y01990118D01*
X01410118Y01962000D01*
X01449882Y01962000D01*
X01471699Y01983817D02*
X01488301Y01983817D01*
X01482000Y01999815D02*
X01478000Y01999815D01*
X01478000Y02015814D02*
X01482000Y02015814D01*
X01483930Y02031813D02*
X01476070Y02031813D01*
X01460071Y02047811D02*
X01499929Y02047811D01*
X01508308Y02063810D02*
X01451692Y02063810D01*
X01467690Y02079808D02*
X01492310Y02079808D01*
X01482000Y02095807D02*
X01478000Y02095807D01*
X01478000Y02111805D02*
X01482000Y02111805D01*
X01482000Y02127804D02*
X01478000Y02127804D01*
X01464080Y02143802D02*
X01495920Y02143802D01*
X01564080Y02143802D02*
X01595920Y02143802D01*
X01582000Y02127804D02*
X01578000Y02127804D01*
X01578000Y02111805D02*
X01582000Y02111805D01*
X01582000Y02095807D02*
X01578000Y02095807D01*
X01567690Y02079808D02*
X01592310Y02079808D01*
X01651692Y02063810D02*
X01708308Y02063810D01*
X01699929Y02047811D02*
X01660071Y02047811D01*
X01676070Y02031813D02*
X01683930Y02031813D01*
X01682000Y02015814D02*
X01678000Y02015814D01*
X01678000Y01999815D02*
X01682000Y01999815D01*
X01688301Y01983817D02*
X01671699Y01983817D01*
X01668750Y01967818D02*
X01682003Y01967818D01*
X01771699Y01983817D02*
X01788301Y01983817D01*
X01782000Y01999815D02*
X01778000Y01999815D01*
X01778000Y02015814D02*
X01782000Y02015814D01*
X01783930Y02031813D02*
X01776070Y02031813D01*
X01760071Y02047811D02*
X01799929Y02047811D01*
X01808308Y02063810D02*
X01751692Y02063810D01*
X01732000Y02063810D02*
X01728000Y02063810D01*
X01728000Y02079808D02*
X01732000Y02079808D01*
X01732000Y02095807D02*
X01728000Y02095807D01*
X01727999Y02111805D02*
X01678000Y02111805D01*
X01678000Y02095807D02*
X01682000Y02095807D01*
X01692310Y02079808D02*
X01667690Y02079808D01*
X01678000Y02127804D02*
X01682000Y02127804D01*
X01695920Y02143802D02*
X01664080Y02143802D01*
X01732001Y02111805D02*
X01782000Y02111805D01*
X01782000Y02095807D02*
X01778000Y02095807D01*
X01767690Y02079808D02*
X01792310Y02079808D01*
X01782000Y02127804D02*
X01778000Y02127804D01*
X01764080Y02143802D02*
X01795920Y02143802D01*
X01856276Y02151606D02*
X01903724Y02151606D01*
X01882000Y02129882D01*
X01882000Y02112000D01*
X01927999Y02112000D01*
X01927999Y02108000D01*
X01882000Y02108000D01*
X01882000Y02090527D01*
X01878000Y02094527D01*
X01878000Y02129882D01*
X01856276Y02151606D01*
X01864080Y02143802D02*
X01895920Y02143802D01*
X01882000Y02127804D02*
X01878000Y02127804D01*
X01878000Y02111805D02*
X01927999Y02111805D01*
X01932001Y02111805D02*
X01982000Y02111805D01*
X01978000Y02112000D02*
X01978000Y02129882D01*
X01956276Y02151606D01*
X02003724Y02151606D01*
X01982000Y02129882D01*
X01982000Y02090118D01*
X01989118Y02083000D01*
X01970882Y02083000D01*
X01978000Y02090118D01*
X01978000Y02108000D01*
X01932001Y02108000D01*
X01932001Y02112000D01*
X01978000Y02112000D01*
X01978000Y02127804D02*
X01982000Y02127804D01*
X01995920Y02143802D02*
X01964080Y02143802D01*
X01978000Y02095807D02*
X01982000Y02095807D01*
X01882000Y02095807D02*
X01878000Y02095807D01*
X02101897Y02070221D02*
X02110118Y02062000D01*
X02149882Y02062000D01*
X02178000Y02090118D01*
X02178000Y02129882D01*
X02156276Y02151606D01*
X02203724Y02151606D01*
X02182000Y02129882D01*
X02182000Y02090118D01*
X02210118Y02062000D01*
X02210473Y02062000D01*
X02214473Y02058000D01*
X02210118Y02058000D01*
X02182000Y02029882D01*
X02182000Y02012000D01*
X02227999Y02012000D01*
X02227999Y02008000D01*
X02182000Y02008000D01*
X02182000Y01990118D01*
X02210118Y01962000D01*
X02214473Y01962000D01*
X02199202Y01946728D01*
X02197215Y01951525D01*
X02186525Y01962215D01*
X02172559Y01968000D01*
X02155882Y01968000D01*
X02178000Y01990118D01*
X02178000Y02029882D01*
X02149882Y02058000D01*
X02110118Y02058000D01*
X02101897Y02049779D01*
X02103000Y02052441D01*
X02103000Y02067559D01*
X02101897Y02070221D01*
X02103000Y02063810D02*
X02108308Y02063810D01*
X02151692Y02063810D02*
X02208308Y02063810D01*
X02199929Y02047811D02*
X02160071Y02047811D01*
X02176070Y02031813D02*
X02183930Y02031813D01*
X02182000Y02015814D02*
X02178000Y02015814D01*
X02178000Y01999815D02*
X02182000Y01999815D01*
X02188301Y01983817D02*
X02171699Y01983817D01*
X02172997Y01967818D02*
X02204299Y01967818D01*
X02204293Y01951820D02*
X02196920Y01951820D01*
X02291913Y01871827D02*
X02569008Y01871827D01*
X02569008Y01855829D02*
X02552053Y01855829D01*
X02563741Y01839830D02*
X02569008Y01839830D01*
X02569008Y01823832D02*
X02568000Y01823832D01*
X02569008Y01807833D02*
X02566915Y01807833D01*
X02569008Y01791835D02*
X02559717Y01791835D01*
X02569008Y01775836D02*
X02538809Y01775836D01*
X02548044Y01759838D02*
X02569008Y01759838D01*
X02569008Y01743839D02*
X02562080Y01743839D01*
X02568000Y01727841D02*
X02569008Y01727841D01*
X02569008Y01711842D02*
X02568000Y01711842D01*
X02569008Y01695844D02*
X02561949Y01695844D01*
X02569008Y01679845D02*
X02547727Y01679845D01*
X02539575Y01663846D02*
X02569008Y01663846D01*
X02569008Y01647848D02*
X02560034Y01647848D01*
X02567047Y01631849D02*
X02569008Y01631849D01*
X02569008Y01615851D02*
X02568000Y01615851D01*
X02569008Y01599852D02*
X02563609Y01599852D01*
X02569008Y01583854D02*
X02551736Y01583854D01*
X02569008Y01567855D02*
X02529897Y01567855D01*
X02529548Y01568000D02*
X02450452Y01568000D01*
X02432810Y01560692D01*
X02419308Y01547190D01*
X02412000Y01529548D01*
X02412000Y01510452D01*
X02419308Y01492810D01*
X02432810Y01479308D01*
X02450452Y01472000D01*
X02529548Y01472000D01*
X02547190Y01479308D01*
X02560692Y01492810D01*
X02568000Y01510452D01*
X02568000Y01529548D01*
X02560692Y01547190D01*
X02547190Y01560692D01*
X02529548Y01568000D01*
X02556025Y01551857D02*
X02569008Y01551857D01*
X02569008Y01535858D02*
X02565386Y01535858D01*
X02568000Y01519860D02*
X02569008Y01519860D01*
X02569008Y01503861D02*
X02565270Y01503861D01*
X02569008Y01487863D02*
X02555745Y01487863D01*
X02569008Y01471864D02*
X02155604Y01471864D01*
X02171603Y01487863D02*
X02424255Y01487863D01*
X02414730Y01503861D02*
X02187601Y01503861D01*
X02203600Y01519860D02*
X02412000Y01519860D01*
X02414614Y01535858D02*
X02219598Y01535858D01*
X02235597Y01551857D02*
X02423975Y01551857D01*
X02450103Y01567855D02*
X02251595Y01567855D01*
X02277586Y01663846D02*
X02440425Y01663846D01*
X02432273Y01679845D02*
X02293585Y01679845D01*
X02303578Y01759838D02*
X02431955Y01759838D01*
X02441191Y01775836D02*
X02319576Y01775836D01*
X02529986Y01967818D02*
X02569008Y01967818D01*
X02569008Y01951820D02*
X02556062Y01951820D01*
X02565401Y01935821D02*
X02569008Y01935821D01*
X02569008Y01919823D02*
X02568000Y01919823D01*
X02569008Y01903824D02*
X02565254Y01903824D01*
X02569008Y01887826D02*
X02555708Y01887826D01*
X02569008Y01983817D02*
X02494087Y01983817D01*
X02509805Y01999815D02*
X02569008Y01999815D01*
X02569008Y02015814D02*
X02519042Y02015814D01*
X02525969Y02031813D02*
X02569008Y02031813D01*
X02569008Y02047811D02*
X02530256Y02047811D01*
X02531500Y02063810D02*
X02569008Y02063810D01*
X02569008Y02079808D02*
X02531500Y02079808D01*
X02527679Y02095807D02*
X02569008Y02095807D01*
X02569008Y02111805D02*
X02522726Y02111805D01*
X02513489Y02127804D02*
X02569008Y02127804D01*
X02569008Y02143802D02*
X02500468Y02143802D01*
X02195920Y02143802D02*
X02164080Y02143802D01*
X02178000Y02127804D02*
X02182000Y02127804D01*
X02182000Y02111805D02*
X02178000Y02111805D01*
X02178000Y02095807D02*
X02182000Y02095807D01*
X02192310Y02079808D02*
X02167690Y02079808D01*
X01737000Y01673260D02*
X01737000Y01667441D01*
X01742785Y01653475D01*
X01752000Y01644260D01*
X01752000Y01370740D01*
X01742785Y01361525D01*
X01737000Y01347559D01*
X01737000Y01332441D01*
X01742785Y01318475D01*
X01753475Y01307785D01*
X01760949Y01304689D01*
X01734260Y01278000D01*
X01584125Y01278000D01*
X01578889Y01283236D01*
X01561941Y01290256D01*
X01561943Y01290256D01*
X01569577Y01292736D01*
X01576730Y01296381D01*
X01583224Y01301099D01*
X01588900Y01306776D01*
X01593619Y01313270D01*
X01597263Y01320423D01*
X01599744Y01328057D01*
X01601000Y01335986D01*
X01601000Y01337000D01*
X01553001Y01337000D01*
X01553001Y01343000D01*
X01601000Y01343000D01*
X01601000Y01344014D01*
X01599744Y01351943D01*
X01597263Y01359577D01*
X01593619Y01366730D01*
X01588900Y01373224D01*
X01583224Y01378900D01*
X01576730Y01383619D01*
X01569577Y01387263D01*
X01561943Y01389744D01*
X01560327Y01390000D01*
X01561943Y01390256D01*
X01569577Y01392736D01*
X01576730Y01396381D01*
X01583224Y01401099D01*
X01588900Y01406776D01*
X01593619Y01413270D01*
X01597263Y01420423D01*
X01599744Y01428057D01*
X01601000Y01435986D01*
X01601000Y01437000D01*
X01553001Y01437000D01*
X01553001Y01443000D01*
X01601000Y01443000D01*
X01601000Y01444014D01*
X01599744Y01451943D01*
X01597263Y01459577D01*
X01593619Y01466730D01*
X01588900Y01473224D01*
X01583224Y01478900D01*
X01576730Y01483619D01*
X01569577Y01487263D01*
X01561943Y01489744D01*
X01561941Y01489744D01*
X01578889Y01496764D01*
X01593236Y01511111D01*
X01601000Y01529855D01*
X01601000Y01537260D01*
X01737000Y01673260D01*
X01738489Y01663846D02*
X01727586Y01663846D01*
X01711588Y01647848D02*
X01748412Y01647848D01*
X01752000Y01631849D02*
X01695589Y01631849D01*
X01679591Y01615851D02*
X01752000Y01615851D01*
X01752000Y01599852D02*
X01663592Y01599852D01*
X01647594Y01583854D02*
X01752000Y01583854D01*
X01752000Y01567855D02*
X01631595Y01567855D01*
X01615597Y01551857D02*
X01752000Y01551857D01*
X01752000Y01535858D02*
X01601000Y01535858D01*
X01596859Y01519860D02*
X01752000Y01519860D01*
X01752000Y01503861D02*
X01585986Y01503861D01*
X01567733Y01487863D02*
X01752000Y01487863D01*
X01752000Y01471864D02*
X01589889Y01471864D01*
X01598469Y01455866D02*
X01752000Y01455866D01*
X01752000Y01439867D02*
X01553001Y01439867D01*
X01553000Y01436999D02*
X01553000Y01389000D01*
X01553000Y01343001D01*
X01547000Y01343001D01*
X01547000Y01436999D01*
X01553000Y01436999D01*
X01553000Y01423869D02*
X01547000Y01423869D01*
X01547000Y01407870D02*
X01553000Y01407870D01*
X01553000Y01391872D02*
X01547000Y01391872D01*
X01547000Y01375873D02*
X01553000Y01375873D01*
X01553000Y01359875D02*
X01547000Y01359875D01*
X01547000Y01343876D02*
X01553000Y01343876D01*
X01586252Y01375873D02*
X01752000Y01375873D01*
X01752000Y01391872D02*
X01566915Y01391872D01*
X01589695Y01407870D02*
X01752000Y01407870D01*
X01752000Y01423869D02*
X01598383Y01423869D01*
X01597112Y01359875D02*
X01742102Y01359875D01*
X01737000Y01343876D02*
X01601000Y01343876D01*
X01599686Y01327877D02*
X01738890Y01327877D01*
X01749381Y01311879D02*
X01592608Y01311879D01*
X01575748Y01295880D02*
X01752141Y01295880D01*
X01736142Y01279882D02*
X01582243Y01279882D01*
X01358360Y01087900D02*
X01309627Y01087900D01*
X01316425Y01103898D02*
X01342362Y01103898D01*
X01326363Y01119897D02*
X01323000Y01119897D01*
X01323000Y01071901D02*
X01374359Y01071901D01*
X01390357Y01055903D02*
X01323000Y01055903D01*
X01323000Y01039904D02*
X01386164Y01039904D01*
X01377558Y01023906D02*
X01323000Y01023906D01*
X01323000Y01007907D02*
X01377000Y01007907D01*
X01384351Y00991908D02*
X01323000Y00991908D01*
X01323000Y00975910D02*
X01400350Y00975910D01*
X01416348Y00959911D02*
X01323000Y00959911D01*
X01323000Y00943913D02*
X01432347Y00943913D01*
X01448345Y00927914D02*
X01323000Y00927914D01*
X01323000Y00911916D02*
X01464344Y00911916D01*
X01480343Y00895917D02*
X01323000Y00895917D01*
X01323000Y00879919D02*
X01967392Y00879919D01*
X01983391Y00895917D02*
X01619657Y00895917D01*
X01635656Y00911916D02*
X01999389Y00911916D01*
X02015388Y00927914D02*
X01651654Y00927914D01*
X01667653Y00943913D02*
X02031386Y00943913D01*
X02047385Y00959911D02*
X01683651Y00959911D01*
X01699650Y00975910D02*
X02063383Y00975910D01*
X02079382Y00991908D02*
X01715648Y00991908D01*
X01731647Y01007907D02*
X02095380Y01007907D01*
X02111379Y01023906D02*
X01747646Y01023906D01*
X01763644Y01039904D02*
X02127377Y01039904D01*
X02143376Y01055903D02*
X01779643Y01055903D01*
X01795641Y01071901D02*
X02424019Y01071901D01*
X02450210Y01087900D02*
X01811640Y01087900D01*
X01827638Y01103898D02*
X02569008Y01103898D01*
X02569008Y01087900D02*
X02529790Y01087900D01*
X02555981Y01071901D02*
X02569008Y01071901D01*
X02569008Y01055903D02*
X02565368Y01055903D01*
X02568000Y01039904D02*
X02569008Y01039904D01*
X02569008Y01023906D02*
X02565288Y01023906D01*
X02569008Y01007907D02*
X02555789Y01007907D01*
X02569008Y00991908D02*
X02324000Y00991908D01*
X02324000Y00975910D02*
X02428028Y00975910D01*
X02416293Y00959911D02*
X02312137Y00959911D01*
X02280000Y00959911D02*
X02279999Y00959911D01*
X02279999Y00975910D02*
X02280000Y00975910D01*
X02247863Y00959911D02*
X02112438Y00959911D01*
X02096440Y00943913D02*
X02412000Y00943913D01*
X02413051Y00927914D02*
X02304311Y00927914D01*
X02320309Y00911916D02*
X02420202Y00911916D01*
X02440995Y00895917D02*
X02324000Y00895917D01*
X02324000Y00879919D02*
X02433281Y00879919D01*
X02418316Y00863920D02*
X02338606Y00863920D01*
X02354605Y00847922D02*
X02412656Y00847922D01*
X02412681Y00831923D02*
X02370603Y00831923D01*
X02337547Y00799926D02*
X02062601Y00799926D01*
X02078599Y00783928D02*
X02346000Y00783928D01*
X02346000Y00767929D02*
X02094598Y00767929D01*
X02061541Y00735932D02*
X01978459Y00735932D01*
X01968000Y00719934D02*
X02077539Y00719934D01*
X02045542Y00751931D02*
X02024156Y00751931D01*
X02018290Y00703935D02*
X02361710Y00703935D01*
X02346000Y00687937D02*
X02034000Y00687937D01*
X02034000Y00671938D02*
X02346000Y00671938D01*
X02346000Y00655939D02*
X02034000Y00655939D01*
X02022166Y00639941D02*
X02357834Y00639941D01*
X02367000Y00623942D02*
X01968000Y00623942D01*
X01968000Y00607944D02*
X02367000Y00607944D01*
X02367000Y00591945D02*
X01964472Y00591945D01*
X01948474Y00575947D02*
X02353420Y00575947D01*
X02337422Y00559948D02*
X02312277Y00559948D01*
X02280000Y00559948D02*
X02279999Y00559948D01*
X02279999Y00543950D02*
X02280000Y00543950D01*
X02247723Y00559948D02*
X01932475Y00559948D01*
X01916477Y00543950D02*
X02236000Y00543950D01*
X02236000Y00527951D02*
X01914274Y00527951D01*
X01922674Y00511953D02*
X02236000Y00511953D01*
X02251820Y00495954D02*
X01924000Y00495954D01*
X01919322Y00479956D02*
X02257429Y00479956D01*
X02251732Y00463957D02*
X01906183Y00463957D01*
X01858000Y00447959D02*
X02236000Y00447959D01*
X02236000Y00431960D02*
X01910265Y00431960D01*
X01921014Y00415962D02*
X02236000Y00415962D01*
X02247812Y00399963D02*
X01924000Y00399963D01*
X01920983Y00383965D02*
X02361438Y00383965D01*
X02345741Y00367966D02*
X01994259Y00367966D01*
X02020559Y00351968D02*
X02329742Y00351968D01*
X02326000Y00335969D02*
X02036558Y00335969D01*
X02052556Y00319970D02*
X02326000Y00319970D01*
X02333803Y00303972D02*
X02068555Y00303972D01*
X02084553Y00287973D02*
X02349801Y00287973D01*
X02390199Y00287973D02*
X02569008Y00287973D01*
X02569008Y00271975D02*
X02100552Y00271975D01*
X02116550Y00255976D02*
X02569008Y00255976D01*
X02569008Y00239978D02*
X02465369Y00239978D01*
X02491291Y00223979D02*
X02569008Y00223979D01*
X02569008Y00207981D02*
X02507290Y00207981D01*
X02517428Y00191982D02*
X02569008Y00191982D01*
X02569008Y00175984D02*
X02525220Y00175984D01*
X02529507Y00159985D02*
X02569008Y00159985D01*
X02569008Y00143987D02*
X02531500Y00143987D01*
X02531500Y00127988D02*
X02569008Y00127988D01*
X02569008Y00111990D02*
X02528428Y00111990D01*
X02524142Y00095991D02*
X02569008Y00095991D01*
X02569008Y00079993D02*
X02515104Y00079993D01*
X02503265Y00063994D02*
X02569008Y00063994D01*
X02376631Y00239978D02*
X02132549Y00239978D01*
X02148547Y00223979D02*
X02350709Y00223979D01*
X02406197Y00303972D02*
X02569008Y00303972D01*
X02569008Y00319970D02*
X02414000Y00319970D01*
X02414000Y00335969D02*
X02440686Y00335969D01*
X02421035Y00351968D02*
X02410258Y00351968D01*
X02410493Y00367966D02*
X02413440Y00367966D01*
X02377436Y00399963D02*
X02312188Y00399963D01*
X02324000Y00415962D02*
X02393435Y00415962D01*
X02409433Y00431960D02*
X02324000Y00431960D01*
X02324000Y00447959D02*
X02424159Y00447959D01*
X02414690Y00463957D02*
X02308268Y00463957D01*
X02322482Y00479956D02*
X02412000Y00479956D01*
X02414654Y00495954D02*
X02338481Y00495954D01*
X02354479Y00511953D02*
X02424071Y00511953D01*
X02450335Y00527951D02*
X02370478Y00527951D01*
X02386477Y00543950D02*
X02428168Y00543950D01*
X02416351Y00559948D02*
X02402475Y00559948D01*
X02474487Y00431960D02*
X02569008Y00431960D01*
X02569008Y00415962D02*
X02551920Y00415962D01*
X02563700Y00399963D02*
X02569008Y00399963D01*
X02569008Y00383965D02*
X02567970Y00383965D01*
X02569008Y00367966D02*
X02566560Y00367966D01*
X02569008Y00351968D02*
X02558964Y00351968D01*
X02569008Y00335969D02*
X02539313Y00335969D01*
X02492000Y00335969D02*
X02488000Y00335969D01*
X02488000Y00351968D02*
X02492000Y00351968D01*
X02492000Y00367966D02*
X02488000Y00367966D01*
X02488000Y00383965D02*
X02492000Y00383965D01*
X02492000Y00399963D02*
X02488000Y00399963D01*
X02488000Y00415962D02*
X02492000Y00415962D01*
X02555841Y00447959D02*
X02569008Y00447959D01*
X02569008Y00463957D02*
X02565310Y00463957D01*
X02568000Y00479956D02*
X02569008Y00479956D01*
X02569008Y00495954D02*
X02565346Y00495954D01*
X02569008Y00511953D02*
X02555929Y00511953D01*
X02542000Y00758000D02*
X02430225Y00758000D01*
X02434000Y00761775D01*
X02434000Y00798225D01*
X02429122Y00803103D01*
X02434843Y00798947D01*
X02441574Y00795517D01*
X02448760Y00793182D01*
X02456222Y00792000D01*
X02488000Y00792000D01*
X02488000Y00837999D01*
X02492000Y00837999D01*
X02492000Y00792000D01*
X02523778Y00792000D01*
X02531240Y00793182D01*
X02538426Y00795517D01*
X02542000Y00797338D01*
X02542000Y00758000D01*
X02542000Y00767929D02*
X02434000Y00767929D01*
X02434000Y00783928D02*
X02542000Y00783928D01*
X02492000Y00799926D02*
X02488000Y00799926D01*
X02488000Y00815925D02*
X02492000Y00815925D01*
X02492000Y00831923D02*
X02488000Y00831923D01*
X02488000Y00847922D02*
X02492000Y00847922D01*
X02492000Y00863920D02*
X02488000Y00863920D01*
X02488000Y00879919D02*
X02492000Y00879919D01*
X02559798Y00911916D02*
X02569008Y00911916D01*
X02569008Y00927914D02*
X02566949Y00927914D01*
X02568000Y00943913D02*
X02569008Y00943913D01*
X02569008Y00959911D02*
X02563707Y00959911D01*
X02569008Y00975910D02*
X02551972Y00975910D01*
X02566609Y00895917D02*
X02569008Y00895917D01*
X02433494Y00799926D02*
X02432299Y00799926D01*
X02418395Y00815925D02*
X02416300Y00815925D01*
X02321548Y00815925D02*
X02046602Y00815925D01*
X02030603Y00831923D02*
X02305550Y00831923D01*
X02259853Y00847922D02*
X02014605Y00847922D01*
X02016447Y00863920D02*
X02243854Y00863920D01*
X02236000Y00879919D02*
X02032445Y00879919D01*
X02048444Y00895917D02*
X02236000Y00895917D01*
X02239691Y00911916D02*
X02064443Y00911916D01*
X02080441Y00927914D02*
X02255689Y00927914D01*
X02236000Y00975910D02*
X02128437Y00975910D01*
X02144435Y00991908D02*
X02236000Y00991908D01*
X02236000Y01007907D02*
X02160434Y01007907D01*
X02324000Y01007907D02*
X02424211Y01007907D01*
X02569008Y01119897D02*
X01843637Y01119897D01*
X01859635Y01135895D02*
X02569008Y01135895D01*
X02569008Y01151894D02*
X01875634Y01151894D01*
X01891632Y01167892D02*
X02569008Y01167892D01*
X02569008Y01183891D02*
X02551773Y01183891D01*
X02563625Y01199889D02*
X02569008Y01199889D01*
X02569008Y01215888D02*
X02568000Y01215888D01*
X02567031Y01231886D02*
X02569008Y01231886D01*
X02569008Y01247885D02*
X02559997Y01247885D01*
X02569008Y01263883D02*
X02539486Y01263883D01*
X02547764Y01279882D02*
X02569008Y01279882D01*
X02569008Y01295880D02*
X02561964Y01295880D01*
X02568000Y01311879D02*
X02569008Y01311879D01*
X02569008Y01327877D02*
X02568000Y01327877D01*
X02569008Y01343876D02*
X02562065Y01343876D01*
X02569008Y01359875D02*
X02548008Y01359875D01*
X02538898Y01375873D02*
X02569008Y01375873D01*
X02569008Y01391872D02*
X02559754Y01391872D01*
X02566930Y01407870D02*
X02569008Y01407870D01*
X02569008Y01423869D02*
X02568000Y01423869D01*
X02569008Y01439867D02*
X02563726Y01439867D01*
X02569008Y01455866D02*
X02552016Y01455866D01*
X02441102Y01375873D02*
X01939613Y01375873D01*
X01923614Y01359875D02*
X02431992Y01359875D01*
X02432236Y01279882D02*
X01933622Y01279882D01*
X01917623Y01263883D02*
X02440514Y01263883D01*
X01951393Y00863920D02*
X01323000Y00863920D01*
X01323000Y00847922D02*
X01935395Y00847922D01*
X01919396Y00831923D02*
X01323000Y00831923D01*
X01323000Y00815925D02*
X01903398Y00815925D01*
X01887399Y00799926D02*
X01323000Y00799926D01*
X01323000Y00783928D02*
X01871401Y00783928D01*
X01855402Y00767929D02*
X01323000Y00767929D01*
X01323000Y00751931D02*
X01839404Y00751931D01*
X01823405Y00735932D02*
X01323000Y00735932D01*
X01323000Y00719934D02*
X01812000Y00719934D01*
X01812000Y00703935D02*
X01388592Y00703935D01*
X01355535Y00671938D02*
X01350287Y00671938D01*
X01354000Y00655939D02*
X01366000Y00655939D01*
X01366000Y00639941D02*
X01354000Y00639941D01*
X01346168Y00623942D02*
X01373832Y00623942D01*
X01389831Y00607944D02*
X01330169Y00607944D01*
X01310000Y00607944D02*
X01309999Y00607944D01*
X01309999Y00623942D02*
X01310000Y00623942D01*
X01309999Y00639941D02*
X01310000Y00639941D01*
X01289831Y00607944D02*
X01220169Y00607944D01*
X01200000Y00607944D02*
X01199999Y00607944D01*
X01199999Y00623942D02*
X01200000Y00623942D01*
X01199999Y00639941D02*
X01200000Y00639941D01*
X01179831Y00607944D02*
X01120169Y00607944D01*
X01136168Y00623942D02*
X01163832Y00623942D01*
X01145410Y00687937D02*
X01124289Y00687937D01*
X01161408Y00703935D02*
X00487675Y00703935D01*
X00471677Y00687937D02*
X01075711Y00687937D01*
X01059713Y00671938D02*
X00455678Y00671938D01*
X00439680Y00655939D02*
X01056000Y00655939D01*
X01056000Y00639941D02*
X00423681Y00639941D01*
X00407682Y00623942D02*
X01063832Y00623942D01*
X01079831Y00607944D02*
X00391684Y00607944D01*
X00375685Y00591945D02*
X01536000Y00591945D01*
X01536000Y00591248D02*
X01542699Y00575076D01*
X01555076Y00562699D01*
X01571248Y00556000D01*
X01588752Y00556000D01*
X01604924Y00562699D01*
X01617301Y00575076D01*
X01624000Y00591248D01*
X01624000Y00608752D01*
X01617301Y00624924D01*
X01604924Y00637301D01*
X01588752Y00644000D01*
X01571248Y00644000D01*
X01555076Y00637301D01*
X01542699Y00624924D01*
X01536000Y00608752D01*
X01536000Y00591248D01*
X01542338Y00575947D02*
X00368000Y00575947D01*
X00368000Y00559948D02*
X01561716Y00559948D01*
X01571127Y00543950D02*
X00368000Y00543950D01*
X00368000Y00527951D02*
X01545726Y00527951D01*
X01534426Y00511953D02*
X00368000Y00511953D01*
X00368000Y00495954D02*
X01518427Y00495954D01*
X01502429Y00479956D02*
X00368000Y00479956D01*
X00368000Y00463957D02*
X01486430Y00463957D01*
X01470432Y00447959D02*
X00368000Y00447959D01*
X00368000Y00431960D02*
X01454433Y00431960D01*
X01438435Y00415962D02*
X00368000Y00415962D01*
X00368000Y00399963D02*
X01422436Y00399963D01*
X01406438Y00383965D02*
X00368000Y00383965D01*
X00368000Y00367966D02*
X01390439Y00367966D01*
X01374441Y00351968D02*
X00368000Y00351968D01*
X00368000Y00335969D02*
X01358442Y00335969D01*
X01342444Y00319970D02*
X00368000Y00319970D01*
X00447988Y00223979D02*
X01063795Y00223979D01*
X01079794Y00207981D02*
X00468384Y00207981D01*
X00067709Y00223979D02*
X00048000Y00223979D01*
X00048000Y00207981D02*
X00051710Y00207981D01*
X00048000Y00527951D02*
X00097222Y00527951D01*
X00079491Y00543950D02*
X00048000Y00543950D01*
X00048000Y00559948D02*
X00072865Y00559948D01*
X00072630Y00575947D02*
X00048000Y00575947D01*
X00048000Y00591945D02*
X00077791Y00591945D01*
X00090822Y00607944D02*
X00048000Y00607944D01*
X00048000Y00623942D02*
X00106901Y00623942D01*
X00082937Y00639941D02*
X00048000Y00639941D01*
X00048000Y00655939D02*
X00074525Y00655939D01*
X00072630Y00671938D02*
X00048000Y00671938D01*
X00048000Y00687937D02*
X00076131Y00687937D01*
X00086813Y00703935D02*
X00048000Y00703935D01*
X00048000Y00719934D02*
X00102539Y00719934D01*
X00086541Y00735932D02*
X00048000Y00735932D01*
X00048000Y00751931D02*
X00070542Y00751931D01*
X00054544Y00767929D02*
X00048000Y00767929D01*
X00048000Y00783928D02*
X00052000Y00783928D01*
X00052000Y00799926D02*
X00048000Y00799926D01*
X00048000Y00815925D02*
X00052000Y00815925D01*
X00052000Y00831923D02*
X00048000Y00831923D01*
X00048000Y00847922D02*
X00065395Y00847922D01*
X00081393Y00863920D02*
X00048000Y00863920D01*
X00048000Y00879919D02*
X00077019Y00879919D01*
X00072630Y00895917D02*
X00048000Y00895917D01*
X00048000Y00911916D02*
X00073637Y00911916D01*
X00080793Y00927914D02*
X00048000Y00927914D01*
X00048000Y00943913D02*
X00068560Y00943913D01*
X00052562Y00959911D02*
X00048000Y00959911D01*
X00048000Y00975910D02*
X00052000Y00975910D01*
X00052000Y00991908D02*
X00048000Y00991908D01*
X00048000Y01007907D02*
X00052000Y01007907D01*
X00052000Y01023906D02*
X00048000Y01023906D01*
X00048000Y01039904D02*
X00052000Y01039904D01*
X00053376Y01055903D02*
X00048000Y01055903D01*
X00048000Y01071901D02*
X00069374Y01071901D01*
X00101617Y00975910D02*
X00102151Y00975910D01*
X00117615Y00959911D02*
X00277385Y00959911D01*
X00261386Y00943913D02*
X00198277Y00943913D01*
X00219207Y00927914D02*
X00245388Y00927914D01*
X00229389Y00911916D02*
X00226363Y00911916D01*
X00197849Y00975910D02*
X00293383Y00975910D01*
X00309382Y00991908D02*
X00219030Y00991908D01*
X00226290Y01007907D02*
X00325380Y01007907D01*
X00341379Y01023906D02*
X00227370Y01023906D01*
X00223054Y01039904D02*
X00357377Y01039904D01*
X00373376Y01055903D02*
X00211219Y01055903D01*
X00535671Y00751931D02*
X01277000Y00751931D01*
X01277000Y00767929D02*
X00551669Y00767929D01*
X00519672Y00735932D02*
X01277000Y00735932D01*
X01277000Y00719934D02*
X00503674Y00719934D01*
X01123000Y01167892D02*
X01206351Y01167892D01*
X01203582Y01183891D02*
X01122448Y01183891D01*
X01240287Y00671938D02*
X01269713Y00671938D01*
X01266000Y00655939D02*
X01244000Y00655939D01*
X01244000Y00639941D02*
X01266000Y00639941D01*
X01273832Y00623942D02*
X01236168Y00623942D01*
X01430169Y00607944D02*
X01536000Y00607944D01*
X01542292Y00623942D02*
X01446168Y00623942D01*
X01454000Y00639941D02*
X01561449Y00639941D01*
X01598551Y00639941D02*
X01812000Y00639941D01*
X01812000Y00623942D02*
X01617708Y00623942D01*
X01624000Y00607944D02*
X01812000Y00607944D01*
X01812000Y00591945D02*
X01624000Y00591945D01*
X01617662Y00575947D02*
X01812000Y00575947D01*
X01812000Y00559948D02*
X01598284Y00559948D01*
X01588873Y00543950D02*
X01812000Y00543950D01*
X01812000Y00527951D02*
X01614274Y00527951D01*
X01622674Y00511953D02*
X01812000Y00511953D01*
X01812000Y00495954D02*
X01624000Y00495954D01*
X01619322Y00479956D02*
X01812000Y00479956D01*
X01812000Y00463957D02*
X01606183Y00463957D01*
X01588752Y00444000D02*
X01571248Y00444000D01*
X01555076Y00437301D01*
X01542699Y00424924D01*
X01536000Y00408752D01*
X01536000Y00391248D01*
X01542699Y00375076D01*
X01555076Y00362699D01*
X01571248Y00356000D01*
X01588752Y00356000D01*
X01604924Y00362699D01*
X01617301Y00375076D01*
X01624000Y00391248D01*
X01624000Y00408752D01*
X01617301Y00424924D01*
X01604924Y00437301D01*
X01588752Y00444000D01*
X01610265Y00431960D02*
X01812000Y00431960D01*
X01812000Y00415962D02*
X01621014Y00415962D01*
X01624000Y00399963D02*
X01812000Y00399963D01*
X01812000Y00383965D02*
X01620983Y00383965D01*
X01610191Y00367966D02*
X01819507Y00367966D01*
X01835506Y00351968D02*
X01439494Y00351968D01*
X01455493Y00367966D02*
X01549808Y00367966D01*
X01539017Y00383965D02*
X01471491Y00383965D01*
X01487490Y00399963D02*
X01536000Y00399963D01*
X01538986Y00415962D02*
X01503488Y00415962D01*
X01519487Y00431960D02*
X01549735Y00431960D01*
X01535485Y00447959D02*
X01812000Y00447959D01*
X01851504Y00335969D02*
X01605350Y00335969D01*
X01603061Y00337632D02*
X01596890Y00340776D01*
X01590303Y00342916D01*
X01583463Y00344000D01*
X01580000Y00344000D01*
X01580000Y00300001D01*
X01579999Y00300001D01*
X01579999Y00344000D01*
X01576537Y00344000D01*
X01569697Y00342916D01*
X01563110Y00340776D01*
X01556939Y00337632D01*
X01551336Y00333561D01*
X01546439Y00328664D01*
X01542368Y00323061D01*
X01539224Y00316890D01*
X01537083Y00310303D01*
X01536000Y00303463D01*
X01536000Y00300000D01*
X01579999Y00300000D01*
X01579999Y00299999D01*
X01580000Y00299999D01*
X01580000Y00256000D01*
X01583463Y00256000D01*
X01590303Y00257083D01*
X01596890Y00259224D01*
X01603061Y00262368D01*
X01608664Y00266439D01*
X01613561Y00271336D01*
X01617632Y00276939D01*
X01620776Y00283110D01*
X01622916Y00289697D01*
X01624000Y00296537D01*
X01624000Y00299999D01*
X01580001Y00299999D01*
X01580001Y00300000D01*
X01624000Y00300000D01*
X01624000Y00303463D01*
X01622916Y00310303D01*
X01620776Y00316890D01*
X01617632Y00323061D01*
X01613561Y00328664D01*
X01608664Y00333561D01*
X01603061Y00337632D01*
X01580000Y00335969D02*
X01579999Y00335969D01*
X01579999Y00319970D02*
X01580000Y00319970D01*
X01579999Y00303972D02*
X01580000Y00303972D01*
X01579999Y00299999D02*
X01536000Y00299999D01*
X01536000Y00296537D01*
X01537083Y00289697D01*
X01539224Y00283110D01*
X01542368Y00276939D01*
X01546439Y00271336D01*
X01551336Y00266439D01*
X01556939Y00262368D01*
X01563110Y00259224D01*
X01569697Y00257083D01*
X01576537Y00256000D01*
X01579999Y00256000D01*
X01579999Y00299999D01*
X01579999Y00287973D02*
X01580000Y00287973D01*
X01579999Y00271975D02*
X01580000Y00271975D01*
X01614025Y00271975D02*
X01845800Y00271975D01*
X01837356Y00287973D02*
X01622357Y00287973D01*
X01623919Y00303972D02*
X01836000Y00303972D01*
X01840647Y00319970D02*
X01619207Y00319970D01*
X01554650Y00335969D02*
X01423496Y00335969D01*
X01407497Y00319970D02*
X01540793Y00319970D01*
X01536081Y00303972D02*
X01391499Y00303972D01*
X01385748Y00287973D02*
X01375500Y00287973D01*
X01369750Y00271975D02*
X01359502Y00271975D01*
X01354000Y00255976D02*
X01366000Y00255976D01*
X01366000Y00239978D02*
X01354000Y00239978D01*
X01384509Y00191982D02*
X02115491Y00191982D01*
X02099492Y00207981D02*
X01430206Y00207981D01*
X01446205Y00223979D02*
X02083494Y00223979D01*
X02067495Y00239978D02*
X01454000Y00239978D01*
X01454000Y00255976D02*
X02051497Y00255976D01*
X02035498Y00271975D02*
X01914200Y00271975D01*
X01922644Y00287973D02*
X01949801Y00287973D01*
X01933803Y00303972D02*
X01924000Y00303972D01*
X01926000Y00319970D02*
X01919353Y00319970D01*
X01926000Y00335969D02*
X01906256Y00335969D01*
X01900559Y00351968D02*
X01929742Y00351968D01*
X01945741Y00367966D02*
X01910191Y00367966D01*
X01990199Y00287973D02*
X02019500Y00287973D01*
X01812000Y00655939D02*
X01454000Y00655939D01*
X01450287Y00671938D02*
X01812000Y00671938D01*
X01812000Y00687937D02*
X01434289Y00687937D01*
X01551484Y00463957D02*
X01553817Y00463957D01*
X01537643Y00287973D02*
X01434252Y00287973D01*
X01450250Y00271975D02*
X01545974Y00271975D01*
X01326445Y00303972D02*
X01288555Y00303972D01*
X01395692Y01791835D02*
X01423095Y01791835D01*
X01460306Y01807833D02*
X01379694Y01807833D01*
X01363695Y01823832D02*
X01476305Y01823832D01*
X01492304Y01839830D02*
X01267696Y01839830D01*
X01251698Y01855829D02*
X01508302Y01855829D01*
X01404299Y01967818D02*
X01355701Y01967818D01*
X01371699Y01983817D02*
X01388301Y01983817D01*
X01382000Y01999815D02*
X01378000Y01999815D01*
X01378000Y02015814D02*
X01382000Y02015814D01*
X01383930Y02031813D02*
X01376070Y02031813D01*
X01360071Y02047811D02*
X01399929Y02047811D01*
X01408308Y02063810D02*
X01351692Y02063810D01*
X01367690Y02079808D02*
X01392310Y02079808D01*
X01382000Y02095807D02*
X01378000Y02095807D01*
X01378000Y02111805D02*
X01382000Y02111805D01*
X01382000Y02127804D02*
X01378000Y02127804D01*
X01364080Y02143802D02*
X01395920Y02143802D01*
X01295920Y02143802D02*
X01264080Y02143802D01*
X01278000Y02127804D02*
X01282000Y02127804D01*
X01232000Y02095807D02*
X01228000Y02095807D01*
X01228000Y02079808D02*
X01232000Y02079808D01*
X01232000Y02063810D02*
X01228000Y02063810D01*
X01182000Y02127804D02*
X01178000Y02127804D01*
X01164080Y02143802D02*
X01195920Y02143802D01*
X01095920Y02143802D02*
X01064080Y02143802D01*
X01078000Y02127804D02*
X01082000Y02127804D01*
X01082000Y02111805D02*
X01078000Y02111805D01*
X01078000Y02095807D02*
X01082000Y02095807D01*
X01092310Y02079808D02*
X01067690Y02079808D01*
X01073717Y02063810D02*
X01108308Y02063810D01*
X01099929Y02047811D02*
X01089716Y02047811D01*
X01014473Y02058000D02*
X01010118Y02058000D01*
X00994822Y02042704D01*
X00994527Y02043000D01*
X00962704Y02074822D01*
X00978000Y02090118D01*
X00978000Y02108000D01*
X00932001Y02108000D01*
X00932001Y02112000D01*
X00978000Y02112000D01*
X00978000Y02129882D01*
X00956276Y02151606D01*
X01003724Y02151606D01*
X00982000Y02129882D01*
X00982000Y02090118D01*
X01010118Y02062000D01*
X01010473Y02062000D01*
X01014473Y02058000D01*
X01008308Y02063810D02*
X00973717Y02063810D01*
X00967690Y02079808D02*
X00992310Y02079808D01*
X00982000Y02095807D02*
X00978000Y02095807D01*
X00982000Y02111805D02*
X00932001Y02111805D01*
X00964080Y02143802D02*
X00995920Y02143802D01*
X00982000Y02127804D02*
X00978000Y02127804D01*
X00989716Y02047811D02*
X00999929Y02047811D01*
X01219701Y01887826D02*
X01233912Y01887826D01*
X01235699Y01871827D02*
X01244433Y01871827D01*
D19*
X01270000Y01900000D03*
X01445000Y01760000D03*
X01535000Y01900000D03*
X01635000Y01950000D03*
X01660000Y01900000D03*
X01775000Y01675000D03*
X01825000Y01675000D03*
X01860000Y01570000D03*
X01880000Y01520000D03*
X02020000Y01470000D03*
X01825000Y01390000D03*
X01775000Y01340000D03*
X01415000Y01305000D03*
X01085000Y01175000D03*
X01415000Y01015000D03*
X00925000Y01525000D03*
X00925000Y01575000D03*
X01030000Y01795000D03*
X00445000Y01095000D03*
X00475000Y00940000D03*
X00525000Y00865000D03*
X02055000Y01775000D03*
X02195000Y01860000D03*
X02265000Y01845000D03*
X02165000Y01930000D03*
X02065000Y02060000D03*
D20*
X02165000Y01930000D02*
X01690000Y01930000D01*
X01660000Y01900000D01*
X01535000Y01900000D02*
X01270000Y01900000D01*
X00925000Y01575000D02*
X00900000Y01575000D01*
X00860000Y01535000D01*
X00860000Y01530000D01*
X00560000Y01530000D02*
X00495000Y01465000D01*
X00495000Y01005000D01*
X00525000Y00975000D01*
X00525000Y00865000D01*
X00575000Y00845000D02*
X00575000Y00965000D01*
X00885000Y00965000D01*
X00960000Y01040000D01*
X01250000Y01040000D01*
X01335000Y01165000D02*
X01335000Y01175000D01*
X01270000Y01240000D01*
X01250000Y01240000D01*
X01335000Y01165000D02*
X01525000Y00975000D01*
X01575000Y00975000D01*
X01920000Y01320000D01*
X02490000Y01320000D01*
X02490000Y01220000D02*
X01890000Y01220000D01*
X01595000Y00925000D01*
X01505000Y00925000D01*
X01415000Y01015000D01*
X01550000Y01240000D02*
X01750000Y01240000D01*
X01930000Y01420000D01*
X02490000Y01420000D01*
X02490000Y01620000D02*
X02250000Y01620000D01*
X02100000Y01470000D01*
X02020000Y01470000D01*
X02080000Y01520000D02*
X01880000Y01520000D01*
X01860000Y01570000D02*
X02060000Y01570000D01*
X02310000Y01820000D01*
X02490000Y01820000D01*
X02490000Y01720000D02*
X02280000Y01720000D01*
X02080000Y01520000D01*
X02130000Y01725000D02*
X01735000Y01725000D01*
X01550000Y01540000D01*
X01415000Y01375000D02*
X01250000Y01540000D01*
X01415000Y01375000D02*
X01415000Y01305000D01*
X02130000Y01725000D02*
X02250000Y01845000D01*
X02265000Y01845000D01*
X02195000Y01860000D02*
X02255000Y01920000D01*
X02490000Y01920000D01*
X00575000Y01015000D02*
X00575000Y00965000D01*
X00575000Y01015000D02*
X00560000Y01030000D01*
X00575000Y00845000D02*
X00330000Y00600000D01*
X00330000Y00150000D01*
M02*
