G75*
%MOIN*%
%OFA0B0*%
%FSLAX26Y26*%
%IPPOS*%
%LPD*%
%AMOC8*
5,1,8,0,0,1.08239X$1,22.5*
%
%ADD10R,0.066000X0.066000*%
%ADD11C,0.066000*%
%ADD12C,0.060000*%
%ADD13C,0.059370*%
%ADD14C,0.052000*%
%ADD15OC8,0.052000*%
%ADD16OC8,0.060000*%
%ADD17C,0.010000*%
%ADD18C,0.016000*%
%ADD19C,0.040000*%
%ADD20C,0.040000*%
D10*
X00560000Y01730000D03*
X01250000Y01740000D03*
D11*
X01250000Y01640000D03*
X01250000Y01540000D03*
X01250000Y01440000D03*
X01250000Y01340000D03*
X01250000Y01240000D03*
X01250000Y01140000D03*
X01250000Y01040000D03*
X01550000Y01040000D03*
X01550000Y01140000D03*
X01550000Y01240000D03*
X01550000Y01340000D03*
X01550000Y01440000D03*
X01550000Y01540000D03*
X01550000Y01640000D03*
X01550000Y01740000D03*
X00860000Y01730000D03*
X00860000Y01630000D03*
X00860000Y01530000D03*
X00860000Y01430000D03*
X00860000Y01330000D03*
X00860000Y01230000D03*
X00860000Y01130000D03*
X00860000Y01030000D03*
X00560000Y01030000D03*
X00560000Y01130000D03*
X00560000Y01230000D03*
X00560000Y01330000D03*
X00560000Y01430000D03*
X00560000Y01530000D03*
X00560000Y01630000D03*
D12*
X02460000Y01620000D02*
X02520000Y01620000D01*
X02520000Y01520000D02*
X02460000Y01520000D01*
X02460000Y01420000D02*
X02520000Y01420000D01*
X02520000Y01320000D02*
X02460000Y01320000D01*
X02460000Y01220000D02*
X02520000Y01220000D01*
X02520000Y01040000D02*
X02460000Y01040000D01*
X02460000Y00940000D02*
X02520000Y00940000D01*
X02520000Y00840000D02*
X02460000Y00840000D01*
X02460000Y00580000D02*
X02520000Y00580000D01*
X02520000Y00480000D02*
X02460000Y00480000D01*
X02460000Y00380000D02*
X02520000Y00380000D01*
X02520000Y01720000D02*
X02460000Y01720000D01*
X02460000Y01820000D02*
X02520000Y01820000D01*
X02520000Y01920000D02*
X02460000Y01920000D01*
D13*
X00430000Y00179685D02*
X00430000Y00120315D01*
X00330000Y00120315D02*
X00330000Y00179685D01*
X00179685Y00570000D02*
X00120315Y00570000D01*
X00120315Y00670000D02*
X00179685Y00670000D01*
X00179685Y00800000D02*
X00120315Y00800000D01*
X00120315Y00900000D02*
X00179685Y00900000D01*
X00179685Y01020000D02*
X00120315Y01020000D01*
X00120315Y01120000D02*
X00179685Y01120000D01*
X00179685Y01240000D02*
X00120315Y01240000D01*
X00120315Y01340000D02*
X00179685Y01340000D01*
X00179685Y01470000D02*
X00120315Y01470000D01*
X00120315Y01570000D02*
X00179685Y01570000D01*
X00179685Y01700000D02*
X00120315Y01700000D01*
X00120315Y01800000D02*
X00179685Y01800000D01*
D14*
X01580000Y00600000D03*
X01580000Y00500000D03*
X01580000Y00400000D03*
X01580000Y00300000D03*
X01880000Y00300000D03*
X01880000Y00400000D03*
X01880000Y00500000D03*
X01880000Y00600000D03*
D15*
X01990000Y00670000D03*
X01990000Y00780000D03*
X02280000Y00890000D03*
X02280000Y00990000D03*
X02390000Y00780000D03*
X02390000Y00670000D03*
X02280000Y00530000D03*
X02280000Y00430000D03*
X02370000Y00330000D03*
X02290000Y00150000D03*
X02190000Y00150000D03*
X01970000Y00330000D03*
X01410000Y00250000D03*
X01310000Y00250000D03*
X01200000Y00250000D03*
X01100000Y00250000D03*
X01100000Y00650000D03*
X01200000Y00650000D03*
X01310000Y00650000D03*
X01410000Y00650000D03*
D16*
X01430000Y02010000D03*
X01330000Y02010000D03*
X01230000Y02010000D03*
X01130000Y02010000D03*
X01030000Y02010000D03*
X00930000Y02010000D03*
X00830000Y02010000D03*
X00730000Y02010000D03*
X00730000Y02110000D03*
X00830000Y02110000D03*
X00930000Y02110000D03*
X01030000Y02110000D03*
X01130000Y02110000D03*
X01230000Y02110000D03*
X01330000Y02110000D03*
X01430000Y02110000D03*
X01530000Y02110000D03*
X01630000Y02110000D03*
X01730000Y02110000D03*
X01830000Y02110000D03*
X01930000Y02110000D03*
X02030000Y02110000D03*
X02130000Y02110000D03*
X02130000Y02010000D03*
X02030000Y02010000D03*
X01930000Y02010000D03*
X01830000Y02010000D03*
X01730000Y02010000D03*
X01630000Y02010000D03*
X01530000Y02010000D03*
X02230000Y02010000D03*
X02230000Y02110000D03*
X00630000Y02110000D03*
X00530000Y02110000D03*
X00430000Y02110000D03*
X00330000Y02110000D03*
X00330000Y02010000D03*
X00430000Y02010000D03*
X00530000Y02010000D03*
X00630000Y02010000D03*
D17*
X00730000Y02010000D02*
X00775000Y02055000D01*
X00840000Y02055000D01*
X00895000Y02110000D01*
X00930000Y02110000D01*
X00975000Y02065000D01*
X01150000Y02065000D01*
X01195000Y02110000D01*
X01230000Y02110000D01*
X01240000Y02055000D02*
X01210000Y02055000D01*
X01175000Y02020000D01*
X01175000Y01940000D01*
X01030000Y01795000D01*
X01050000Y01965000D02*
X00375000Y01965000D01*
X00330000Y02010000D01*
X00320000Y01700000D02*
X00150000Y01700000D01*
X00320000Y01700000D02*
X00540000Y01480000D01*
X01020000Y01480000D01*
X01230000Y01690000D01*
X01375000Y01690000D01*
X01445000Y01760000D01*
X01480000Y01700000D02*
X01480000Y01960000D01*
X01530000Y02010000D01*
X01575000Y01990000D02*
X01575000Y02065000D01*
X01530000Y02110000D01*
X01430000Y02110000D02*
X01395000Y02110000D01*
X01340000Y02055000D01*
X01310000Y02055000D01*
X01275000Y02020000D01*
X01275000Y01990000D01*
X00915000Y01630000D01*
X00860000Y01630000D01*
X00880000Y01580000D02*
X00910000Y01610000D01*
X00930000Y01610000D01*
X01330000Y02010000D01*
X01240000Y02055000D02*
X01295000Y02110000D01*
X01330000Y02110000D01*
X01430000Y02010000D02*
X00945000Y01525000D01*
X00925000Y01525000D01*
X00880000Y01580000D02*
X00610000Y01580000D01*
X00560000Y01630000D01*
X00405000Y01515000D02*
X00540000Y01380000D01*
X01220000Y01380000D01*
X01230000Y01390000D01*
X01270000Y01390000D01*
X01500000Y01620000D01*
X01500000Y01915000D01*
X01575000Y01990000D01*
X01635000Y01950000D02*
X01835000Y01950000D01*
X01885000Y02000000D01*
X01885000Y02030000D01*
X01920000Y02065000D01*
X01985000Y02065000D01*
X02030000Y02110000D01*
X02015000Y02060000D02*
X02065000Y02060000D01*
X02085000Y02030000D02*
X02085000Y01795000D01*
X02090000Y01790000D01*
X02090000Y00880000D01*
X01990000Y00780000D01*
X01945000Y00795000D02*
X01945000Y00670000D01*
X01680000Y00670000D01*
X01610000Y00600000D01*
X01580000Y00600000D01*
X01595000Y00555000D02*
X01505000Y00555000D01*
X01410000Y00650000D01*
X01365000Y00655000D02*
X01365000Y00635000D01*
X01545000Y00455000D01*
X01775000Y00455000D01*
X01875000Y00555000D01*
X01935000Y00555000D01*
X02130000Y00750000D01*
X02130000Y02010000D01*
X02085000Y02030000D02*
X02130000Y02075000D01*
X02130000Y02110000D01*
X02015000Y02060000D02*
X01985000Y02030000D01*
X01985000Y02000000D01*
X01825000Y01840000D01*
X01825000Y01675000D01*
X01775000Y01675000D02*
X01775000Y01855000D01*
X01930000Y02010000D01*
X01850000Y02065000D02*
X01775000Y02065000D01*
X01730000Y02110000D01*
X01850000Y02065000D02*
X01895000Y02110000D01*
X01930000Y02110000D01*
X02030000Y02010000D02*
X02030000Y01830000D01*
X01640000Y01440000D01*
X01640000Y01060000D01*
X01560000Y00980000D01*
X01400000Y00980000D01*
X01290000Y01090000D01*
X01230000Y01090000D01*
X01200000Y01120000D01*
X01200000Y01185000D01*
X01105000Y01280000D01*
X00540000Y01280000D01*
X00445000Y01185000D01*
X00445000Y01095000D01*
X00410000Y01175000D02*
X00410000Y00955000D01*
X00465000Y00900000D01*
X00810000Y00900000D01*
X00870000Y00840000D01*
X01620000Y00840000D01*
X01825000Y01045000D01*
X01825000Y01390000D01*
X01775000Y01340000D02*
X01775000Y01025000D01*
X01610000Y00860000D01*
X00880000Y00860000D01*
X00800000Y00940000D01*
X00475000Y00940000D01*
X00315000Y01020000D02*
X00640000Y00695000D01*
X01325000Y00695000D01*
X01365000Y00655000D01*
X01310000Y00650000D02*
X01310000Y00610000D01*
X01580000Y00340000D01*
X01580000Y00300000D01*
X01635000Y00250000D02*
X01410000Y00250000D01*
X01580000Y00400000D02*
X01755000Y00400000D01*
X01810000Y00455000D01*
X02145000Y00455000D01*
X02270000Y00580000D01*
X02490000Y00580000D01*
X02565000Y00600000D02*
X02565000Y00460000D01*
X02490000Y00385000D01*
X02490000Y00380000D01*
X02485000Y00380000D01*
X02290000Y00185000D01*
X02290000Y00150000D01*
X02490000Y00380000D02*
X02340000Y00530000D01*
X02280000Y00530000D01*
X02490000Y00675000D02*
X02565000Y00600000D01*
X02490000Y00675000D02*
X02490000Y00840000D01*
X02280000Y00990000D02*
X02230000Y01040000D01*
X02230000Y02010000D01*
X02055000Y01775000D02*
X02055000Y00905000D01*
X01945000Y00795000D01*
X01945000Y00670000D02*
X01990000Y00670000D01*
X01880000Y00600000D02*
X01640000Y00600000D01*
X01595000Y00555000D01*
X01785000Y00400000D02*
X01635000Y00250000D01*
X01785000Y00400000D02*
X01880000Y00400000D01*
X01550000Y01040000D02*
X01550000Y01070000D01*
X01600000Y01120000D01*
X01600000Y01690000D01*
X01550000Y01740000D01*
X01480000Y01700000D02*
X01250000Y01470000D01*
X01250000Y01440000D01*
X01250000Y01340000D02*
X01240000Y01330000D01*
X00860000Y01330000D01*
X00560000Y01330000D01*
X00410000Y01175000D02*
X00150000Y01435000D01*
X00150000Y01470000D01*
X00100000Y01515000D02*
X00405000Y01515000D01*
X00100000Y01515000D02*
X00075000Y01490000D01*
X00075000Y01315000D01*
X00150000Y01240000D01*
X00150000Y01020000D02*
X00315000Y01020000D01*
X00860000Y01130000D02*
X00905000Y01175000D01*
X01085000Y01175000D01*
X01250000Y01340000D02*
X01550000Y01340000D01*
X01050000Y01965000D02*
X01095000Y02010000D01*
X01130000Y02010000D01*
D18*
X00205849Y00049578D02*
X00203115Y00048000D01*
X02355885Y00048000D01*
X02353151Y00049578D01*
X02332578Y00070151D01*
X02318030Y00095349D01*
X02313707Y00111482D01*
X02308225Y00106000D01*
X02290000Y00106000D01*
X02290000Y00149999D01*
X02289999Y00149999D01*
X02289999Y00106000D01*
X02271775Y00106000D01*
X02246000Y00131775D01*
X02246000Y00149999D01*
X02289999Y00149999D01*
X02289999Y00150000D01*
X02246000Y00150000D01*
X02246000Y00168225D01*
X02271775Y00194000D01*
X02289999Y00194000D01*
X02289999Y00150001D01*
X02290000Y00150001D01*
X02290000Y00194000D01*
X02308225Y00194000D01*
X02319327Y00182898D01*
X02332578Y00205849D01*
X02353151Y00226422D01*
X02378349Y00240969D01*
X02406452Y00248500D01*
X02435548Y00248500D01*
X02463651Y00240969D01*
X02488849Y00226422D01*
X02509422Y00205849D01*
X02523969Y00180651D01*
X02531500Y00152548D01*
X02531500Y00123452D01*
X02523969Y00095349D01*
X02509422Y00070151D01*
X02488849Y00049578D01*
X02486115Y00048000D01*
X02569008Y00048000D01*
X02569008Y02151606D01*
X02492664Y02151606D01*
X02509422Y02134849D01*
X02523969Y02109651D01*
X02531500Y02081548D01*
X02531500Y02052452D01*
X02523969Y02024349D01*
X02509422Y01999151D01*
X02488849Y01978578D01*
X02470526Y01968000D01*
X02529548Y01968000D01*
X02547190Y01960692D01*
X02560692Y01947190D01*
X02568000Y01929548D01*
X02568000Y01910452D01*
X02560692Y01892810D01*
X02547190Y01879308D01*
X02529548Y01872000D01*
X02450452Y01872000D01*
X02432810Y01879308D01*
X02419308Y01892810D01*
X02412000Y01910452D01*
X02412000Y01929548D01*
X02419308Y01947190D01*
X02428618Y01956500D01*
X02406452Y01956500D01*
X02378349Y01964030D01*
X02353151Y01978578D01*
X02332578Y01999151D01*
X02318030Y02024349D01*
X02310500Y02052452D01*
X02310500Y02081548D01*
X02318030Y02109651D01*
X02332578Y02134849D01*
X02349336Y02151606D01*
X02256276Y02151606D01*
X02278000Y02129882D01*
X02278000Y02090118D01*
X02249882Y02062000D01*
X02210118Y02062000D01*
X02182000Y02090118D01*
X02182000Y02129882D01*
X02203724Y02151606D01*
X02156276Y02151606D01*
X02178000Y02129882D01*
X02178000Y02090118D01*
X02149882Y02062000D01*
X02149527Y02062000D01*
X02145527Y02058000D01*
X02149882Y02058000D01*
X02178000Y02029882D01*
X02178000Y01990118D01*
X02154779Y01966897D01*
X02157441Y01968000D01*
X02172559Y01968000D01*
X02186525Y01962215D01*
X02197215Y01951525D01*
X02197215Y01951525D01*
X02227215Y01921525D01*
X02233000Y01907559D01*
X02233000Y01866740D01*
X02243475Y01877215D01*
X02257441Y01883000D01*
X02272559Y01883000D01*
X02286525Y01877215D01*
X02297215Y01866525D01*
X02303000Y01852559D01*
X02303000Y01745740D01*
X02414107Y01634633D01*
X02419308Y01647190D01*
X02432810Y01660692D01*
X02450452Y01668000D01*
X02529548Y01668000D01*
X02547190Y01660692D01*
X02560692Y01647190D01*
X02568000Y01629548D01*
X02568000Y01610452D01*
X02560692Y01592810D01*
X02547190Y01579308D01*
X02529548Y01572000D01*
X02476740Y01572000D01*
X02480740Y01568000D01*
X02529548Y01568000D01*
X02547190Y01560692D01*
X02560692Y01547190D01*
X02568000Y01529548D01*
X02568000Y01510452D01*
X02560692Y01492810D01*
X02547190Y01479308D01*
X02529548Y01472000D01*
X02450452Y01472000D01*
X02432810Y01479308D01*
X02419308Y01492810D01*
X02412000Y01510452D01*
X02412000Y01529260D01*
X02243475Y01697785D01*
X02232785Y01708475D01*
X02227000Y01722441D01*
X02227000Y01838260D01*
X02216525Y01827785D01*
X02202559Y01822000D01*
X02187441Y01822000D01*
X02173475Y01827785D01*
X02162785Y01838475D01*
X02157000Y01852441D01*
X02157000Y01884260D01*
X02153000Y01888260D01*
X02153000Y00740473D01*
X02139527Y00727000D01*
X01944527Y00532000D01*
X01910225Y00532000D01*
X01917301Y00524924D01*
X01924000Y00508752D01*
X01924000Y00491248D01*
X01918512Y00478000D01*
X02135473Y00478000D01*
X02247000Y00589527D01*
X02260473Y00603000D01*
X02417572Y00603000D01*
X02419308Y00607190D01*
X02432810Y00620692D01*
X02450452Y00628000D01*
X02529548Y00628000D01*
X02547190Y00620692D01*
X02560692Y00607190D01*
X02568000Y00589548D01*
X02568000Y00570452D01*
X02560692Y00552810D01*
X02547190Y00539308D01*
X02529548Y00532000D01*
X02450452Y00532000D01*
X02432810Y00539308D01*
X02419308Y00552810D01*
X02417572Y00557000D01*
X02315225Y00557000D01*
X02324000Y00548225D01*
X02324000Y00530000D01*
X02280001Y00530000D01*
X02280001Y00529999D01*
X02324000Y00529999D01*
X02324000Y00511775D01*
X02298225Y00486000D01*
X02280000Y00486000D01*
X02280000Y00529999D01*
X02279999Y00529999D01*
X02279999Y00486000D01*
X02261775Y00486000D01*
X02236000Y00511775D01*
X02236000Y00513473D01*
X02154527Y00432000D01*
X01910225Y00432000D01*
X01917301Y00424924D01*
X01924000Y00408752D01*
X01924000Y00391248D01*
X01917301Y00375076D01*
X01904924Y00362699D01*
X01888752Y00356000D01*
X01871248Y00356000D01*
X01855076Y00362699D01*
X01842699Y00375076D01*
X01841902Y00377000D01*
X01794527Y00377000D01*
X01658000Y00240473D01*
X01644527Y00227000D01*
X01449225Y00227000D01*
X01428225Y00206000D01*
X01391775Y00206000D01*
X01366000Y00231775D01*
X01366000Y00268225D01*
X01391775Y00294000D01*
X01428225Y00294000D01*
X01449225Y00273000D01*
X01545230Y00273000D01*
X01542368Y00276939D01*
X01539224Y00283110D01*
X01537083Y00289697D01*
X01536000Y00296537D01*
X01536000Y00299999D01*
X01579999Y00299999D01*
X01579999Y00300000D01*
X01536000Y00300000D01*
X01536000Y00303463D01*
X01537083Y00310303D01*
X01539224Y00316890D01*
X01542368Y00323061D01*
X01546439Y00328664D01*
X01551336Y00333561D01*
X01556939Y00337632D01*
X01563110Y00340776D01*
X01569697Y00342916D01*
X01576537Y00344000D01*
X01579999Y00344000D01*
X01579999Y00300001D01*
X01580000Y00300001D01*
X01580000Y00344000D01*
X01583463Y00344000D01*
X01590303Y00342916D01*
X01596890Y00340776D01*
X01603061Y00337632D01*
X01608664Y00333561D01*
X01613561Y00328664D01*
X01617632Y00323061D01*
X01620776Y00316890D01*
X01622916Y00310303D01*
X01624000Y00303463D01*
X01624000Y00300000D01*
X01580001Y00300000D01*
X01580001Y00299999D01*
X01624000Y00299999D01*
X01624000Y00296537D01*
X01622916Y00289697D01*
X01620776Y00283110D01*
X01617632Y00276939D01*
X01614770Y00273000D01*
X01625473Y00273000D01*
X01729473Y00377000D01*
X01618098Y00377000D01*
X01617301Y00375076D01*
X01604924Y00362699D01*
X01588752Y00356000D01*
X01571248Y00356000D01*
X01555076Y00362699D01*
X01542699Y00375076D01*
X01536000Y00391248D01*
X01536000Y00408752D01*
X01542699Y00424924D01*
X01549775Y00432000D01*
X01535473Y00432000D01*
X01522000Y00445473D01*
X01344849Y00622624D01*
X01328225Y00606000D01*
X01310000Y00606000D01*
X01310000Y00649999D01*
X01309999Y00649999D01*
X01309999Y00606000D01*
X01291775Y00606000D01*
X01266000Y00631775D01*
X01266000Y00649999D01*
X01309999Y00649999D01*
X01309999Y00650000D01*
X01266000Y00650000D01*
X01266000Y00668225D01*
X01269775Y00672000D01*
X01240225Y00672000D01*
X01244000Y00668225D01*
X01244000Y00650000D01*
X01200001Y00650000D01*
X01200001Y00649999D01*
X01244000Y00649999D01*
X01244000Y00631775D01*
X01218225Y00606000D01*
X01200000Y00606000D01*
X01200000Y00649999D01*
X01199999Y00649999D01*
X01199999Y00606000D01*
X01181775Y00606000D01*
X01156000Y00631775D01*
X01156000Y00649999D01*
X01199999Y00649999D01*
X01199999Y00650000D01*
X01156000Y00650000D01*
X01156000Y00668225D01*
X01159775Y00672000D01*
X01140225Y00672000D01*
X01144000Y00668225D01*
X01144000Y00631775D01*
X01118225Y00606000D01*
X01081775Y00606000D01*
X01056000Y00631775D01*
X01056000Y00668225D01*
X01059775Y00672000D01*
X00630473Y00672000D01*
X00617000Y00685473D01*
X00305473Y00997000D01*
X00221772Y00997000D01*
X00220110Y00992989D01*
X00206696Y00979575D01*
X00189170Y00972315D01*
X00110830Y00972315D01*
X00093304Y00979575D01*
X00079890Y00992989D01*
X00072630Y01010515D01*
X00072630Y01029485D01*
X00079890Y01047011D01*
X00093304Y01060425D01*
X00110830Y01067685D01*
X00189170Y01067685D01*
X00206696Y01060425D01*
X00220110Y01047011D01*
X00221772Y01043000D01*
X00324527Y01043000D01*
X00387000Y00980527D01*
X00387000Y01165473D01*
X00225785Y01326688D01*
X00220110Y01312989D01*
X00206696Y01299575D01*
X00189170Y01292315D01*
X00130212Y01292315D01*
X00134842Y01287685D01*
X00189170Y01287685D01*
X00206696Y01280425D01*
X00220110Y01267011D01*
X00227370Y01249485D01*
X00227370Y01230515D01*
X00220110Y01212989D01*
X00206696Y01199575D01*
X00189170Y01192315D01*
X00110830Y01192315D01*
X00093304Y01199575D01*
X00079890Y01212989D01*
X00072630Y01230515D01*
X00072630Y01249485D01*
X00079890Y01267011D01*
X00085176Y01272297D01*
X00065473Y01292000D01*
X00052000Y01305473D01*
X00052000Y01499527D01*
X00077000Y01524527D01*
X00087676Y01535203D01*
X00079890Y01542989D01*
X00072630Y01560515D01*
X00072630Y01579485D01*
X00079890Y01597011D01*
X00093304Y01610425D01*
X00110830Y01617685D01*
X00189170Y01617685D01*
X00206696Y01610425D01*
X00220110Y01597011D01*
X00227370Y01579485D01*
X00227370Y01560515D01*
X00220110Y01542989D01*
X00215122Y01538000D01*
X00414527Y01538000D01*
X00510336Y01442190D01*
X00512736Y01449577D01*
X00516381Y01456730D01*
X00521099Y01463224D01*
X00522674Y01464799D01*
X00517000Y01470473D01*
X00310473Y01677000D01*
X00221772Y01677000D01*
X00220110Y01672989D01*
X00206696Y01659575D01*
X00189170Y01652315D01*
X00110830Y01652315D01*
X00093304Y01659575D01*
X00079890Y01672989D01*
X00072630Y01690515D01*
X00072630Y01709485D01*
X00079890Y01727011D01*
X00093304Y01740425D01*
X00110830Y01747685D01*
X00189170Y01747685D01*
X00206696Y01740425D01*
X00220110Y01727011D01*
X00221772Y01723000D01*
X00329527Y01723000D01*
X00509991Y01542536D01*
X00516764Y01558889D01*
X00531111Y01573236D01*
X00547441Y01580000D01*
X00531111Y01586764D01*
X00516764Y01601111D01*
X00509000Y01619855D01*
X00509000Y01640145D01*
X00516764Y01658889D01*
X00531111Y01673236D01*
X00545028Y01679000D01*
X00519544Y01679000D01*
X00509000Y01689544D01*
X00509000Y01770456D01*
X00519544Y01781000D01*
X00600456Y01781000D01*
X00611000Y01770456D01*
X00611000Y01689544D01*
X00600456Y01679000D01*
X00574972Y01679000D01*
X00588889Y01673236D01*
X00603236Y01658889D01*
X00611000Y01640145D01*
X00611000Y01619855D01*
X00608560Y01613966D01*
X00619527Y01603000D01*
X00815982Y01603000D01*
X00809000Y01619855D01*
X00809000Y01640145D01*
X00816764Y01658889D01*
X00831111Y01673236D01*
X00847441Y01680000D01*
X00831111Y01686764D01*
X00816764Y01701111D01*
X00809000Y01719855D01*
X00809000Y01740145D01*
X00816764Y01758889D01*
X00831111Y01773236D01*
X00849855Y01781000D01*
X00870145Y01781000D01*
X00888889Y01773236D01*
X00903236Y01758889D01*
X00911000Y01740145D01*
X00911000Y01719855D01*
X00903236Y01701111D01*
X00888889Y01686764D01*
X00872559Y01680000D01*
X00888889Y01673236D01*
X00903236Y01658889D01*
X00905616Y01653143D01*
X01013272Y01760798D01*
X01008475Y01762785D01*
X00997785Y01773475D01*
X00992000Y01787441D01*
X00992000Y01802559D01*
X00997785Y01816525D01*
X01008475Y01827215D01*
X01022441Y01833000D01*
X01035473Y01833000D01*
X01152000Y01949527D01*
X01152000Y01964118D01*
X01149882Y01962000D01*
X01110118Y01962000D01*
X01094822Y01977296D01*
X01073000Y01955473D01*
X01059527Y01942000D01*
X00365473Y01942000D01*
X00345473Y01962000D01*
X00310118Y01962000D01*
X00282000Y01990118D01*
X00282000Y02029882D01*
X00310118Y02058000D01*
X00349882Y02058000D01*
X00378000Y02029882D01*
X00378000Y01994527D01*
X00382000Y01990527D01*
X00382000Y02029882D01*
X00410118Y02058000D01*
X00449882Y02058000D01*
X00478000Y02029882D01*
X00478000Y01990118D01*
X00475882Y01988000D01*
X00484118Y01988000D01*
X00482000Y01990118D01*
X00482000Y02029882D01*
X00510118Y02058000D01*
X00549882Y02058000D01*
X00578000Y02029882D01*
X00578000Y01990118D01*
X00575882Y01988000D01*
X00584118Y01988000D01*
X00582000Y01990118D01*
X00582000Y02029882D01*
X00610118Y02058000D01*
X00649882Y02058000D01*
X00678000Y02029882D01*
X00678000Y01990118D01*
X00675882Y01988000D01*
X00684118Y01988000D01*
X00682000Y01990118D01*
X00682000Y02008000D01*
X00727999Y02008000D01*
X00727999Y02012000D01*
X00682000Y02012000D01*
X00682000Y02029882D01*
X00710118Y02058000D01*
X00728000Y02058000D01*
X00728000Y02012001D01*
X00732000Y02012001D01*
X00732000Y02058000D01*
X00749882Y02058000D01*
X00778000Y02029882D01*
X00778000Y02012000D01*
X00732001Y02012000D01*
X00732001Y02008000D01*
X00778000Y02008000D01*
X00778000Y01990118D01*
X00775882Y01988000D01*
X00784118Y01988000D01*
X00782000Y01990118D01*
X00782000Y02029882D01*
X00810118Y02058000D01*
X00849882Y02058000D01*
X00878000Y02029882D01*
X00878000Y01990118D01*
X00875882Y01988000D01*
X00884118Y01988000D01*
X00882000Y01990118D01*
X00882000Y02029882D01*
X00910118Y02058000D01*
X00949882Y02058000D01*
X00978000Y02029882D01*
X00978000Y01990118D01*
X00975882Y01988000D01*
X00984118Y01988000D01*
X00982000Y01990118D01*
X00982000Y02029882D01*
X01010118Y02058000D01*
X01049882Y02058000D01*
X01078000Y02029882D01*
X01078000Y02025527D01*
X01082000Y02029527D01*
X01082000Y02029882D01*
X01110118Y02058000D01*
X01149882Y02058000D01*
X01165178Y02042704D01*
X01165473Y02043000D01*
X01197296Y02074822D01*
X01182000Y02090118D01*
X01182000Y02108000D01*
X01227999Y02108000D01*
X01227999Y02112000D01*
X01182000Y02112000D01*
X01182000Y02129882D01*
X01203724Y02151606D01*
X01156276Y02151606D01*
X01178000Y02129882D01*
X01178000Y02090118D01*
X01149882Y02062000D01*
X01110118Y02062000D01*
X01082000Y02090118D01*
X01082000Y02129882D01*
X01103724Y02151606D01*
X01056276Y02151606D01*
X01078000Y02129882D01*
X01078000Y02090118D01*
X01049882Y02062000D01*
X01010118Y02062000D01*
X00982000Y02090118D01*
X00982000Y02129882D01*
X01003724Y02151606D01*
X00956276Y02151606D01*
X00978000Y02129882D01*
X00978000Y02112000D01*
X00932001Y02112000D01*
X00932001Y02108000D01*
X00978000Y02108000D01*
X00978000Y02090118D01*
X00949882Y02062000D01*
X00932000Y02062000D01*
X00932000Y02107999D01*
X00928000Y02107999D01*
X00928000Y02062000D01*
X00910118Y02062000D01*
X00882000Y02090118D01*
X00882000Y02108000D01*
X00927999Y02108000D01*
X00927999Y02112000D01*
X00882000Y02112000D01*
X00882000Y02129882D01*
X00903724Y02151606D01*
X00856276Y02151606D01*
X00878000Y02129882D01*
X00878000Y02090118D01*
X00849882Y02062000D01*
X00810118Y02062000D01*
X00782000Y02090118D01*
X00782000Y02129882D01*
X00803724Y02151606D01*
X00756276Y02151606D01*
X00778000Y02129882D01*
X00778000Y02090118D01*
X00749882Y02062000D01*
X00710118Y02062000D01*
X00682000Y02090118D01*
X00682000Y02129882D01*
X00703724Y02151606D01*
X00656276Y02151606D01*
X00678000Y02129882D01*
X00678000Y02090118D01*
X00649882Y02062000D01*
X00610118Y02062000D01*
X00582000Y02090118D01*
X00582000Y02129882D01*
X00603724Y02151606D01*
X00556276Y02151606D01*
X00578000Y02129882D01*
X00578000Y02112000D01*
X00532001Y02112000D01*
X00532001Y02108000D01*
X00578000Y02108000D01*
X00578000Y02090118D01*
X00549882Y02062000D01*
X00532000Y02062000D01*
X00532000Y02107999D01*
X00528000Y02107999D01*
X00528000Y02062000D01*
X00510118Y02062000D01*
X00482000Y02090118D01*
X00482000Y02108000D01*
X00527999Y02108000D01*
X00527999Y02112000D01*
X00482000Y02112000D01*
X00482000Y02129882D01*
X00503724Y02151606D01*
X00456276Y02151606D01*
X00478000Y02129882D01*
X00478000Y02090118D01*
X00449882Y02062000D01*
X00410118Y02062000D01*
X00382000Y02090118D01*
X00382000Y02129882D01*
X00403724Y02151606D01*
X00356276Y02151606D01*
X00378000Y02129882D01*
X00378000Y02090118D01*
X00349882Y02062000D01*
X00310118Y02062000D01*
X00282000Y02090118D01*
X00282000Y02129882D01*
X00303724Y02151606D01*
X00209664Y02151606D01*
X00226422Y02134849D01*
X00240969Y02109651D01*
X00248500Y02081548D01*
X00248500Y02052452D01*
X00240969Y02024349D01*
X00226422Y01999151D01*
X00205849Y01978578D01*
X00180651Y01964030D01*
X00152548Y01956500D01*
X00123452Y01956500D01*
X00095349Y01964030D01*
X00070151Y01978578D01*
X00049578Y01999151D01*
X00048000Y02001885D01*
X00048000Y00203115D01*
X00049578Y00205849D01*
X00070151Y00226422D01*
X00095349Y00240969D01*
X00123452Y00248500D01*
X00152548Y00248500D01*
X00180651Y00240969D01*
X00205849Y00226422D01*
X00226422Y00205849D01*
X00240969Y00180651D01*
X00248500Y00152548D01*
X00248500Y00123452D01*
X00240969Y00095349D01*
X00226422Y00070151D01*
X00205849Y00049578D01*
X00220265Y00063994D02*
X02338735Y00063994D01*
X02326896Y00079993D02*
X00455628Y00079993D01*
X00454992Y00079531D02*
X00461065Y00083943D01*
X00466372Y00089250D01*
X00470784Y00095322D01*
X00474191Y00102010D01*
X00476511Y00109149D01*
X00477685Y00116562D01*
X00477685Y00148157D01*
X00431843Y00148157D01*
X00431843Y00151843D01*
X00477685Y00151843D01*
X00477685Y00183438D01*
X00476511Y00190851D01*
X00474191Y00197990D01*
X00470784Y00204677D01*
X00466372Y00210750D01*
X00461065Y00216057D01*
X00454992Y00220469D01*
X00448305Y00223876D01*
X00441166Y00226196D01*
X00433753Y00227370D01*
X00431843Y00227370D01*
X00431843Y00151843D01*
X00428157Y00151843D01*
X00428157Y00227370D01*
X00426247Y00227370D01*
X00418834Y00226196D01*
X00411695Y00223876D01*
X00405008Y00220469D01*
X00398935Y00216057D01*
X00393628Y00210750D01*
X00389216Y00204677D01*
X00385809Y00197990D01*
X00383489Y00190851D01*
X00382315Y00183438D01*
X00382315Y00151843D01*
X00428157Y00151843D01*
X00428157Y00148157D01*
X00431843Y00148157D01*
X00431843Y00072630D01*
X00433753Y00072630D01*
X00441166Y00073804D01*
X00448305Y00076124D01*
X00454992Y00079531D01*
X00471125Y00095991D02*
X02317858Y00095991D01*
X02290000Y00111990D02*
X02289999Y00111990D01*
X02289999Y00127988D02*
X02290000Y00127988D01*
X02289999Y00143987D02*
X02290000Y00143987D01*
X02289999Y00159985D02*
X02290000Y00159985D01*
X02289999Y00175984D02*
X02290000Y00175984D01*
X02289999Y00191982D02*
X02290000Y00191982D01*
X02310243Y00191982D02*
X02324572Y00191982D01*
X02334710Y00207981D02*
X01430206Y00207981D01*
X01446204Y00223979D02*
X02350709Y00223979D01*
X02376631Y00239978D02*
X01657505Y00239978D01*
X01673503Y00255976D02*
X02569008Y00255976D01*
X02569008Y00239978D02*
X02465369Y00239978D01*
X02491291Y00223979D02*
X02569008Y00223979D01*
X02569008Y00207981D02*
X02507290Y00207981D01*
X02517428Y00191982D02*
X02569008Y00191982D01*
X02569008Y00175984D02*
X02525220Y00175984D01*
X02529507Y00159985D02*
X02569008Y00159985D01*
X02569008Y00143987D02*
X02531500Y00143987D01*
X02531500Y00127988D02*
X02569008Y00127988D01*
X02569008Y00111990D02*
X02528428Y00111990D01*
X02524142Y00095991D02*
X02569008Y00095991D01*
X02569008Y00079993D02*
X02515104Y00079993D01*
X02503265Y00063994D02*
X02569008Y00063994D01*
X02569008Y00271975D02*
X01914200Y00271975D01*
X01917301Y00275076D02*
X01924000Y00291248D01*
X01924000Y00308752D01*
X01917301Y00324924D01*
X01904924Y00337301D01*
X01888752Y00344000D01*
X01871248Y00344000D01*
X01855076Y00337301D01*
X01842699Y00324924D01*
X01836000Y00308752D01*
X01836000Y00291248D01*
X01842699Y00275076D01*
X01855076Y00262699D01*
X01871248Y00256000D01*
X01888752Y00256000D01*
X01904924Y00262699D01*
X01917301Y00275076D01*
X01922644Y00287973D02*
X01949801Y00287973D01*
X01951775Y00286000D02*
X01988225Y00286000D01*
X02014000Y00311775D01*
X02014000Y00348225D01*
X01988225Y00374000D01*
X01951775Y00374000D01*
X01926000Y00348225D01*
X01926000Y00311775D01*
X01951775Y00286000D01*
X01933803Y00303972D02*
X01924000Y00303972D01*
X01926000Y00319970D02*
X01919353Y00319970D01*
X01926000Y00335969D02*
X01906256Y00335969D01*
X01929742Y00351968D02*
X01769494Y00351968D01*
X01785493Y00367966D02*
X01849808Y00367966D01*
X01853744Y00335969D02*
X01753496Y00335969D01*
X01737497Y00319970D02*
X01840647Y00319970D01*
X01836000Y00303972D02*
X01721499Y00303972D01*
X01705500Y00287973D02*
X01837356Y00287973D01*
X01845800Y00271975D02*
X01689502Y00271975D01*
X01656445Y00303972D02*
X01623919Y00303972D01*
X01622357Y00287973D02*
X01640447Y00287973D01*
X01619207Y00319970D02*
X01672444Y00319970D01*
X01688442Y00335969D02*
X01605350Y00335969D01*
X01580000Y00335969D02*
X01579999Y00335969D01*
X01579999Y00319970D02*
X01580000Y00319970D01*
X01579999Y00303972D02*
X01580000Y00303972D01*
X01540793Y00319970D02*
X00048000Y00319970D01*
X00048000Y00303972D02*
X01536081Y00303972D01*
X01537643Y00287973D02*
X01434252Y00287973D01*
X01385748Y00287973D02*
X01334252Y00287973D01*
X01328225Y00294000D02*
X01291775Y00294000D01*
X01266000Y00268225D01*
X01266000Y00231775D01*
X01291775Y00206000D01*
X01328225Y00206000D01*
X01354000Y00231775D01*
X01354000Y00268225D01*
X01328225Y00294000D01*
X01350250Y00271975D02*
X01369750Y00271975D01*
X01366000Y00255976D02*
X01354000Y00255976D01*
X01354000Y00239978D02*
X01366000Y00239978D01*
X01373795Y00223979D02*
X01346205Y00223979D01*
X01330206Y00207981D02*
X01389794Y00207981D01*
X01289794Y00207981D02*
X01220206Y00207981D01*
X01218225Y00206000D02*
X01244000Y00231775D01*
X01244000Y00268225D01*
X01218225Y00294000D01*
X01181775Y00294000D01*
X01156000Y00268225D01*
X01156000Y00231775D01*
X01181775Y00206000D01*
X01218225Y00206000D01*
X01236205Y00223979D02*
X01273795Y00223979D01*
X01266000Y00239978D02*
X01244000Y00239978D01*
X01244000Y00255976D02*
X01266000Y00255976D01*
X01269750Y00271975D02*
X01240250Y00271975D01*
X01224252Y00287973D02*
X01285748Y00287973D01*
X01175748Y00287973D02*
X01124252Y00287973D01*
X01118225Y00294000D02*
X01081775Y00294000D01*
X01056000Y00268225D01*
X01056000Y00231775D01*
X01081775Y00206000D01*
X01118225Y00206000D01*
X01144000Y00231775D01*
X01144000Y00268225D01*
X01118225Y00294000D01*
X01140250Y00271975D02*
X01159750Y00271975D01*
X01156000Y00255976D02*
X01144000Y00255976D01*
X01144000Y00239978D02*
X01156000Y00239978D01*
X01163795Y00223979D02*
X01136205Y00223979D01*
X01120206Y00207981D02*
X01179794Y00207981D01*
X01079794Y00207981D02*
X00468384Y00207981D01*
X00476143Y00191982D02*
X02169757Y00191982D01*
X02171775Y00194000D02*
X02146000Y00168225D01*
X02146000Y00131775D01*
X02171775Y00106000D01*
X02208225Y00106000D01*
X02234000Y00131775D01*
X02234000Y00168225D01*
X02208225Y00194000D01*
X02171775Y00194000D01*
X02153758Y00175984D02*
X00477685Y00175984D01*
X00477685Y00159985D02*
X02146000Y00159985D01*
X02146000Y00143987D02*
X00477685Y00143987D01*
X00477685Y00127988D02*
X02149786Y00127988D01*
X02165785Y00111990D02*
X00476961Y00111990D01*
X00431843Y00111990D02*
X00428157Y00111990D01*
X00428157Y00127988D02*
X00431843Y00127988D01*
X00431843Y00143987D02*
X00428157Y00143987D01*
X00428157Y00148157D02*
X00428157Y00072630D01*
X00426247Y00072630D01*
X00418834Y00073804D01*
X00411695Y00076124D01*
X00405008Y00079531D01*
X00398935Y00083943D01*
X00393628Y00089250D01*
X00389216Y00095322D01*
X00385809Y00102010D01*
X00383489Y00109149D01*
X00382315Y00116562D01*
X00382315Y00148157D01*
X00428157Y00148157D01*
X00428157Y00159985D02*
X00431843Y00159985D01*
X00431843Y00175984D02*
X00428157Y00175984D01*
X00428157Y00191982D02*
X00431843Y00191982D01*
X00431843Y00207981D02*
X00428157Y00207981D01*
X00428157Y00223979D02*
X00431843Y00223979D01*
X00447988Y00223979D02*
X01063795Y00223979D01*
X01056000Y00239978D02*
X00182369Y00239978D01*
X00208291Y00223979D02*
X00312329Y00223979D01*
X00320515Y00227370D02*
X00302989Y00220110D01*
X00289575Y00206696D01*
X00282315Y00189170D01*
X00282315Y00110830D01*
X00289575Y00093304D01*
X00302989Y00079890D01*
X00320515Y00072630D01*
X00339485Y00072630D01*
X00357011Y00079890D01*
X00370425Y00093304D01*
X00377685Y00110830D01*
X00377685Y00189170D01*
X00370425Y00206696D01*
X00357011Y00220110D01*
X00339485Y00227370D01*
X00320515Y00227370D01*
X00347671Y00223979D02*
X00412012Y00223979D01*
X00391616Y00207981D02*
X00369141Y00207981D01*
X00376520Y00191982D02*
X00383857Y00191982D01*
X00382315Y00175984D02*
X00377685Y00175984D01*
X00377685Y00159985D02*
X00382315Y00159985D01*
X00382315Y00143987D02*
X00377685Y00143987D01*
X00377685Y00127988D02*
X00382315Y00127988D01*
X00383039Y00111990D02*
X00377685Y00111990D01*
X00371539Y00095991D02*
X00388875Y00095991D01*
X00404372Y00079993D02*
X00357114Y00079993D01*
X00302885Y00079993D02*
X00232104Y00079993D01*
X00241142Y00095991D02*
X00288461Y00095991D01*
X00282315Y00111990D02*
X00245428Y00111990D01*
X00248500Y00127988D02*
X00282315Y00127988D01*
X00282315Y00143987D02*
X00248500Y00143987D01*
X00246507Y00159985D02*
X00282315Y00159985D01*
X00282315Y00175984D02*
X00242220Y00175984D01*
X00234428Y00191982D02*
X00283480Y00191982D01*
X00290859Y00207981D02*
X00224290Y00207981D01*
X00093631Y00239978D02*
X00048000Y00239978D01*
X00048000Y00255976D02*
X01056000Y00255976D01*
X01059750Y00271975D02*
X00048000Y00271975D01*
X00048000Y00287973D02*
X01075748Y00287973D01*
X01391526Y00575947D02*
X00227370Y00575947D01*
X00227370Y00579485D02*
X00220110Y00597011D01*
X00206696Y00610425D01*
X00189170Y00617685D01*
X00110830Y00617685D01*
X00093304Y00610425D01*
X00079890Y00597011D01*
X00072630Y00579485D01*
X00072630Y00560515D01*
X00079890Y00542989D01*
X00093304Y00529575D01*
X00110830Y00522315D01*
X00189170Y00522315D01*
X00206696Y00529575D01*
X00220110Y00542989D01*
X00227370Y00560515D01*
X00227370Y00579485D01*
X00222209Y00591945D02*
X01375528Y00591945D01*
X01359529Y00607944D02*
X01330169Y00607944D01*
X01310000Y00607944D02*
X01309999Y00607944D01*
X01309999Y00623942D02*
X01310000Y00623942D01*
X01309999Y00639941D02*
X01310000Y00639941D01*
X01289831Y00607944D02*
X01220169Y00607944D01*
X01200000Y00607944D02*
X01199999Y00607944D01*
X01199999Y00623942D02*
X01200000Y00623942D01*
X01199999Y00639941D02*
X01200000Y00639941D01*
X01179831Y00607944D02*
X01120169Y00607944D01*
X01136168Y00623942D02*
X01163832Y00623942D01*
X01156000Y00639941D02*
X01144000Y00639941D01*
X01144000Y00655939D02*
X01156000Y00655939D01*
X01159713Y00671938D02*
X01140287Y00671938D01*
X01059713Y00671938D02*
X00227370Y00671938D01*
X00227370Y00679485D02*
X00220110Y00697011D01*
X00206696Y00710425D01*
X00189170Y00717685D01*
X00110830Y00717685D01*
X00093304Y00710425D01*
X00079890Y00697011D01*
X00072630Y00679485D01*
X00072630Y00660515D01*
X00079890Y00642989D01*
X00093304Y00629575D01*
X00110830Y00622315D01*
X00189170Y00622315D01*
X00206696Y00629575D01*
X00220110Y00642989D01*
X00227370Y00660515D01*
X00227370Y00679485D01*
X00223869Y00687937D02*
X00614537Y00687937D01*
X00598538Y00703935D02*
X00213187Y00703935D01*
X00225475Y00655939D02*
X01056000Y00655939D01*
X01056000Y00639941D02*
X00217063Y00639941D01*
X00193099Y00623942D02*
X01063832Y00623942D01*
X01079831Y00607944D02*
X00209178Y00607944D01*
X00227135Y00559948D02*
X01407525Y00559948D01*
X01423523Y00543950D02*
X00220508Y00543950D01*
X00202777Y00527951D02*
X01439522Y00527951D01*
X01455520Y00511953D02*
X00048000Y00511953D01*
X00048000Y00527951D02*
X00097222Y00527951D01*
X00079491Y00543950D02*
X00048000Y00543950D01*
X00048000Y00559948D02*
X00072865Y00559948D01*
X00072630Y00575947D02*
X00048000Y00575947D01*
X00048000Y00591945D02*
X00077791Y00591945D01*
X00090822Y00607944D02*
X00048000Y00607944D01*
X00048000Y00623942D02*
X00106901Y00623942D01*
X00082937Y00639941D02*
X00048000Y00639941D01*
X00048000Y00655939D02*
X00074525Y00655939D01*
X00072630Y00671938D02*
X00048000Y00671938D01*
X00048000Y00687937D02*
X00076131Y00687937D01*
X00086813Y00703935D02*
X00048000Y00703935D01*
X00048000Y00719934D02*
X00582539Y00719934D01*
X00566541Y00735932D02*
X00048000Y00735932D01*
X00048000Y00751931D02*
X00550542Y00751931D01*
X00534544Y00767929D02*
X00215051Y00767929D01*
X00220110Y00772989D02*
X00206696Y00759575D01*
X00189170Y00752315D01*
X00110830Y00752315D01*
X00093304Y00759575D01*
X00079890Y00772989D01*
X00072630Y00790515D01*
X00072630Y00809485D01*
X00079890Y00827011D01*
X00093304Y00840425D01*
X00110830Y00847685D01*
X00189170Y00847685D01*
X00206696Y00840425D01*
X00220110Y00827011D01*
X00227370Y00809485D01*
X00227370Y00790515D01*
X00220110Y00772989D01*
X00224641Y00783928D02*
X00518545Y00783928D01*
X00502547Y00799926D02*
X00227370Y00799926D01*
X00224703Y00815925D02*
X00486548Y00815925D01*
X00470550Y00831923D02*
X00215198Y00831923D01*
X00206696Y00859575D02*
X00220110Y00872989D01*
X00227370Y00890515D01*
X00227370Y00909485D01*
X00220110Y00927011D01*
X00206696Y00940425D01*
X00189170Y00947685D01*
X00110830Y00947685D01*
X00093304Y00940425D01*
X00079890Y00927011D01*
X00072630Y00909485D01*
X00072630Y00890515D01*
X00079890Y00872989D01*
X00093304Y00859575D01*
X00110830Y00852315D01*
X00189170Y00852315D01*
X00206696Y00859575D01*
X00211042Y00863920D02*
X00438553Y00863920D01*
X00454551Y00847922D02*
X00048000Y00847922D01*
X00048000Y00863920D02*
X00088958Y00863920D01*
X00077019Y00879919D02*
X00048000Y00879919D01*
X00048000Y00895917D02*
X00072630Y00895917D01*
X00073637Y00911916D02*
X00048000Y00911916D01*
X00048000Y00927914D02*
X00080793Y00927914D01*
X00101723Y00943913D02*
X00048000Y00943913D01*
X00048000Y00959911D02*
X00342562Y00959911D01*
X00358560Y00943913D02*
X00198277Y00943913D01*
X00219207Y00927914D02*
X00374559Y00927914D01*
X00390557Y00911916D02*
X00226363Y00911916D01*
X00227370Y00895917D02*
X00406556Y00895917D01*
X00422554Y00879919D02*
X00222981Y00879919D01*
X00197849Y00975910D02*
X00326563Y00975910D01*
X00310565Y00991908D02*
X00219030Y00991908D01*
X00211219Y01055903D02*
X00387000Y01055903D01*
X00387000Y01071901D02*
X00048000Y01071901D01*
X00048000Y01055903D02*
X00088781Y01055903D01*
X00076946Y01039904D02*
X00048000Y01039904D01*
X00048000Y01023906D02*
X00072630Y01023906D01*
X00073710Y01007907D02*
X00048000Y01007907D01*
X00048000Y00991908D02*
X00080970Y00991908D01*
X00102151Y00975910D02*
X00048000Y00975910D01*
X00093304Y01079575D02*
X00110830Y01072315D01*
X00189170Y01072315D01*
X00206696Y01079575D01*
X00220110Y01092989D01*
X00227370Y01110515D01*
X00227370Y01129485D01*
X00220110Y01147011D01*
X00206696Y01160425D01*
X00189170Y01167685D01*
X00110830Y01167685D01*
X00093304Y01160425D01*
X00079890Y01147011D01*
X00072630Y01129485D01*
X00072630Y01110515D01*
X00079890Y01092989D01*
X00093304Y01079575D01*
X00084978Y01087900D02*
X00048000Y01087900D01*
X00048000Y01103898D02*
X00075371Y01103898D01*
X00072630Y01119897D02*
X00048000Y01119897D01*
X00048000Y01135895D02*
X00075285Y01135895D01*
X00084772Y01151894D02*
X00048000Y01151894D01*
X00048000Y01167892D02*
X00384581Y01167892D01*
X00387000Y01151894D02*
X00215228Y01151894D01*
X00224715Y01135895D02*
X00387000Y01135895D01*
X00387000Y01119897D02*
X00227370Y01119897D01*
X00224629Y01103898D02*
X00387000Y01103898D01*
X00387000Y01087900D02*
X00215021Y01087900D01*
X00207011Y01199889D02*
X00352584Y01199889D01*
X00368582Y01183891D02*
X00048000Y01183891D01*
X00048000Y01199889D02*
X00092989Y01199889D01*
X00078689Y01215888D02*
X00048000Y01215888D01*
X00048000Y01231886D02*
X00072630Y01231886D01*
X00072630Y01247885D02*
X00048000Y01247885D01*
X00048000Y01263883D02*
X00078594Y01263883D01*
X00077591Y01279882D02*
X00048000Y01279882D01*
X00048000Y01295880D02*
X00061593Y01295880D01*
X00052000Y01311879D02*
X00048000Y01311879D01*
X00048000Y01327877D02*
X00052000Y01327877D01*
X00052000Y01343876D02*
X00048000Y01343876D01*
X00048000Y01359875D02*
X00052000Y01359875D01*
X00052000Y01375873D02*
X00048000Y01375873D01*
X00048000Y01391872D02*
X00052000Y01391872D01*
X00052000Y01407870D02*
X00048000Y01407870D01*
X00048000Y01423869D02*
X00052000Y01423869D01*
X00052000Y01439867D02*
X00048000Y01439867D01*
X00048000Y01455866D02*
X00052000Y01455866D01*
X00052000Y01471864D02*
X00048000Y01471864D01*
X00048000Y01487863D02*
X00052000Y01487863D01*
X00048000Y01503861D02*
X00056334Y01503861D01*
X00048000Y01519860D02*
X00072333Y01519860D01*
X00087020Y01535858D02*
X00048000Y01535858D01*
X00048000Y01551857D02*
X00076216Y01551857D01*
X00072630Y01567855D02*
X00048000Y01567855D01*
X00048000Y01583854D02*
X00074440Y01583854D01*
X00082731Y01599852D02*
X00048000Y01599852D01*
X00048000Y01615851D02*
X00106402Y01615851D01*
X00089032Y01663846D02*
X00048000Y01663846D01*
X00048000Y01647848D02*
X00339625Y01647848D01*
X00323627Y01663846D02*
X00210968Y01663846D01*
X00193598Y01615851D02*
X00371622Y01615851D01*
X00355624Y01631849D02*
X00048000Y01631849D01*
X00048000Y01679845D02*
X00077049Y01679845D01*
X00072630Y01695844D02*
X00048000Y01695844D01*
X00048000Y01711842D02*
X00073606Y01711842D01*
X00080719Y01727841D02*
X00048000Y01727841D01*
X00048000Y01743839D02*
X00101545Y01743839D01*
X00110830Y01752315D02*
X00189170Y01752315D01*
X00206696Y01759575D01*
X00220110Y01772989D01*
X00227370Y01790515D01*
X00227370Y01809485D01*
X00220110Y01827011D01*
X00206696Y01840425D01*
X00189170Y01847685D01*
X00110830Y01847685D01*
X00093304Y01840425D01*
X00079890Y01827011D01*
X00072630Y01809485D01*
X00072630Y01790515D01*
X00079890Y01772989D01*
X00093304Y01759575D01*
X00110830Y01752315D01*
X00093040Y01759838D02*
X00048000Y01759838D01*
X00048000Y01775836D02*
X00078710Y01775836D01*
X00072630Y01791835D02*
X00048000Y01791835D01*
X00048000Y01807833D02*
X00072630Y01807833D01*
X00078573Y01823832D02*
X00048000Y01823832D01*
X00048000Y01839830D02*
X00092708Y01839830D01*
X00048000Y01855829D02*
X01058302Y01855829D01*
X01074301Y01871827D02*
X00048000Y01871827D01*
X00048000Y01887826D02*
X01090299Y01887826D01*
X01106298Y01903824D02*
X00048000Y01903824D01*
X00048000Y01919823D02*
X01122296Y01919823D01*
X01138295Y01935821D02*
X00048000Y01935821D01*
X00048000Y01951820D02*
X00355653Y01951820D01*
X00378000Y01999815D02*
X00382000Y01999815D01*
X00382000Y02015814D02*
X00378000Y02015814D01*
X00376070Y02031813D02*
X00383930Y02031813D01*
X00399929Y02047811D02*
X00360071Y02047811D01*
X00351692Y02063810D02*
X00408308Y02063810D01*
X00392310Y02079808D02*
X00367690Y02079808D01*
X00378000Y02095807D02*
X00382000Y02095807D01*
X00382000Y02111805D02*
X00378000Y02111805D01*
X00378000Y02127804D02*
X00382000Y02127804D01*
X00395920Y02143802D02*
X00364080Y02143802D01*
X00295920Y02143802D02*
X00217468Y02143802D01*
X00230489Y02127804D02*
X00282000Y02127804D01*
X00282000Y02111805D02*
X00239726Y02111805D01*
X00244679Y02095807D02*
X00282000Y02095807D01*
X00292310Y02079808D02*
X00248500Y02079808D01*
X00248500Y02063810D02*
X00308308Y02063810D01*
X00299929Y02047811D02*
X00247256Y02047811D01*
X00242969Y02031813D02*
X00283930Y02031813D01*
X00282000Y02015814D02*
X00236042Y02015814D01*
X00226805Y01999815D02*
X00282000Y01999815D01*
X00288301Y01983817D02*
X00211087Y01983817D01*
X00187212Y01967818D02*
X00304299Y01967818D01*
X00207291Y01839830D02*
X01042304Y01839830D01*
X01005092Y01823832D02*
X00221427Y01823832D01*
X00227370Y01807833D02*
X00994185Y01807833D01*
X00992000Y01791835D02*
X00227370Y01791835D01*
X00221290Y01775836D02*
X00514380Y01775836D01*
X00509000Y01759838D02*
X00206959Y01759838D01*
X00198455Y01743839D02*
X00509000Y01743839D01*
X00509000Y01727841D02*
X00219281Y01727841D01*
X00340685Y01711842D02*
X00509000Y01711842D01*
X00509000Y01695844D02*
X00356683Y01695844D01*
X00372682Y01679845D02*
X00518699Y01679845D01*
X00521722Y01663846D02*
X00388680Y01663846D01*
X00404679Y01647848D02*
X00512191Y01647848D01*
X00509000Y01631849D02*
X00420677Y01631849D01*
X00436676Y01615851D02*
X00510659Y01615851D01*
X00518023Y01599852D02*
X00452674Y01599852D01*
X00468673Y01583854D02*
X00538137Y01583854D01*
X00525730Y01567855D02*
X00484671Y01567855D01*
X00500670Y01551857D02*
X00513852Y01551857D01*
X00467613Y01519860D02*
X00432667Y01519860D01*
X00416668Y01535858D02*
X00451615Y01535858D01*
X00435616Y01551857D02*
X00223784Y01551857D01*
X00227370Y01567855D02*
X00419618Y01567855D01*
X00403619Y01583854D02*
X00225560Y01583854D01*
X00217269Y01599852D02*
X00387621Y01599852D01*
X00395473Y01492000D02*
X00517000Y01370473D01*
X00522674Y01364799D01*
X00521099Y01363224D01*
X00516381Y01356730D01*
X00512736Y01349577D01*
X00510256Y01341943D01*
X00509000Y01334014D01*
X00509000Y01333000D01*
X00556999Y01333000D01*
X00556999Y01327000D01*
X00509000Y01327000D01*
X00509000Y01325986D01*
X00510256Y01318057D01*
X00512736Y01310423D01*
X00516381Y01303270D01*
X00521099Y01296776D01*
X00522674Y01295201D01*
X00517000Y01289527D01*
X00422500Y01195027D01*
X00419527Y01198000D01*
X00193442Y01424085D01*
X00206696Y01429575D01*
X00220110Y01442989D01*
X00227370Y01460515D01*
X00227370Y01479485D01*
X00222186Y01492000D01*
X00395473Y01492000D01*
X00399610Y01487863D02*
X00223900Y01487863D01*
X00227370Y01471864D02*
X00415609Y01471864D01*
X00431607Y01455866D02*
X00225444Y01455866D01*
X00216989Y01439867D02*
X00447606Y01439867D01*
X00463604Y01423869D02*
X00193658Y01423869D01*
X00209657Y01407870D02*
X00479603Y01407870D01*
X00495602Y01391872D02*
X00225655Y01391872D01*
X00241654Y01375873D02*
X00511600Y01375873D01*
X00518666Y01359875D02*
X00257652Y01359875D01*
X00273651Y01343876D02*
X00510884Y01343876D01*
X00512263Y01311879D02*
X00305648Y01311879D01*
X00321646Y01295880D02*
X00521995Y01295880D01*
X00507355Y01279882D02*
X00337645Y01279882D01*
X00353643Y01263883D02*
X00491357Y01263883D01*
X00475358Y01247885D02*
X00369642Y01247885D01*
X00385640Y01231886D02*
X00459360Y01231886D01*
X00443361Y01215888D02*
X00401639Y01215888D01*
X00417637Y01199889D02*
X00427363Y01199889D01*
X00336585Y01215888D02*
X00221311Y01215888D01*
X00227370Y01231886D02*
X00320587Y01231886D01*
X00304588Y01247885D02*
X00227370Y01247885D01*
X00221406Y01263883D02*
X00288590Y01263883D01*
X00272591Y01279882D02*
X00207240Y01279882D01*
X00197778Y01295880D02*
X00256593Y01295880D01*
X00240594Y01311879D02*
X00219001Y01311879D01*
X00289649Y01327877D02*
X00556999Y01327877D01*
X00563001Y01327877D02*
X00856999Y01327877D01*
X00856999Y01327000D02*
X00809000Y01327000D01*
X00809000Y01325986D01*
X00810256Y01318057D01*
X00812736Y01310423D01*
X00816381Y01303270D01*
X00816577Y01303000D01*
X00603423Y01303000D01*
X00603619Y01303270D01*
X00607263Y01310423D01*
X00609744Y01318057D01*
X00611000Y01325986D01*
X00611000Y01327000D01*
X00563001Y01327000D01*
X00563001Y01333000D01*
X00611000Y01333000D01*
X00611000Y01334014D01*
X00609744Y01341943D01*
X00607263Y01349577D01*
X00603619Y01356730D01*
X00603423Y01357000D01*
X00816577Y01357000D01*
X00816381Y01356730D01*
X00812736Y01349577D01*
X00810256Y01341943D01*
X00809000Y01334014D01*
X00809000Y01333000D01*
X00856999Y01333000D01*
X00856999Y01327000D01*
X00863001Y01327000D02*
X00863001Y01333000D01*
X00911000Y01333000D01*
X00911000Y01334014D01*
X00909744Y01341943D01*
X00907263Y01349577D01*
X00903619Y01356730D01*
X00903423Y01357000D01*
X01201899Y01357000D01*
X01200256Y01351943D01*
X01199000Y01344014D01*
X01199000Y01343000D01*
X01246999Y01343000D01*
X01246999Y01337000D01*
X01199000Y01337000D01*
X01199000Y01335986D01*
X01200256Y01328057D01*
X01202736Y01320423D01*
X01206381Y01313270D01*
X01211099Y01306776D01*
X01216776Y01301099D01*
X01223270Y01296381D01*
X01230423Y01292736D01*
X01238057Y01290256D01*
X01238059Y01290256D01*
X01221111Y01283236D01*
X01206764Y01268889D01*
X01199000Y01250145D01*
X01199000Y01229855D01*
X01206764Y01211111D01*
X01221111Y01196764D01*
X01237441Y01190000D01*
X01223000Y01184018D01*
X01223000Y01194527D01*
X01209527Y01208000D01*
X01114527Y01303000D01*
X01095473Y01303000D01*
X00903423Y01303000D01*
X00903619Y01303270D01*
X00907263Y01310423D01*
X00909744Y01318057D01*
X00911000Y01325986D01*
X00911000Y01327000D01*
X00863001Y01327000D01*
X00863001Y01327877D02*
X01200314Y01327877D01*
X01199000Y01343876D02*
X00909116Y01343876D01*
X00907736Y01311879D02*
X01207392Y01311879D01*
X01224252Y01295880D02*
X01121646Y01295880D01*
X01137645Y01279882D02*
X01217757Y01279882D01*
X01204691Y01263883D02*
X01153643Y01263883D01*
X01169642Y01247885D02*
X01199000Y01247885D01*
X01199000Y01231886D02*
X01185640Y01231886D01*
X01201639Y01215888D02*
X01204785Y01215888D01*
X01217637Y01199889D02*
X01217986Y01199889D01*
X01262558Y01190000D02*
X01278889Y01196764D01*
X01293236Y01211111D01*
X01301000Y01229855D01*
X01301000Y01250145D01*
X01293236Y01268889D01*
X01278889Y01283236D01*
X01261941Y01290256D01*
X01261943Y01290256D01*
X01269577Y01292736D01*
X01276730Y01296381D01*
X01283224Y01301099D01*
X01288900Y01306776D01*
X01293619Y01313270D01*
X01297263Y01320423D01*
X01299744Y01328057D01*
X01301000Y01335986D01*
X01301000Y01337000D01*
X01253001Y01337000D01*
X01253001Y01343000D01*
X01301000Y01343000D01*
X01301000Y01344014D01*
X01299744Y01351943D01*
X01297263Y01359577D01*
X01293619Y01366730D01*
X01288900Y01373224D01*
X01287326Y01374799D01*
X01509527Y01597000D01*
X01515201Y01602674D01*
X01521111Y01596764D01*
X01537441Y01590000D01*
X01521111Y01583236D01*
X01506764Y01568889D01*
X01499000Y01550145D01*
X01499000Y01529855D01*
X01506764Y01511111D01*
X01521111Y01496764D01*
X01538059Y01489744D01*
X01538057Y01489744D01*
X01530423Y01487263D01*
X01523270Y01483619D01*
X01516776Y01478900D01*
X01511099Y01473224D01*
X01506381Y01466730D01*
X01502736Y01459577D01*
X01500256Y01451943D01*
X01499000Y01444014D01*
X01499000Y01443000D01*
X01546999Y01443000D01*
X01546999Y01437000D01*
X01499000Y01437000D01*
X01499000Y01435986D01*
X01500256Y01428057D01*
X01502736Y01420423D01*
X01506381Y01413270D01*
X01511099Y01406776D01*
X01516776Y01401099D01*
X01523270Y01396381D01*
X01530423Y01392736D01*
X01538057Y01390256D01*
X01539673Y01390000D01*
X01538057Y01389744D01*
X01530423Y01387263D01*
X01523270Y01383619D01*
X01516776Y01378900D01*
X01511099Y01373224D01*
X01506381Y01366730D01*
X01502736Y01359577D01*
X01500256Y01351943D01*
X01499000Y01344014D01*
X01499000Y01343000D01*
X01546999Y01343000D01*
X01546999Y01337000D01*
X01499000Y01337000D01*
X01499000Y01335986D01*
X01500256Y01328057D01*
X01502736Y01320423D01*
X01506381Y01313270D01*
X01511099Y01306776D01*
X01516776Y01301099D01*
X01523270Y01296381D01*
X01530423Y01292736D01*
X01538057Y01290256D01*
X01538059Y01290256D01*
X01521111Y01283236D01*
X01506764Y01268889D01*
X01499000Y01250145D01*
X01499000Y01229855D01*
X01506764Y01211111D01*
X01521111Y01196764D01*
X01537441Y01190000D01*
X01521111Y01183236D01*
X01506764Y01168889D01*
X01499000Y01150145D01*
X01499000Y01129855D01*
X01506764Y01111111D01*
X01521111Y01096764D01*
X01537441Y01090000D01*
X01521111Y01083236D01*
X01506764Y01068889D01*
X01499000Y01050145D01*
X01499000Y01029855D01*
X01506764Y01011111D01*
X01514875Y01003000D01*
X01451160Y01003000D01*
X01453000Y01007441D01*
X01453000Y01312559D01*
X01447215Y01326525D01*
X01436525Y01337215D01*
X01422559Y01343000D01*
X01407441Y01343000D01*
X01393475Y01337215D01*
X01382785Y01326525D01*
X01377000Y01312559D01*
X01377000Y01035527D01*
X01299527Y01113000D01*
X01294018Y01113000D01*
X01301000Y01129855D01*
X01301000Y01150145D01*
X01293236Y01168889D01*
X01278889Y01183236D01*
X01262558Y01190000D01*
X01277308Y01183891D02*
X01377000Y01183891D01*
X01377000Y01199889D02*
X01282014Y01199889D01*
X01295214Y01215888D02*
X01377000Y01215888D01*
X01377000Y01231886D02*
X01301000Y01231886D01*
X01301000Y01247885D02*
X01377000Y01247885D01*
X01377000Y01263883D02*
X01295309Y01263883D01*
X01282243Y01279882D02*
X01377000Y01279882D01*
X01377000Y01295880D02*
X01275748Y01295880D01*
X01292608Y01311879D02*
X01377000Y01311879D01*
X01384137Y01327877D02*
X01299686Y01327877D01*
X01301000Y01343876D02*
X01499000Y01343876D01*
X01500314Y01327877D02*
X01445862Y01327877D01*
X01453000Y01311879D02*
X01507392Y01311879D01*
X01524252Y01295880D02*
X01453000Y01295880D01*
X01453000Y01279882D02*
X01517757Y01279882D01*
X01504691Y01263883D02*
X01453000Y01263883D01*
X01453000Y01247885D02*
X01499000Y01247885D01*
X01499000Y01231886D02*
X01453000Y01231886D01*
X01453000Y01215888D02*
X01504785Y01215888D01*
X01517986Y01199889D02*
X01453000Y01199889D01*
X01453000Y01183891D02*
X01522692Y01183891D01*
X01506351Y01167892D02*
X01453000Y01167892D01*
X01453000Y01151894D02*
X01499725Y01151894D01*
X01499000Y01135895D02*
X01453000Y01135895D01*
X01453000Y01119897D02*
X01503125Y01119897D01*
X01513977Y01103898D02*
X01453000Y01103898D01*
X01453000Y01087900D02*
X01532371Y01087900D01*
X01509776Y01071901D02*
X01453000Y01071901D01*
X01453000Y01055903D02*
X01501385Y01055903D01*
X01499000Y01039904D02*
X01453000Y01039904D01*
X01453000Y01023906D02*
X01501464Y01023906D01*
X01509968Y01007907D02*
X01453000Y01007907D01*
X01377000Y01039904D02*
X01372623Y01039904D01*
X01377000Y01055903D02*
X01356624Y01055903D01*
X01340626Y01071901D02*
X01377000Y01071901D01*
X01377000Y01087900D02*
X01324627Y01087900D01*
X01308629Y01103898D02*
X01377000Y01103898D01*
X01377000Y01119897D02*
X01296875Y01119897D01*
X01301000Y01135895D02*
X01377000Y01135895D01*
X01377000Y01151894D02*
X01300275Y01151894D01*
X01293649Y01167892D02*
X01377000Y01167892D01*
X01547000Y01343001D02*
X01547000Y01436999D01*
X01553000Y01436999D01*
X01553000Y01389000D01*
X01553000Y01343001D01*
X01547000Y01343001D01*
X01547000Y01343876D02*
X01553000Y01343876D01*
X01553000Y01359875D02*
X01547000Y01359875D01*
X01547000Y01375873D02*
X01553000Y01375873D01*
X01553000Y01391872D02*
X01547000Y01391872D01*
X01533085Y01391872D02*
X01304398Y01391872D01*
X01320397Y01407870D02*
X01510304Y01407870D01*
X01501617Y01423869D02*
X01336395Y01423869D01*
X01352394Y01439867D02*
X01546999Y01439867D01*
X01547000Y01423869D02*
X01553000Y01423869D01*
X01553000Y01407870D02*
X01547000Y01407870D01*
X01513748Y01375873D02*
X01288400Y01375873D01*
X01297112Y01359875D02*
X01502888Y01359875D01*
X01501531Y01455866D02*
X01368392Y01455866D01*
X01384391Y01471864D02*
X01510111Y01471864D01*
X01532267Y01487863D02*
X01400390Y01487863D01*
X01416388Y01503861D02*
X01514014Y01503861D01*
X01503140Y01519860D02*
X01432387Y01519860D01*
X01448385Y01535858D02*
X01499000Y01535858D01*
X01499709Y01551857D02*
X01464384Y01551857D01*
X01480382Y01567855D02*
X01506336Y01567855D01*
X01496381Y01583854D02*
X01522603Y01583854D01*
X01518023Y01599852D02*
X01512379Y01599852D01*
X01380314Y01727841D02*
X01301000Y01727841D01*
X01301000Y01713000D02*
X01301000Y01780456D01*
X01290456Y01791000D01*
X01243527Y01791000D01*
X01414527Y01962000D01*
X01449882Y01962000D01*
X01478000Y01990118D01*
X01478000Y02029882D01*
X01449882Y02058000D01*
X01410118Y02058000D01*
X01382000Y02029882D01*
X01382000Y01994527D01*
X01378000Y01990527D01*
X01378000Y02029882D01*
X01362704Y02045178D01*
X01363000Y02045473D01*
X01394822Y02077296D01*
X01410118Y02062000D01*
X01449882Y02062000D01*
X01478000Y02090118D01*
X01478000Y02129882D01*
X01456276Y02151606D01*
X01503724Y02151606D01*
X01482000Y02129882D01*
X01482000Y02090118D01*
X01510118Y02062000D01*
X01545473Y02062000D01*
X01549473Y02058000D01*
X01532000Y02058000D01*
X01532000Y02012001D01*
X01528000Y02012001D01*
X01528000Y02058000D01*
X01510118Y02058000D01*
X01482000Y02029882D01*
X01482000Y02012000D01*
X01527999Y02012000D01*
X01527999Y02008000D01*
X01482000Y02008000D01*
X01482000Y01990118D01*
X01510118Y01962000D01*
X01514473Y01962000D01*
X01477000Y01924527D01*
X01477000Y01781740D01*
X01466525Y01792215D01*
X01452559Y01798000D01*
X01437441Y01798000D01*
X01423475Y01792215D01*
X01412785Y01781525D01*
X01407000Y01767559D01*
X01407000Y01754527D01*
X01365473Y01713000D01*
X01301000Y01713000D01*
X01301000Y01743839D02*
X01396312Y01743839D01*
X01407000Y01759838D02*
X01301000Y01759838D01*
X01301000Y01775836D02*
X01410429Y01775836D01*
X01423095Y01791835D02*
X01244361Y01791835D01*
X01260360Y01807833D02*
X01477000Y01807833D01*
X01477000Y01791835D02*
X01466905Y01791835D01*
X01477000Y01823832D02*
X01276358Y01823832D01*
X01292357Y01839830D02*
X01477000Y01839830D01*
X01477000Y01855829D02*
X01308355Y01855829D01*
X01324354Y01871827D02*
X01477000Y01871827D01*
X01477000Y01887826D02*
X01340352Y01887826D01*
X01356351Y01903824D02*
X01477000Y01903824D01*
X01477000Y01919823D02*
X01372350Y01919823D01*
X01388348Y01935821D02*
X01488295Y01935821D01*
X01504293Y01951820D02*
X01404347Y01951820D01*
X01382000Y01999815D02*
X01378000Y01999815D01*
X01378000Y02015814D02*
X01382000Y02015814D01*
X01383930Y02031813D02*
X01376070Y02031813D01*
X01365338Y02047811D02*
X01399929Y02047811D01*
X01408308Y02063810D02*
X01381336Y02063810D01*
X01451692Y02063810D02*
X01508308Y02063810D01*
X01499929Y02047811D02*
X01460071Y02047811D01*
X01476070Y02031813D02*
X01483930Y02031813D01*
X01482000Y02015814D02*
X01478000Y02015814D01*
X01478000Y01999815D02*
X01482000Y01999815D01*
X01488301Y01983817D02*
X01471699Y01983817D01*
X01455701Y01967818D02*
X01504299Y01967818D01*
X01528000Y02015814D02*
X01532000Y02015814D01*
X01532000Y02031813D02*
X01528000Y02031813D01*
X01528000Y02047811D02*
X01532000Y02047811D01*
X01492310Y02079808D02*
X01467690Y02079808D01*
X01478000Y02095807D02*
X01482000Y02095807D01*
X01482000Y02111805D02*
X01478000Y02111805D01*
X01478000Y02127804D02*
X01482000Y02127804D01*
X01495920Y02143802D02*
X01464080Y02143802D01*
X01598000Y02074118D02*
X01598000Y02045882D01*
X01610118Y02058000D01*
X01649882Y02058000D01*
X01678000Y02029882D01*
X01678000Y01990118D01*
X01663311Y01975429D01*
X01665740Y01973000D01*
X01699118Y01973000D01*
X01682000Y01990118D01*
X01682000Y02029882D01*
X01710118Y02058000D01*
X01749882Y02058000D01*
X01778000Y02029882D01*
X01778000Y01990118D01*
X01760882Y01973000D01*
X01799118Y01973000D01*
X01782000Y01990118D01*
X01782000Y02029882D01*
X01810118Y02058000D01*
X01849882Y02058000D01*
X01865178Y02042704D01*
X01897000Y02074527D01*
X01897296Y02074822D01*
X01882000Y02090118D01*
X01882000Y02108000D01*
X01927999Y02108000D01*
X01927999Y02112000D01*
X01882000Y02112000D01*
X01882000Y02129882D01*
X01903724Y02151606D01*
X01856276Y02151606D01*
X01878000Y02129882D01*
X01878000Y02090118D01*
X01849882Y02062000D01*
X01810118Y02062000D01*
X01782000Y02090118D01*
X01782000Y02129882D01*
X01803724Y02151606D01*
X01756276Y02151606D01*
X01778000Y02129882D01*
X01778000Y02112000D01*
X01732001Y02112000D01*
X01732001Y02108000D01*
X01778000Y02108000D01*
X01778000Y02090118D01*
X01749882Y02062000D01*
X01732000Y02062000D01*
X01732000Y02107999D01*
X01728000Y02107999D01*
X01728000Y02062000D01*
X01710118Y02062000D01*
X01682000Y02090118D01*
X01682000Y02108000D01*
X01727999Y02108000D01*
X01727999Y02112000D01*
X01682000Y02112000D01*
X01682000Y02129882D01*
X01703724Y02151606D01*
X01656276Y02151606D01*
X01678000Y02129882D01*
X01678000Y02090118D01*
X01649882Y02062000D01*
X01610118Y02062000D01*
X01598000Y02074118D01*
X01598000Y02063810D02*
X01608308Y02063810D01*
X01599929Y02047811D02*
X01598000Y02047811D01*
X01651692Y02063810D02*
X01708308Y02063810D01*
X01699929Y02047811D02*
X01660071Y02047811D01*
X01676070Y02031813D02*
X01683930Y02031813D01*
X01682000Y02015814D02*
X01678000Y02015814D01*
X01678000Y01999815D02*
X01682000Y01999815D01*
X01688301Y01983817D02*
X01671699Y01983817D01*
X01728000Y02063810D02*
X01732000Y02063810D01*
X01732000Y02079808D02*
X01728000Y02079808D01*
X01728000Y02095807D02*
X01732000Y02095807D01*
X01732001Y02111805D02*
X01782000Y02111805D01*
X01782000Y02095807D02*
X01778000Y02095807D01*
X01767690Y02079808D02*
X01792310Y02079808D01*
X01808308Y02063810D02*
X01751692Y02063810D01*
X01760071Y02047811D02*
X01799929Y02047811D01*
X01783930Y02031813D02*
X01776070Y02031813D01*
X01778000Y02015814D02*
X01782000Y02015814D01*
X01782000Y01999815D02*
X01778000Y01999815D01*
X01771699Y01983817D02*
X01788301Y01983817D01*
X01860071Y02047811D02*
X01870284Y02047811D01*
X01886283Y02063810D02*
X01851692Y02063810D01*
X01867690Y02079808D02*
X01892310Y02079808D01*
X01882000Y02095807D02*
X01878000Y02095807D01*
X01878000Y02111805D02*
X01927999Y02111805D01*
X01932001Y02111805D02*
X01982000Y02111805D01*
X01978000Y02112000D02*
X01978000Y02129882D01*
X01956276Y02151606D01*
X02003724Y02151606D01*
X01982000Y02129882D01*
X01982000Y02094527D01*
X01978000Y02090527D01*
X01978000Y02108000D01*
X01932001Y02108000D01*
X01932001Y02112000D01*
X01978000Y02112000D01*
X01978000Y02127804D02*
X01982000Y02127804D01*
X01995920Y02143802D02*
X01964080Y02143802D01*
X01978000Y02095807D02*
X01982000Y02095807D01*
X01895920Y02143802D02*
X01864080Y02143802D01*
X01878000Y02127804D02*
X01882000Y02127804D01*
X01795920Y02143802D02*
X01764080Y02143802D01*
X01778000Y02127804D02*
X01782000Y02127804D01*
X01727999Y02111805D02*
X01678000Y02111805D01*
X01678000Y02095807D02*
X01682000Y02095807D01*
X01692310Y02079808D02*
X01667690Y02079808D01*
X01678000Y02127804D02*
X01682000Y02127804D01*
X01695920Y02143802D02*
X01664080Y02143802D01*
X01227999Y02111805D02*
X01178000Y02111805D01*
X01178000Y02095807D02*
X01182000Y02095807D01*
X01192310Y02079808D02*
X01167690Y02079808D01*
X01151692Y02063810D02*
X01186283Y02063810D01*
X01170284Y02047811D02*
X01160071Y02047811D01*
X01108308Y02063810D02*
X01051692Y02063810D01*
X01060071Y02047811D02*
X01099929Y02047811D01*
X01083930Y02031813D02*
X01076070Y02031813D01*
X01067690Y02079808D02*
X01092310Y02079808D01*
X01082000Y02095807D02*
X01078000Y02095807D01*
X01078000Y02111805D02*
X01082000Y02111805D01*
X01082000Y02127804D02*
X01078000Y02127804D01*
X01064080Y02143802D02*
X01095920Y02143802D01*
X01164080Y02143802D02*
X01195920Y02143802D01*
X01182000Y02127804D02*
X01178000Y02127804D01*
X01104299Y01967818D02*
X01085345Y01967818D01*
X01069347Y01951820D02*
X01152000Y01951820D01*
X00999929Y02047811D02*
X00960071Y02047811D01*
X00951692Y02063810D02*
X01008308Y02063810D01*
X00992310Y02079808D02*
X00967690Y02079808D01*
X00978000Y02095807D02*
X00982000Y02095807D01*
X00982000Y02111805D02*
X00932001Y02111805D01*
X00927999Y02111805D02*
X00878000Y02111805D01*
X00878000Y02095807D02*
X00882000Y02095807D01*
X00892310Y02079808D02*
X00867690Y02079808D01*
X00851692Y02063810D02*
X00908308Y02063810D01*
X00899929Y02047811D02*
X00860071Y02047811D01*
X00876070Y02031813D02*
X00883930Y02031813D01*
X00882000Y02015814D02*
X00878000Y02015814D01*
X00878000Y01999815D02*
X00882000Y01999815D01*
X00799929Y02047811D02*
X00760071Y02047811D01*
X00751692Y02063810D02*
X00808308Y02063810D01*
X00792310Y02079808D02*
X00767690Y02079808D01*
X00778000Y02095807D02*
X00782000Y02095807D01*
X00782000Y02111805D02*
X00778000Y02111805D01*
X00778000Y02127804D02*
X00782000Y02127804D01*
X00795920Y02143802D02*
X00764080Y02143802D01*
X00695920Y02143802D02*
X00664080Y02143802D01*
X00678000Y02127804D02*
X00682000Y02127804D01*
X00682000Y02111805D02*
X00678000Y02111805D01*
X00678000Y02095807D02*
X00682000Y02095807D01*
X00692310Y02079808D02*
X00667690Y02079808D01*
X00651692Y02063810D02*
X00708308Y02063810D01*
X00699929Y02047811D02*
X00660071Y02047811D01*
X00676070Y02031813D02*
X00683930Y02031813D01*
X00682000Y02015814D02*
X00678000Y02015814D01*
X00678000Y01999815D02*
X00682000Y01999815D01*
X00728000Y02015814D02*
X00732000Y02015814D01*
X00732000Y02031813D02*
X00728000Y02031813D01*
X00728000Y02047811D02*
X00732000Y02047811D01*
X00776070Y02031813D02*
X00783930Y02031813D01*
X00782000Y02015814D02*
X00778000Y02015814D01*
X00778000Y01999815D02*
X00782000Y01999815D01*
X00928000Y02063810D02*
X00932000Y02063810D01*
X00932000Y02079808D02*
X00928000Y02079808D01*
X00928000Y02095807D02*
X00932000Y02095807D01*
X00978000Y02127804D02*
X00982000Y02127804D01*
X00995920Y02143802D02*
X00964080Y02143802D01*
X00895920Y02143802D02*
X00864080Y02143802D01*
X00878000Y02127804D02*
X00882000Y02127804D01*
X00976070Y02031813D02*
X00983930Y02031813D01*
X00982000Y02015814D02*
X00978000Y02015814D01*
X00978000Y01999815D02*
X00982000Y01999815D01*
X00996807Y01775836D02*
X00882611Y01775836D01*
X00902287Y01759838D02*
X01012311Y01759838D01*
X00996312Y01743839D02*
X00909470Y01743839D01*
X00911000Y01727841D02*
X00980314Y01727841D01*
X00964315Y01711842D02*
X00907681Y01711842D01*
X00897968Y01695844D02*
X00948317Y01695844D01*
X00932318Y01679845D02*
X00872933Y01679845D01*
X00847067Y01679845D02*
X00601301Y01679845D01*
X00598278Y01663846D02*
X00821722Y01663846D01*
X00812191Y01647848D02*
X00607809Y01647848D01*
X00611000Y01631849D02*
X00809000Y01631849D01*
X00810659Y01615851D02*
X00609341Y01615851D01*
X00611000Y01695844D02*
X00822031Y01695844D01*
X00812319Y01711842D02*
X00611000Y01711842D01*
X00611000Y01727841D02*
X00809000Y01727841D01*
X00810530Y01743839D02*
X00611000Y01743839D01*
X00611000Y01759838D02*
X00817713Y01759838D01*
X00837389Y01775836D02*
X00605620Y01775836D01*
X00582000Y01999815D02*
X00578000Y01999815D01*
X00578000Y02015814D02*
X00582000Y02015814D01*
X00583930Y02031813D02*
X00576070Y02031813D01*
X00560071Y02047811D02*
X00599929Y02047811D01*
X00608308Y02063810D02*
X00551692Y02063810D01*
X00532000Y02063810D02*
X00528000Y02063810D01*
X00528000Y02079808D02*
X00532000Y02079808D01*
X00532000Y02095807D02*
X00528000Y02095807D01*
X00527999Y02111805D02*
X00478000Y02111805D01*
X00478000Y02095807D02*
X00482000Y02095807D01*
X00492310Y02079808D02*
X00467690Y02079808D01*
X00451692Y02063810D02*
X00508308Y02063810D01*
X00499929Y02047811D02*
X00460071Y02047811D01*
X00476070Y02031813D02*
X00483930Y02031813D01*
X00482000Y02015814D02*
X00478000Y02015814D01*
X00478000Y01999815D02*
X00482000Y01999815D01*
X00567690Y02079808D02*
X00592310Y02079808D01*
X00582000Y02095807D02*
X00578000Y02095807D01*
X00582000Y02111805D02*
X00532001Y02111805D01*
X00564080Y02143802D02*
X00595920Y02143802D01*
X00582000Y02127804D02*
X00578000Y02127804D01*
X00495920Y02143802D02*
X00464080Y02143802D01*
X00478000Y02127804D02*
X00482000Y02127804D01*
X00088787Y01967818D02*
X00048000Y01967818D01*
X00048000Y01983817D02*
X00064912Y01983817D01*
X00049195Y01999815D02*
X00048000Y01999815D01*
X00448665Y01503861D02*
X00483612Y01503861D01*
X00499610Y01487863D02*
X00464664Y01487863D01*
X00480663Y01471864D02*
X00515609Y01471864D01*
X00515941Y01455866D02*
X00496661Y01455866D01*
X00563001Y01433000D02*
X00611000Y01433000D01*
X00611000Y01434014D01*
X00609744Y01441943D01*
X00607263Y01449577D01*
X00603619Y01456730D01*
X00603422Y01457000D01*
X00816577Y01457000D01*
X00816381Y01456730D01*
X00812736Y01449577D01*
X00810256Y01441943D01*
X00809000Y01434014D01*
X00809000Y01433000D01*
X00856999Y01433000D01*
X00856999Y01427000D01*
X00809000Y01427000D01*
X00809000Y01425986D01*
X00810256Y01418057D01*
X00812736Y01410423D01*
X00816381Y01403270D01*
X00816577Y01403000D01*
X00603423Y01403000D01*
X00603619Y01403270D01*
X00607263Y01410423D01*
X00609744Y01418057D01*
X00611000Y01425986D01*
X00611000Y01427000D01*
X00563001Y01427000D01*
X00563001Y01433000D01*
X00604059Y01455866D02*
X00815941Y01455866D01*
X00809927Y01439867D02*
X00610073Y01439867D01*
X00610664Y01423869D02*
X00809335Y01423869D01*
X00814037Y01407870D02*
X00605963Y01407870D01*
X00609116Y01343876D02*
X00810884Y01343876D01*
X00812263Y01311879D02*
X00607736Y01311879D01*
X00863001Y01427000D02*
X00863001Y01433000D01*
X00911000Y01433000D01*
X00911000Y01434014D01*
X00909744Y01441943D01*
X00907263Y01449577D01*
X00903619Y01456730D01*
X00903423Y01457000D01*
X01029527Y01457000D01*
X01199991Y01627464D01*
X01206764Y01611111D01*
X01221111Y01596764D01*
X01237441Y01590000D01*
X01221111Y01583236D01*
X01206764Y01568889D01*
X01199000Y01550145D01*
X01199000Y01529855D01*
X01206764Y01511111D01*
X01221111Y01496764D01*
X01238059Y01489744D01*
X01238057Y01489744D01*
X01230423Y01487263D01*
X01223270Y01483619D01*
X01216776Y01478900D01*
X01211099Y01473224D01*
X01206381Y01466730D01*
X01202736Y01459577D01*
X01200256Y01451943D01*
X01199000Y01444014D01*
X01199000Y01443000D01*
X01246999Y01443000D01*
X01246999Y01437000D01*
X01199000Y01437000D01*
X01199000Y01435986D01*
X01200256Y01428057D01*
X01202736Y01420423D01*
X01206381Y01413270D01*
X01211099Y01406776D01*
X01212674Y01405201D01*
X01210473Y01403000D01*
X00903423Y01403000D01*
X00903619Y01403270D01*
X00907263Y01410423D01*
X00909744Y01418057D01*
X00911000Y01425986D01*
X00911000Y01427000D01*
X00863001Y01427000D01*
X00905963Y01407870D02*
X01210304Y01407870D01*
X01201617Y01423869D02*
X00910664Y01423869D01*
X00910073Y01439867D02*
X01246999Y01439867D01*
X01247000Y01443001D02*
X01247000Y01489000D01*
X01253000Y01489000D01*
X01253000Y01443001D01*
X01247000Y01443001D01*
X01247000Y01455866D02*
X01253000Y01455866D01*
X01253000Y01471864D02*
X01247000Y01471864D01*
X01247000Y01487863D02*
X01253000Y01487863D01*
X01232267Y01487863D02*
X01060389Y01487863D01*
X01044391Y01471864D02*
X01210111Y01471864D01*
X01201531Y01455866D02*
X00904059Y01455866D01*
X01076388Y01503861D02*
X01214014Y01503861D01*
X01203140Y01519860D02*
X01092386Y01519860D01*
X01108385Y01535858D02*
X01199000Y01535858D01*
X01199709Y01551857D02*
X01124383Y01551857D01*
X01140382Y01567855D02*
X01206336Y01567855D01*
X01222603Y01583854D02*
X01156381Y01583854D01*
X01172379Y01599852D02*
X01218023Y01599852D01*
X01204801Y01615851D02*
X01188378Y01615851D01*
X00916320Y01663846D02*
X00898278Y01663846D01*
X00387000Y01039904D02*
X00327623Y01039904D01*
X00343621Y01023906D02*
X00387000Y01023906D01*
X00387000Y01007907D02*
X00359620Y01007907D01*
X00375618Y00991908D02*
X00387000Y00991908D01*
X00084801Y00831923D02*
X00048000Y00831923D01*
X00048000Y00815925D02*
X00075297Y00815925D01*
X00072630Y00799926D02*
X00048000Y00799926D01*
X00048000Y00783928D02*
X00075358Y00783928D01*
X00084949Y00767929D02*
X00048000Y00767929D01*
X00048000Y00495954D02*
X01471519Y00495954D01*
X01487517Y00479956D02*
X00048000Y00479956D01*
X00048000Y00463957D02*
X01503516Y00463957D01*
X01519514Y00447959D02*
X00048000Y00447959D01*
X00048000Y00431960D02*
X01549735Y00431960D01*
X01538986Y00415962D02*
X00048000Y00415962D01*
X00048000Y00399963D02*
X01536000Y00399963D01*
X01539017Y00383965D02*
X00048000Y00383965D01*
X00048000Y00367966D02*
X01549808Y00367966D01*
X01554650Y00335969D02*
X00048000Y00335969D01*
X00048000Y00351968D02*
X01704441Y00351968D01*
X01720439Y00367966D02*
X01610191Y00367966D01*
X01910191Y00367966D02*
X01945741Y00367966D01*
X01920983Y00383965D02*
X02412030Y00383965D01*
X02412000Y00383778D02*
X02413182Y00391240D01*
X02415517Y00398426D01*
X02418947Y00405157D01*
X02423388Y00411270D01*
X02428730Y00416612D01*
X02434843Y00421053D01*
X02441574Y00424483D01*
X02448760Y00426818D01*
X02456222Y00428000D01*
X02488000Y00428000D01*
X02488000Y00382001D01*
X02492000Y00382001D01*
X02492000Y00428000D01*
X02523778Y00428000D01*
X02531240Y00426818D01*
X02538426Y00424483D01*
X02545157Y00421053D01*
X02551270Y00416612D01*
X02556612Y00411270D01*
X02561053Y00405157D01*
X02564483Y00398426D01*
X02566818Y00391240D01*
X02568000Y00383778D01*
X02568000Y00382000D01*
X02492001Y00382000D01*
X02492001Y00378000D01*
X02568000Y00378000D01*
X02568000Y00376222D01*
X02566818Y00368760D01*
X02564483Y00361574D01*
X02561053Y00354843D01*
X02556612Y00348730D01*
X02551270Y00343388D01*
X02545157Y00338947D01*
X02538426Y00335517D01*
X02531240Y00333182D01*
X02523778Y00332000D01*
X02492000Y00332000D01*
X02492000Y00377999D01*
X02488000Y00377999D01*
X02488000Y00332000D01*
X02456222Y00332000D01*
X02448760Y00333182D01*
X02441574Y00335517D01*
X02434843Y00338947D01*
X02428730Y00343388D01*
X02423388Y00348730D01*
X02418947Y00354843D01*
X02415517Y00361574D01*
X02413182Y00368760D01*
X02412000Y00376222D01*
X02412000Y00378000D01*
X02487999Y00378000D01*
X02487999Y00382000D01*
X02412000Y00382000D01*
X02412000Y00383778D01*
X02413440Y00367966D02*
X02394259Y00367966D01*
X02388225Y00374000D02*
X02351775Y00374000D01*
X02326000Y00348225D01*
X02326000Y00311775D01*
X02351775Y00286000D01*
X02388225Y00286000D01*
X02414000Y00311775D01*
X02414000Y00348225D01*
X02388225Y00374000D01*
X02410258Y00351968D02*
X02421035Y00351968D01*
X02414000Y00335969D02*
X02440686Y00335969D01*
X02414000Y00319970D02*
X02569008Y00319970D01*
X02569008Y00303972D02*
X02406197Y00303972D01*
X02390199Y00287973D02*
X02569008Y00287973D01*
X02569008Y00335969D02*
X02539313Y00335969D01*
X02558964Y00351968D02*
X02569008Y00351968D01*
X02569008Y00367966D02*
X02566560Y00367966D01*
X02567970Y00383965D02*
X02569008Y00383965D01*
X02569008Y00399963D02*
X02563700Y00399963D01*
X02569008Y00415962D02*
X02551920Y00415962D01*
X02569008Y00431960D02*
X02324000Y00431960D01*
X02324000Y00415962D02*
X02428079Y00415962D01*
X02416300Y00399963D02*
X02312188Y00399963D01*
X02324000Y00411775D02*
X02298225Y00386000D01*
X02261775Y00386000D01*
X02236000Y00411775D01*
X02236000Y00448225D01*
X02261775Y00474000D01*
X02298225Y00474000D01*
X02324000Y00448225D01*
X02324000Y00411775D01*
X02324000Y00447959D02*
X02424159Y00447959D01*
X02419308Y00452810D02*
X02432810Y00439308D01*
X02450452Y00432000D01*
X02529548Y00432000D01*
X02547190Y00439308D01*
X02560692Y00452810D01*
X02568000Y00470452D01*
X02568000Y00489548D01*
X02560692Y00507190D01*
X02547190Y00520692D01*
X02529548Y00528000D01*
X02450452Y00528000D01*
X02432810Y00520692D01*
X02419308Y00507190D01*
X02412000Y00489548D01*
X02412000Y00470452D01*
X02419308Y00452810D01*
X02414690Y00463957D02*
X02308268Y00463957D01*
X02308180Y00495954D02*
X02414654Y00495954D01*
X02412000Y00479956D02*
X02202482Y00479956D01*
X02186484Y00463957D02*
X02251732Y00463957D01*
X02236000Y00447959D02*
X02170485Y00447959D01*
X02137429Y00479956D02*
X01919322Y00479956D01*
X01924000Y00495954D02*
X02153427Y00495954D01*
X02169426Y00511953D02*
X01922674Y00511953D01*
X01914274Y00527951D02*
X02185424Y00527951D01*
X02201423Y00543950D02*
X01956477Y00543950D01*
X01972475Y00559948D02*
X02217422Y00559948D01*
X02233420Y00575947D02*
X01988474Y00575947D01*
X02004472Y00591945D02*
X02249419Y00591945D01*
X02279999Y00527951D02*
X02280000Y00527951D01*
X02279999Y00511953D02*
X02280000Y00511953D01*
X02279999Y00495954D02*
X02280000Y00495954D01*
X02251820Y00495954D02*
X02218481Y00495954D01*
X02234479Y00511953D02*
X02236000Y00511953D01*
X02324000Y00511953D02*
X02424071Y00511953D01*
X02450335Y00527951D02*
X02324000Y00527951D01*
X02324000Y00543950D02*
X02428168Y00543950D01*
X02420062Y00607944D02*
X02020471Y00607944D01*
X02036469Y00623942D02*
X02440657Y00623942D01*
X02422166Y00639941D02*
X02569008Y00639941D01*
X02569008Y00623942D02*
X02539343Y00623942D01*
X02559938Y00607944D02*
X02569008Y00607944D01*
X02569008Y00591945D02*
X02567007Y00591945D01*
X02568000Y00575947D02*
X02569008Y00575947D01*
X02569008Y00559948D02*
X02563649Y00559948D01*
X02569008Y00543950D02*
X02551832Y00543950D01*
X02569008Y00527951D02*
X02529665Y00527951D01*
X02555929Y00511953D02*
X02569008Y00511953D01*
X02569008Y00495954D02*
X02565346Y00495954D01*
X02568000Y00479956D02*
X02569008Y00479956D01*
X02569008Y00463957D02*
X02565310Y00463957D01*
X02569008Y00447959D02*
X02555841Y00447959D01*
X02492000Y00415962D02*
X02488000Y00415962D01*
X02488000Y00399963D02*
X02492000Y00399963D01*
X02492000Y00383965D02*
X02488000Y00383965D01*
X02488000Y00367966D02*
X02492000Y00367966D01*
X02492000Y00351968D02*
X02488000Y00351968D01*
X02488000Y00335969D02*
X02492000Y00335969D01*
X02345741Y00367966D02*
X01994259Y00367966D01*
X02010258Y00351968D02*
X02329742Y00351968D01*
X02326000Y00335969D02*
X02014000Y00335969D01*
X02014000Y00319970D02*
X02326000Y00319970D01*
X02333803Y00303972D02*
X02006197Y00303972D01*
X01990199Y00287973D02*
X02349801Y00287973D01*
X02269757Y00191982D02*
X02210243Y00191982D01*
X02226241Y00175984D02*
X02253758Y00175984D01*
X02246000Y00159985D02*
X02234000Y00159985D01*
X02234000Y00143987D02*
X02246000Y00143987D01*
X02249786Y00127988D02*
X02230213Y00127988D01*
X02214215Y00111990D02*
X02265785Y00111990D01*
X02247812Y00399963D02*
X01924000Y00399963D01*
X01921014Y00415962D02*
X02236000Y00415962D01*
X02236000Y00431960D02*
X01910265Y00431960D01*
X02052468Y00639941D02*
X02357834Y00639941D01*
X02346000Y00651775D02*
X02371775Y00626000D01*
X02408225Y00626000D01*
X02434000Y00651775D01*
X02434000Y00688225D01*
X02408225Y00714000D01*
X02371775Y00714000D01*
X02346000Y00688225D01*
X02346000Y00651775D01*
X02346000Y00655939D02*
X02068466Y00655939D01*
X02084465Y00671938D02*
X02346000Y00671938D01*
X02346000Y00687937D02*
X02100463Y00687937D01*
X02116462Y00703935D02*
X02361710Y00703935D01*
X02371775Y00736000D02*
X02408225Y00736000D01*
X02434000Y00761775D01*
X02434000Y00798225D01*
X02429122Y00803103D01*
X02434843Y00798947D01*
X02441574Y00795517D01*
X02448760Y00793182D01*
X02456222Y00792000D01*
X02488000Y00792000D01*
X02488000Y00837999D01*
X02492000Y00837999D01*
X02492000Y00792000D01*
X02523778Y00792000D01*
X02531240Y00793182D01*
X02538426Y00795517D01*
X02545157Y00798947D01*
X02551270Y00803388D01*
X02556612Y00808730D01*
X02561053Y00814843D01*
X02564483Y00821574D01*
X02566818Y00828760D01*
X02568000Y00836222D01*
X02568000Y00838000D01*
X02492001Y00838000D01*
X02492001Y00842000D01*
X02568000Y00842000D01*
X02568000Y00843778D01*
X02566818Y00851240D01*
X02564483Y00858426D01*
X02561053Y00865157D01*
X02556612Y00871270D01*
X02551270Y00876612D01*
X02545157Y00881053D01*
X02538426Y00884483D01*
X02531240Y00886818D01*
X02523778Y00888000D01*
X02492000Y00888000D01*
X02492000Y00842001D01*
X02488000Y00842001D01*
X02488000Y00888000D01*
X02456222Y00888000D01*
X02448760Y00886818D01*
X02441574Y00884483D01*
X02434843Y00881053D01*
X02428730Y00876612D01*
X02423388Y00871270D01*
X02418947Y00865157D01*
X02415517Y00858426D01*
X02413182Y00851240D01*
X02412000Y00843778D01*
X02412000Y00842000D01*
X02487999Y00842000D01*
X02487999Y00838000D01*
X02412000Y00838000D01*
X02412000Y00836222D01*
X02413182Y00828760D01*
X02415517Y00821574D01*
X02418947Y00814843D01*
X02423103Y00809122D01*
X02408225Y00824000D01*
X02371775Y00824000D01*
X02346000Y00798225D01*
X02346000Y00761775D01*
X02371775Y00736000D01*
X02355844Y00751931D02*
X02153000Y00751931D01*
X02153000Y00767929D02*
X02346000Y00767929D01*
X02346000Y00783928D02*
X02153000Y00783928D01*
X02153000Y00799926D02*
X02347701Y00799926D01*
X02363699Y00815925D02*
X02153000Y00815925D01*
X02153000Y00831923D02*
X02412681Y00831923D01*
X02412656Y00847922D02*
X02300147Y00847922D01*
X02298225Y00846000D02*
X02324000Y00871775D01*
X02324000Y00908225D01*
X02298225Y00934000D01*
X02261775Y00934000D01*
X02236000Y00908225D01*
X02236000Y00871775D01*
X02261775Y00846000D01*
X02298225Y00846000D01*
X02316146Y00863920D02*
X02418316Y00863920D01*
X02433281Y00879919D02*
X02324000Y00879919D01*
X02324000Y00895917D02*
X02440995Y00895917D01*
X02432810Y00899308D02*
X02450452Y00892000D01*
X02529548Y00892000D01*
X02547190Y00899308D01*
X02560692Y00912810D01*
X02568000Y00930452D01*
X02568000Y00949548D01*
X02560692Y00967190D01*
X02547190Y00980692D01*
X02529548Y00988000D01*
X02450452Y00988000D01*
X02432810Y00980692D01*
X02419308Y00967190D01*
X02412000Y00949548D01*
X02412000Y00930452D01*
X02419308Y00912810D01*
X02432810Y00899308D01*
X02420202Y00911916D02*
X02320309Y00911916D01*
X02304311Y00927914D02*
X02413051Y00927914D01*
X02412000Y00943913D02*
X02153000Y00943913D01*
X02153000Y00959911D02*
X02247863Y00959911D01*
X02236000Y00971775D02*
X02261775Y00946000D01*
X02279999Y00946000D01*
X02279999Y00989999D01*
X02236000Y00989999D01*
X02236000Y00971775D01*
X02236000Y00975910D02*
X02153000Y00975910D01*
X02153000Y00991908D02*
X02236000Y00991908D01*
X02236000Y00990000D02*
X02279999Y00990000D01*
X02279999Y00989999D01*
X02280000Y00989999D01*
X02280000Y00946000D01*
X02298225Y00946000D01*
X02324000Y00971775D01*
X02324000Y00989999D01*
X02280001Y00989999D01*
X02280001Y00990000D01*
X02324000Y00990000D01*
X02324000Y01008225D01*
X02298225Y01034000D01*
X02280000Y01034000D01*
X02280000Y00990001D01*
X02279999Y00990001D01*
X02279999Y01034000D01*
X02261775Y01034000D01*
X02236000Y01008225D01*
X02236000Y00990000D01*
X02236000Y01007907D02*
X02153000Y01007907D01*
X02153000Y01023906D02*
X02251680Y01023906D01*
X02279999Y01023906D02*
X02280000Y01023906D01*
X02279999Y01007907D02*
X02280000Y01007907D01*
X02279999Y00991908D02*
X02280000Y00991908D01*
X02279999Y00975910D02*
X02280000Y00975910D01*
X02279999Y00959911D02*
X02280000Y00959911D01*
X02312137Y00959911D02*
X02416293Y00959911D01*
X02428028Y00975910D02*
X02324000Y00975910D01*
X02324000Y00991908D02*
X02569008Y00991908D01*
X02569008Y00975910D02*
X02551972Y00975910D01*
X02563707Y00959911D02*
X02569008Y00959911D01*
X02569008Y00943913D02*
X02568000Y00943913D01*
X02569008Y00927914D02*
X02566949Y00927914D01*
X02569008Y00911916D02*
X02559798Y00911916D01*
X02569008Y00895917D02*
X02539005Y00895917D01*
X02546719Y00879919D02*
X02569008Y00879919D01*
X02569008Y00863920D02*
X02561684Y00863920D01*
X02567344Y00847922D02*
X02569008Y00847922D01*
X02569008Y00831923D02*
X02567319Y00831923D01*
X02569008Y00815925D02*
X02561604Y00815925D01*
X02569008Y00799926D02*
X02546505Y00799926D01*
X02569008Y00783928D02*
X02434000Y00783928D01*
X02434000Y00767929D02*
X02569008Y00767929D01*
X02569008Y00751931D02*
X02424156Y00751931D01*
X02418290Y00703935D02*
X02569008Y00703935D01*
X02569008Y00687937D02*
X02434000Y00687937D01*
X02434000Y00671938D02*
X02569008Y00671938D01*
X02569008Y00655939D02*
X02434000Y00655939D01*
X02569008Y00719934D02*
X02132460Y00719934D01*
X02148459Y00735932D02*
X02569008Y00735932D01*
X02492000Y00799926D02*
X02488000Y00799926D01*
X02488000Y00815925D02*
X02492000Y00815925D01*
X02492000Y00831923D02*
X02488000Y00831923D01*
X02488000Y00847922D02*
X02492000Y00847922D01*
X02492000Y00863920D02*
X02488000Y00863920D01*
X02488000Y00879919D02*
X02492000Y00879919D01*
X02418395Y00815925D02*
X02416300Y00815925D01*
X02432299Y00799926D02*
X02433494Y00799926D01*
X02259853Y00847922D02*
X02153000Y00847922D01*
X02153000Y00863920D02*
X02243854Y00863920D01*
X02236000Y00879919D02*
X02153000Y00879919D01*
X02153000Y00895917D02*
X02236000Y00895917D01*
X02239691Y00911916D02*
X02153000Y00911916D01*
X02153000Y00927914D02*
X02255689Y00927914D01*
X02324000Y01007907D02*
X02424211Y01007907D01*
X02419308Y01012810D02*
X02432810Y00999308D01*
X02450452Y00992000D01*
X02529548Y00992000D01*
X02547190Y00999308D01*
X02560692Y01012810D01*
X02568000Y01030452D01*
X02568000Y01049548D01*
X02560692Y01067190D01*
X02547190Y01080692D01*
X02529548Y01088000D01*
X02450452Y01088000D01*
X02432810Y01080692D01*
X02419308Y01067190D01*
X02412000Y01049548D01*
X02412000Y01030452D01*
X02419308Y01012810D01*
X02414712Y01023906D02*
X02308320Y01023906D01*
X02412000Y01039904D02*
X02153000Y01039904D01*
X02153000Y01055903D02*
X02414632Y01055903D01*
X02424019Y01071901D02*
X02153000Y01071901D01*
X02153000Y01087900D02*
X02450210Y01087900D01*
X02529790Y01087900D02*
X02569008Y01087900D01*
X02569008Y01103898D02*
X02153000Y01103898D01*
X02153000Y01119897D02*
X02569008Y01119897D01*
X02569008Y01135895D02*
X02153000Y01135895D01*
X02153000Y01151894D02*
X02569008Y01151894D01*
X02569008Y01167892D02*
X02153000Y01167892D01*
X02153000Y01183891D02*
X02428227Y01183891D01*
X02432810Y01179308D02*
X02450452Y01172000D01*
X02529548Y01172000D01*
X02547190Y01179308D01*
X02560692Y01192810D01*
X02568000Y01210452D01*
X02568000Y01229548D01*
X02560692Y01247190D01*
X02547190Y01260692D01*
X02529548Y01268000D01*
X02450452Y01268000D01*
X02432810Y01260692D01*
X02419308Y01247190D01*
X02412000Y01229548D01*
X02412000Y01210452D01*
X02419308Y01192810D01*
X02432810Y01179308D01*
X02416375Y01199889D02*
X02153000Y01199889D01*
X02153000Y01215888D02*
X02412000Y01215888D01*
X02412969Y01231886D02*
X02153000Y01231886D01*
X02153000Y01247885D02*
X02420003Y01247885D01*
X02440514Y01263883D02*
X02153000Y01263883D01*
X02153000Y01279882D02*
X02432236Y01279882D01*
X02432810Y01279308D02*
X02450452Y01272000D01*
X02529548Y01272000D01*
X02547190Y01279308D01*
X02560692Y01292810D01*
X02568000Y01310452D01*
X02568000Y01329548D01*
X02560692Y01347190D01*
X02547190Y01360692D01*
X02529548Y01368000D01*
X02450452Y01368000D01*
X02432810Y01360692D01*
X02419308Y01347190D01*
X02412000Y01329548D01*
X02412000Y01310452D01*
X02419308Y01292810D01*
X02432810Y01279308D01*
X02418036Y01295880D02*
X02153000Y01295880D01*
X02153000Y01311879D02*
X02412000Y01311879D01*
X02412000Y01327877D02*
X02153000Y01327877D01*
X02153000Y01343876D02*
X02417935Y01343876D01*
X02431992Y01359875D02*
X02153000Y01359875D01*
X02153000Y01375873D02*
X02441102Y01375873D01*
X02432810Y01379308D02*
X02450452Y01372000D01*
X02529548Y01372000D01*
X02547190Y01379308D01*
X02560692Y01392810D01*
X02568000Y01410452D01*
X02568000Y01429548D01*
X02560692Y01447190D01*
X02547190Y01460692D01*
X02529548Y01468000D01*
X02450452Y01468000D01*
X02432810Y01460692D01*
X02419308Y01447190D01*
X02412000Y01429548D01*
X02412000Y01410452D01*
X02419308Y01392810D01*
X02432810Y01379308D01*
X02420246Y01391872D02*
X02153000Y01391872D01*
X02153000Y01407870D02*
X02413070Y01407870D01*
X02412000Y01423869D02*
X02153000Y01423869D01*
X02153000Y01439867D02*
X02416274Y01439867D01*
X02427984Y01455866D02*
X02153000Y01455866D01*
X02153000Y01471864D02*
X02569008Y01471864D01*
X02569008Y01455866D02*
X02552016Y01455866D01*
X02563726Y01439867D02*
X02569008Y01439867D01*
X02569008Y01423869D02*
X02568000Y01423869D01*
X02569008Y01407870D02*
X02566930Y01407870D01*
X02569008Y01391872D02*
X02559754Y01391872D01*
X02569008Y01375873D02*
X02538898Y01375873D01*
X02548008Y01359875D02*
X02569008Y01359875D01*
X02569008Y01343876D02*
X02562065Y01343876D01*
X02568000Y01327877D02*
X02569008Y01327877D01*
X02569008Y01311879D02*
X02568000Y01311879D01*
X02569008Y01295880D02*
X02561964Y01295880D01*
X02569008Y01279882D02*
X02547764Y01279882D01*
X02539486Y01263883D02*
X02569008Y01263883D01*
X02569008Y01247885D02*
X02559997Y01247885D01*
X02567031Y01231886D02*
X02569008Y01231886D01*
X02569008Y01215888D02*
X02568000Y01215888D01*
X02569008Y01199889D02*
X02563625Y01199889D01*
X02569008Y01183891D02*
X02551773Y01183891D01*
X02555981Y01071901D02*
X02569008Y01071901D01*
X02569008Y01055903D02*
X02565368Y01055903D01*
X02568000Y01039904D02*
X02569008Y01039904D01*
X02569008Y01023906D02*
X02565288Y01023906D01*
X02569008Y01007907D02*
X02555789Y01007907D01*
X02555745Y01487863D02*
X02569008Y01487863D01*
X02569008Y01503861D02*
X02565270Y01503861D01*
X02568000Y01519860D02*
X02569008Y01519860D01*
X02569008Y01535858D02*
X02565386Y01535858D01*
X02569008Y01551857D02*
X02556025Y01551857D01*
X02569008Y01567855D02*
X02529897Y01567855D01*
X02551736Y01583854D02*
X02569008Y01583854D01*
X02569008Y01599852D02*
X02563609Y01599852D01*
X02568000Y01615851D02*
X02569008Y01615851D01*
X02569008Y01631849D02*
X02567047Y01631849D01*
X02569008Y01647848D02*
X02560034Y01647848D01*
X02569008Y01663846D02*
X02539575Y01663846D01*
X02529548Y01672000D02*
X02547190Y01679308D01*
X02560692Y01692810D01*
X02568000Y01710452D01*
X02568000Y01729548D01*
X02560692Y01747190D01*
X02547190Y01760692D01*
X02529548Y01768000D01*
X02450452Y01768000D01*
X02432810Y01760692D01*
X02419308Y01747190D01*
X02412000Y01729548D01*
X02412000Y01710452D01*
X02419308Y01692810D01*
X02432810Y01679308D01*
X02450452Y01672000D01*
X02529548Y01672000D01*
X02547727Y01679845D02*
X02569008Y01679845D01*
X02569008Y01695844D02*
X02561949Y01695844D01*
X02568000Y01711842D02*
X02569008Y01711842D01*
X02569008Y01727841D02*
X02568000Y01727841D01*
X02569008Y01743839D02*
X02562080Y01743839D01*
X02569008Y01759838D02*
X02548044Y01759838D01*
X02538809Y01775836D02*
X02569008Y01775836D01*
X02569008Y01791835D02*
X02559717Y01791835D01*
X02560692Y01792810D02*
X02568000Y01810452D01*
X02568000Y01829548D01*
X02560692Y01847190D01*
X02547190Y01860692D01*
X02529548Y01868000D01*
X02450452Y01868000D01*
X02432810Y01860692D01*
X02419308Y01847190D01*
X02412000Y01829548D01*
X02412000Y01810452D01*
X02419308Y01792810D01*
X02432810Y01779308D01*
X02450452Y01772000D01*
X02529548Y01772000D01*
X02547190Y01779308D01*
X02560692Y01792810D01*
X02566915Y01807833D02*
X02569008Y01807833D01*
X02569008Y01823832D02*
X02568000Y01823832D01*
X02569008Y01839830D02*
X02563741Y01839830D01*
X02569008Y01855829D02*
X02552053Y01855829D01*
X02569008Y01871827D02*
X02291913Y01871827D01*
X02301645Y01855829D02*
X02427947Y01855829D01*
X02416259Y01839830D02*
X02303000Y01839830D01*
X02303000Y01823832D02*
X02412000Y01823832D01*
X02413085Y01807833D02*
X02303000Y01807833D01*
X02303000Y01791835D02*
X02420283Y01791835D01*
X02441191Y01775836D02*
X02303000Y01775836D01*
X02303000Y01759838D02*
X02431955Y01759838D01*
X02417920Y01743839D02*
X02304901Y01743839D01*
X02320899Y01727841D02*
X02412000Y01727841D01*
X02412000Y01711842D02*
X02336898Y01711842D01*
X02352896Y01695844D02*
X02418051Y01695844D01*
X02432273Y01679845D02*
X02368895Y01679845D01*
X02384893Y01663846D02*
X02440425Y01663846D01*
X02419966Y01647848D02*
X02400892Y01647848D01*
X02341407Y01599852D02*
X02153000Y01599852D01*
X02153000Y01583854D02*
X02357406Y01583854D01*
X02373405Y01567855D02*
X02153000Y01567855D01*
X02153000Y01551857D02*
X02389403Y01551857D01*
X02405402Y01535858D02*
X02153000Y01535858D01*
X02153000Y01519860D02*
X02412000Y01519860D01*
X02414730Y01503861D02*
X02153000Y01503861D01*
X02153000Y01487863D02*
X02424255Y01487863D01*
X02325409Y01615851D02*
X02153000Y01615851D01*
X02153000Y01631849D02*
X02309410Y01631849D01*
X02293412Y01647848D02*
X02153000Y01647848D01*
X02153000Y01663846D02*
X02277413Y01663846D01*
X02261415Y01679845D02*
X02153000Y01679845D01*
X02153000Y01695844D02*
X02245416Y01695844D01*
X02231390Y01711842D02*
X02153000Y01711842D01*
X02153000Y01727841D02*
X02227000Y01727841D01*
X02227000Y01743839D02*
X02153000Y01743839D01*
X02153000Y01759838D02*
X02227000Y01759838D01*
X02227000Y01775836D02*
X02153000Y01775836D01*
X02153000Y01791835D02*
X02227000Y01791835D01*
X02227000Y01807833D02*
X02153000Y01807833D01*
X02153000Y01823832D02*
X02183019Y01823832D01*
X02206981Y01823832D02*
X02227000Y01823832D01*
X02233000Y01871827D02*
X02238087Y01871827D01*
X02233000Y01887826D02*
X02424292Y01887826D01*
X02414745Y01903824D02*
X02233000Y01903824D01*
X02227920Y01919823D02*
X02412000Y01919823D01*
X02414599Y01935821D02*
X02212919Y01935821D01*
X02196920Y01951820D02*
X02423938Y01951820D01*
X02371787Y01967818D02*
X02255701Y01967818D01*
X02249882Y01962000D02*
X02278000Y01990118D01*
X02278000Y02008000D01*
X02232001Y02008000D01*
X02232001Y02012000D01*
X02278000Y02012000D01*
X02278000Y02029882D01*
X02249882Y02058000D01*
X02232000Y02058000D01*
X02232000Y02012001D01*
X02228000Y02012001D01*
X02228000Y02058000D01*
X02210118Y02058000D01*
X02182000Y02029882D01*
X02182000Y02012000D01*
X02227999Y02012000D01*
X02227999Y02008000D01*
X02182000Y02008000D01*
X02182000Y01990118D01*
X02210118Y01962000D01*
X02228000Y01962000D01*
X02228000Y02007999D01*
X02232000Y02007999D01*
X02232000Y01962000D01*
X02249882Y01962000D01*
X02232000Y01967818D02*
X02228000Y01967818D01*
X02228000Y01983817D02*
X02232000Y01983817D01*
X02232000Y01999815D02*
X02228000Y01999815D01*
X02228000Y02015814D02*
X02232000Y02015814D01*
X02232000Y02031813D02*
X02228000Y02031813D01*
X02228000Y02047811D02*
X02232000Y02047811D01*
X02251692Y02063810D02*
X02310500Y02063810D01*
X02310500Y02079808D02*
X02267690Y02079808D01*
X02278000Y02095807D02*
X02314321Y02095807D01*
X02319274Y02111805D02*
X02278000Y02111805D01*
X02278000Y02127804D02*
X02328511Y02127804D01*
X02341532Y02143802D02*
X02264080Y02143802D01*
X02195920Y02143802D02*
X02164080Y02143802D01*
X02178000Y02127804D02*
X02182000Y02127804D01*
X02182000Y02111805D02*
X02178000Y02111805D01*
X02178000Y02095807D02*
X02182000Y02095807D01*
X02192310Y02079808D02*
X02167690Y02079808D01*
X02151692Y02063810D02*
X02208308Y02063810D01*
X02199929Y02047811D02*
X02160071Y02047811D01*
X02176070Y02031813D02*
X02183930Y02031813D01*
X02182000Y02015814D02*
X02178000Y02015814D01*
X02178000Y01999815D02*
X02182000Y01999815D01*
X02188301Y01983817D02*
X02171699Y01983817D01*
X02172997Y01967818D02*
X02204299Y01967818D01*
X02157003Y01967818D02*
X02155700Y01967818D01*
X02153434Y01887826D02*
X02153000Y01887826D01*
X02153000Y01871827D02*
X02157000Y01871827D01*
X02157000Y01855829D02*
X02153000Y01855829D01*
X02153000Y01839830D02*
X02162224Y01839830D01*
X02271699Y01983817D02*
X02347912Y01983817D01*
X02332195Y01999815D02*
X02278000Y01999815D01*
X02278000Y02015814D02*
X02322958Y02015814D01*
X02316030Y02031813D02*
X02276070Y02031813D01*
X02260071Y02047811D02*
X02311744Y02047811D01*
X02494087Y01983817D02*
X02569008Y01983817D01*
X02569008Y01999815D02*
X02509805Y01999815D01*
X02519042Y02015814D02*
X02569008Y02015814D01*
X02569008Y02031813D02*
X02525969Y02031813D01*
X02530256Y02047811D02*
X02569008Y02047811D01*
X02569008Y02063810D02*
X02531500Y02063810D01*
X02531500Y02079808D02*
X02569008Y02079808D01*
X02569008Y02095807D02*
X02527679Y02095807D01*
X02522726Y02111805D02*
X02569008Y02111805D01*
X02569008Y02127804D02*
X02513489Y02127804D01*
X02500468Y02143802D02*
X02569008Y02143802D01*
X02569008Y01967818D02*
X02529986Y01967818D01*
X02556062Y01951820D02*
X02569008Y01951820D01*
X02569008Y01935821D02*
X02565401Y01935821D01*
X02568000Y01919823D02*
X02569008Y01919823D01*
X02569008Y01903824D02*
X02565254Y01903824D01*
X02569008Y01887826D02*
X02555708Y01887826D01*
X01269713Y00671938D02*
X01240287Y00671938D01*
X01244000Y00655939D02*
X01266000Y00655939D01*
X01266000Y00639941D02*
X01244000Y00639941D01*
X01236168Y00623942D02*
X01273832Y00623942D01*
X00431843Y00095991D02*
X00428157Y00095991D01*
X00428157Y00079993D02*
X00431843Y00079993D01*
X00067709Y00223979D02*
X00048000Y00223979D01*
X00048000Y00207981D02*
X00051710Y00207981D01*
D19*
X00525000Y00865000D03*
X00475000Y00940000D03*
X00445000Y01095000D03*
X00925000Y01525000D03*
X00925000Y01575000D03*
X01030000Y01795000D03*
X01270000Y01900000D03*
X01445000Y01760000D03*
X01535000Y01900000D03*
X01635000Y01950000D03*
X01660000Y01900000D03*
X01775000Y01675000D03*
X01825000Y01675000D03*
X01860000Y01570000D03*
X01880000Y01520000D03*
X02020000Y01470000D03*
X01825000Y01390000D03*
X01775000Y01340000D03*
X01415000Y01305000D03*
X01085000Y01175000D03*
X01415000Y01015000D03*
X02055000Y01775000D03*
X02195000Y01860000D03*
X02265000Y01845000D03*
X02165000Y01930000D03*
X02065000Y02060000D03*
D20*
X02165000Y01930000D02*
X02195000Y01900000D01*
X02195000Y01860000D01*
X02265000Y01845000D02*
X02265000Y01730000D01*
X02475000Y01520000D01*
X02490000Y01520000D01*
X02020000Y01470000D02*
X02020000Y01190000D01*
X01635000Y00805000D01*
X00585000Y00805000D01*
X00525000Y00865000D01*
X00560000Y01230000D02*
X00895000Y00895000D01*
X01595000Y00895000D01*
X01725000Y01025000D01*
X01725000Y01365000D01*
X01880000Y01520000D01*
X01860000Y01570000D02*
X01675000Y01385000D01*
X01675000Y01045000D01*
X01575000Y00945000D01*
X01255000Y00945000D01*
X01135000Y01065000D01*
X01135000Y01200000D01*
X01105000Y01230000D01*
X00860000Y01230000D01*
X00925000Y01575000D02*
X00945000Y01575000D01*
X01270000Y01900000D01*
X01535000Y01900000D02*
X01660000Y01900000D01*
X01415000Y01305000D02*
X01415000Y01015000D01*
M02*
