G75*
%MOIN*%
%OFA0B0*%
%FSLAX26Y26*%
%IPPOS*%
%LPD*%
%AMOC8*
5,1,8,0,0,1.08239X$1,22.5*
%
%ADD10C,0.000000*%
%ADD11C,0.006000*%
%ADD12C,0.003000*%
%ADD13C,0.008000*%
%ADD14C,0.005000*%
%ADD15C,0.010000*%
%ADD16C,0.004000*%
%ADD17R,0.024000X0.034000*%
%ADD18R,0.034000X0.024000*%
D10*
X00000000Y00000000D02*
X00000000Y02199606D01*
X02617008Y02199606D01*
X02617008Y00000000D01*
X00000000Y00000000D01*
X00075500Y00138000D02*
X00075519Y00139534D01*
X00075575Y00141067D01*
X00075669Y00142598D01*
X00075801Y00144126D01*
X00075970Y00145651D01*
X00076176Y00147171D01*
X00076420Y00148685D01*
X00076701Y00150193D01*
X00077019Y00151694D01*
X00077373Y00153186D01*
X00077764Y00154670D01*
X00078191Y00156143D01*
X00078654Y00157605D01*
X00079153Y00159056D01*
X00079688Y00160493D01*
X00080258Y00161918D01*
X00080862Y00163328D01*
X00081501Y00164722D01*
X00082173Y00166101D01*
X00082880Y00167462D01*
X00083620Y00168806D01*
X00084392Y00170131D01*
X00085197Y00171437D01*
X00086033Y00172723D01*
X00086901Y00173988D01*
X00087800Y00175231D01*
X00088728Y00176452D01*
X00089687Y00177650D01*
X00090674Y00178823D01*
X00091691Y00179972D01*
X00092735Y00181096D01*
X00093806Y00182194D01*
X00094904Y00183265D01*
X00096028Y00184309D01*
X00097177Y00185326D01*
X00098350Y00186313D01*
X00099548Y00187272D01*
X00100769Y00188200D01*
X00102012Y00189099D01*
X00103277Y00189967D01*
X00104563Y00190803D01*
X00105869Y00191608D01*
X00107194Y00192380D01*
X00108538Y00193120D01*
X00109899Y00193827D01*
X00111278Y00194499D01*
X00112672Y00195138D01*
X00114082Y00195742D01*
X00115507Y00196312D01*
X00116944Y00196847D01*
X00118395Y00197346D01*
X00119857Y00197809D01*
X00121330Y00198236D01*
X00122814Y00198627D01*
X00124306Y00198981D01*
X00125807Y00199299D01*
X00127315Y00199580D01*
X00128829Y00199824D01*
X00130349Y00200030D01*
X00131874Y00200199D01*
X00133402Y00200331D01*
X00134933Y00200425D01*
X00136466Y00200481D01*
X00138000Y00200500D01*
X00139534Y00200481D01*
X00141067Y00200425D01*
X00142598Y00200331D01*
X00144126Y00200199D01*
X00145651Y00200030D01*
X00147171Y00199824D01*
X00148685Y00199580D01*
X00150193Y00199299D01*
X00151694Y00198981D01*
X00153186Y00198627D01*
X00154670Y00198236D01*
X00156143Y00197809D01*
X00157605Y00197346D01*
X00159056Y00196847D01*
X00160493Y00196312D01*
X00161918Y00195742D01*
X00163328Y00195138D01*
X00164722Y00194499D01*
X00166101Y00193827D01*
X00167462Y00193120D01*
X00168806Y00192380D01*
X00170131Y00191608D01*
X00171437Y00190803D01*
X00172723Y00189967D01*
X00173988Y00189099D01*
X00175231Y00188200D01*
X00176452Y00187272D01*
X00177650Y00186313D01*
X00178823Y00185326D01*
X00179972Y00184309D01*
X00181096Y00183265D01*
X00182194Y00182194D01*
X00183265Y00181096D01*
X00184309Y00179972D01*
X00185326Y00178823D01*
X00186313Y00177650D01*
X00187272Y00176452D01*
X00188200Y00175231D01*
X00189099Y00173988D01*
X00189967Y00172723D01*
X00190803Y00171437D01*
X00191608Y00170131D01*
X00192380Y00168806D01*
X00193120Y00167462D01*
X00193827Y00166101D01*
X00194499Y00164722D01*
X00195138Y00163328D01*
X00195742Y00161918D01*
X00196312Y00160493D01*
X00196847Y00159056D01*
X00197346Y00157605D01*
X00197809Y00156143D01*
X00198236Y00154670D01*
X00198627Y00153186D01*
X00198981Y00151694D01*
X00199299Y00150193D01*
X00199580Y00148685D01*
X00199824Y00147171D01*
X00200030Y00145651D01*
X00200199Y00144126D01*
X00200331Y00142598D01*
X00200425Y00141067D01*
X00200481Y00139534D01*
X00200500Y00138000D01*
X00200481Y00136466D01*
X00200425Y00134933D01*
X00200331Y00133402D01*
X00200199Y00131874D01*
X00200030Y00130349D01*
X00199824Y00128829D01*
X00199580Y00127315D01*
X00199299Y00125807D01*
X00198981Y00124306D01*
X00198627Y00122814D01*
X00198236Y00121330D01*
X00197809Y00119857D01*
X00197346Y00118395D01*
X00196847Y00116944D01*
X00196312Y00115507D01*
X00195742Y00114082D01*
X00195138Y00112672D01*
X00194499Y00111278D01*
X00193827Y00109899D01*
X00193120Y00108538D01*
X00192380Y00107194D01*
X00191608Y00105869D01*
X00190803Y00104563D01*
X00189967Y00103277D01*
X00189099Y00102012D01*
X00188200Y00100769D01*
X00187272Y00099548D01*
X00186313Y00098350D01*
X00185326Y00097177D01*
X00184309Y00096028D01*
X00183265Y00094904D01*
X00182194Y00093806D01*
X00181096Y00092735D01*
X00179972Y00091691D01*
X00178823Y00090674D01*
X00177650Y00089687D01*
X00176452Y00088728D01*
X00175231Y00087800D01*
X00173988Y00086901D01*
X00172723Y00086033D01*
X00171437Y00085197D01*
X00170131Y00084392D01*
X00168806Y00083620D01*
X00167462Y00082880D01*
X00166101Y00082173D01*
X00164722Y00081501D01*
X00163328Y00080862D01*
X00161918Y00080258D01*
X00160493Y00079688D01*
X00159056Y00079153D01*
X00157605Y00078654D01*
X00156143Y00078191D01*
X00154670Y00077764D01*
X00153186Y00077373D01*
X00151694Y00077019D01*
X00150193Y00076701D01*
X00148685Y00076420D01*
X00147171Y00076176D01*
X00145651Y00075970D01*
X00144126Y00075801D01*
X00142598Y00075669D01*
X00141067Y00075575D01*
X00139534Y00075519D01*
X00138000Y00075500D01*
X00136466Y00075519D01*
X00134933Y00075575D01*
X00133402Y00075669D01*
X00131874Y00075801D01*
X00130349Y00075970D01*
X00128829Y00076176D01*
X00127315Y00076420D01*
X00125807Y00076701D01*
X00124306Y00077019D01*
X00122814Y00077373D01*
X00121330Y00077764D01*
X00119857Y00078191D01*
X00118395Y00078654D01*
X00116944Y00079153D01*
X00115507Y00079688D01*
X00114082Y00080258D01*
X00112672Y00080862D01*
X00111278Y00081501D01*
X00109899Y00082173D01*
X00108538Y00082880D01*
X00107194Y00083620D01*
X00105869Y00084392D01*
X00104563Y00085197D01*
X00103277Y00086033D01*
X00102012Y00086901D01*
X00100769Y00087800D01*
X00099548Y00088728D01*
X00098350Y00089687D01*
X00097177Y00090674D01*
X00096028Y00091691D01*
X00094904Y00092735D01*
X00093806Y00093806D01*
X00092735Y00094904D01*
X00091691Y00096028D01*
X00090674Y00097177D01*
X00089687Y00098350D01*
X00088728Y00099548D01*
X00087800Y00100769D01*
X00086901Y00102012D01*
X00086033Y00103277D01*
X00085197Y00104563D01*
X00084392Y00105869D01*
X00083620Y00107194D01*
X00082880Y00108538D01*
X00082173Y00109899D01*
X00081501Y00111278D01*
X00080862Y00112672D01*
X00080258Y00114082D01*
X00079688Y00115507D01*
X00079153Y00116944D01*
X00078654Y00118395D01*
X00078191Y00119857D01*
X00077764Y00121330D01*
X00077373Y00122814D01*
X00077019Y00124306D01*
X00076701Y00125807D01*
X00076420Y00127315D01*
X00076176Y00128829D01*
X00075970Y00130349D01*
X00075801Y00131874D01*
X00075669Y00133402D01*
X00075575Y00134933D01*
X00075519Y00136466D01*
X00075500Y00138000D01*
X00698000Y01768000D02*
X00698004Y01767708D01*
X00698014Y01767416D01*
X00698032Y01767124D01*
X00698057Y01766833D01*
X00698089Y01766542D01*
X00698128Y01766253D01*
X00698174Y01765964D01*
X00698227Y01765677D01*
X00698287Y01765391D01*
X00698354Y01765106D01*
X00698428Y01764824D01*
X00698509Y01764543D01*
X00698596Y01764264D01*
X00698691Y01763987D01*
X00698792Y01763713D01*
X00698900Y01763442D01*
X00699014Y01763173D01*
X00699135Y01762907D01*
X00699262Y01762643D01*
X00699395Y01762384D01*
X00699535Y01762127D01*
X00699682Y01761874D01*
X00699834Y01761624D01*
X00699992Y01761379D01*
X00700156Y01761137D01*
X00700326Y01760899D01*
X00700502Y01760666D01*
X00700683Y01760437D01*
X00700870Y01760212D01*
X00701063Y01759992D01*
X00701260Y01759777D01*
X00701463Y01759567D01*
X00701671Y01759361D01*
X00701884Y01759161D01*
X00702102Y01758966D01*
X00702324Y01758776D01*
X00702551Y01758592D01*
X00702782Y01758413D01*
X00703018Y01758241D01*
X00703257Y01758073D01*
X00703501Y01757912D01*
X00703749Y01757757D01*
X00704000Y01757608D01*
X00704255Y01757465D01*
X00704513Y01757328D01*
X00704775Y01757197D01*
X00705039Y01757073D01*
X00705307Y01756956D01*
X00705577Y01756845D01*
X00705850Y01756740D01*
X00706125Y01756643D01*
X00706403Y01756552D01*
X00706683Y01756468D01*
X00706965Y01756390D01*
X00707248Y01756320D01*
X00707534Y01756256D01*
X00707820Y01756200D01*
X00708108Y01756150D01*
X00708397Y01756107D01*
X00708688Y01756072D01*
X00708978Y01756044D01*
X00709270Y01756022D01*
X00709562Y01756008D01*
X00709854Y01756001D01*
X00710146Y01756001D01*
X00710438Y01756008D01*
X00710730Y01756022D01*
X00711022Y01756044D01*
X00711312Y01756072D01*
X00711603Y01756107D01*
X00711892Y01756150D01*
X00712180Y01756200D01*
X00712466Y01756256D01*
X00712752Y01756320D01*
X00713035Y01756390D01*
X00713317Y01756468D01*
X00713597Y01756552D01*
X00713875Y01756643D01*
X00714150Y01756740D01*
X00714423Y01756845D01*
X00714693Y01756956D01*
X00714961Y01757073D01*
X00715225Y01757197D01*
X00715487Y01757328D01*
X00715745Y01757465D01*
X00716000Y01757608D01*
X00716251Y01757757D01*
X00716499Y01757912D01*
X00716743Y01758073D01*
X00716982Y01758241D01*
X00717218Y01758413D01*
X00717449Y01758592D01*
X00717676Y01758776D01*
X00717898Y01758966D01*
X00718116Y01759161D01*
X00718329Y01759361D01*
X00718537Y01759567D01*
X00718740Y01759777D01*
X00718937Y01759992D01*
X00719130Y01760212D01*
X00719317Y01760437D01*
X00719498Y01760666D01*
X00719674Y01760899D01*
X00719844Y01761137D01*
X00720008Y01761379D01*
X00720166Y01761624D01*
X00720318Y01761874D01*
X00720465Y01762127D01*
X00720605Y01762384D01*
X00720738Y01762643D01*
X00720865Y01762907D01*
X00720986Y01763173D01*
X00721100Y01763442D01*
X00721208Y01763713D01*
X00721309Y01763987D01*
X00721404Y01764264D01*
X00721491Y01764543D01*
X00721572Y01764824D01*
X00721646Y01765106D01*
X00721713Y01765391D01*
X00721773Y01765677D01*
X00721826Y01765964D01*
X00721872Y01766253D01*
X00721911Y01766542D01*
X00721943Y01766833D01*
X00721968Y01767124D01*
X00721986Y01767416D01*
X00721996Y01767708D01*
X00722000Y01768000D01*
X00075500Y02067000D02*
X00075519Y02068534D01*
X00075575Y02070067D01*
X00075669Y02071598D01*
X00075801Y02073126D01*
X00075970Y02074651D01*
X00076176Y02076171D01*
X00076420Y02077685D01*
X00076701Y02079193D01*
X00077019Y02080694D01*
X00077373Y02082186D01*
X00077764Y02083670D01*
X00078191Y02085143D01*
X00078654Y02086605D01*
X00079153Y02088056D01*
X00079688Y02089493D01*
X00080258Y02090918D01*
X00080862Y02092328D01*
X00081501Y02093722D01*
X00082173Y02095101D01*
X00082880Y02096462D01*
X00083620Y02097806D01*
X00084392Y02099131D01*
X00085197Y02100437D01*
X00086033Y02101723D01*
X00086901Y02102988D01*
X00087800Y02104231D01*
X00088728Y02105452D01*
X00089687Y02106650D01*
X00090674Y02107823D01*
X00091691Y02108972D01*
X00092735Y02110096D01*
X00093806Y02111194D01*
X00094904Y02112265D01*
X00096028Y02113309D01*
X00097177Y02114326D01*
X00098350Y02115313D01*
X00099548Y02116272D01*
X00100769Y02117200D01*
X00102012Y02118099D01*
X00103277Y02118967D01*
X00104563Y02119803D01*
X00105869Y02120608D01*
X00107194Y02121380D01*
X00108538Y02122120D01*
X00109899Y02122827D01*
X00111278Y02123499D01*
X00112672Y02124138D01*
X00114082Y02124742D01*
X00115507Y02125312D01*
X00116944Y02125847D01*
X00118395Y02126346D01*
X00119857Y02126809D01*
X00121330Y02127236D01*
X00122814Y02127627D01*
X00124306Y02127981D01*
X00125807Y02128299D01*
X00127315Y02128580D01*
X00128829Y02128824D01*
X00130349Y02129030D01*
X00131874Y02129199D01*
X00133402Y02129331D01*
X00134933Y02129425D01*
X00136466Y02129481D01*
X00138000Y02129500D01*
X00139534Y02129481D01*
X00141067Y02129425D01*
X00142598Y02129331D01*
X00144126Y02129199D01*
X00145651Y02129030D01*
X00147171Y02128824D01*
X00148685Y02128580D01*
X00150193Y02128299D01*
X00151694Y02127981D01*
X00153186Y02127627D01*
X00154670Y02127236D01*
X00156143Y02126809D01*
X00157605Y02126346D01*
X00159056Y02125847D01*
X00160493Y02125312D01*
X00161918Y02124742D01*
X00163328Y02124138D01*
X00164722Y02123499D01*
X00166101Y02122827D01*
X00167462Y02122120D01*
X00168806Y02121380D01*
X00170131Y02120608D01*
X00171437Y02119803D01*
X00172723Y02118967D01*
X00173988Y02118099D01*
X00175231Y02117200D01*
X00176452Y02116272D01*
X00177650Y02115313D01*
X00178823Y02114326D01*
X00179972Y02113309D01*
X00181096Y02112265D01*
X00182194Y02111194D01*
X00183265Y02110096D01*
X00184309Y02108972D01*
X00185326Y02107823D01*
X00186313Y02106650D01*
X00187272Y02105452D01*
X00188200Y02104231D01*
X00189099Y02102988D01*
X00189967Y02101723D01*
X00190803Y02100437D01*
X00191608Y02099131D01*
X00192380Y02097806D01*
X00193120Y02096462D01*
X00193827Y02095101D01*
X00194499Y02093722D01*
X00195138Y02092328D01*
X00195742Y02090918D01*
X00196312Y02089493D01*
X00196847Y02088056D01*
X00197346Y02086605D01*
X00197809Y02085143D01*
X00198236Y02083670D01*
X00198627Y02082186D01*
X00198981Y02080694D01*
X00199299Y02079193D01*
X00199580Y02077685D01*
X00199824Y02076171D01*
X00200030Y02074651D01*
X00200199Y02073126D01*
X00200331Y02071598D01*
X00200425Y02070067D01*
X00200481Y02068534D01*
X00200500Y02067000D01*
X00200481Y02065466D01*
X00200425Y02063933D01*
X00200331Y02062402D01*
X00200199Y02060874D01*
X00200030Y02059349D01*
X00199824Y02057829D01*
X00199580Y02056315D01*
X00199299Y02054807D01*
X00198981Y02053306D01*
X00198627Y02051814D01*
X00198236Y02050330D01*
X00197809Y02048857D01*
X00197346Y02047395D01*
X00196847Y02045944D01*
X00196312Y02044507D01*
X00195742Y02043082D01*
X00195138Y02041672D01*
X00194499Y02040278D01*
X00193827Y02038899D01*
X00193120Y02037538D01*
X00192380Y02036194D01*
X00191608Y02034869D01*
X00190803Y02033563D01*
X00189967Y02032277D01*
X00189099Y02031012D01*
X00188200Y02029769D01*
X00187272Y02028548D01*
X00186313Y02027350D01*
X00185326Y02026177D01*
X00184309Y02025028D01*
X00183265Y02023904D01*
X00182194Y02022806D01*
X00181096Y02021735D01*
X00179972Y02020691D01*
X00178823Y02019674D01*
X00177650Y02018687D01*
X00176452Y02017728D01*
X00175231Y02016800D01*
X00173988Y02015901D01*
X00172723Y02015033D01*
X00171437Y02014197D01*
X00170131Y02013392D01*
X00168806Y02012620D01*
X00167462Y02011880D01*
X00166101Y02011173D01*
X00164722Y02010501D01*
X00163328Y02009862D01*
X00161918Y02009258D01*
X00160493Y02008688D01*
X00159056Y02008153D01*
X00157605Y02007654D01*
X00156143Y02007191D01*
X00154670Y02006764D01*
X00153186Y02006373D01*
X00151694Y02006019D01*
X00150193Y02005701D01*
X00148685Y02005420D01*
X00147171Y02005176D01*
X00145651Y02004970D01*
X00144126Y02004801D01*
X00142598Y02004669D01*
X00141067Y02004575D01*
X00139534Y02004519D01*
X00138000Y02004500D01*
X00136466Y02004519D01*
X00134933Y02004575D01*
X00133402Y02004669D01*
X00131874Y02004801D01*
X00130349Y02004970D01*
X00128829Y02005176D01*
X00127315Y02005420D01*
X00125807Y02005701D01*
X00124306Y02006019D01*
X00122814Y02006373D01*
X00121330Y02006764D01*
X00119857Y02007191D01*
X00118395Y02007654D01*
X00116944Y02008153D01*
X00115507Y02008688D01*
X00114082Y02009258D01*
X00112672Y02009862D01*
X00111278Y02010501D01*
X00109899Y02011173D01*
X00108538Y02011880D01*
X00107194Y02012620D01*
X00105869Y02013392D01*
X00104563Y02014197D01*
X00103277Y02015033D01*
X00102012Y02015901D01*
X00100769Y02016800D01*
X00099548Y02017728D01*
X00098350Y02018687D01*
X00097177Y02019674D01*
X00096028Y02020691D01*
X00094904Y02021735D01*
X00093806Y02022806D01*
X00092735Y02023904D01*
X00091691Y02025028D01*
X00090674Y02026177D01*
X00089687Y02027350D01*
X00088728Y02028548D01*
X00087800Y02029769D01*
X00086901Y02031012D01*
X00086033Y02032277D01*
X00085197Y02033563D01*
X00084392Y02034869D01*
X00083620Y02036194D01*
X00082880Y02037538D01*
X00082173Y02038899D01*
X00081501Y02040278D01*
X00080862Y02041672D01*
X00080258Y02043082D01*
X00079688Y02044507D01*
X00079153Y02045944D01*
X00078654Y02047395D01*
X00078191Y02048857D01*
X00077764Y02050330D01*
X00077373Y02051814D01*
X00077019Y02053306D01*
X00076701Y02054807D01*
X00076420Y02056315D01*
X00076176Y02057829D01*
X00075970Y02059349D01*
X00075801Y02060874D01*
X00075669Y02062402D01*
X00075575Y02063933D01*
X00075519Y02065466D01*
X00075500Y02067000D01*
X01388000Y01778000D02*
X01388004Y01777708D01*
X01388014Y01777416D01*
X01388032Y01777124D01*
X01388057Y01776833D01*
X01388089Y01776542D01*
X01388128Y01776253D01*
X01388174Y01775964D01*
X01388227Y01775677D01*
X01388287Y01775391D01*
X01388354Y01775106D01*
X01388428Y01774824D01*
X01388509Y01774543D01*
X01388596Y01774264D01*
X01388691Y01773987D01*
X01388792Y01773713D01*
X01388900Y01773442D01*
X01389014Y01773173D01*
X01389135Y01772907D01*
X01389262Y01772643D01*
X01389395Y01772384D01*
X01389535Y01772127D01*
X01389682Y01771874D01*
X01389834Y01771624D01*
X01389992Y01771379D01*
X01390156Y01771137D01*
X01390326Y01770899D01*
X01390502Y01770666D01*
X01390683Y01770437D01*
X01390870Y01770212D01*
X01391063Y01769992D01*
X01391260Y01769777D01*
X01391463Y01769567D01*
X01391671Y01769361D01*
X01391884Y01769161D01*
X01392102Y01768966D01*
X01392324Y01768776D01*
X01392551Y01768592D01*
X01392782Y01768413D01*
X01393018Y01768241D01*
X01393257Y01768073D01*
X01393501Y01767912D01*
X01393749Y01767757D01*
X01394000Y01767608D01*
X01394255Y01767465D01*
X01394513Y01767328D01*
X01394775Y01767197D01*
X01395039Y01767073D01*
X01395307Y01766956D01*
X01395577Y01766845D01*
X01395850Y01766740D01*
X01396125Y01766643D01*
X01396403Y01766552D01*
X01396683Y01766468D01*
X01396965Y01766390D01*
X01397248Y01766320D01*
X01397534Y01766256D01*
X01397820Y01766200D01*
X01398108Y01766150D01*
X01398397Y01766107D01*
X01398688Y01766072D01*
X01398978Y01766044D01*
X01399270Y01766022D01*
X01399562Y01766008D01*
X01399854Y01766001D01*
X01400146Y01766001D01*
X01400438Y01766008D01*
X01400730Y01766022D01*
X01401022Y01766044D01*
X01401312Y01766072D01*
X01401603Y01766107D01*
X01401892Y01766150D01*
X01402180Y01766200D01*
X01402466Y01766256D01*
X01402752Y01766320D01*
X01403035Y01766390D01*
X01403317Y01766468D01*
X01403597Y01766552D01*
X01403875Y01766643D01*
X01404150Y01766740D01*
X01404423Y01766845D01*
X01404693Y01766956D01*
X01404961Y01767073D01*
X01405225Y01767197D01*
X01405487Y01767328D01*
X01405745Y01767465D01*
X01406000Y01767608D01*
X01406251Y01767757D01*
X01406499Y01767912D01*
X01406743Y01768073D01*
X01406982Y01768241D01*
X01407218Y01768413D01*
X01407449Y01768592D01*
X01407676Y01768776D01*
X01407898Y01768966D01*
X01408116Y01769161D01*
X01408329Y01769361D01*
X01408537Y01769567D01*
X01408740Y01769777D01*
X01408937Y01769992D01*
X01409130Y01770212D01*
X01409317Y01770437D01*
X01409498Y01770666D01*
X01409674Y01770899D01*
X01409844Y01771137D01*
X01410008Y01771379D01*
X01410166Y01771624D01*
X01410318Y01771874D01*
X01410465Y01772127D01*
X01410605Y01772384D01*
X01410738Y01772643D01*
X01410865Y01772907D01*
X01410986Y01773173D01*
X01411100Y01773442D01*
X01411208Y01773713D01*
X01411309Y01773987D01*
X01411404Y01774264D01*
X01411491Y01774543D01*
X01411572Y01774824D01*
X01411646Y01775106D01*
X01411713Y01775391D01*
X01411773Y01775677D01*
X01411826Y01775964D01*
X01411872Y01776253D01*
X01411911Y01776542D01*
X01411943Y01776833D01*
X01411968Y01777124D01*
X01411986Y01777416D01*
X01411996Y01777708D01*
X01412000Y01778000D01*
X02358500Y02067000D02*
X02358519Y02068534D01*
X02358575Y02070067D01*
X02358669Y02071598D01*
X02358801Y02073126D01*
X02358970Y02074651D01*
X02359176Y02076171D01*
X02359420Y02077685D01*
X02359701Y02079193D01*
X02360019Y02080694D01*
X02360373Y02082186D01*
X02360764Y02083670D01*
X02361191Y02085143D01*
X02361654Y02086605D01*
X02362153Y02088056D01*
X02362688Y02089493D01*
X02363258Y02090918D01*
X02363862Y02092328D01*
X02364501Y02093722D01*
X02365173Y02095101D01*
X02365880Y02096462D01*
X02366620Y02097806D01*
X02367392Y02099131D01*
X02368197Y02100437D01*
X02369033Y02101723D01*
X02369901Y02102988D01*
X02370800Y02104231D01*
X02371728Y02105452D01*
X02372687Y02106650D01*
X02373674Y02107823D01*
X02374691Y02108972D01*
X02375735Y02110096D01*
X02376806Y02111194D01*
X02377904Y02112265D01*
X02379028Y02113309D01*
X02380177Y02114326D01*
X02381350Y02115313D01*
X02382548Y02116272D01*
X02383769Y02117200D01*
X02385012Y02118099D01*
X02386277Y02118967D01*
X02387563Y02119803D01*
X02388869Y02120608D01*
X02390194Y02121380D01*
X02391538Y02122120D01*
X02392899Y02122827D01*
X02394278Y02123499D01*
X02395672Y02124138D01*
X02397082Y02124742D01*
X02398507Y02125312D01*
X02399944Y02125847D01*
X02401395Y02126346D01*
X02402857Y02126809D01*
X02404330Y02127236D01*
X02405814Y02127627D01*
X02407306Y02127981D01*
X02408807Y02128299D01*
X02410315Y02128580D01*
X02411829Y02128824D01*
X02413349Y02129030D01*
X02414874Y02129199D01*
X02416402Y02129331D01*
X02417933Y02129425D01*
X02419466Y02129481D01*
X02421000Y02129500D01*
X02422534Y02129481D01*
X02424067Y02129425D01*
X02425598Y02129331D01*
X02427126Y02129199D01*
X02428651Y02129030D01*
X02430171Y02128824D01*
X02431685Y02128580D01*
X02433193Y02128299D01*
X02434694Y02127981D01*
X02436186Y02127627D01*
X02437670Y02127236D01*
X02439143Y02126809D01*
X02440605Y02126346D01*
X02442056Y02125847D01*
X02443493Y02125312D01*
X02444918Y02124742D01*
X02446328Y02124138D01*
X02447722Y02123499D01*
X02449101Y02122827D01*
X02450462Y02122120D01*
X02451806Y02121380D01*
X02453131Y02120608D01*
X02454437Y02119803D01*
X02455723Y02118967D01*
X02456988Y02118099D01*
X02458231Y02117200D01*
X02459452Y02116272D01*
X02460650Y02115313D01*
X02461823Y02114326D01*
X02462972Y02113309D01*
X02464096Y02112265D01*
X02465194Y02111194D01*
X02466265Y02110096D01*
X02467309Y02108972D01*
X02468326Y02107823D01*
X02469313Y02106650D01*
X02470272Y02105452D01*
X02471200Y02104231D01*
X02472099Y02102988D01*
X02472967Y02101723D01*
X02473803Y02100437D01*
X02474608Y02099131D01*
X02475380Y02097806D01*
X02476120Y02096462D01*
X02476827Y02095101D01*
X02477499Y02093722D01*
X02478138Y02092328D01*
X02478742Y02090918D01*
X02479312Y02089493D01*
X02479847Y02088056D01*
X02480346Y02086605D01*
X02480809Y02085143D01*
X02481236Y02083670D01*
X02481627Y02082186D01*
X02481981Y02080694D01*
X02482299Y02079193D01*
X02482580Y02077685D01*
X02482824Y02076171D01*
X02483030Y02074651D01*
X02483199Y02073126D01*
X02483331Y02071598D01*
X02483425Y02070067D01*
X02483481Y02068534D01*
X02483500Y02067000D01*
X02483481Y02065466D01*
X02483425Y02063933D01*
X02483331Y02062402D01*
X02483199Y02060874D01*
X02483030Y02059349D01*
X02482824Y02057829D01*
X02482580Y02056315D01*
X02482299Y02054807D01*
X02481981Y02053306D01*
X02481627Y02051814D01*
X02481236Y02050330D01*
X02480809Y02048857D01*
X02480346Y02047395D01*
X02479847Y02045944D01*
X02479312Y02044507D01*
X02478742Y02043082D01*
X02478138Y02041672D01*
X02477499Y02040278D01*
X02476827Y02038899D01*
X02476120Y02037538D01*
X02475380Y02036194D01*
X02474608Y02034869D01*
X02473803Y02033563D01*
X02472967Y02032277D01*
X02472099Y02031012D01*
X02471200Y02029769D01*
X02470272Y02028548D01*
X02469313Y02027350D01*
X02468326Y02026177D01*
X02467309Y02025028D01*
X02466265Y02023904D01*
X02465194Y02022806D01*
X02464096Y02021735D01*
X02462972Y02020691D01*
X02461823Y02019674D01*
X02460650Y02018687D01*
X02459452Y02017728D01*
X02458231Y02016800D01*
X02456988Y02015901D01*
X02455723Y02015033D01*
X02454437Y02014197D01*
X02453131Y02013392D01*
X02451806Y02012620D01*
X02450462Y02011880D01*
X02449101Y02011173D01*
X02447722Y02010501D01*
X02446328Y02009862D01*
X02444918Y02009258D01*
X02443493Y02008688D01*
X02442056Y02008153D01*
X02440605Y02007654D01*
X02439143Y02007191D01*
X02437670Y02006764D01*
X02436186Y02006373D01*
X02434694Y02006019D01*
X02433193Y02005701D01*
X02431685Y02005420D01*
X02430171Y02005176D01*
X02428651Y02004970D01*
X02427126Y02004801D01*
X02425598Y02004669D01*
X02424067Y02004575D01*
X02422534Y02004519D01*
X02421000Y02004500D01*
X02419466Y02004519D01*
X02417933Y02004575D01*
X02416402Y02004669D01*
X02414874Y02004801D01*
X02413349Y02004970D01*
X02411829Y02005176D01*
X02410315Y02005420D01*
X02408807Y02005701D01*
X02407306Y02006019D01*
X02405814Y02006373D01*
X02404330Y02006764D01*
X02402857Y02007191D01*
X02401395Y02007654D01*
X02399944Y02008153D01*
X02398507Y02008688D01*
X02397082Y02009258D01*
X02395672Y02009862D01*
X02394278Y02010501D01*
X02392899Y02011173D01*
X02391538Y02011880D01*
X02390194Y02012620D01*
X02388869Y02013392D01*
X02387563Y02014197D01*
X02386277Y02015033D01*
X02385012Y02015901D01*
X02383769Y02016800D01*
X02382548Y02017728D01*
X02381350Y02018687D01*
X02380177Y02019674D01*
X02379028Y02020691D01*
X02377904Y02021735D01*
X02376806Y02022806D01*
X02375735Y02023904D01*
X02374691Y02025028D01*
X02373674Y02026177D01*
X02372687Y02027350D01*
X02371728Y02028548D01*
X02370800Y02029769D01*
X02369901Y02031012D01*
X02369033Y02032277D01*
X02368197Y02033563D01*
X02367392Y02034869D01*
X02366620Y02036194D01*
X02365880Y02037538D01*
X02365173Y02038899D01*
X02364501Y02040278D01*
X02363862Y02041672D01*
X02363258Y02043082D01*
X02362688Y02044507D01*
X02362153Y02045944D01*
X02361654Y02047395D01*
X02361191Y02048857D01*
X02360764Y02050330D01*
X02360373Y02051814D01*
X02360019Y02053306D01*
X02359701Y02054807D01*
X02359420Y02056315D01*
X02359176Y02057829D01*
X02358970Y02059349D01*
X02358801Y02060874D01*
X02358669Y02062402D01*
X02358575Y02063933D01*
X02358519Y02065466D01*
X02358500Y02067000D01*
X02358500Y00138000D02*
X02358519Y00139534D01*
X02358575Y00141067D01*
X02358669Y00142598D01*
X02358801Y00144126D01*
X02358970Y00145651D01*
X02359176Y00147171D01*
X02359420Y00148685D01*
X02359701Y00150193D01*
X02360019Y00151694D01*
X02360373Y00153186D01*
X02360764Y00154670D01*
X02361191Y00156143D01*
X02361654Y00157605D01*
X02362153Y00159056D01*
X02362688Y00160493D01*
X02363258Y00161918D01*
X02363862Y00163328D01*
X02364501Y00164722D01*
X02365173Y00166101D01*
X02365880Y00167462D01*
X02366620Y00168806D01*
X02367392Y00170131D01*
X02368197Y00171437D01*
X02369033Y00172723D01*
X02369901Y00173988D01*
X02370800Y00175231D01*
X02371728Y00176452D01*
X02372687Y00177650D01*
X02373674Y00178823D01*
X02374691Y00179972D01*
X02375735Y00181096D01*
X02376806Y00182194D01*
X02377904Y00183265D01*
X02379028Y00184309D01*
X02380177Y00185326D01*
X02381350Y00186313D01*
X02382548Y00187272D01*
X02383769Y00188200D01*
X02385012Y00189099D01*
X02386277Y00189967D01*
X02387563Y00190803D01*
X02388869Y00191608D01*
X02390194Y00192380D01*
X02391538Y00193120D01*
X02392899Y00193827D01*
X02394278Y00194499D01*
X02395672Y00195138D01*
X02397082Y00195742D01*
X02398507Y00196312D01*
X02399944Y00196847D01*
X02401395Y00197346D01*
X02402857Y00197809D01*
X02404330Y00198236D01*
X02405814Y00198627D01*
X02407306Y00198981D01*
X02408807Y00199299D01*
X02410315Y00199580D01*
X02411829Y00199824D01*
X02413349Y00200030D01*
X02414874Y00200199D01*
X02416402Y00200331D01*
X02417933Y00200425D01*
X02419466Y00200481D01*
X02421000Y00200500D01*
X02422534Y00200481D01*
X02424067Y00200425D01*
X02425598Y00200331D01*
X02427126Y00200199D01*
X02428651Y00200030D01*
X02430171Y00199824D01*
X02431685Y00199580D01*
X02433193Y00199299D01*
X02434694Y00198981D01*
X02436186Y00198627D01*
X02437670Y00198236D01*
X02439143Y00197809D01*
X02440605Y00197346D01*
X02442056Y00196847D01*
X02443493Y00196312D01*
X02444918Y00195742D01*
X02446328Y00195138D01*
X02447722Y00194499D01*
X02449101Y00193827D01*
X02450462Y00193120D01*
X02451806Y00192380D01*
X02453131Y00191608D01*
X02454437Y00190803D01*
X02455723Y00189967D01*
X02456988Y00189099D01*
X02458231Y00188200D01*
X02459452Y00187272D01*
X02460650Y00186313D01*
X02461823Y00185326D01*
X02462972Y00184309D01*
X02464096Y00183265D01*
X02465194Y00182194D01*
X02466265Y00181096D01*
X02467309Y00179972D01*
X02468326Y00178823D01*
X02469313Y00177650D01*
X02470272Y00176452D01*
X02471200Y00175231D01*
X02472099Y00173988D01*
X02472967Y00172723D01*
X02473803Y00171437D01*
X02474608Y00170131D01*
X02475380Y00168806D01*
X02476120Y00167462D01*
X02476827Y00166101D01*
X02477499Y00164722D01*
X02478138Y00163328D01*
X02478742Y00161918D01*
X02479312Y00160493D01*
X02479847Y00159056D01*
X02480346Y00157605D01*
X02480809Y00156143D01*
X02481236Y00154670D01*
X02481627Y00153186D01*
X02481981Y00151694D01*
X02482299Y00150193D01*
X02482580Y00148685D01*
X02482824Y00147171D01*
X02483030Y00145651D01*
X02483199Y00144126D01*
X02483331Y00142598D01*
X02483425Y00141067D01*
X02483481Y00139534D01*
X02483500Y00138000D01*
X02483481Y00136466D01*
X02483425Y00134933D01*
X02483331Y00133402D01*
X02483199Y00131874D01*
X02483030Y00130349D01*
X02482824Y00128829D01*
X02482580Y00127315D01*
X02482299Y00125807D01*
X02481981Y00124306D01*
X02481627Y00122814D01*
X02481236Y00121330D01*
X02480809Y00119857D01*
X02480346Y00118395D01*
X02479847Y00116944D01*
X02479312Y00115507D01*
X02478742Y00114082D01*
X02478138Y00112672D01*
X02477499Y00111278D01*
X02476827Y00109899D01*
X02476120Y00108538D01*
X02475380Y00107194D01*
X02474608Y00105869D01*
X02473803Y00104563D01*
X02472967Y00103277D01*
X02472099Y00102012D01*
X02471200Y00100769D01*
X02470272Y00099548D01*
X02469313Y00098350D01*
X02468326Y00097177D01*
X02467309Y00096028D01*
X02466265Y00094904D01*
X02465194Y00093806D01*
X02464096Y00092735D01*
X02462972Y00091691D01*
X02461823Y00090674D01*
X02460650Y00089687D01*
X02459452Y00088728D01*
X02458231Y00087800D01*
X02456988Y00086901D01*
X02455723Y00086033D01*
X02454437Y00085197D01*
X02453131Y00084392D01*
X02451806Y00083620D01*
X02450462Y00082880D01*
X02449101Y00082173D01*
X02447722Y00081501D01*
X02446328Y00080862D01*
X02444918Y00080258D01*
X02443493Y00079688D01*
X02442056Y00079153D01*
X02440605Y00078654D01*
X02439143Y00078191D01*
X02437670Y00077764D01*
X02436186Y00077373D01*
X02434694Y00077019D01*
X02433193Y00076701D01*
X02431685Y00076420D01*
X02430171Y00076176D01*
X02428651Y00075970D01*
X02427126Y00075801D01*
X02425598Y00075669D01*
X02424067Y00075575D01*
X02422534Y00075519D01*
X02421000Y00075500D01*
X02419466Y00075519D01*
X02417933Y00075575D01*
X02416402Y00075669D01*
X02414874Y00075801D01*
X02413349Y00075970D01*
X02411829Y00076176D01*
X02410315Y00076420D01*
X02408807Y00076701D01*
X02407306Y00077019D01*
X02405814Y00077373D01*
X02404330Y00077764D01*
X02402857Y00078191D01*
X02401395Y00078654D01*
X02399944Y00079153D01*
X02398507Y00079688D01*
X02397082Y00080258D01*
X02395672Y00080862D01*
X02394278Y00081501D01*
X02392899Y00082173D01*
X02391538Y00082880D01*
X02390194Y00083620D01*
X02388869Y00084392D01*
X02387563Y00085197D01*
X02386277Y00086033D01*
X02385012Y00086901D01*
X02383769Y00087800D01*
X02382548Y00088728D01*
X02381350Y00089687D01*
X02380177Y00090674D01*
X02379028Y00091691D01*
X02377904Y00092735D01*
X02376806Y00093806D01*
X02375735Y00094904D01*
X02374691Y00096028D01*
X02373674Y00097177D01*
X02372687Y00098350D01*
X02371728Y00099548D01*
X02370800Y00100769D01*
X02369901Y00102012D01*
X02369033Y00103277D01*
X02368197Y00104563D01*
X02367392Y00105869D01*
X02366620Y00107194D01*
X02365880Y00108538D01*
X02365173Y00109899D01*
X02364501Y00111278D01*
X02363862Y00112672D01*
X02363258Y00114082D01*
X02362688Y00115507D01*
X02362153Y00116944D01*
X02361654Y00118395D01*
X02361191Y00119857D01*
X02360764Y00121330D01*
X02360373Y00122814D01*
X02360019Y00124306D01*
X02359701Y00125807D01*
X02359420Y00127315D01*
X02359176Y00128829D01*
X02358970Y00130349D01*
X02358801Y00131874D01*
X02358669Y00133402D01*
X02358575Y00134933D01*
X02358519Y00136466D01*
X02358500Y00138000D01*
D11*
X02240000Y00090000D02*
X02238563Y00090017D01*
X02237128Y00090069D01*
X02235694Y00090155D01*
X02234262Y00090275D01*
X02232834Y00090429D01*
X02231410Y00090618D01*
X02229991Y00090841D01*
X02228578Y00091097D01*
X02227171Y00091388D01*
X02225771Y00091711D01*
X02224380Y00092069D01*
X02222998Y00092459D01*
X02221625Y00092883D01*
X02220263Y00093339D01*
X02218912Y00093828D01*
X02217574Y00094349D01*
X02216248Y00094902D01*
X02214936Y00095486D01*
X02213638Y00096102D01*
X02212355Y00096748D01*
X02211088Y00097425D01*
X02209838Y00098132D01*
X02208605Y00098869D01*
X02207390Y00099636D01*
X02206193Y00100431D01*
X02205016Y00101254D01*
X02203859Y00102106D01*
X02202723Y00102985D01*
X02201608Y00103890D01*
X02200516Y00104823D01*
X02199445Y00105781D01*
X02198398Y00106764D01*
X02197375Y00107773D01*
X02196377Y00108805D01*
X02195403Y00109861D01*
X02194455Y00110941D01*
X02193533Y00112042D01*
X02192637Y00113165D01*
X02240000Y00210000D02*
X02241463Y00209982D01*
X02242924Y00209929D01*
X02244384Y00209840D01*
X02245841Y00209715D01*
X02247294Y00209555D01*
X02248743Y00209359D01*
X02250187Y00209129D01*
X02251625Y00208863D01*
X02253056Y00208562D01*
X02254480Y00208226D01*
X02255894Y00207856D01*
X02257299Y00207452D01*
X02258694Y00207013D01*
X02260078Y00206540D01*
X02261450Y00206034D01*
X02262809Y00205495D01*
X02264155Y00204923D01*
X02265486Y00204318D01*
X02266802Y00203680D01*
X02268103Y00203011D01*
X02269386Y00202310D01*
X02270652Y00201579D01*
X02271900Y00200816D01*
X02273129Y00200024D01*
X02274338Y00199202D01*
X02275527Y00198350D01*
X02276695Y00197470D01*
X02277841Y00196562D01*
X02278964Y00195626D01*
X02280065Y00194662D01*
X02281141Y00193673D01*
X02282193Y00192657D01*
X02283220Y00191616D01*
X02284222Y00190551D01*
X02285197Y00189461D01*
X02286145Y00188348D01*
X02287066Y00187212D01*
X02287959Y00186054D01*
X02288823Y00184874D01*
X02240000Y00210000D02*
X02238536Y00209982D01*
X02237073Y00209929D01*
X02235611Y00209839D01*
X02234153Y00209714D01*
X02232697Y00209554D01*
X02231246Y00209358D01*
X02229801Y00209127D01*
X02228361Y00208860D01*
X02226928Y00208559D01*
X02225503Y00208222D01*
X02224087Y00207851D01*
X02222680Y00207446D01*
X02221284Y00207006D01*
X02219898Y00206532D01*
X02218525Y00206025D01*
X02217164Y00205484D01*
X02215817Y00204911D01*
X02214485Y00204304D01*
X02213167Y00203666D01*
X02211866Y00202995D01*
X02210581Y00202293D01*
X02209314Y00201559D01*
X02208065Y00200795D01*
X02206835Y00200001D01*
X02205625Y00199177D01*
X02204435Y00198323D01*
X02203267Y00197441D01*
X02202120Y00196531D01*
X02200996Y00195593D01*
X02199895Y00194627D01*
X02198818Y00193635D01*
X02197766Y00192618D01*
X02196738Y00191574D01*
X02195737Y00190506D01*
X02194762Y00189414D01*
X02193813Y00188299D01*
X02192893Y00187160D01*
X02192000Y00186000D01*
X02240000Y00090000D02*
X02241437Y00090017D01*
X02242872Y00090069D01*
X02244306Y00090155D01*
X02245738Y00090275D01*
X02247166Y00090429D01*
X02248590Y00090618D01*
X02250009Y00090841D01*
X02251422Y00091097D01*
X02252829Y00091388D01*
X02254229Y00091711D01*
X02255620Y00092069D01*
X02257002Y00092459D01*
X02258375Y00092883D01*
X02259737Y00093339D01*
X02261088Y00093828D01*
X02262426Y00094349D01*
X02263752Y00094902D01*
X02265064Y00095486D01*
X02266362Y00096102D01*
X02267645Y00096748D01*
X02268912Y00097425D01*
X02270162Y00098132D01*
X02271395Y00098869D01*
X02272610Y00099636D01*
X02273807Y00100431D01*
X02274984Y00101254D01*
X02276141Y00102106D01*
X02277277Y00102985D01*
X02278392Y00103890D01*
X02279484Y00104823D01*
X02280555Y00105781D01*
X02281602Y00106764D01*
X02282625Y00107773D01*
X02283623Y00108805D01*
X02284597Y00109861D01*
X02285545Y00110941D01*
X02286467Y00112042D01*
X02287363Y00113165D01*
X02285000Y00285000D02*
X02270000Y00285000D01*
X02265000Y00290000D01*
X02075000Y00290000D01*
X02070000Y00285000D01*
X02055000Y00285000D01*
X02054758Y00285003D01*
X02054517Y00285012D01*
X02054276Y00285026D01*
X02054035Y00285047D01*
X02053795Y00285073D01*
X02053555Y00285105D01*
X02053316Y00285143D01*
X02053079Y00285186D01*
X02052842Y00285236D01*
X02052607Y00285291D01*
X02052373Y00285351D01*
X02052141Y00285418D01*
X02051910Y00285489D01*
X02051681Y00285567D01*
X02051454Y00285650D01*
X02051229Y00285738D01*
X02051006Y00285832D01*
X02050786Y00285931D01*
X02050568Y00286036D01*
X02050353Y00286145D01*
X02050140Y00286260D01*
X02049930Y00286380D01*
X02049724Y00286505D01*
X02049520Y00286635D01*
X02049319Y00286770D01*
X02049122Y00286910D01*
X02048928Y00287054D01*
X02048738Y00287203D01*
X02048552Y00287357D01*
X02048369Y00287515D01*
X02048190Y00287677D01*
X02048015Y00287844D01*
X02047844Y00288015D01*
X02047677Y00288190D01*
X02047515Y00288369D01*
X02047357Y00288552D01*
X02047203Y00288738D01*
X02047054Y00288928D01*
X02046910Y00289122D01*
X02046770Y00289319D01*
X02046635Y00289520D01*
X02046505Y00289724D01*
X02046380Y00289930D01*
X02046260Y00290140D01*
X02046145Y00290353D01*
X02046036Y00290568D01*
X02045931Y00290786D01*
X02045832Y00291006D01*
X02045738Y00291229D01*
X02045650Y00291454D01*
X02045567Y00291681D01*
X02045489Y00291910D01*
X02045418Y00292141D01*
X02045351Y00292373D01*
X02045291Y00292607D01*
X02045236Y00292842D01*
X02045186Y00293079D01*
X02045143Y00293316D01*
X02045105Y00293555D01*
X02045073Y00293795D01*
X02045047Y00294035D01*
X02045026Y00294276D01*
X02045012Y00294517D01*
X02045003Y00294758D01*
X02045000Y00295000D01*
X02045000Y00365000D01*
X02045003Y00365242D01*
X02045012Y00365483D01*
X02045026Y00365724D01*
X02045047Y00365965D01*
X02045073Y00366205D01*
X02045105Y00366445D01*
X02045143Y00366684D01*
X02045186Y00366921D01*
X02045236Y00367158D01*
X02045291Y00367393D01*
X02045351Y00367627D01*
X02045418Y00367859D01*
X02045489Y00368090D01*
X02045567Y00368319D01*
X02045650Y00368546D01*
X02045738Y00368771D01*
X02045832Y00368994D01*
X02045931Y00369214D01*
X02046036Y00369432D01*
X02046145Y00369647D01*
X02046260Y00369860D01*
X02046380Y00370070D01*
X02046505Y00370276D01*
X02046635Y00370480D01*
X02046770Y00370681D01*
X02046910Y00370878D01*
X02047054Y00371072D01*
X02047203Y00371262D01*
X02047357Y00371448D01*
X02047515Y00371631D01*
X02047677Y00371810D01*
X02047844Y00371985D01*
X02048015Y00372156D01*
X02048190Y00372323D01*
X02048369Y00372485D01*
X02048552Y00372643D01*
X02048738Y00372797D01*
X02048928Y00372946D01*
X02049122Y00373090D01*
X02049319Y00373230D01*
X02049520Y00373365D01*
X02049724Y00373495D01*
X02049930Y00373620D01*
X02050140Y00373740D01*
X02050353Y00373855D01*
X02050568Y00373964D01*
X02050786Y00374069D01*
X02051006Y00374168D01*
X02051229Y00374262D01*
X02051454Y00374350D01*
X02051681Y00374433D01*
X02051910Y00374511D01*
X02052141Y00374582D01*
X02052373Y00374649D01*
X02052607Y00374709D01*
X02052842Y00374764D01*
X02053079Y00374814D01*
X02053316Y00374857D01*
X02053555Y00374895D01*
X02053795Y00374927D01*
X02054035Y00374953D01*
X02054276Y00374974D01*
X02054517Y00374988D01*
X02054758Y00374997D01*
X02055000Y00375000D01*
X02070000Y00375000D01*
X02075000Y00370000D01*
X02265000Y00370000D01*
X02270000Y00375000D01*
X02285000Y00375000D01*
X02285242Y00374997D01*
X02285483Y00374988D01*
X02285724Y00374974D01*
X02285965Y00374953D01*
X02286205Y00374927D01*
X02286445Y00374895D01*
X02286684Y00374857D01*
X02286921Y00374814D01*
X02287158Y00374764D01*
X02287393Y00374709D01*
X02287627Y00374649D01*
X02287859Y00374582D01*
X02288090Y00374511D01*
X02288319Y00374433D01*
X02288546Y00374350D01*
X02288771Y00374262D01*
X02288994Y00374168D01*
X02289214Y00374069D01*
X02289432Y00373964D01*
X02289647Y00373855D01*
X02289860Y00373740D01*
X02290070Y00373620D01*
X02290276Y00373495D01*
X02290480Y00373365D01*
X02290681Y00373230D01*
X02290878Y00373090D01*
X02291072Y00372946D01*
X02291262Y00372797D01*
X02291448Y00372643D01*
X02291631Y00372485D01*
X02291810Y00372323D01*
X02291985Y00372156D01*
X02292156Y00371985D01*
X02292323Y00371810D01*
X02292485Y00371631D01*
X02292643Y00371448D01*
X02292797Y00371262D01*
X02292946Y00371072D01*
X02293090Y00370878D01*
X02293230Y00370681D01*
X02293365Y00370480D01*
X02293495Y00370276D01*
X02293620Y00370070D01*
X02293740Y00369860D01*
X02293855Y00369647D01*
X02293964Y00369432D01*
X02294069Y00369214D01*
X02294168Y00368994D01*
X02294262Y00368771D01*
X02294350Y00368546D01*
X02294433Y00368319D01*
X02294511Y00368090D01*
X02294582Y00367859D01*
X02294649Y00367627D01*
X02294709Y00367393D01*
X02294764Y00367158D01*
X02294814Y00366921D01*
X02294857Y00366684D01*
X02294895Y00366445D01*
X02294927Y00366205D01*
X02294953Y00365965D01*
X02294974Y00365724D01*
X02294988Y00365483D01*
X02294997Y00365242D01*
X02295000Y00365000D01*
X02295000Y00295000D01*
X02294997Y00294758D01*
X02294988Y00294517D01*
X02294974Y00294276D01*
X02294953Y00294035D01*
X02294927Y00293795D01*
X02294895Y00293555D01*
X02294857Y00293316D01*
X02294814Y00293079D01*
X02294764Y00292842D01*
X02294709Y00292607D01*
X02294649Y00292373D01*
X02294582Y00292141D01*
X02294511Y00291910D01*
X02294433Y00291681D01*
X02294350Y00291454D01*
X02294262Y00291229D01*
X02294168Y00291006D01*
X02294069Y00290786D01*
X02293964Y00290568D01*
X02293855Y00290353D01*
X02293740Y00290140D01*
X02293620Y00289930D01*
X02293495Y00289724D01*
X02293365Y00289520D01*
X02293230Y00289319D01*
X02293090Y00289122D01*
X02292946Y00288928D01*
X02292797Y00288738D01*
X02292643Y00288552D01*
X02292485Y00288369D01*
X02292323Y00288190D01*
X02292156Y00288015D01*
X02291985Y00287844D01*
X02291810Y00287677D01*
X02291631Y00287515D01*
X02291448Y00287357D01*
X02291262Y00287203D01*
X02291072Y00287054D01*
X02290878Y00286910D01*
X02290681Y00286770D01*
X02290480Y00286635D01*
X02290276Y00286505D01*
X02290070Y00286380D01*
X02289860Y00286260D01*
X02289647Y00286145D01*
X02289432Y00286036D01*
X02289214Y00285931D01*
X02288994Y00285832D01*
X02288771Y00285738D01*
X02288546Y00285650D01*
X02288319Y00285567D01*
X02288090Y00285489D01*
X02287859Y00285418D01*
X02287627Y00285351D01*
X02287393Y00285291D01*
X02287158Y00285236D01*
X02286921Y00285186D01*
X02286684Y00285143D01*
X02286445Y00285105D01*
X02286205Y00285073D01*
X02285965Y00285047D01*
X02285724Y00285026D01*
X02285483Y00285012D01*
X02285242Y00285003D01*
X02285000Y00285000D01*
X02440000Y00355000D02*
X02440000Y00405000D01*
X02465000Y00430000D01*
X02440000Y00455000D01*
X02440000Y00505000D01*
X02465000Y00530000D01*
X02440000Y00555000D01*
X02440000Y00605000D01*
X02465000Y00630000D01*
X02515000Y00630000D01*
X02540000Y00605000D01*
X02540000Y00555000D01*
X02515000Y00530000D01*
X02540000Y00505000D01*
X02540000Y00455000D01*
X02515000Y00430000D01*
X02540000Y00405000D01*
X02540000Y00355000D01*
X02515000Y00330000D01*
X02465000Y00330000D01*
X02440000Y00355000D01*
X02220000Y00480000D02*
X02220018Y00481463D01*
X02220071Y00482924D01*
X02220160Y00484384D01*
X02220285Y00485841D01*
X02220445Y00487294D01*
X02220641Y00488743D01*
X02220871Y00490187D01*
X02221137Y00491625D01*
X02221438Y00493056D01*
X02221774Y00494480D01*
X02222144Y00495894D01*
X02222548Y00497299D01*
X02222987Y00498694D01*
X02223460Y00500078D01*
X02223966Y00501450D01*
X02224505Y00502809D01*
X02225077Y00504155D01*
X02225682Y00505486D01*
X02226320Y00506802D01*
X02226989Y00508103D01*
X02227690Y00509386D01*
X02228421Y00510652D01*
X02229184Y00511900D01*
X02229976Y00513129D01*
X02230798Y00514338D01*
X02231650Y00515527D01*
X02232530Y00516695D01*
X02233438Y00517841D01*
X02234374Y00518964D01*
X02235338Y00520065D01*
X02236327Y00521141D01*
X02237343Y00522193D01*
X02238384Y00523220D01*
X02239449Y00524222D01*
X02240539Y00525197D01*
X02241652Y00526145D01*
X02242788Y00527066D01*
X02243946Y00527959D01*
X02245126Y00528823D01*
X02340000Y00480000D02*
X02339983Y00478563D01*
X02339931Y00477128D01*
X02339845Y00475694D01*
X02339725Y00474262D01*
X02339571Y00472834D01*
X02339382Y00471410D01*
X02339159Y00469991D01*
X02338903Y00468578D01*
X02338612Y00467171D01*
X02338289Y00465771D01*
X02337931Y00464380D01*
X02337541Y00462998D01*
X02337117Y00461625D01*
X02336661Y00460263D01*
X02336172Y00458912D01*
X02335651Y00457574D01*
X02335098Y00456248D01*
X02334514Y00454936D01*
X02333898Y00453638D01*
X02333252Y00452355D01*
X02332575Y00451088D01*
X02331868Y00449838D01*
X02331131Y00448605D01*
X02330364Y00447390D01*
X02329569Y00446193D01*
X02328746Y00445016D01*
X02327894Y00443859D01*
X02327015Y00442723D01*
X02326110Y00441608D01*
X02325177Y00440516D01*
X02324219Y00439445D01*
X02323236Y00438398D01*
X02322227Y00437375D01*
X02321195Y00436377D01*
X02320139Y00435403D01*
X02319059Y00434455D01*
X02317958Y00433533D01*
X02316835Y00432637D01*
X02340000Y00480000D02*
X02339983Y00481437D01*
X02339931Y00482872D01*
X02339845Y00484306D01*
X02339725Y00485738D01*
X02339571Y00487166D01*
X02339382Y00488590D01*
X02339159Y00490009D01*
X02338903Y00491422D01*
X02338612Y00492829D01*
X02338289Y00494229D01*
X02337931Y00495620D01*
X02337541Y00497002D01*
X02337117Y00498375D01*
X02336661Y00499737D01*
X02336172Y00501088D01*
X02335651Y00502426D01*
X02335098Y00503752D01*
X02334514Y00505064D01*
X02333898Y00506362D01*
X02333252Y00507645D01*
X02332575Y00508912D01*
X02331868Y00510162D01*
X02331131Y00511395D01*
X02330364Y00512610D01*
X02329569Y00513807D01*
X02328746Y00514984D01*
X02327894Y00516141D01*
X02327015Y00517277D01*
X02326110Y00518392D01*
X02325177Y00519484D01*
X02324219Y00520555D01*
X02323236Y00521602D01*
X02322227Y00522625D01*
X02321195Y00523623D01*
X02320139Y00524597D01*
X02319059Y00525545D01*
X02317958Y00526467D01*
X02316835Y00527363D01*
X02220000Y00480000D02*
X02220018Y00478536D01*
X02220071Y00477073D01*
X02220161Y00475611D01*
X02220286Y00474153D01*
X02220446Y00472697D01*
X02220642Y00471246D01*
X02220873Y00469801D01*
X02221140Y00468361D01*
X02221441Y00466928D01*
X02221778Y00465503D01*
X02222149Y00464087D01*
X02222554Y00462680D01*
X02222994Y00461284D01*
X02223468Y00459898D01*
X02223975Y00458525D01*
X02224516Y00457164D01*
X02225089Y00455817D01*
X02225696Y00454485D01*
X02226334Y00453167D01*
X02227005Y00451866D01*
X02227707Y00450581D01*
X02228441Y00449314D01*
X02229205Y00448065D01*
X02229999Y00446835D01*
X02230823Y00445625D01*
X02231677Y00444435D01*
X02232559Y00443267D01*
X02233469Y00442120D01*
X02234407Y00440996D01*
X02235373Y00439895D01*
X02236365Y00438818D01*
X02237382Y00437766D01*
X02238426Y00436738D01*
X02239494Y00435737D01*
X02240586Y00434762D01*
X02241701Y00433813D01*
X02242840Y00432893D01*
X02244000Y00432000D01*
X02290000Y00625000D02*
X02285000Y00630000D01*
X02095000Y00630000D01*
X02090000Y00625000D01*
X02075000Y00625000D01*
X02074758Y00625003D01*
X02074517Y00625012D01*
X02074276Y00625026D01*
X02074035Y00625047D01*
X02073795Y00625073D01*
X02073555Y00625105D01*
X02073316Y00625143D01*
X02073079Y00625186D01*
X02072842Y00625236D01*
X02072607Y00625291D01*
X02072373Y00625351D01*
X02072141Y00625418D01*
X02071910Y00625489D01*
X02071681Y00625567D01*
X02071454Y00625650D01*
X02071229Y00625738D01*
X02071006Y00625832D01*
X02070786Y00625931D01*
X02070568Y00626036D01*
X02070353Y00626145D01*
X02070140Y00626260D01*
X02069930Y00626380D01*
X02069724Y00626505D01*
X02069520Y00626635D01*
X02069319Y00626770D01*
X02069122Y00626910D01*
X02068928Y00627054D01*
X02068738Y00627203D01*
X02068552Y00627357D01*
X02068369Y00627515D01*
X02068190Y00627677D01*
X02068015Y00627844D01*
X02067844Y00628015D01*
X02067677Y00628190D01*
X02067515Y00628369D01*
X02067357Y00628552D01*
X02067203Y00628738D01*
X02067054Y00628928D01*
X02066910Y00629122D01*
X02066770Y00629319D01*
X02066635Y00629520D01*
X02066505Y00629724D01*
X02066380Y00629930D01*
X02066260Y00630140D01*
X02066145Y00630353D01*
X02066036Y00630568D01*
X02065931Y00630786D01*
X02065832Y00631006D01*
X02065738Y00631229D01*
X02065650Y00631454D01*
X02065567Y00631681D01*
X02065489Y00631910D01*
X02065418Y00632141D01*
X02065351Y00632373D01*
X02065291Y00632607D01*
X02065236Y00632842D01*
X02065186Y00633079D01*
X02065143Y00633316D01*
X02065105Y00633555D01*
X02065073Y00633795D01*
X02065047Y00634035D01*
X02065026Y00634276D01*
X02065012Y00634517D01*
X02065003Y00634758D01*
X02065000Y00635000D01*
X02065000Y00705000D01*
X02065003Y00705242D01*
X02065012Y00705483D01*
X02065026Y00705724D01*
X02065047Y00705965D01*
X02065073Y00706205D01*
X02065105Y00706445D01*
X02065143Y00706684D01*
X02065186Y00706921D01*
X02065236Y00707158D01*
X02065291Y00707393D01*
X02065351Y00707627D01*
X02065418Y00707859D01*
X02065489Y00708090D01*
X02065567Y00708319D01*
X02065650Y00708546D01*
X02065738Y00708771D01*
X02065832Y00708994D01*
X02065931Y00709214D01*
X02066036Y00709432D01*
X02066145Y00709647D01*
X02066260Y00709860D01*
X02066380Y00710070D01*
X02066505Y00710276D01*
X02066635Y00710480D01*
X02066770Y00710681D01*
X02066910Y00710878D01*
X02067054Y00711072D01*
X02067203Y00711262D01*
X02067357Y00711448D01*
X02067515Y00711631D01*
X02067677Y00711810D01*
X02067844Y00711985D01*
X02068015Y00712156D01*
X02068190Y00712323D01*
X02068369Y00712485D01*
X02068552Y00712643D01*
X02068738Y00712797D01*
X02068928Y00712946D01*
X02069122Y00713090D01*
X02069319Y00713230D01*
X02069520Y00713365D01*
X02069724Y00713495D01*
X02069930Y00713620D01*
X02070140Y00713740D01*
X02070353Y00713855D01*
X02070568Y00713964D01*
X02070786Y00714069D01*
X02071006Y00714168D01*
X02071229Y00714262D01*
X02071454Y00714350D01*
X02071681Y00714433D01*
X02071910Y00714511D01*
X02072141Y00714582D01*
X02072373Y00714649D01*
X02072607Y00714709D01*
X02072842Y00714764D01*
X02073079Y00714814D01*
X02073316Y00714857D01*
X02073555Y00714895D01*
X02073795Y00714927D01*
X02074035Y00714953D01*
X02074276Y00714974D01*
X02074517Y00714988D01*
X02074758Y00714997D01*
X02075000Y00715000D01*
X02090000Y00715000D01*
X02095000Y00710000D01*
X02285000Y00710000D01*
X02290000Y00715000D01*
X02305000Y00715000D01*
X02305242Y00714997D01*
X02305483Y00714988D01*
X02305724Y00714974D01*
X02305965Y00714953D01*
X02306205Y00714927D01*
X02306445Y00714895D01*
X02306684Y00714857D01*
X02306921Y00714814D01*
X02307158Y00714764D01*
X02307393Y00714709D01*
X02307627Y00714649D01*
X02307859Y00714582D01*
X02308090Y00714511D01*
X02308319Y00714433D01*
X02308546Y00714350D01*
X02308771Y00714262D01*
X02308994Y00714168D01*
X02309214Y00714069D01*
X02309432Y00713964D01*
X02309647Y00713855D01*
X02309860Y00713740D01*
X02310070Y00713620D01*
X02310276Y00713495D01*
X02310480Y00713365D01*
X02310681Y00713230D01*
X02310878Y00713090D01*
X02311072Y00712946D01*
X02311262Y00712797D01*
X02311448Y00712643D01*
X02311631Y00712485D01*
X02311810Y00712323D01*
X02311985Y00712156D01*
X02312156Y00711985D01*
X02312323Y00711810D01*
X02312485Y00711631D01*
X02312643Y00711448D01*
X02312797Y00711262D01*
X02312946Y00711072D01*
X02313090Y00710878D01*
X02313230Y00710681D01*
X02313365Y00710480D01*
X02313495Y00710276D01*
X02313620Y00710070D01*
X02313740Y00709860D01*
X02313855Y00709647D01*
X02313964Y00709432D01*
X02314069Y00709214D01*
X02314168Y00708994D01*
X02314262Y00708771D01*
X02314350Y00708546D01*
X02314433Y00708319D01*
X02314511Y00708090D01*
X02314582Y00707859D01*
X02314649Y00707627D01*
X02314709Y00707393D01*
X02314764Y00707158D01*
X02314814Y00706921D01*
X02314857Y00706684D01*
X02314895Y00706445D01*
X02314927Y00706205D01*
X02314953Y00705965D01*
X02314974Y00705724D01*
X02314988Y00705483D01*
X02314997Y00705242D01*
X02315000Y00705000D01*
X02315000Y00635000D01*
X02314997Y00634758D01*
X02314988Y00634517D01*
X02314974Y00634276D01*
X02314953Y00634035D01*
X02314927Y00633795D01*
X02314895Y00633555D01*
X02314857Y00633316D01*
X02314814Y00633079D01*
X02314764Y00632842D01*
X02314709Y00632607D01*
X02314649Y00632373D01*
X02314582Y00632141D01*
X02314511Y00631910D01*
X02314433Y00631681D01*
X02314350Y00631454D01*
X02314262Y00631229D01*
X02314168Y00631006D01*
X02314069Y00630786D01*
X02313964Y00630568D01*
X02313855Y00630353D01*
X02313740Y00630140D01*
X02313620Y00629930D01*
X02313495Y00629724D01*
X02313365Y00629520D01*
X02313230Y00629319D01*
X02313090Y00629122D01*
X02312946Y00628928D01*
X02312797Y00628738D01*
X02312643Y00628552D01*
X02312485Y00628369D01*
X02312323Y00628190D01*
X02312156Y00628015D01*
X02311985Y00627844D01*
X02311810Y00627677D01*
X02311631Y00627515D01*
X02311448Y00627357D01*
X02311262Y00627203D01*
X02311072Y00627054D01*
X02310878Y00626910D01*
X02310681Y00626770D01*
X02310480Y00626635D01*
X02310276Y00626505D01*
X02310070Y00626380D01*
X02309860Y00626260D01*
X02309647Y00626145D01*
X02309432Y00626036D01*
X02309214Y00625931D01*
X02308994Y00625832D01*
X02308771Y00625738D01*
X02308546Y00625650D01*
X02308319Y00625567D01*
X02308090Y00625489D01*
X02307859Y00625418D01*
X02307627Y00625351D01*
X02307393Y00625291D01*
X02307158Y00625236D01*
X02306921Y00625186D01*
X02306684Y00625143D01*
X02306445Y00625105D01*
X02306205Y00625073D01*
X02305965Y00625047D01*
X02305724Y00625026D01*
X02305483Y00625012D01*
X02305242Y00625003D01*
X02305000Y00625000D01*
X02290000Y00625000D01*
X02290000Y00735000D02*
X02285000Y00740000D01*
X02095000Y00740000D01*
X02090000Y00735000D01*
X02075000Y00735000D01*
X02074758Y00735003D01*
X02074517Y00735012D01*
X02074276Y00735026D01*
X02074035Y00735047D01*
X02073795Y00735073D01*
X02073555Y00735105D01*
X02073316Y00735143D01*
X02073079Y00735186D01*
X02072842Y00735236D01*
X02072607Y00735291D01*
X02072373Y00735351D01*
X02072141Y00735418D01*
X02071910Y00735489D01*
X02071681Y00735567D01*
X02071454Y00735650D01*
X02071229Y00735738D01*
X02071006Y00735832D01*
X02070786Y00735931D01*
X02070568Y00736036D01*
X02070353Y00736145D01*
X02070140Y00736260D01*
X02069930Y00736380D01*
X02069724Y00736505D01*
X02069520Y00736635D01*
X02069319Y00736770D01*
X02069122Y00736910D01*
X02068928Y00737054D01*
X02068738Y00737203D01*
X02068552Y00737357D01*
X02068369Y00737515D01*
X02068190Y00737677D01*
X02068015Y00737844D01*
X02067844Y00738015D01*
X02067677Y00738190D01*
X02067515Y00738369D01*
X02067357Y00738552D01*
X02067203Y00738738D01*
X02067054Y00738928D01*
X02066910Y00739122D01*
X02066770Y00739319D01*
X02066635Y00739520D01*
X02066505Y00739724D01*
X02066380Y00739930D01*
X02066260Y00740140D01*
X02066145Y00740353D01*
X02066036Y00740568D01*
X02065931Y00740786D01*
X02065832Y00741006D01*
X02065738Y00741229D01*
X02065650Y00741454D01*
X02065567Y00741681D01*
X02065489Y00741910D01*
X02065418Y00742141D01*
X02065351Y00742373D01*
X02065291Y00742607D01*
X02065236Y00742842D01*
X02065186Y00743079D01*
X02065143Y00743316D01*
X02065105Y00743555D01*
X02065073Y00743795D01*
X02065047Y00744035D01*
X02065026Y00744276D01*
X02065012Y00744517D01*
X02065003Y00744758D01*
X02065000Y00745000D01*
X02065000Y00815000D01*
X02065003Y00815242D01*
X02065012Y00815483D01*
X02065026Y00815724D01*
X02065047Y00815965D01*
X02065073Y00816205D01*
X02065105Y00816445D01*
X02065143Y00816684D01*
X02065186Y00816921D01*
X02065236Y00817158D01*
X02065291Y00817393D01*
X02065351Y00817627D01*
X02065418Y00817859D01*
X02065489Y00818090D01*
X02065567Y00818319D01*
X02065650Y00818546D01*
X02065738Y00818771D01*
X02065832Y00818994D01*
X02065931Y00819214D01*
X02066036Y00819432D01*
X02066145Y00819647D01*
X02066260Y00819860D01*
X02066380Y00820070D01*
X02066505Y00820276D01*
X02066635Y00820480D01*
X02066770Y00820681D01*
X02066910Y00820878D01*
X02067054Y00821072D01*
X02067203Y00821262D01*
X02067357Y00821448D01*
X02067515Y00821631D01*
X02067677Y00821810D01*
X02067844Y00821985D01*
X02068015Y00822156D01*
X02068190Y00822323D01*
X02068369Y00822485D01*
X02068552Y00822643D01*
X02068738Y00822797D01*
X02068928Y00822946D01*
X02069122Y00823090D01*
X02069319Y00823230D01*
X02069520Y00823365D01*
X02069724Y00823495D01*
X02069930Y00823620D01*
X02070140Y00823740D01*
X02070353Y00823855D01*
X02070568Y00823964D01*
X02070786Y00824069D01*
X02071006Y00824168D01*
X02071229Y00824262D01*
X02071454Y00824350D01*
X02071681Y00824433D01*
X02071910Y00824511D01*
X02072141Y00824582D01*
X02072373Y00824649D01*
X02072607Y00824709D01*
X02072842Y00824764D01*
X02073079Y00824814D01*
X02073316Y00824857D01*
X02073555Y00824895D01*
X02073795Y00824927D01*
X02074035Y00824953D01*
X02074276Y00824974D01*
X02074517Y00824988D01*
X02074758Y00824997D01*
X02075000Y00825000D01*
X02090000Y00825000D01*
X02095000Y00820000D01*
X02285000Y00820000D01*
X02290000Y00825000D01*
X02305000Y00825000D01*
X02305242Y00824997D01*
X02305483Y00824988D01*
X02305724Y00824974D01*
X02305965Y00824953D01*
X02306205Y00824927D01*
X02306445Y00824895D01*
X02306684Y00824857D01*
X02306921Y00824814D01*
X02307158Y00824764D01*
X02307393Y00824709D01*
X02307627Y00824649D01*
X02307859Y00824582D01*
X02308090Y00824511D01*
X02308319Y00824433D01*
X02308546Y00824350D01*
X02308771Y00824262D01*
X02308994Y00824168D01*
X02309214Y00824069D01*
X02309432Y00823964D01*
X02309647Y00823855D01*
X02309860Y00823740D01*
X02310070Y00823620D01*
X02310276Y00823495D01*
X02310480Y00823365D01*
X02310681Y00823230D01*
X02310878Y00823090D01*
X02311072Y00822946D01*
X02311262Y00822797D01*
X02311448Y00822643D01*
X02311631Y00822485D01*
X02311810Y00822323D01*
X02311985Y00822156D01*
X02312156Y00821985D01*
X02312323Y00821810D01*
X02312485Y00821631D01*
X02312643Y00821448D01*
X02312797Y00821262D01*
X02312946Y00821072D01*
X02313090Y00820878D01*
X02313230Y00820681D01*
X02313365Y00820480D01*
X02313495Y00820276D01*
X02313620Y00820070D01*
X02313740Y00819860D01*
X02313855Y00819647D01*
X02313964Y00819432D01*
X02314069Y00819214D01*
X02314168Y00818994D01*
X02314262Y00818771D01*
X02314350Y00818546D01*
X02314433Y00818319D01*
X02314511Y00818090D01*
X02314582Y00817859D01*
X02314649Y00817627D01*
X02314709Y00817393D01*
X02314764Y00817158D01*
X02314814Y00816921D01*
X02314857Y00816684D01*
X02314895Y00816445D01*
X02314927Y00816205D01*
X02314953Y00815965D01*
X02314974Y00815724D01*
X02314988Y00815483D01*
X02314997Y00815242D01*
X02315000Y00815000D01*
X02315000Y00745000D01*
X02314997Y00744758D01*
X02314988Y00744517D01*
X02314974Y00744276D01*
X02314953Y00744035D01*
X02314927Y00743795D01*
X02314895Y00743555D01*
X02314857Y00743316D01*
X02314814Y00743079D01*
X02314764Y00742842D01*
X02314709Y00742607D01*
X02314649Y00742373D01*
X02314582Y00742141D01*
X02314511Y00741910D01*
X02314433Y00741681D01*
X02314350Y00741454D01*
X02314262Y00741229D01*
X02314168Y00741006D01*
X02314069Y00740786D01*
X02313964Y00740568D01*
X02313855Y00740353D01*
X02313740Y00740140D01*
X02313620Y00739930D01*
X02313495Y00739724D01*
X02313365Y00739520D01*
X02313230Y00739319D01*
X02313090Y00739122D01*
X02312946Y00738928D01*
X02312797Y00738738D01*
X02312643Y00738552D01*
X02312485Y00738369D01*
X02312323Y00738190D01*
X02312156Y00738015D01*
X02311985Y00737844D01*
X02311810Y00737677D01*
X02311631Y00737515D01*
X02311448Y00737357D01*
X02311262Y00737203D01*
X02311072Y00737054D01*
X02310878Y00736910D01*
X02310681Y00736770D01*
X02310480Y00736635D01*
X02310276Y00736505D01*
X02310070Y00736380D01*
X02309860Y00736260D01*
X02309647Y00736145D01*
X02309432Y00736036D01*
X02309214Y00735931D01*
X02308994Y00735832D01*
X02308771Y00735738D01*
X02308546Y00735650D01*
X02308319Y00735567D01*
X02308090Y00735489D01*
X02307859Y00735418D01*
X02307627Y00735351D01*
X02307393Y00735291D01*
X02307158Y00735236D01*
X02306921Y00735186D01*
X02306684Y00735143D01*
X02306445Y00735105D01*
X02306205Y00735073D01*
X02305965Y00735047D01*
X02305724Y00735026D01*
X02305483Y00735012D01*
X02305242Y00735003D01*
X02305000Y00735000D01*
X02290000Y00735000D01*
X02440000Y00815000D02*
X02465000Y00790000D01*
X02515000Y00790000D01*
X02540000Y00815000D01*
X02540000Y00865000D01*
X02515000Y00890000D01*
X02540000Y00915000D01*
X02540000Y00965000D01*
X02515000Y00990000D01*
X02540000Y01015000D01*
X02540000Y01065000D01*
X02515000Y01090000D01*
X02465000Y01090000D01*
X02440000Y01065000D01*
X02440000Y01015000D01*
X02465000Y00990000D01*
X02440000Y00965000D01*
X02440000Y00915000D01*
X02465000Y00890000D01*
X02440000Y00865000D01*
X02440000Y00815000D01*
X02220000Y00940000D02*
X02220018Y00941463D01*
X02220071Y00942924D01*
X02220160Y00944384D01*
X02220285Y00945841D01*
X02220445Y00947294D01*
X02220641Y00948743D01*
X02220871Y00950187D01*
X02221137Y00951625D01*
X02221438Y00953056D01*
X02221774Y00954480D01*
X02222144Y00955894D01*
X02222548Y00957299D01*
X02222987Y00958694D01*
X02223460Y00960078D01*
X02223966Y00961450D01*
X02224505Y00962809D01*
X02225077Y00964155D01*
X02225682Y00965486D01*
X02226320Y00966802D01*
X02226989Y00968103D01*
X02227690Y00969386D01*
X02228421Y00970652D01*
X02229184Y00971900D01*
X02229976Y00973129D01*
X02230798Y00974338D01*
X02231650Y00975527D01*
X02232530Y00976695D01*
X02233438Y00977841D01*
X02234374Y00978964D01*
X02235338Y00980065D01*
X02236327Y00981141D01*
X02237343Y00982193D01*
X02238384Y00983220D01*
X02239449Y00984222D01*
X02240539Y00985197D01*
X02241652Y00986145D01*
X02242788Y00987066D01*
X02243946Y00987959D01*
X02245126Y00988823D01*
X02340000Y00940000D02*
X02339983Y00938563D01*
X02339931Y00937128D01*
X02339845Y00935694D01*
X02339725Y00934262D01*
X02339571Y00932834D01*
X02339382Y00931410D01*
X02339159Y00929991D01*
X02338903Y00928578D01*
X02338612Y00927171D01*
X02338289Y00925771D01*
X02337931Y00924380D01*
X02337541Y00922998D01*
X02337117Y00921625D01*
X02336661Y00920263D01*
X02336172Y00918912D01*
X02335651Y00917574D01*
X02335098Y00916248D01*
X02334514Y00914936D01*
X02333898Y00913638D01*
X02333252Y00912355D01*
X02332575Y00911088D01*
X02331868Y00909838D01*
X02331131Y00908605D01*
X02330364Y00907390D01*
X02329569Y00906193D01*
X02328746Y00905016D01*
X02327894Y00903859D01*
X02327015Y00902723D01*
X02326110Y00901608D01*
X02325177Y00900516D01*
X02324219Y00899445D01*
X02323236Y00898398D01*
X02322227Y00897375D01*
X02321195Y00896377D01*
X02320139Y00895403D01*
X02319059Y00894455D01*
X02317958Y00893533D01*
X02316835Y00892637D01*
X02340000Y00940000D02*
X02339983Y00941437D01*
X02339931Y00942872D01*
X02339845Y00944306D01*
X02339725Y00945738D01*
X02339571Y00947166D01*
X02339382Y00948590D01*
X02339159Y00950009D01*
X02338903Y00951422D01*
X02338612Y00952829D01*
X02338289Y00954229D01*
X02337931Y00955620D01*
X02337541Y00957002D01*
X02337117Y00958375D01*
X02336661Y00959737D01*
X02336172Y00961088D01*
X02335651Y00962426D01*
X02335098Y00963752D01*
X02334514Y00965064D01*
X02333898Y00966362D01*
X02333252Y00967645D01*
X02332575Y00968912D01*
X02331868Y00970162D01*
X02331131Y00971395D01*
X02330364Y00972610D01*
X02329569Y00973807D01*
X02328746Y00974984D01*
X02327894Y00976141D01*
X02327015Y00977277D01*
X02326110Y00978392D01*
X02325177Y00979484D01*
X02324219Y00980555D01*
X02323236Y00981602D01*
X02322227Y00982625D01*
X02321195Y00983623D01*
X02320139Y00984597D01*
X02319059Y00985545D01*
X02317958Y00986467D01*
X02316835Y00987363D01*
X02220000Y00940000D02*
X02220018Y00938536D01*
X02220071Y00937073D01*
X02220161Y00935611D01*
X02220286Y00934153D01*
X02220446Y00932697D01*
X02220642Y00931246D01*
X02220873Y00929801D01*
X02221140Y00928361D01*
X02221441Y00926928D01*
X02221778Y00925503D01*
X02222149Y00924087D01*
X02222554Y00922680D01*
X02222994Y00921284D01*
X02223468Y00919898D01*
X02223975Y00918525D01*
X02224516Y00917164D01*
X02225089Y00915817D01*
X02225696Y00914485D01*
X02226334Y00913167D01*
X02227005Y00911866D01*
X02227707Y00910581D01*
X02228441Y00909314D01*
X02229205Y00908065D01*
X02229999Y00906835D01*
X02230823Y00905625D01*
X02231677Y00904435D01*
X02232559Y00903267D01*
X02233469Y00902120D01*
X02234407Y00900996D01*
X02235373Y00899895D01*
X02236365Y00898818D01*
X02237382Y00897766D01*
X02238426Y00896738D01*
X02239494Y00895737D01*
X02240586Y00894762D01*
X02241701Y00893813D01*
X02242840Y00892893D01*
X02244000Y00892000D01*
X02465000Y01170000D02*
X02440000Y01195000D01*
X02440000Y01245000D01*
X02465000Y01270000D01*
X02440000Y01295000D01*
X02440000Y01345000D01*
X02465000Y01370000D01*
X02440000Y01395000D01*
X02440000Y01445000D01*
X02465000Y01470000D01*
X02440000Y01495000D01*
X02440000Y01545000D01*
X02465000Y01570000D01*
X02440000Y01595000D01*
X02440000Y01645000D01*
X02465000Y01670000D01*
X02440000Y01695000D01*
X02440000Y01745000D01*
X02465000Y01770000D01*
X02440000Y01795000D01*
X02440000Y01845000D01*
X02465000Y01870000D01*
X02440000Y01895000D01*
X02440000Y01945000D01*
X02465000Y01970000D01*
X02515000Y01970000D01*
X02540000Y01945000D01*
X02540000Y01895000D01*
X02515000Y01870000D01*
X02540000Y01845000D01*
X02540000Y01795000D01*
X02515000Y01770000D01*
X02540000Y01745000D01*
X02540000Y01695000D01*
X02515000Y01670000D01*
X02540000Y01645000D01*
X02540000Y01595000D01*
X02515000Y01570000D01*
X02540000Y01545000D01*
X02540000Y01495000D01*
X02515000Y01470000D01*
X02540000Y01445000D01*
X02540000Y01395000D01*
X02515000Y01370000D01*
X02540000Y01345000D01*
X02540000Y01295000D01*
X02515000Y01270000D01*
X02540000Y01245000D01*
X02540000Y01195000D01*
X02515000Y01170000D01*
X02465000Y01170000D01*
X01845000Y00650000D02*
X01770000Y00650000D01*
X01769988Y00649026D01*
X01769953Y00648052D01*
X01769893Y00647080D01*
X01769810Y00646110D01*
X01769704Y00645141D01*
X01769574Y00644176D01*
X01769420Y00643214D01*
X01769243Y00642256D01*
X01769043Y00641303D01*
X01768820Y00640355D01*
X01768573Y00639412D01*
X01768304Y00638476D01*
X01768012Y00637547D01*
X01767698Y00636625D01*
X01767361Y00635711D01*
X01767002Y00634805D01*
X01766621Y00633909D01*
X01766218Y00633022D01*
X01765794Y00632145D01*
X01765348Y00631279D01*
X01764882Y00630423D01*
X01764395Y00629580D01*
X01763887Y00628748D01*
X01763360Y00627929D01*
X01762813Y00627123D01*
X01762246Y00626331D01*
X01761660Y00625553D01*
X01761055Y00624789D01*
X01760432Y00624041D01*
X01759791Y00623307D01*
X01759132Y00622590D01*
X01758456Y00621888D01*
X01757763Y00621204D01*
X01757054Y00620536D01*
X01756328Y00619886D01*
X01755587Y00619254D01*
X01754831Y00618640D01*
X01754060Y00618045D01*
X01753274Y00617468D01*
X01752475Y00616911D01*
X01751663Y00616374D01*
X01750838Y00615856D01*
X01750000Y00615359D01*
X01749151Y00614882D01*
X01748290Y00614426D01*
X01747418Y00613991D01*
X01746536Y00613578D01*
X01745644Y00613186D01*
X01744743Y00612816D01*
X01743833Y00612468D01*
X01742915Y00612142D01*
X01741990Y00611839D01*
X01741057Y00611558D01*
X01740117Y00611301D01*
X01739172Y00611066D01*
X01738221Y00610854D01*
X01737265Y00610665D01*
X01736305Y00610500D01*
X01735342Y00610358D01*
X01734375Y00610240D01*
X01733405Y00610145D01*
X01732434Y00610074D01*
X01731461Y00610027D01*
X01730487Y00610003D01*
X01729513Y00610003D01*
X01728539Y00610027D01*
X01727566Y00610074D01*
X01726595Y00610145D01*
X01725625Y00610240D01*
X01724658Y00610358D01*
X01723695Y00610500D01*
X01722735Y00610665D01*
X01721779Y00610854D01*
X01720828Y00611066D01*
X01719883Y00611301D01*
X01718943Y00611558D01*
X01718010Y00611839D01*
X01717085Y00612142D01*
X01716167Y00612468D01*
X01715257Y00612816D01*
X01714356Y00613186D01*
X01713464Y00613578D01*
X01712582Y00613991D01*
X01711710Y00614426D01*
X01710849Y00614882D01*
X01710000Y00615359D01*
X01709162Y00615856D01*
X01708337Y00616374D01*
X01707525Y00616911D01*
X01706726Y00617468D01*
X01705940Y00618045D01*
X01705169Y00618640D01*
X01704413Y00619254D01*
X01703672Y00619886D01*
X01702946Y00620536D01*
X01702237Y00621204D01*
X01701544Y00621888D01*
X01700868Y00622590D01*
X01700209Y00623307D01*
X01699568Y00624041D01*
X01698945Y00624789D01*
X01698340Y00625553D01*
X01697754Y00626331D01*
X01697187Y00627123D01*
X01696640Y00627929D01*
X01696113Y00628748D01*
X01695605Y00629580D01*
X01695118Y00630423D01*
X01694652Y00631279D01*
X01694206Y00632145D01*
X01693782Y00633022D01*
X01693379Y00633909D01*
X01692998Y00634805D01*
X01692639Y00635711D01*
X01692302Y00636625D01*
X01691988Y00637547D01*
X01691696Y00638476D01*
X01691427Y00639412D01*
X01691180Y00640355D01*
X01690957Y00641303D01*
X01690757Y00642256D01*
X01690580Y00643214D01*
X01690426Y00644176D01*
X01690296Y00645141D01*
X01690190Y00646110D01*
X01690107Y00647080D01*
X01690047Y00648052D01*
X01690012Y00649026D01*
X01690000Y00650000D01*
X01615000Y00650000D01*
X01615000Y00250000D01*
X01845000Y00250000D01*
X01845000Y00650000D01*
X01455000Y00565000D02*
X01455000Y00550000D01*
X01450000Y00545000D01*
X01450000Y00355000D01*
X01455000Y00350000D01*
X01455000Y00335000D01*
X01454997Y00334758D01*
X01454988Y00334517D01*
X01454974Y00334276D01*
X01454953Y00334035D01*
X01454927Y00333795D01*
X01454895Y00333555D01*
X01454857Y00333316D01*
X01454814Y00333079D01*
X01454764Y00332842D01*
X01454709Y00332607D01*
X01454649Y00332373D01*
X01454582Y00332141D01*
X01454511Y00331910D01*
X01454433Y00331681D01*
X01454350Y00331454D01*
X01454262Y00331229D01*
X01454168Y00331006D01*
X01454069Y00330786D01*
X01453964Y00330568D01*
X01453855Y00330353D01*
X01453740Y00330140D01*
X01453620Y00329930D01*
X01453495Y00329724D01*
X01453365Y00329520D01*
X01453230Y00329319D01*
X01453090Y00329122D01*
X01452946Y00328928D01*
X01452797Y00328738D01*
X01452643Y00328552D01*
X01452485Y00328369D01*
X01452323Y00328190D01*
X01452156Y00328015D01*
X01451985Y00327844D01*
X01451810Y00327677D01*
X01451631Y00327515D01*
X01451448Y00327357D01*
X01451262Y00327203D01*
X01451072Y00327054D01*
X01450878Y00326910D01*
X01450681Y00326770D01*
X01450480Y00326635D01*
X01450276Y00326505D01*
X01450070Y00326380D01*
X01449860Y00326260D01*
X01449647Y00326145D01*
X01449432Y00326036D01*
X01449214Y00325931D01*
X01448994Y00325832D01*
X01448771Y00325738D01*
X01448546Y00325650D01*
X01448319Y00325567D01*
X01448090Y00325489D01*
X01447859Y00325418D01*
X01447627Y00325351D01*
X01447393Y00325291D01*
X01447158Y00325236D01*
X01446921Y00325186D01*
X01446684Y00325143D01*
X01446445Y00325105D01*
X01446205Y00325073D01*
X01445965Y00325047D01*
X01445724Y00325026D01*
X01445483Y00325012D01*
X01445242Y00325003D01*
X01445000Y00325000D01*
X01375000Y00325000D01*
X01374758Y00325003D01*
X01374517Y00325012D01*
X01374276Y00325026D01*
X01374035Y00325047D01*
X01373795Y00325073D01*
X01373555Y00325105D01*
X01373316Y00325143D01*
X01373079Y00325186D01*
X01372842Y00325236D01*
X01372607Y00325291D01*
X01372373Y00325351D01*
X01372141Y00325418D01*
X01371910Y00325489D01*
X01371681Y00325567D01*
X01371454Y00325650D01*
X01371229Y00325738D01*
X01371006Y00325832D01*
X01370786Y00325931D01*
X01370568Y00326036D01*
X01370353Y00326145D01*
X01370140Y00326260D01*
X01369930Y00326380D01*
X01369724Y00326505D01*
X01369520Y00326635D01*
X01369319Y00326770D01*
X01369122Y00326910D01*
X01368928Y00327054D01*
X01368738Y00327203D01*
X01368552Y00327357D01*
X01368369Y00327515D01*
X01368190Y00327677D01*
X01368015Y00327844D01*
X01367844Y00328015D01*
X01367677Y00328190D01*
X01367515Y00328369D01*
X01367357Y00328552D01*
X01367203Y00328738D01*
X01367054Y00328928D01*
X01366910Y00329122D01*
X01366770Y00329319D01*
X01366635Y00329520D01*
X01366505Y00329724D01*
X01366380Y00329930D01*
X01366260Y00330140D01*
X01366145Y00330353D01*
X01366036Y00330568D01*
X01365931Y00330786D01*
X01365832Y00331006D01*
X01365738Y00331229D01*
X01365650Y00331454D01*
X01365567Y00331681D01*
X01365489Y00331910D01*
X01365418Y00332141D01*
X01365351Y00332373D01*
X01365291Y00332607D01*
X01365236Y00332842D01*
X01365186Y00333079D01*
X01365143Y00333316D01*
X01365105Y00333555D01*
X01365073Y00333795D01*
X01365047Y00334035D01*
X01365026Y00334276D01*
X01365012Y00334517D01*
X01365003Y00334758D01*
X01365000Y00335000D01*
X01365000Y00350000D01*
X01370000Y00355000D01*
X01370000Y00545000D01*
X01365000Y00550000D01*
X01365000Y00565000D01*
X01365003Y00565242D01*
X01365012Y00565483D01*
X01365026Y00565724D01*
X01365047Y00565965D01*
X01365073Y00566205D01*
X01365105Y00566445D01*
X01365143Y00566684D01*
X01365186Y00566921D01*
X01365236Y00567158D01*
X01365291Y00567393D01*
X01365351Y00567627D01*
X01365418Y00567859D01*
X01365489Y00568090D01*
X01365567Y00568319D01*
X01365650Y00568546D01*
X01365738Y00568771D01*
X01365832Y00568994D01*
X01365931Y00569214D01*
X01366036Y00569432D01*
X01366145Y00569647D01*
X01366260Y00569860D01*
X01366380Y00570070D01*
X01366505Y00570276D01*
X01366635Y00570480D01*
X01366770Y00570681D01*
X01366910Y00570878D01*
X01367054Y00571072D01*
X01367203Y00571262D01*
X01367357Y00571448D01*
X01367515Y00571631D01*
X01367677Y00571810D01*
X01367844Y00571985D01*
X01368015Y00572156D01*
X01368190Y00572323D01*
X01368369Y00572485D01*
X01368552Y00572643D01*
X01368738Y00572797D01*
X01368928Y00572946D01*
X01369122Y00573090D01*
X01369319Y00573230D01*
X01369520Y00573365D01*
X01369724Y00573495D01*
X01369930Y00573620D01*
X01370140Y00573740D01*
X01370353Y00573855D01*
X01370568Y00573964D01*
X01370786Y00574069D01*
X01371006Y00574168D01*
X01371229Y00574262D01*
X01371454Y00574350D01*
X01371681Y00574433D01*
X01371910Y00574511D01*
X01372141Y00574582D01*
X01372373Y00574649D01*
X01372607Y00574709D01*
X01372842Y00574764D01*
X01373079Y00574814D01*
X01373316Y00574857D01*
X01373555Y00574895D01*
X01373795Y00574927D01*
X01374035Y00574953D01*
X01374276Y00574974D01*
X01374517Y00574988D01*
X01374758Y00574997D01*
X01375000Y00575000D01*
X01445000Y00575000D01*
X01445242Y00574997D01*
X01445483Y00574988D01*
X01445724Y00574974D01*
X01445965Y00574953D01*
X01446205Y00574927D01*
X01446445Y00574895D01*
X01446684Y00574857D01*
X01446921Y00574814D01*
X01447158Y00574764D01*
X01447393Y00574709D01*
X01447627Y00574649D01*
X01447859Y00574582D01*
X01448090Y00574511D01*
X01448319Y00574433D01*
X01448546Y00574350D01*
X01448771Y00574262D01*
X01448994Y00574168D01*
X01449214Y00574069D01*
X01449432Y00573964D01*
X01449647Y00573855D01*
X01449860Y00573740D01*
X01450070Y00573620D01*
X01450276Y00573495D01*
X01450480Y00573365D01*
X01450681Y00573230D01*
X01450878Y00573090D01*
X01451072Y00572946D01*
X01451262Y00572797D01*
X01451448Y00572643D01*
X01451631Y00572485D01*
X01451810Y00572323D01*
X01451985Y00572156D01*
X01452156Y00571985D01*
X01452323Y00571810D01*
X01452485Y00571631D01*
X01452643Y00571448D01*
X01452797Y00571262D01*
X01452946Y00571072D01*
X01453090Y00570878D01*
X01453230Y00570681D01*
X01453365Y00570480D01*
X01453495Y00570276D01*
X01453620Y00570070D01*
X01453740Y00569860D01*
X01453855Y00569647D01*
X01453964Y00569432D01*
X01454069Y00569214D01*
X01454168Y00568994D01*
X01454262Y00568771D01*
X01454350Y00568546D01*
X01454433Y00568319D01*
X01454511Y00568090D01*
X01454582Y00567859D01*
X01454649Y00567627D01*
X01454709Y00567393D01*
X01454764Y00567158D01*
X01454814Y00566921D01*
X01454857Y00566684D01*
X01454895Y00566445D01*
X01454927Y00566205D01*
X01454953Y00565965D01*
X01454974Y00565724D01*
X01454988Y00565483D01*
X01454997Y00565242D01*
X01455000Y00565000D01*
X01355000Y00565000D02*
X01355000Y00550000D01*
X01350000Y00545000D01*
X01350000Y00355000D01*
X01355000Y00350000D01*
X01355000Y00335000D01*
X01354997Y00334758D01*
X01354988Y00334517D01*
X01354974Y00334276D01*
X01354953Y00334035D01*
X01354927Y00333795D01*
X01354895Y00333555D01*
X01354857Y00333316D01*
X01354814Y00333079D01*
X01354764Y00332842D01*
X01354709Y00332607D01*
X01354649Y00332373D01*
X01354582Y00332141D01*
X01354511Y00331910D01*
X01354433Y00331681D01*
X01354350Y00331454D01*
X01354262Y00331229D01*
X01354168Y00331006D01*
X01354069Y00330786D01*
X01353964Y00330568D01*
X01353855Y00330353D01*
X01353740Y00330140D01*
X01353620Y00329930D01*
X01353495Y00329724D01*
X01353365Y00329520D01*
X01353230Y00329319D01*
X01353090Y00329122D01*
X01352946Y00328928D01*
X01352797Y00328738D01*
X01352643Y00328552D01*
X01352485Y00328369D01*
X01352323Y00328190D01*
X01352156Y00328015D01*
X01351985Y00327844D01*
X01351810Y00327677D01*
X01351631Y00327515D01*
X01351448Y00327357D01*
X01351262Y00327203D01*
X01351072Y00327054D01*
X01350878Y00326910D01*
X01350681Y00326770D01*
X01350480Y00326635D01*
X01350276Y00326505D01*
X01350070Y00326380D01*
X01349860Y00326260D01*
X01349647Y00326145D01*
X01349432Y00326036D01*
X01349214Y00325931D01*
X01348994Y00325832D01*
X01348771Y00325738D01*
X01348546Y00325650D01*
X01348319Y00325567D01*
X01348090Y00325489D01*
X01347859Y00325418D01*
X01347627Y00325351D01*
X01347393Y00325291D01*
X01347158Y00325236D01*
X01346921Y00325186D01*
X01346684Y00325143D01*
X01346445Y00325105D01*
X01346205Y00325073D01*
X01345965Y00325047D01*
X01345724Y00325026D01*
X01345483Y00325012D01*
X01345242Y00325003D01*
X01345000Y00325000D01*
X01275000Y00325000D01*
X01274758Y00325003D01*
X01274517Y00325012D01*
X01274276Y00325026D01*
X01274035Y00325047D01*
X01273795Y00325073D01*
X01273555Y00325105D01*
X01273316Y00325143D01*
X01273079Y00325186D01*
X01272842Y00325236D01*
X01272607Y00325291D01*
X01272373Y00325351D01*
X01272141Y00325418D01*
X01271910Y00325489D01*
X01271681Y00325567D01*
X01271454Y00325650D01*
X01271229Y00325738D01*
X01271006Y00325832D01*
X01270786Y00325931D01*
X01270568Y00326036D01*
X01270353Y00326145D01*
X01270140Y00326260D01*
X01269930Y00326380D01*
X01269724Y00326505D01*
X01269520Y00326635D01*
X01269319Y00326770D01*
X01269122Y00326910D01*
X01268928Y00327054D01*
X01268738Y00327203D01*
X01268552Y00327357D01*
X01268369Y00327515D01*
X01268190Y00327677D01*
X01268015Y00327844D01*
X01267844Y00328015D01*
X01267677Y00328190D01*
X01267515Y00328369D01*
X01267357Y00328552D01*
X01267203Y00328738D01*
X01267054Y00328928D01*
X01266910Y00329122D01*
X01266770Y00329319D01*
X01266635Y00329520D01*
X01266505Y00329724D01*
X01266380Y00329930D01*
X01266260Y00330140D01*
X01266145Y00330353D01*
X01266036Y00330568D01*
X01265931Y00330786D01*
X01265832Y00331006D01*
X01265738Y00331229D01*
X01265650Y00331454D01*
X01265567Y00331681D01*
X01265489Y00331910D01*
X01265418Y00332141D01*
X01265351Y00332373D01*
X01265291Y00332607D01*
X01265236Y00332842D01*
X01265186Y00333079D01*
X01265143Y00333316D01*
X01265105Y00333555D01*
X01265073Y00333795D01*
X01265047Y00334035D01*
X01265026Y00334276D01*
X01265012Y00334517D01*
X01265003Y00334758D01*
X01265000Y00335000D01*
X01265000Y00350000D01*
X01270000Y00355000D01*
X01270000Y00545000D01*
X01265000Y00550000D01*
X01265000Y00565000D01*
X01265003Y00565242D01*
X01265012Y00565483D01*
X01265026Y00565724D01*
X01265047Y00565965D01*
X01265073Y00566205D01*
X01265105Y00566445D01*
X01265143Y00566684D01*
X01265186Y00566921D01*
X01265236Y00567158D01*
X01265291Y00567393D01*
X01265351Y00567627D01*
X01265418Y00567859D01*
X01265489Y00568090D01*
X01265567Y00568319D01*
X01265650Y00568546D01*
X01265738Y00568771D01*
X01265832Y00568994D01*
X01265931Y00569214D01*
X01266036Y00569432D01*
X01266145Y00569647D01*
X01266260Y00569860D01*
X01266380Y00570070D01*
X01266505Y00570276D01*
X01266635Y00570480D01*
X01266770Y00570681D01*
X01266910Y00570878D01*
X01267054Y00571072D01*
X01267203Y00571262D01*
X01267357Y00571448D01*
X01267515Y00571631D01*
X01267677Y00571810D01*
X01267844Y00571985D01*
X01268015Y00572156D01*
X01268190Y00572323D01*
X01268369Y00572485D01*
X01268552Y00572643D01*
X01268738Y00572797D01*
X01268928Y00572946D01*
X01269122Y00573090D01*
X01269319Y00573230D01*
X01269520Y00573365D01*
X01269724Y00573495D01*
X01269930Y00573620D01*
X01270140Y00573740D01*
X01270353Y00573855D01*
X01270568Y00573964D01*
X01270786Y00574069D01*
X01271006Y00574168D01*
X01271229Y00574262D01*
X01271454Y00574350D01*
X01271681Y00574433D01*
X01271910Y00574511D01*
X01272141Y00574582D01*
X01272373Y00574649D01*
X01272607Y00574709D01*
X01272842Y00574764D01*
X01273079Y00574814D01*
X01273316Y00574857D01*
X01273555Y00574895D01*
X01273795Y00574927D01*
X01274035Y00574953D01*
X01274276Y00574974D01*
X01274517Y00574988D01*
X01274758Y00574997D01*
X01275000Y00575000D01*
X01345000Y00575000D01*
X01345242Y00574997D01*
X01345483Y00574988D01*
X01345724Y00574974D01*
X01345965Y00574953D01*
X01346205Y00574927D01*
X01346445Y00574895D01*
X01346684Y00574857D01*
X01346921Y00574814D01*
X01347158Y00574764D01*
X01347393Y00574709D01*
X01347627Y00574649D01*
X01347859Y00574582D01*
X01348090Y00574511D01*
X01348319Y00574433D01*
X01348546Y00574350D01*
X01348771Y00574262D01*
X01348994Y00574168D01*
X01349214Y00574069D01*
X01349432Y00573964D01*
X01349647Y00573855D01*
X01349860Y00573740D01*
X01350070Y00573620D01*
X01350276Y00573495D01*
X01350480Y00573365D01*
X01350681Y00573230D01*
X01350878Y00573090D01*
X01351072Y00572946D01*
X01351262Y00572797D01*
X01351448Y00572643D01*
X01351631Y00572485D01*
X01351810Y00572323D01*
X01351985Y00572156D01*
X01352156Y00571985D01*
X01352323Y00571810D01*
X01352485Y00571631D01*
X01352643Y00571448D01*
X01352797Y00571262D01*
X01352946Y00571072D01*
X01353090Y00570878D01*
X01353230Y00570681D01*
X01353365Y00570480D01*
X01353495Y00570276D01*
X01353620Y00570070D01*
X01353740Y00569860D01*
X01353855Y00569647D01*
X01353964Y00569432D01*
X01354069Y00569214D01*
X01354168Y00568994D01*
X01354262Y00568771D01*
X01354350Y00568546D01*
X01354433Y00568319D01*
X01354511Y00568090D01*
X01354582Y00567859D01*
X01354649Y00567627D01*
X01354709Y00567393D01*
X01354764Y00567158D01*
X01354814Y00566921D01*
X01354857Y00566684D01*
X01354895Y00566445D01*
X01354927Y00566205D01*
X01354953Y00565965D01*
X01354974Y00565724D01*
X01354988Y00565483D01*
X01354997Y00565242D01*
X01355000Y00565000D01*
X01245000Y00565000D02*
X01245000Y00550000D01*
X01240000Y00545000D01*
X01240000Y00355000D01*
X01245000Y00350000D01*
X01245000Y00335000D01*
X01244997Y00334758D01*
X01244988Y00334517D01*
X01244974Y00334276D01*
X01244953Y00334035D01*
X01244927Y00333795D01*
X01244895Y00333555D01*
X01244857Y00333316D01*
X01244814Y00333079D01*
X01244764Y00332842D01*
X01244709Y00332607D01*
X01244649Y00332373D01*
X01244582Y00332141D01*
X01244511Y00331910D01*
X01244433Y00331681D01*
X01244350Y00331454D01*
X01244262Y00331229D01*
X01244168Y00331006D01*
X01244069Y00330786D01*
X01243964Y00330568D01*
X01243855Y00330353D01*
X01243740Y00330140D01*
X01243620Y00329930D01*
X01243495Y00329724D01*
X01243365Y00329520D01*
X01243230Y00329319D01*
X01243090Y00329122D01*
X01242946Y00328928D01*
X01242797Y00328738D01*
X01242643Y00328552D01*
X01242485Y00328369D01*
X01242323Y00328190D01*
X01242156Y00328015D01*
X01241985Y00327844D01*
X01241810Y00327677D01*
X01241631Y00327515D01*
X01241448Y00327357D01*
X01241262Y00327203D01*
X01241072Y00327054D01*
X01240878Y00326910D01*
X01240681Y00326770D01*
X01240480Y00326635D01*
X01240276Y00326505D01*
X01240070Y00326380D01*
X01239860Y00326260D01*
X01239647Y00326145D01*
X01239432Y00326036D01*
X01239214Y00325931D01*
X01238994Y00325832D01*
X01238771Y00325738D01*
X01238546Y00325650D01*
X01238319Y00325567D01*
X01238090Y00325489D01*
X01237859Y00325418D01*
X01237627Y00325351D01*
X01237393Y00325291D01*
X01237158Y00325236D01*
X01236921Y00325186D01*
X01236684Y00325143D01*
X01236445Y00325105D01*
X01236205Y00325073D01*
X01235965Y00325047D01*
X01235724Y00325026D01*
X01235483Y00325012D01*
X01235242Y00325003D01*
X01235000Y00325000D01*
X01165000Y00325000D01*
X01164758Y00325003D01*
X01164517Y00325012D01*
X01164276Y00325026D01*
X01164035Y00325047D01*
X01163795Y00325073D01*
X01163555Y00325105D01*
X01163316Y00325143D01*
X01163079Y00325186D01*
X01162842Y00325236D01*
X01162607Y00325291D01*
X01162373Y00325351D01*
X01162141Y00325418D01*
X01161910Y00325489D01*
X01161681Y00325567D01*
X01161454Y00325650D01*
X01161229Y00325738D01*
X01161006Y00325832D01*
X01160786Y00325931D01*
X01160568Y00326036D01*
X01160353Y00326145D01*
X01160140Y00326260D01*
X01159930Y00326380D01*
X01159724Y00326505D01*
X01159520Y00326635D01*
X01159319Y00326770D01*
X01159122Y00326910D01*
X01158928Y00327054D01*
X01158738Y00327203D01*
X01158552Y00327357D01*
X01158369Y00327515D01*
X01158190Y00327677D01*
X01158015Y00327844D01*
X01157844Y00328015D01*
X01157677Y00328190D01*
X01157515Y00328369D01*
X01157357Y00328552D01*
X01157203Y00328738D01*
X01157054Y00328928D01*
X01156910Y00329122D01*
X01156770Y00329319D01*
X01156635Y00329520D01*
X01156505Y00329724D01*
X01156380Y00329930D01*
X01156260Y00330140D01*
X01156145Y00330353D01*
X01156036Y00330568D01*
X01155931Y00330786D01*
X01155832Y00331006D01*
X01155738Y00331229D01*
X01155650Y00331454D01*
X01155567Y00331681D01*
X01155489Y00331910D01*
X01155418Y00332141D01*
X01155351Y00332373D01*
X01155291Y00332607D01*
X01155236Y00332842D01*
X01155186Y00333079D01*
X01155143Y00333316D01*
X01155105Y00333555D01*
X01155073Y00333795D01*
X01155047Y00334035D01*
X01155026Y00334276D01*
X01155012Y00334517D01*
X01155003Y00334758D01*
X01155000Y00335000D01*
X01155000Y00350000D01*
X01160000Y00355000D01*
X01160000Y00545000D01*
X01155000Y00550000D01*
X01155000Y00565000D01*
X01155003Y00565242D01*
X01155012Y00565483D01*
X01155026Y00565724D01*
X01155047Y00565965D01*
X01155073Y00566205D01*
X01155105Y00566445D01*
X01155143Y00566684D01*
X01155186Y00566921D01*
X01155236Y00567158D01*
X01155291Y00567393D01*
X01155351Y00567627D01*
X01155418Y00567859D01*
X01155489Y00568090D01*
X01155567Y00568319D01*
X01155650Y00568546D01*
X01155738Y00568771D01*
X01155832Y00568994D01*
X01155931Y00569214D01*
X01156036Y00569432D01*
X01156145Y00569647D01*
X01156260Y00569860D01*
X01156380Y00570070D01*
X01156505Y00570276D01*
X01156635Y00570480D01*
X01156770Y00570681D01*
X01156910Y00570878D01*
X01157054Y00571072D01*
X01157203Y00571262D01*
X01157357Y00571448D01*
X01157515Y00571631D01*
X01157677Y00571810D01*
X01157844Y00571985D01*
X01158015Y00572156D01*
X01158190Y00572323D01*
X01158369Y00572485D01*
X01158552Y00572643D01*
X01158738Y00572797D01*
X01158928Y00572946D01*
X01159122Y00573090D01*
X01159319Y00573230D01*
X01159520Y00573365D01*
X01159724Y00573495D01*
X01159930Y00573620D01*
X01160140Y00573740D01*
X01160353Y00573855D01*
X01160568Y00573964D01*
X01160786Y00574069D01*
X01161006Y00574168D01*
X01161229Y00574262D01*
X01161454Y00574350D01*
X01161681Y00574433D01*
X01161910Y00574511D01*
X01162141Y00574582D01*
X01162373Y00574649D01*
X01162607Y00574709D01*
X01162842Y00574764D01*
X01163079Y00574814D01*
X01163316Y00574857D01*
X01163555Y00574895D01*
X01163795Y00574927D01*
X01164035Y00574953D01*
X01164276Y00574974D01*
X01164517Y00574988D01*
X01164758Y00574997D01*
X01165000Y00575000D01*
X01235000Y00575000D01*
X01235242Y00574997D01*
X01235483Y00574988D01*
X01235724Y00574974D01*
X01235965Y00574953D01*
X01236205Y00574927D01*
X01236445Y00574895D01*
X01236684Y00574857D01*
X01236921Y00574814D01*
X01237158Y00574764D01*
X01237393Y00574709D01*
X01237627Y00574649D01*
X01237859Y00574582D01*
X01238090Y00574511D01*
X01238319Y00574433D01*
X01238546Y00574350D01*
X01238771Y00574262D01*
X01238994Y00574168D01*
X01239214Y00574069D01*
X01239432Y00573964D01*
X01239647Y00573855D01*
X01239860Y00573740D01*
X01240070Y00573620D01*
X01240276Y00573495D01*
X01240480Y00573365D01*
X01240681Y00573230D01*
X01240878Y00573090D01*
X01241072Y00572946D01*
X01241262Y00572797D01*
X01241448Y00572643D01*
X01241631Y00572485D01*
X01241810Y00572323D01*
X01241985Y00572156D01*
X01242156Y00571985D01*
X01242323Y00571810D01*
X01242485Y00571631D01*
X01242643Y00571448D01*
X01242797Y00571262D01*
X01242946Y00571072D01*
X01243090Y00570878D01*
X01243230Y00570681D01*
X01243365Y00570480D01*
X01243495Y00570276D01*
X01243620Y00570070D01*
X01243740Y00569860D01*
X01243855Y00569647D01*
X01243964Y00569432D01*
X01244069Y00569214D01*
X01244168Y00568994D01*
X01244262Y00568771D01*
X01244350Y00568546D01*
X01244433Y00568319D01*
X01244511Y00568090D01*
X01244582Y00567859D01*
X01244649Y00567627D01*
X01244709Y00567393D01*
X01244764Y00567158D01*
X01244814Y00566921D01*
X01244857Y00566684D01*
X01244895Y00566445D01*
X01244927Y00566205D01*
X01244953Y00565965D01*
X01244974Y00565724D01*
X01244988Y00565483D01*
X01244997Y00565242D01*
X01245000Y00565000D01*
X01145000Y00565000D02*
X01145000Y00550000D01*
X01140000Y00545000D01*
X01140000Y00355000D01*
X01145000Y00350000D01*
X01145000Y00335000D01*
X01144997Y00334758D01*
X01144988Y00334517D01*
X01144974Y00334276D01*
X01144953Y00334035D01*
X01144927Y00333795D01*
X01144895Y00333555D01*
X01144857Y00333316D01*
X01144814Y00333079D01*
X01144764Y00332842D01*
X01144709Y00332607D01*
X01144649Y00332373D01*
X01144582Y00332141D01*
X01144511Y00331910D01*
X01144433Y00331681D01*
X01144350Y00331454D01*
X01144262Y00331229D01*
X01144168Y00331006D01*
X01144069Y00330786D01*
X01143964Y00330568D01*
X01143855Y00330353D01*
X01143740Y00330140D01*
X01143620Y00329930D01*
X01143495Y00329724D01*
X01143365Y00329520D01*
X01143230Y00329319D01*
X01143090Y00329122D01*
X01142946Y00328928D01*
X01142797Y00328738D01*
X01142643Y00328552D01*
X01142485Y00328369D01*
X01142323Y00328190D01*
X01142156Y00328015D01*
X01141985Y00327844D01*
X01141810Y00327677D01*
X01141631Y00327515D01*
X01141448Y00327357D01*
X01141262Y00327203D01*
X01141072Y00327054D01*
X01140878Y00326910D01*
X01140681Y00326770D01*
X01140480Y00326635D01*
X01140276Y00326505D01*
X01140070Y00326380D01*
X01139860Y00326260D01*
X01139647Y00326145D01*
X01139432Y00326036D01*
X01139214Y00325931D01*
X01138994Y00325832D01*
X01138771Y00325738D01*
X01138546Y00325650D01*
X01138319Y00325567D01*
X01138090Y00325489D01*
X01137859Y00325418D01*
X01137627Y00325351D01*
X01137393Y00325291D01*
X01137158Y00325236D01*
X01136921Y00325186D01*
X01136684Y00325143D01*
X01136445Y00325105D01*
X01136205Y00325073D01*
X01135965Y00325047D01*
X01135724Y00325026D01*
X01135483Y00325012D01*
X01135242Y00325003D01*
X01135000Y00325000D01*
X01065000Y00325000D01*
X01064758Y00325003D01*
X01064517Y00325012D01*
X01064276Y00325026D01*
X01064035Y00325047D01*
X01063795Y00325073D01*
X01063555Y00325105D01*
X01063316Y00325143D01*
X01063079Y00325186D01*
X01062842Y00325236D01*
X01062607Y00325291D01*
X01062373Y00325351D01*
X01062141Y00325418D01*
X01061910Y00325489D01*
X01061681Y00325567D01*
X01061454Y00325650D01*
X01061229Y00325738D01*
X01061006Y00325832D01*
X01060786Y00325931D01*
X01060568Y00326036D01*
X01060353Y00326145D01*
X01060140Y00326260D01*
X01059930Y00326380D01*
X01059724Y00326505D01*
X01059520Y00326635D01*
X01059319Y00326770D01*
X01059122Y00326910D01*
X01058928Y00327054D01*
X01058738Y00327203D01*
X01058552Y00327357D01*
X01058369Y00327515D01*
X01058190Y00327677D01*
X01058015Y00327844D01*
X01057844Y00328015D01*
X01057677Y00328190D01*
X01057515Y00328369D01*
X01057357Y00328552D01*
X01057203Y00328738D01*
X01057054Y00328928D01*
X01056910Y00329122D01*
X01056770Y00329319D01*
X01056635Y00329520D01*
X01056505Y00329724D01*
X01056380Y00329930D01*
X01056260Y00330140D01*
X01056145Y00330353D01*
X01056036Y00330568D01*
X01055931Y00330786D01*
X01055832Y00331006D01*
X01055738Y00331229D01*
X01055650Y00331454D01*
X01055567Y00331681D01*
X01055489Y00331910D01*
X01055418Y00332141D01*
X01055351Y00332373D01*
X01055291Y00332607D01*
X01055236Y00332842D01*
X01055186Y00333079D01*
X01055143Y00333316D01*
X01055105Y00333555D01*
X01055073Y00333795D01*
X01055047Y00334035D01*
X01055026Y00334276D01*
X01055012Y00334517D01*
X01055003Y00334758D01*
X01055000Y00335000D01*
X01055000Y00350000D01*
X01060000Y00355000D01*
X01060000Y00545000D01*
X01055000Y00550000D01*
X01055000Y00565000D01*
X01055003Y00565242D01*
X01055012Y00565483D01*
X01055026Y00565724D01*
X01055047Y00565965D01*
X01055073Y00566205D01*
X01055105Y00566445D01*
X01055143Y00566684D01*
X01055186Y00566921D01*
X01055236Y00567158D01*
X01055291Y00567393D01*
X01055351Y00567627D01*
X01055418Y00567859D01*
X01055489Y00568090D01*
X01055567Y00568319D01*
X01055650Y00568546D01*
X01055738Y00568771D01*
X01055832Y00568994D01*
X01055931Y00569214D01*
X01056036Y00569432D01*
X01056145Y00569647D01*
X01056260Y00569860D01*
X01056380Y00570070D01*
X01056505Y00570276D01*
X01056635Y00570480D01*
X01056770Y00570681D01*
X01056910Y00570878D01*
X01057054Y00571072D01*
X01057203Y00571262D01*
X01057357Y00571448D01*
X01057515Y00571631D01*
X01057677Y00571810D01*
X01057844Y00571985D01*
X01058015Y00572156D01*
X01058190Y00572323D01*
X01058369Y00572485D01*
X01058552Y00572643D01*
X01058738Y00572797D01*
X01058928Y00572946D01*
X01059122Y00573090D01*
X01059319Y00573230D01*
X01059520Y00573365D01*
X01059724Y00573495D01*
X01059930Y00573620D01*
X01060140Y00573740D01*
X01060353Y00573855D01*
X01060568Y00573964D01*
X01060786Y00574069D01*
X01061006Y00574168D01*
X01061229Y00574262D01*
X01061454Y00574350D01*
X01061681Y00574433D01*
X01061910Y00574511D01*
X01062141Y00574582D01*
X01062373Y00574649D01*
X01062607Y00574709D01*
X01062842Y00574764D01*
X01063079Y00574814D01*
X01063316Y00574857D01*
X01063555Y00574895D01*
X01063795Y00574927D01*
X01064035Y00574953D01*
X01064276Y00574974D01*
X01064517Y00574988D01*
X01064758Y00574997D01*
X01065000Y00575000D01*
X01135000Y00575000D01*
X01135242Y00574997D01*
X01135483Y00574988D01*
X01135724Y00574974D01*
X01135965Y00574953D01*
X01136205Y00574927D01*
X01136445Y00574895D01*
X01136684Y00574857D01*
X01136921Y00574814D01*
X01137158Y00574764D01*
X01137393Y00574709D01*
X01137627Y00574649D01*
X01137859Y00574582D01*
X01138090Y00574511D01*
X01138319Y00574433D01*
X01138546Y00574350D01*
X01138771Y00574262D01*
X01138994Y00574168D01*
X01139214Y00574069D01*
X01139432Y00573964D01*
X01139647Y00573855D01*
X01139860Y00573740D01*
X01140070Y00573620D01*
X01140276Y00573495D01*
X01140480Y00573365D01*
X01140681Y00573230D01*
X01140878Y00573090D01*
X01141072Y00572946D01*
X01141262Y00572797D01*
X01141448Y00572643D01*
X01141631Y00572485D01*
X01141810Y00572323D01*
X01141985Y00572156D01*
X01142156Y00571985D01*
X01142323Y00571810D01*
X01142485Y00571631D01*
X01142643Y00571448D01*
X01142797Y00571262D01*
X01142946Y00571072D01*
X01143090Y00570878D01*
X01143230Y00570681D01*
X01143365Y00570480D01*
X01143495Y00570276D01*
X01143620Y00570070D01*
X01143740Y00569860D01*
X01143855Y00569647D01*
X01143964Y00569432D01*
X01144069Y00569214D01*
X01144168Y00568994D01*
X01144262Y00568771D01*
X01144350Y00568546D01*
X01144433Y00568319D01*
X01144511Y00568090D01*
X01144582Y00567859D01*
X01144649Y00567627D01*
X01144709Y00567393D01*
X01144764Y00567158D01*
X01144814Y00566921D01*
X01144857Y00566684D01*
X01144895Y00566445D01*
X01144927Y00566205D01*
X01144953Y00565965D01*
X01144974Y00565724D01*
X01144988Y00565483D01*
X01144997Y00565242D01*
X01145000Y00565000D01*
X00825000Y00992000D02*
X00595000Y00992000D01*
X01285000Y01002000D02*
X01515000Y01002000D01*
X01515000Y01778000D02*
X01412000Y01778000D01*
X01388000Y01778000D01*
X01302000Y01778000D01*
X01305000Y01960000D02*
X01355000Y01960000D01*
X01380000Y01985000D01*
X01405000Y01960000D01*
X01455000Y01960000D01*
X01480000Y01985000D01*
X01505000Y01960000D01*
X01555000Y01960000D01*
X01580000Y01985000D01*
X01605000Y01960000D01*
X01655000Y01960000D01*
X01680000Y01985000D01*
X01705000Y01960000D01*
X01755000Y01960000D01*
X01780000Y01985000D01*
X01805000Y01960000D01*
X01855000Y01960000D01*
X01880000Y01985000D01*
X01905000Y01960000D01*
X01955000Y01960000D01*
X01980000Y01985000D01*
X02005000Y01960000D01*
X02055000Y01960000D01*
X02080000Y01985000D01*
X02105000Y01960000D01*
X02155000Y01960000D01*
X02180000Y01985000D01*
X02205000Y01960000D01*
X02255000Y01960000D01*
X02280000Y01985000D01*
X02280000Y02135000D01*
X02255000Y02160000D01*
X02205000Y02160000D01*
X02180000Y02135000D01*
X02155000Y02160000D01*
X02105000Y02160000D01*
X02080000Y02135000D01*
X02055000Y02160000D01*
X02005000Y02160000D01*
X01980000Y02135000D01*
X01955000Y02160000D01*
X01905000Y02160000D01*
X01880000Y02135000D01*
X01855000Y02160000D01*
X01805000Y02160000D01*
X01780000Y02135000D01*
X01755000Y02160000D01*
X01705000Y02160000D01*
X01680000Y02135000D01*
X01655000Y02160000D01*
X01605000Y02160000D01*
X01580000Y02135000D01*
X01555000Y02160000D01*
X01505000Y02160000D01*
X01480000Y02135000D01*
X01455000Y02160000D01*
X01405000Y02160000D01*
X01380000Y02135000D01*
X01355000Y02160000D01*
X01305000Y02160000D01*
X01280000Y02135000D01*
X01255000Y02160000D01*
X01205000Y02160000D01*
X01180000Y02135000D01*
X01155000Y02160000D01*
X01105000Y02160000D01*
X01080000Y02135000D01*
X01055000Y02160000D01*
X01005000Y02160000D01*
X00980000Y02135000D01*
X00955000Y02160000D01*
X00905000Y02160000D01*
X00880000Y02135000D01*
X00855000Y02160000D01*
X00805000Y02160000D01*
X00780000Y02135000D01*
X00755000Y02160000D01*
X00705000Y02160000D01*
X00680000Y02135000D01*
X00655000Y02160000D01*
X00605000Y02160000D01*
X00580000Y02135000D01*
X00555000Y02160000D01*
X00505000Y02160000D01*
X00480000Y02135000D01*
X00455000Y02160000D01*
X00405000Y02160000D01*
X00380000Y02135000D01*
X00355000Y02160000D01*
X00305000Y02160000D01*
X00280000Y02135000D01*
X00280000Y01985000D01*
X00305000Y01960000D01*
X00355000Y01960000D01*
X00380000Y01985000D01*
X00405000Y01960000D01*
X00455000Y01960000D01*
X00480000Y01985000D01*
X00505000Y01960000D01*
X00555000Y01960000D01*
X00580000Y01985000D01*
X00605000Y01960000D01*
X00655000Y01960000D01*
X00680000Y01985000D01*
X00705000Y01960000D01*
X00755000Y01960000D01*
X00780000Y01985000D01*
X00805000Y01960000D01*
X00855000Y01960000D01*
X00880000Y01985000D01*
X00905000Y01960000D01*
X00955000Y01960000D01*
X00980000Y01985000D01*
X01005000Y01960000D01*
X01055000Y01960000D01*
X01080000Y01985000D01*
X01105000Y01960000D01*
X01155000Y01960000D01*
X01180000Y01985000D01*
X01205000Y01960000D01*
X01255000Y01960000D01*
X01280000Y01985000D01*
X01305000Y01960000D01*
X00825000Y01768000D02*
X00722000Y01768000D01*
X00698000Y01768000D01*
X00612000Y01768000D01*
D12*
X00569860Y01783340D02*
X00538500Y01814700D01*
X00538500Y01799020D02*
X00569860Y01799020D01*
X00569860Y01814700D02*
X00538500Y01783340D01*
X00554180Y01783340D02*
X00554180Y01814700D01*
X01228500Y01809020D02*
X01259860Y01809020D01*
X01259860Y01824700D02*
X01228500Y01793340D01*
X01244180Y01793340D02*
X01244180Y01824700D01*
X01228500Y01824700D02*
X01259860Y01793340D01*
D13*
X01247032Y01802000D02*
X01259375Y01814344D01*
X01259375Y01863719D01*
X01247032Y01876063D01*
X01210000Y01876063D01*
X01210000Y01802000D01*
X01247032Y01802000D01*
X01285504Y01802000D02*
X01285504Y01876063D01*
X01322536Y01876063D01*
X01334880Y01863719D01*
X01334880Y01839032D01*
X01322536Y01826688D01*
X01285504Y01826688D01*
X01310192Y01826688D02*
X01334880Y01802000D01*
X01361009Y01802000D02*
X01385697Y01802000D01*
X01373353Y01802000D02*
X01373353Y01876063D01*
X01361009Y01876063D02*
X01385697Y01876063D01*
X01411345Y01876063D02*
X01411345Y01826688D01*
X01436033Y01802000D01*
X01460721Y01826688D01*
X01460721Y01876063D01*
X01486850Y01876063D02*
X01486850Y01802000D01*
X01536225Y01802000D01*
X01562354Y01802000D02*
X01562354Y01876063D01*
X01599386Y01876063D01*
X01611729Y01863719D01*
X01611729Y01839032D01*
X01599386Y01826688D01*
X01562354Y01826688D01*
X01587042Y01826688D02*
X01611729Y01802000D01*
X01637858Y01802000D02*
X01687234Y01802000D01*
X01662546Y01802000D02*
X01662546Y01876063D01*
X01637858Y01851375D01*
X01536225Y01876063D02*
X01486850Y01876063D01*
X01486850Y01839032D02*
X01511537Y01839032D01*
X00997234Y01841375D02*
X00997234Y01853719D01*
X00984890Y01866063D01*
X00960202Y01866063D01*
X00947858Y01853719D01*
X00921729Y01853719D02*
X00921729Y01829032D01*
X00909386Y01816688D01*
X00872354Y01816688D01*
X00897042Y01816688D02*
X00921729Y01792000D01*
X00947858Y01792000D02*
X00997234Y01841375D01*
X00997234Y01792000D02*
X00947858Y01792000D01*
X00921729Y01853719D02*
X00909386Y01866063D01*
X00872354Y01866063D01*
X00872354Y01792000D01*
X00846225Y01792000D02*
X00796850Y01792000D01*
X00796850Y01866063D01*
X00846225Y01866063D01*
X00821537Y01829032D02*
X00796850Y01829032D01*
X00770721Y01816688D02*
X00770721Y01866063D01*
X00770721Y01816688D02*
X00746033Y01792000D01*
X00721345Y01816688D01*
X00721345Y01866063D01*
X00695697Y01866063D02*
X00671009Y01866063D01*
X00683353Y01866063D02*
X00683353Y01792000D01*
X00671009Y01792000D02*
X00695697Y01792000D01*
X00644880Y01792000D02*
X00620192Y01816688D01*
X00632536Y01816688D02*
X00595504Y01816688D01*
X00595504Y01792000D02*
X00595504Y01866063D01*
X00632536Y01866063D01*
X00644880Y01853719D01*
X00644880Y01829032D01*
X00632536Y01816688D01*
X00569375Y01804344D02*
X00569375Y01853719D01*
X00557032Y01866063D01*
X00520000Y01866063D01*
X00520000Y01792000D01*
X00557032Y01792000D01*
X00569375Y01804344D01*
D14*
X00342526Y01897500D02*
X00312500Y01897500D01*
X00327513Y01897500D02*
X00327513Y01942538D01*
X00312500Y01927526D01*
X00305019Y02177500D02*
X00290006Y02177500D01*
X00282500Y02185006D01*
X00290006Y02200019D02*
X00305019Y02200019D01*
X00312526Y02192513D01*
X00312526Y02185006D01*
X00305019Y02177500D01*
X00290006Y02200019D02*
X00282500Y02207526D01*
X00282500Y02215032D01*
X00290006Y02222538D01*
X00305019Y02222538D01*
X00312526Y02215032D01*
X00328539Y02222538D02*
X00328539Y02192513D01*
X00343552Y02177500D01*
X00358565Y02192513D01*
X00358565Y02222538D01*
X00374578Y02207526D02*
X00389591Y02222538D01*
X00389591Y02177500D01*
X00374578Y02177500D02*
X00404604Y02177500D01*
X01617500Y00707538D02*
X01632513Y00707538D01*
X01625006Y00707538D02*
X01625006Y00662500D01*
X01617500Y00662500D02*
X01632513Y00662500D01*
X01648193Y00670006D02*
X01655699Y00662500D01*
X01670712Y00662500D01*
X01678218Y00670006D01*
X01694232Y00662500D02*
X01724258Y00662500D01*
X01709245Y00662500D02*
X01709245Y00707538D01*
X01694232Y00692526D01*
X01678218Y00700032D02*
X01670712Y00707538D01*
X01655699Y00707538D01*
X01648193Y00700032D01*
X01648193Y00670006D01*
X01417500Y00556486D02*
X01417500Y00526461D01*
X01387474Y00556486D01*
X01379968Y00556486D01*
X01372462Y00548980D01*
X01372462Y00533967D01*
X01379968Y00526461D01*
X01379968Y00510447D02*
X01394981Y00510447D01*
X01402487Y00502941D01*
X01402487Y00480421D01*
X01417500Y00480421D02*
X01372462Y00480421D01*
X01372462Y00502941D01*
X01379968Y00510447D01*
X01402487Y00495434D02*
X01417500Y00510447D01*
X01307500Y00510447D02*
X01292487Y00495434D01*
X01292487Y00502941D02*
X01292487Y00480421D01*
X01307500Y00480421D02*
X01262462Y00480421D01*
X01262462Y00502941D01*
X01269968Y00510447D01*
X01284981Y00510447D01*
X01292487Y00502941D01*
X01284981Y00526461D02*
X01262462Y00548980D01*
X01307500Y00548980D01*
X01284981Y00556486D02*
X01284981Y00526461D01*
X01309968Y00408565D02*
X01302462Y00401058D01*
X01302462Y00386046D01*
X01309968Y00378539D01*
X01309968Y00362526D02*
X01302462Y00355019D01*
X01302462Y00332500D01*
X01347500Y00332500D01*
X01332487Y00332500D02*
X01332487Y00355019D01*
X01324981Y00362526D01*
X01309968Y00362526D01*
X01332487Y00347513D02*
X01347500Y00362526D01*
X01339994Y00378539D02*
X01347500Y00386046D01*
X01347500Y00401058D01*
X01339994Y00408565D01*
X01332487Y00408565D01*
X01324981Y00401058D01*
X01324981Y00393552D01*
X01324981Y00401058D02*
X01317474Y00408565D01*
X01309968Y00408565D01*
X01037500Y00408565D02*
X01037500Y00378539D01*
X01037500Y00393552D02*
X00992462Y00393552D01*
X01007474Y00378539D01*
X00999968Y00362526D02*
X01014981Y00362526D01*
X01022487Y00355019D01*
X01022487Y00332500D01*
X01022487Y00347513D02*
X01037500Y00362526D01*
X01037500Y00332500D02*
X00992462Y00332500D01*
X00992462Y00355019D01*
X00999968Y00362526D01*
X02052500Y00392500D02*
X02052500Y00437538D01*
X02075019Y00437538D01*
X02082526Y00430032D01*
X02082526Y00415019D01*
X02075019Y00407513D01*
X02052500Y00407513D01*
X02067513Y00407513D02*
X02082526Y00392500D01*
X02098539Y00392500D02*
X02098539Y00400006D01*
X02128565Y00430032D01*
X02128565Y00437538D01*
X02098539Y00437538D01*
X02217462Y00557500D02*
X02262500Y00557500D01*
X02262500Y00587526D01*
X02266461Y00585019D02*
X02281473Y00592526D01*
X02288980Y00592526D01*
X02296486Y00585019D01*
X02296486Y00570006D01*
X02288980Y00562500D01*
X02273967Y00562500D01*
X02266461Y00570006D01*
X02266461Y00585019D02*
X02266461Y00607538D01*
X02296486Y00607538D01*
X02262500Y00603539D02*
X02262500Y00633565D01*
X02262500Y00649578D02*
X02262500Y00672098D01*
X02254994Y00679604D01*
X02224968Y00679604D01*
X02217462Y00672098D01*
X02217462Y00649578D01*
X02262500Y00649578D01*
X02273967Y00672500D02*
X02288980Y00672500D01*
X02296486Y00680006D01*
X02296486Y00687513D01*
X02288980Y00695019D01*
X02266461Y00695019D01*
X02266461Y00680006D01*
X02273967Y00672500D01*
X02250447Y00672500D02*
X02235434Y00687513D01*
X02242941Y00687513D02*
X02220421Y00687513D01*
X02217462Y00695618D02*
X02262500Y00695618D01*
X02262500Y00725643D01*
X02262500Y00741657D02*
X02217462Y00741657D01*
X02262500Y00771683D01*
X02217462Y00771683D01*
X02224968Y00787696D02*
X02254994Y00787696D01*
X02262500Y00795203D01*
X02262500Y00810215D01*
X02254994Y00817722D01*
X02262500Y00833735D02*
X02262500Y00863761D01*
X02262500Y00848748D02*
X02217462Y00848748D01*
X02232474Y00833735D01*
X02224968Y00817722D02*
X02217462Y00810215D01*
X02217462Y00795203D01*
X02224968Y00787696D01*
X02217462Y00725643D02*
X02217462Y00695618D01*
X02220421Y00717538D02*
X02220421Y00672500D01*
X02242941Y00687513D02*
X02250447Y00695019D01*
X02250447Y00710032D01*
X02242941Y00717538D01*
X02220421Y00717538D01*
X02239981Y00710631D02*
X02239981Y00695618D01*
X02266461Y00695019D02*
X02281473Y00710032D01*
X02296486Y00717538D01*
X02377462Y00669788D02*
X02422500Y00669788D01*
X02422500Y00684800D02*
X02422500Y00654775D01*
X02422500Y00638761D02*
X02407487Y00623748D01*
X02407487Y00631255D02*
X02407487Y00608735D01*
X02422500Y00608735D02*
X02377462Y00608735D01*
X02377462Y00631255D01*
X02384968Y00638761D01*
X02399981Y00638761D01*
X02407487Y00631255D01*
X02392474Y00654775D02*
X02377462Y00669788D01*
X02467462Y00757513D02*
X02512500Y00757513D01*
X02512500Y00742500D02*
X02512500Y00772526D01*
X02482474Y00742500D02*
X02467462Y00757513D01*
X02422500Y00792500D02*
X02422500Y00822526D01*
X02422500Y00838539D02*
X02377462Y00838539D01*
X02422500Y00868565D01*
X02377462Y00868565D01*
X02384968Y00884578D02*
X02414994Y00884578D01*
X02422500Y00892085D01*
X02422500Y00907098D01*
X02414994Y00914604D01*
X02414994Y00930618D02*
X02384968Y00930618D01*
X02377462Y00938124D01*
X02377462Y00953137D01*
X02384968Y00960643D01*
X02414994Y00960643D01*
X02422500Y00953137D01*
X02422500Y00938124D01*
X02414994Y00930618D01*
X02384968Y00914604D02*
X02377462Y00907098D01*
X02377462Y00892085D01*
X02384968Y00884578D01*
X02377462Y00822526D02*
X02377462Y00792500D01*
X02422500Y00792500D01*
X02399981Y00792500D02*
X02399981Y00807513D01*
X02377462Y00976657D02*
X02422500Y00976657D01*
X02422500Y00999176D01*
X02414994Y01006683D01*
X02384968Y01006683D01*
X02377462Y00999176D01*
X02377462Y00976657D01*
X02377462Y01022696D02*
X02422500Y01022696D01*
X02422500Y01052722D01*
X02422500Y01068735D02*
X02377462Y01068735D01*
X02377462Y01091255D01*
X02384968Y01098761D01*
X02399981Y01098761D01*
X02407487Y01091255D01*
X02407487Y01068735D01*
X02407487Y01083748D02*
X02422500Y01098761D01*
X02422500Y01114775D02*
X02392474Y01144800D01*
X02384968Y01144800D01*
X02377462Y01137294D01*
X02377462Y01122281D01*
X02384968Y01114775D01*
X02422500Y01114775D02*
X02422500Y01144800D01*
X02422500Y01172500D02*
X02377462Y01172500D01*
X02392474Y01187513D01*
X02377462Y01202526D01*
X02422500Y01202526D01*
X02414994Y01218539D02*
X02422500Y01226046D01*
X02422500Y01241058D01*
X02414994Y01248565D01*
X02384968Y01248565D01*
X02377462Y01241058D01*
X02377462Y01226046D01*
X02384968Y01218539D01*
X02414994Y01218539D01*
X02377462Y01264578D02*
X02377462Y01294604D01*
X02377462Y01279591D02*
X02422500Y01279591D01*
X02414994Y01310618D02*
X02422500Y01318124D01*
X02422500Y01333137D01*
X02414994Y01340643D01*
X02384968Y01340643D01*
X02377462Y01333137D01*
X02377462Y01318124D01*
X02384968Y01310618D01*
X02414994Y01310618D01*
X02422500Y01356657D02*
X02377462Y01356657D01*
X02377462Y01379176D01*
X02384968Y01386683D01*
X02399981Y01386683D01*
X02407487Y01379176D01*
X02407487Y01356657D01*
X02407487Y01371670D02*
X02422500Y01386683D01*
X02399981Y01402696D02*
X02399981Y01432722D01*
X02384968Y01448735D02*
X02414994Y01448735D01*
X02422500Y01456242D01*
X02422500Y01471255D01*
X02414994Y01478761D01*
X02384968Y01478761D01*
X02377462Y01471255D01*
X02377462Y01456242D01*
X02384968Y01448735D01*
X02377462Y01494775D02*
X02414994Y01494775D01*
X02422500Y01502281D01*
X02422500Y01517294D01*
X02414994Y01524800D01*
X02377462Y01524800D01*
X02377462Y01540814D02*
X02377462Y01570840D01*
X02377462Y01555827D02*
X02422500Y01555827D01*
X02422500Y01586853D02*
X02377462Y01586853D01*
X02377462Y01609372D01*
X02384968Y01616879D01*
X02399981Y01616879D01*
X02407487Y01609372D01*
X02407487Y01586853D01*
X02414994Y01632892D02*
X02377462Y01632892D01*
X02377462Y01662918D02*
X02414994Y01662918D01*
X02422500Y01655412D01*
X02422500Y01640399D01*
X02414994Y01632892D01*
X02377462Y01678932D02*
X02377462Y01708957D01*
X02377462Y01693945D02*
X02422500Y01693945D01*
X02414994Y01897500D02*
X02407487Y01897500D01*
X02399981Y01905006D01*
X02399981Y01920019D01*
X02407487Y01927526D01*
X02414994Y01927526D01*
X02422500Y01920019D01*
X02422500Y01905006D01*
X02414994Y01897500D01*
X02399981Y01905006D02*
X02392474Y01897500D01*
X02384968Y01897500D01*
X02377462Y01905006D01*
X02377462Y01920019D01*
X02384968Y01927526D01*
X02392474Y01927526D01*
X02399981Y01920019D01*
X02251058Y02177500D02*
X02236046Y02177500D01*
X02228539Y02185006D01*
X02258565Y02215032D01*
X02258565Y02185006D01*
X02251058Y02177500D01*
X02228539Y02185006D02*
X02228539Y02215032D01*
X02236046Y02222538D01*
X02251058Y02222538D01*
X02258565Y02215032D01*
X02212526Y02200019D02*
X02182500Y02200019D01*
X02205019Y02222538D01*
X02205019Y02177500D01*
X02224968Y01323761D02*
X02217462Y01316255D01*
X02217462Y01301242D01*
X02224968Y01293735D01*
X02224968Y01277722D02*
X02217462Y01270215D01*
X02217462Y01255203D01*
X02224968Y01247696D01*
X02254994Y01247696D01*
X02262500Y01255203D01*
X02262500Y01270215D01*
X02254994Y01277722D01*
X02262500Y01293735D02*
X02232474Y01323761D01*
X02224968Y01323761D01*
X02262500Y01323761D02*
X02262500Y01293735D01*
X02262500Y01231683D02*
X02217462Y01231683D01*
X02217462Y01201657D02*
X02262500Y01231683D01*
X02262500Y01201657D02*
X02217462Y01201657D01*
X02217462Y01185643D02*
X02217462Y01155618D01*
X02262500Y01155618D01*
X02262500Y01185643D01*
X02239981Y01170631D02*
X02239981Y01155618D01*
X02254994Y01139604D02*
X02262500Y01132098D01*
X02262500Y01109578D01*
X02217462Y01109578D01*
X02217462Y01132098D01*
X02224968Y01139604D01*
X02254994Y01139604D01*
X02262500Y01093565D02*
X02262500Y01063539D01*
X02217462Y01063539D01*
X02217462Y01093565D01*
X02239981Y01078552D02*
X02239981Y01063539D01*
X02262500Y01047526D02*
X02262500Y01017500D01*
X02217462Y01017500D01*
X02377462Y01022696D02*
X02377462Y01052722D01*
X02399981Y01037709D02*
X02399981Y01022696D01*
X02572474Y01202500D02*
X02557462Y01217513D01*
X02602500Y01217513D01*
X02602500Y01202500D02*
X02602500Y01232526D01*
X02217462Y00633565D02*
X02217462Y00603539D01*
X02262500Y00603539D01*
X02250447Y00600032D02*
X02250447Y00585019D01*
X02242941Y00577513D01*
X02220421Y00577513D01*
X02220421Y00562500D02*
X02220421Y00607538D01*
X02242941Y00607538D01*
X02250447Y00600032D01*
X02239981Y00603539D02*
X02239981Y00618552D01*
X02235434Y00577513D02*
X02250447Y00562500D01*
X02377462Y00562696D02*
X02422500Y00562696D01*
X02422500Y00592722D01*
X02399981Y00577709D02*
X02399981Y00562696D01*
X02414994Y00546683D02*
X02384968Y00546683D01*
X02377462Y00539176D01*
X02377462Y00516657D01*
X02422500Y00516657D01*
X02422500Y00539176D01*
X02414994Y00546683D01*
X02377462Y00562696D02*
X02377462Y00592722D01*
X02384968Y00500643D02*
X02377462Y00493137D01*
X02377462Y00478124D01*
X02384968Y00470618D01*
X02414994Y00470618D01*
X02422500Y00478124D01*
X02422500Y00493137D01*
X02414994Y00500643D01*
X02384968Y00500643D01*
X02384968Y00454604D02*
X02377462Y00447098D01*
X02377462Y00432085D01*
X02384968Y00424578D01*
X02414994Y00424578D01*
X02422500Y00432085D01*
X02422500Y00447098D01*
X02414994Y00454604D01*
X02422500Y00408565D02*
X02377462Y00408565D01*
X02377462Y00378539D02*
X02422500Y00408565D01*
X02422500Y00378539D02*
X02377462Y00378539D01*
X02377462Y00362526D02*
X02377462Y00332500D01*
X02422500Y00332500D01*
X02422500Y00362526D01*
X02399981Y00347513D02*
X02399981Y00332500D01*
X02467462Y00297513D02*
X02512500Y00297513D01*
X02512500Y00282500D02*
X02512500Y00312526D01*
X02482474Y00282500D02*
X02467462Y00297513D01*
X02463124Y00212538D02*
X02455618Y00205032D01*
X02455618Y00175006D01*
X02463124Y00167500D01*
X02478137Y00167500D01*
X02485643Y00175006D01*
X02485643Y00205032D01*
X02478137Y00212538D01*
X02463124Y00212538D01*
X02439604Y00205032D02*
X02432098Y00212538D01*
X02409578Y00212538D01*
X02409578Y00167500D01*
X02432098Y00167500D01*
X02439604Y00175006D01*
X02439604Y00205032D01*
X02393565Y00212538D02*
X02363539Y00212538D01*
X02363539Y00167500D01*
X02393565Y00167500D01*
X02378552Y00190019D02*
X02363539Y00190019D01*
X02347526Y00167500D02*
X02317500Y00167500D01*
X02317500Y00212538D01*
X02501657Y00212538D02*
X02501657Y00167500D01*
X02531683Y00167500D02*
X02531683Y00212538D01*
X02501657Y00212538D02*
X02531683Y00167500D01*
D15*
X02240000Y00230000D02*
X02238078Y00229977D01*
X02236158Y00229908D01*
X02234240Y00229792D01*
X02232326Y00229631D01*
X02230415Y00229424D01*
X02228511Y00229170D01*
X02226613Y00228872D01*
X02224722Y00228527D01*
X02222841Y00228138D01*
X02220969Y00227703D01*
X02219109Y00227223D01*
X02217260Y00226699D01*
X02215424Y00226131D01*
X02213603Y00225519D01*
X02211797Y00224863D01*
X02210007Y00224164D01*
X02208235Y00223422D01*
X02206481Y00222638D01*
X02204746Y00221812D01*
X02203031Y00220945D01*
X02201338Y00220037D01*
X02199667Y00219088D01*
X02198020Y00218099D01*
X02196396Y00217071D01*
X02194798Y00216005D01*
X02193226Y00214900D01*
X02191681Y00213758D01*
X02190164Y00212579D01*
X02188675Y00211364D01*
X02187216Y00210114D01*
X02185788Y00208829D01*
X02184391Y00207510D01*
X02183025Y00206158D01*
X02181693Y00204773D01*
X02180395Y00203357D01*
X02179130Y00201910D01*
X02177901Y00200433D01*
X02176708Y00198927D01*
X02175551Y00197393D01*
X02174432Y00195831D01*
X02173350Y00194243D01*
X02172306Y00192630D01*
X02171302Y00190992D01*
X02170337Y00189330D01*
X02169413Y00187646D01*
X02170540Y00110307D02*
X02171531Y00108620D01*
X02172563Y00106958D01*
X02173636Y00105322D01*
X02174749Y00103713D01*
X02175900Y00102131D01*
X02177090Y00100578D01*
X02178317Y00099054D01*
X02179582Y00097561D01*
X02180882Y00096099D01*
X02182218Y00094670D01*
X02183588Y00093273D01*
X02184992Y00091911D01*
X02186429Y00090583D01*
X02187898Y00089291D01*
X02189398Y00088035D01*
X02190929Y00086816D01*
X02192489Y00085635D01*
X02194077Y00084492D01*
X02195693Y00083389D01*
X02197335Y00082325D01*
X02199003Y00081302D01*
X02200695Y00080320D01*
X02202411Y00079380D01*
X02204149Y00078482D01*
X02205908Y00077627D01*
X02207689Y00076815D01*
X02209488Y00076046D01*
X02211306Y00075322D01*
X02213140Y00074643D01*
X02214991Y00074009D01*
X02216857Y00073420D01*
X02218737Y00072877D01*
X02220629Y00072380D01*
X02222533Y00071930D01*
X02224447Y00071526D01*
X02226371Y00071169D01*
X02228303Y00070859D01*
X02230242Y00070597D01*
X02232186Y00070382D01*
X02234136Y00070215D01*
X02236089Y00070096D01*
X02238044Y00070024D01*
X02240000Y00070000D01*
X02241929Y00070023D01*
X02243858Y00070093D01*
X02245785Y00070209D01*
X02247708Y00070372D01*
X02249626Y00070581D01*
X02251540Y00070836D01*
X02253446Y00071138D01*
X02255344Y00071485D01*
X02257234Y00071878D01*
X02259114Y00072317D01*
X02260982Y00072800D01*
X02262838Y00073329D01*
X02264681Y00073902D01*
X02266510Y00074520D01*
X02268323Y00075181D01*
X02270119Y00075886D01*
X02271899Y00076634D01*
X02273659Y00077425D01*
X02275400Y00078258D01*
X02277120Y00079133D01*
X02278819Y00080049D01*
X02280495Y00081006D01*
X02282148Y00082003D01*
X02283776Y00083039D01*
X02285379Y00084115D01*
X02286955Y00085229D01*
X02288504Y00086380D01*
X02290024Y00087569D01*
X02291516Y00088794D01*
X02292977Y00090054D01*
X02294408Y00091349D01*
X02295807Y00092679D01*
X02297174Y00094042D01*
X02298507Y00095437D01*
X02299806Y00096865D01*
X02301070Y00098323D01*
X02301456Y00201217D02*
X02300192Y00202697D01*
X02298892Y00204146D01*
X02297557Y00205563D01*
X02296188Y00206947D01*
X02294786Y00208297D01*
X02293351Y00209613D01*
X02291885Y00210893D01*
X02290388Y00212138D01*
X02288861Y00213345D01*
X02287305Y00214515D01*
X02285721Y00215647D01*
X02284110Y00216740D01*
X02282473Y00217794D01*
X02280811Y00218807D01*
X02279125Y00219780D01*
X02277416Y00220711D01*
X02275684Y00221601D01*
X02273931Y00222448D01*
X02272158Y00223252D01*
X02270366Y00224013D01*
X02268557Y00224730D01*
X02266730Y00225402D01*
X02264887Y00226030D01*
X02263030Y00226613D01*
X02261159Y00227151D01*
X02259275Y00227643D01*
X02257381Y00228089D01*
X02255475Y00228489D01*
X02253561Y00228842D01*
X02251639Y00229149D01*
X02249709Y00229409D01*
X02247774Y00229621D01*
X02245835Y00229787D01*
X02243891Y00229905D01*
X02241946Y00229976D01*
X02240000Y00230000D01*
X02319693Y00410540D02*
X02321380Y00411531D01*
X02323042Y00412563D01*
X02324678Y00413636D01*
X02326287Y00414749D01*
X02327869Y00415900D01*
X02329422Y00417090D01*
X02330946Y00418317D01*
X02332439Y00419582D01*
X02333901Y00420882D01*
X02335330Y00422218D01*
X02336727Y00423588D01*
X02338089Y00424992D01*
X02339417Y00426429D01*
X02340709Y00427898D01*
X02341965Y00429398D01*
X02343184Y00430929D01*
X02344365Y00432489D01*
X02345508Y00434077D01*
X02346611Y00435693D01*
X02347675Y00437335D01*
X02348698Y00439003D01*
X02349680Y00440695D01*
X02350620Y00442411D01*
X02351518Y00444149D01*
X02352373Y00445908D01*
X02353185Y00447689D01*
X02353954Y00449488D01*
X02354678Y00451306D01*
X02355357Y00453140D01*
X02355991Y00454991D01*
X02356580Y00456857D01*
X02357123Y00458737D01*
X02357620Y00460629D01*
X02358070Y00462533D01*
X02358474Y00464447D01*
X02358831Y00466371D01*
X02359141Y00468303D01*
X02359403Y00470242D01*
X02359618Y00472186D01*
X02359785Y00474136D01*
X02359904Y00476089D01*
X02359976Y00478044D01*
X02360000Y00480000D01*
X02242354Y00409413D02*
X02240670Y00410337D01*
X02239008Y00411302D01*
X02237370Y00412306D01*
X02235757Y00413350D01*
X02234169Y00414432D01*
X02232607Y00415551D01*
X02231073Y00416708D01*
X02229567Y00417901D01*
X02228090Y00419130D01*
X02226643Y00420395D01*
X02225227Y00421693D01*
X02223842Y00423025D01*
X02222490Y00424391D01*
X02221171Y00425788D01*
X02219886Y00427216D01*
X02218636Y00428675D01*
X02217421Y00430164D01*
X02216242Y00431681D01*
X02215100Y00433226D01*
X02213995Y00434798D01*
X02212929Y00436396D01*
X02211901Y00438020D01*
X02210912Y00439667D01*
X02209963Y00441338D01*
X02209055Y00443031D01*
X02208188Y00444746D01*
X02207362Y00446481D01*
X02206578Y00448235D01*
X02205836Y00450007D01*
X02205137Y00451797D01*
X02204481Y00453603D01*
X02203869Y00455424D01*
X02203301Y00457260D01*
X02202777Y00459109D01*
X02202297Y00460969D01*
X02201862Y00462841D01*
X02201473Y00464722D01*
X02201128Y00466613D01*
X02200830Y00468511D01*
X02200576Y00470415D01*
X02200369Y00472326D01*
X02200208Y00474240D01*
X02200092Y00476158D01*
X02200023Y00478078D01*
X02200000Y00480000D01*
X02331677Y00541070D02*
X02333135Y00539806D01*
X02334563Y00538507D01*
X02335958Y00537174D01*
X02337321Y00535807D01*
X02338651Y00534408D01*
X02339946Y00532977D01*
X02341206Y00531516D01*
X02342431Y00530024D01*
X02343620Y00528504D01*
X02344771Y00526955D01*
X02345885Y00525379D01*
X02346961Y00523776D01*
X02347997Y00522148D01*
X02348994Y00520495D01*
X02349951Y00518819D01*
X02350867Y00517120D01*
X02351742Y00515400D01*
X02352575Y00513659D01*
X02353366Y00511899D01*
X02354114Y00510119D01*
X02354819Y00508323D01*
X02355480Y00506510D01*
X02356098Y00504681D01*
X02356671Y00502838D01*
X02357200Y00500982D01*
X02357683Y00499114D01*
X02358122Y00497234D01*
X02358515Y00495344D01*
X02358862Y00493446D01*
X02359164Y00491540D01*
X02359419Y00489626D01*
X02359628Y00487708D01*
X02359791Y00485785D01*
X02359907Y00483858D01*
X02359977Y00481929D01*
X02360000Y00480000D01*
X02228783Y00541456D02*
X02227303Y00540192D01*
X02225854Y00538892D01*
X02224437Y00537557D01*
X02223053Y00536188D01*
X02221703Y00534786D01*
X02220387Y00533351D01*
X02219107Y00531885D01*
X02217862Y00530388D01*
X02216655Y00528861D01*
X02215485Y00527305D01*
X02214353Y00525721D01*
X02213260Y00524110D01*
X02212206Y00522473D01*
X02211193Y00520811D01*
X02210220Y00519125D01*
X02209289Y00517416D01*
X02208399Y00515684D01*
X02207552Y00513931D01*
X02206748Y00512158D01*
X02205987Y00510366D01*
X02205270Y00508557D01*
X02204598Y00506730D01*
X02203970Y00504887D01*
X02203387Y00503030D01*
X02202849Y00501159D01*
X02202357Y00499275D01*
X02201911Y00497381D01*
X02201511Y00495475D01*
X02201158Y00493561D01*
X02200851Y00491639D01*
X02200591Y00489709D01*
X02200379Y00487774D01*
X02200213Y00485835D01*
X02200095Y00483891D01*
X02200024Y00481946D01*
X02200000Y00480000D01*
X02319693Y00870540D02*
X02321380Y00871531D01*
X02323042Y00872563D01*
X02324678Y00873636D01*
X02326287Y00874749D01*
X02327869Y00875900D01*
X02329422Y00877090D01*
X02330946Y00878317D01*
X02332439Y00879582D01*
X02333901Y00880882D01*
X02335330Y00882218D01*
X02336727Y00883588D01*
X02338089Y00884992D01*
X02339417Y00886429D01*
X02340709Y00887898D01*
X02341965Y00889398D01*
X02343184Y00890929D01*
X02344365Y00892489D01*
X02345508Y00894077D01*
X02346611Y00895693D01*
X02347675Y00897335D01*
X02348698Y00899003D01*
X02349680Y00900695D01*
X02350620Y00902411D01*
X02351518Y00904149D01*
X02352373Y00905908D01*
X02353185Y00907689D01*
X02353954Y00909488D01*
X02354678Y00911306D01*
X02355357Y00913140D01*
X02355991Y00914991D01*
X02356580Y00916857D01*
X02357123Y00918737D01*
X02357620Y00920629D01*
X02358070Y00922533D01*
X02358474Y00924447D01*
X02358831Y00926371D01*
X02359141Y00928303D01*
X02359403Y00930242D01*
X02359618Y00932186D01*
X02359785Y00934136D01*
X02359904Y00936089D01*
X02359976Y00938044D01*
X02360000Y00940000D01*
X02242354Y00869413D02*
X02240670Y00870337D01*
X02239008Y00871302D01*
X02237370Y00872306D01*
X02235757Y00873350D01*
X02234169Y00874432D01*
X02232607Y00875551D01*
X02231073Y00876708D01*
X02229567Y00877901D01*
X02228090Y00879130D01*
X02226643Y00880395D01*
X02225227Y00881693D01*
X02223842Y00883025D01*
X02222490Y00884391D01*
X02221171Y00885788D01*
X02219886Y00887216D01*
X02218636Y00888675D01*
X02217421Y00890164D01*
X02216242Y00891681D01*
X02215100Y00893226D01*
X02213995Y00894798D01*
X02212929Y00896396D01*
X02211901Y00898020D01*
X02210912Y00899667D01*
X02209963Y00901338D01*
X02209055Y00903031D01*
X02208188Y00904746D01*
X02207362Y00906481D01*
X02206578Y00908235D01*
X02205836Y00910007D01*
X02205137Y00911797D01*
X02204481Y00913603D01*
X02203869Y00915424D01*
X02203301Y00917260D01*
X02202777Y00919109D01*
X02202297Y00920969D01*
X02201862Y00922841D01*
X02201473Y00924722D01*
X02201128Y00926613D01*
X02200830Y00928511D01*
X02200576Y00930415D01*
X02200369Y00932326D01*
X02200208Y00934240D01*
X02200092Y00936158D01*
X02200023Y00938078D01*
X02200000Y00940000D01*
X02331677Y01001070D02*
X02333135Y00999806D01*
X02334563Y00998507D01*
X02335958Y00997174D01*
X02337321Y00995807D01*
X02338651Y00994408D01*
X02339946Y00992977D01*
X02341206Y00991516D01*
X02342431Y00990024D01*
X02343620Y00988504D01*
X02344771Y00986955D01*
X02345885Y00985379D01*
X02346961Y00983776D01*
X02347997Y00982148D01*
X02348994Y00980495D01*
X02349951Y00978819D01*
X02350867Y00977120D01*
X02351742Y00975400D01*
X02352575Y00973659D01*
X02353366Y00971899D01*
X02354114Y00970119D01*
X02354819Y00968323D01*
X02355480Y00966510D01*
X02356098Y00964681D01*
X02356671Y00962838D01*
X02357200Y00960982D01*
X02357683Y00959114D01*
X02358122Y00957234D01*
X02358515Y00955344D01*
X02358862Y00953446D01*
X02359164Y00951540D01*
X02359419Y00949626D01*
X02359628Y00947708D01*
X02359791Y00945785D01*
X02359907Y00943858D01*
X02359977Y00941929D01*
X02360000Y00940000D01*
X02228783Y01001456D02*
X02227303Y01000192D01*
X02225854Y00998892D01*
X02224437Y00997557D01*
X02223053Y00996188D01*
X02221703Y00994786D01*
X02220387Y00993351D01*
X02219107Y00991885D01*
X02217862Y00990388D01*
X02216655Y00988861D01*
X02215485Y00987305D01*
X02214353Y00985721D01*
X02213260Y00984110D01*
X02212206Y00982473D01*
X02211193Y00980811D01*
X02210220Y00979125D01*
X02209289Y00977416D01*
X02208399Y00975684D01*
X02207552Y00973931D01*
X02206748Y00972158D01*
X02205987Y00970366D01*
X02205270Y00968557D01*
X02204598Y00966730D01*
X02203970Y00964887D01*
X02203387Y00963030D01*
X02202849Y00961159D01*
X02202357Y00959275D01*
X02201911Y00957381D01*
X02201511Y00955475D01*
X02201158Y00953561D01*
X02200851Y00951639D01*
X02200591Y00949709D01*
X02200379Y00947774D01*
X02200213Y00945835D01*
X02200095Y00943891D01*
X02200024Y00941946D01*
X02200000Y00940000D01*
X00480000Y00275000D02*
X00480000Y00200000D01*
X00280000Y00200000D01*
X00280000Y00275000D01*
X00480000Y00275000D01*
X00480000Y00200000D02*
X00480000Y00025000D01*
X00280000Y00025000D01*
X00280000Y00200000D01*
X00275000Y00520000D02*
X00200000Y00520000D01*
X00200000Y00720000D01*
X00275000Y00720000D01*
X00275000Y00520000D01*
X00200000Y00520000D02*
X00025000Y00520000D01*
X00025000Y00720000D01*
X00200000Y00720000D01*
X00200000Y00750000D02*
X00200000Y00950000D01*
X00275000Y00950000D01*
X00275000Y00750000D01*
X00200000Y00750000D01*
X00025000Y00750000D01*
X00025000Y00950000D01*
X00200000Y00950000D01*
X00200000Y00970000D02*
X00200000Y01170000D01*
X00275000Y01170000D01*
X00275000Y00970000D01*
X00200000Y00970000D01*
X00025000Y00970000D01*
X00025000Y01170000D01*
X00200000Y01170000D01*
X00200000Y01190000D02*
X00200000Y01390000D01*
X00275000Y01390000D01*
X00275000Y01190000D01*
X00200000Y01190000D01*
X00025000Y01190000D01*
X00025000Y01390000D01*
X00200000Y01390000D01*
X00200000Y01420000D02*
X00200000Y01620000D01*
X00275000Y01620000D01*
X00275000Y01420000D01*
X00200000Y01420000D01*
X00025000Y01420000D01*
X00025000Y01620000D01*
X00200000Y01620000D01*
X00200000Y01650000D02*
X00200000Y01850000D01*
X00275000Y01850000D01*
X00275000Y01650000D01*
X00200000Y01650000D01*
X00025000Y01650000D01*
X00025000Y01850000D01*
X00200000Y01850000D01*
D16*
X00301969Y01827179D02*
X00338000Y01827179D01*
X00338000Y01815169D02*
X00338000Y01839189D01*
X00313980Y01815169D02*
X00301969Y01827179D01*
X00307974Y01802358D02*
X00301969Y01796352D01*
X00301969Y01784342D01*
X00307974Y01778337D01*
X00331995Y01778337D01*
X00338000Y01784342D01*
X00338000Y01796352D01*
X00331995Y01802358D01*
X00301969Y01765526D02*
X00301969Y01741506D01*
X00338000Y01741506D01*
X00319985Y01741506D02*
X00319985Y01753516D01*
X00313980Y01609189D02*
X00307974Y01609189D01*
X00301969Y01603184D01*
X00301969Y01591174D01*
X00307974Y01585169D01*
X00307974Y01572358D02*
X00301969Y01566352D01*
X00301969Y01554342D01*
X00307974Y01548337D01*
X00331995Y01548337D01*
X00338000Y01554342D01*
X00338000Y01566352D01*
X00331995Y01572358D01*
X00338000Y01585169D02*
X00313980Y01609189D01*
X00338000Y01609189D02*
X00338000Y01585169D01*
X00301969Y01535526D02*
X00301969Y01511506D01*
X00338000Y01511506D01*
X00319985Y01511506D02*
X00319985Y01523516D01*
X00325990Y01379189D02*
X00331995Y01379189D01*
X00338000Y01373184D01*
X00338000Y01361174D01*
X00331995Y01355169D01*
X00331995Y01342358D02*
X00338000Y01336352D01*
X00338000Y01324342D01*
X00331995Y01318337D01*
X00307974Y01318337D01*
X00301969Y01324342D01*
X00301969Y01336352D01*
X00307974Y01342358D01*
X00307974Y01355169D02*
X00301969Y01361174D01*
X00301969Y01373184D01*
X00307974Y01379189D01*
X00313980Y01379189D01*
X00319985Y01373184D01*
X00325990Y01379189D01*
X00319985Y01373184D02*
X00319985Y01367179D01*
X00301969Y01305526D02*
X00301969Y01281506D01*
X00338000Y01281506D01*
X00319985Y01281506D02*
X00319985Y01293516D01*
X00319985Y01159189D02*
X00319985Y01135169D01*
X00301969Y01153184D01*
X00338000Y01153184D01*
X00331995Y01122358D02*
X00338000Y01116352D01*
X00338000Y01104342D01*
X00331995Y01098337D01*
X00307974Y01098337D01*
X00301969Y01104342D01*
X00301969Y01116352D01*
X00307974Y01122358D01*
X00301969Y01085526D02*
X00301969Y01061506D01*
X00338000Y01061506D01*
X00319985Y01061506D02*
X00319985Y01073516D01*
X00319985Y00939189D02*
X00331995Y00939189D01*
X00338000Y00933184D01*
X00338000Y00921174D01*
X00331995Y00915169D01*
X00319985Y00915169D02*
X00313980Y00927179D01*
X00313980Y00933184D01*
X00319985Y00939189D01*
X00301969Y00939189D02*
X00301969Y00915169D01*
X00319985Y00915169D01*
X00331995Y00902358D02*
X00338000Y00896352D01*
X00338000Y00884342D01*
X00331995Y00878337D01*
X00307974Y00878337D01*
X00301969Y00884342D01*
X00301969Y00896352D01*
X00307974Y00902358D01*
X00301969Y00865526D02*
X00301969Y00841506D01*
X00338000Y00841506D01*
X00319985Y00841506D02*
X00319985Y00853516D01*
X00325990Y00709189D02*
X00319985Y00703184D01*
X00319985Y00685169D01*
X00331995Y00685169D01*
X00338000Y00691174D01*
X00338000Y00703184D01*
X00331995Y00709189D01*
X00325990Y00709189D01*
X00307974Y00697179D02*
X00319985Y00685169D01*
X00307974Y00697179D02*
X00301969Y00709189D01*
X00307974Y00672358D02*
X00301969Y00666352D01*
X00301969Y00654342D01*
X00307974Y00648337D01*
X00331995Y00648337D01*
X00338000Y00654342D01*
X00338000Y00666352D01*
X00331995Y00672358D01*
X00301969Y00635526D02*
X00301969Y00611506D01*
X00338000Y00611506D01*
X00319985Y00611506D02*
X00319985Y00623516D01*
X00324836Y00338031D02*
X00318831Y00332026D01*
X00318831Y00308005D01*
X00324836Y00302000D01*
X00336847Y00302000D01*
X00342852Y00308005D01*
X00342852Y00332026D01*
X00336847Y00338031D01*
X00324836Y00338031D01*
X00306020Y00338031D02*
X00306020Y00314010D01*
X00294010Y00302000D01*
X00282000Y00314010D01*
X00282000Y00338031D01*
X00355663Y00338031D02*
X00355663Y00302000D01*
X00379683Y00302000D01*
X00404505Y00302000D02*
X00404505Y00338031D01*
X00416515Y00338031D02*
X00392494Y00338031D01*
X00429326Y00326020D02*
X00429326Y00302000D01*
X00429326Y00320015D02*
X00453346Y00320015D01*
X00453346Y00326020D02*
X00453346Y00302000D01*
X00466157Y00308005D02*
X00466157Y00332026D01*
X00472162Y00338031D01*
X00484173Y00338031D01*
X00490178Y00332026D01*
X00490178Y00320015D02*
X00478167Y00320015D01*
X00490178Y00320015D02*
X00490178Y00308005D01*
X00484173Y00302000D01*
X00472162Y00302000D01*
X00466157Y00308005D01*
X00453346Y00326020D02*
X00441336Y00338031D01*
X00429326Y00326020D01*
X00502989Y00320015D02*
X00514999Y00320015D01*
X00502989Y00302000D02*
X00527009Y00302000D01*
X00539820Y00302000D02*
X00551830Y00302000D01*
X00545825Y00302000D02*
X00545825Y00338031D01*
X00539820Y00338031D02*
X00551830Y00338031D01*
X00564374Y00338031D02*
X00588395Y00302000D01*
X00588395Y00338031D01*
X00564374Y00338031D02*
X00564374Y00302000D01*
X00527009Y00338031D02*
X00502989Y00338031D01*
X00502989Y00302000D01*
D17*
X01100000Y00308000D03*
X01200000Y00308000D03*
X01310000Y00308000D03*
X01410000Y00308000D03*
X01410000Y00592000D03*
X01310000Y00592000D03*
X01200000Y00592000D03*
X01100000Y00592000D03*
D18*
X02028000Y00330000D03*
X02312000Y00330000D03*
X02332000Y00670000D03*
X02332000Y00780000D03*
X02048000Y00780000D03*
X02048000Y00670000D03*
M02*
