G75*
%MOIN*%
%OFA0B0*%
%FSLAX26Y26*%
%IPPOS*%
%LPD*%
%AMOC8*
5,1,8,0,0,1.08239X$1,22.5*
%
%ADD10R,0.066000X0.066000*%
%ADD11C,0.066000*%
%ADD12C,0.060000*%
%ADD13C,0.059370*%
%ADD14C,0.052000*%
%ADD15OC8,0.052000*%
%ADD16OC8,0.060000*%
%ADD17C,0.010000*%
%ADD18C,0.040000*%
%ADD19C,0.015000*%
D10*
X00560000Y01730000D03*
X01250000Y01740000D03*
D11*
X01250000Y01640000D03*
X01250000Y01540000D03*
X01250000Y01440000D03*
X01250000Y01340000D03*
X01250000Y01240000D03*
X01250000Y01140000D03*
X01250000Y01040000D03*
X01550000Y01040000D03*
X01550000Y01140000D03*
X01550000Y01240000D03*
X01550000Y01340000D03*
X01550000Y01440000D03*
X01550000Y01540000D03*
X01550000Y01640000D03*
X01550000Y01740000D03*
X00860000Y01730000D03*
X00860000Y01630000D03*
X00860000Y01530000D03*
X00860000Y01430000D03*
X00860000Y01330000D03*
X00860000Y01230000D03*
X00860000Y01130000D03*
X00860000Y01030000D03*
X00560000Y01030000D03*
X00560000Y01130000D03*
X00560000Y01230000D03*
X00560000Y01330000D03*
X00560000Y01430000D03*
X00560000Y01530000D03*
X00560000Y01630000D03*
D12*
X02460000Y01620000D02*
X02520000Y01620000D01*
X02520000Y01520000D02*
X02460000Y01520000D01*
X02460000Y01420000D02*
X02520000Y01420000D01*
X02520000Y01320000D02*
X02460000Y01320000D01*
X02460000Y01220000D02*
X02520000Y01220000D01*
X02520000Y01040000D02*
X02460000Y01040000D01*
X02460000Y00940000D02*
X02520000Y00940000D01*
X02520000Y00840000D02*
X02460000Y00840000D01*
X02460000Y00580000D02*
X02520000Y00580000D01*
X02520000Y00480000D02*
X02460000Y00480000D01*
X02460000Y00380000D02*
X02520000Y00380000D01*
X02520000Y01720000D02*
X02460000Y01720000D01*
X02460000Y01820000D02*
X02520000Y01820000D01*
X02520000Y01920000D02*
X02460000Y01920000D01*
D13*
X00330000Y00179685D02*
X00330000Y00120315D01*
X00430000Y00120315D02*
X00430000Y00179685D01*
X00179685Y00570000D02*
X00120315Y00570000D01*
X00120315Y00670000D02*
X00179685Y00670000D01*
X00179685Y00800000D02*
X00120315Y00800000D01*
X00120315Y00900000D02*
X00179685Y00900000D01*
X00179685Y01020000D02*
X00120315Y01020000D01*
X00120315Y01120000D02*
X00179685Y01120000D01*
X00179685Y01240000D02*
X00120315Y01240000D01*
X00120315Y01340000D02*
X00179685Y01340000D01*
X00179685Y01470000D02*
X00120315Y01470000D01*
X00120315Y01570000D02*
X00179685Y01570000D01*
X00179685Y01700000D02*
X00120315Y01700000D01*
X00120315Y01800000D02*
X00179685Y01800000D01*
D14*
X01580000Y00600000D03*
X01580000Y00500000D03*
X01580000Y00400000D03*
X01580000Y00300000D03*
X01880000Y00300000D03*
X01880000Y00400000D03*
X01880000Y00500000D03*
X01880000Y00600000D03*
D15*
X01990000Y00670000D03*
X01990000Y00780000D03*
X02280000Y00890000D03*
X02280000Y00990000D03*
X02390000Y00780000D03*
X02390000Y00670000D03*
X02280000Y00530000D03*
X02280000Y00430000D03*
X02370000Y00330000D03*
X02290000Y00150000D03*
X02190000Y00150000D03*
X01970000Y00330000D03*
X01410000Y00250000D03*
X01310000Y00250000D03*
X01200000Y00250000D03*
X01100000Y00250000D03*
X01100000Y00650000D03*
X01200000Y00650000D03*
X01310000Y00650000D03*
X01410000Y00650000D03*
D16*
X01430000Y02010000D03*
X01430000Y02110000D03*
X01330000Y02110000D03*
X01230000Y02110000D03*
X01230000Y02010000D03*
X01330000Y02010000D03*
X01130000Y02010000D03*
X01130000Y02110000D03*
X01030000Y02110000D03*
X00930000Y02110000D03*
X00930000Y02010000D03*
X01030000Y02010000D03*
X00830000Y02010000D03*
X00830000Y02110000D03*
X00730000Y02110000D03*
X00630000Y02110000D03*
X00630000Y02010000D03*
X00730000Y02010000D03*
X00530000Y02010000D03*
X00530000Y02110000D03*
X00430000Y02110000D03*
X00330000Y02110000D03*
X00330000Y02010000D03*
X00430000Y02010000D03*
X01530000Y02010000D03*
X01630000Y02010000D03*
X01630000Y02110000D03*
X01530000Y02110000D03*
X01730000Y02110000D03*
X01730000Y02010000D03*
X01830000Y02010000D03*
X01830000Y02110000D03*
X01930000Y02110000D03*
X02030000Y02110000D03*
X02030000Y02010000D03*
X01930000Y02010000D03*
X02130000Y02010000D03*
X02130000Y02110000D03*
X02230000Y02110000D03*
X02230000Y02010000D03*
D17*
X02195000Y02010000D01*
X02140000Y02065000D01*
X01975000Y02065000D01*
X01930000Y02110000D01*
X01895000Y02110000D01*
X01850000Y02065000D01*
X01775000Y02065000D01*
X01730000Y02110000D01*
X01575000Y02065000D02*
X01575000Y01970000D01*
X01970000Y01575000D01*
X02530000Y01575000D01*
X02565000Y01540000D01*
X02565000Y01300000D01*
X02540000Y01275000D01*
X02425000Y01275000D01*
X01930000Y00780000D01*
X01445000Y00780000D01*
X01250000Y00975000D01*
X01155000Y00975000D01*
X01250000Y01040000D02*
X00920000Y01040000D01*
X00880000Y01080000D01*
X00610000Y01080000D01*
X00560000Y01030000D01*
X00560000Y00600000D01*
X00330000Y00370000D01*
X00330000Y00150000D01*
X00430000Y00150000D02*
X00700000Y00150000D01*
X01200000Y00650000D01*
X01310000Y00650000D01*
X01405000Y00555000D01*
X01585000Y00555000D01*
X01625000Y00515000D01*
X01625000Y00385000D01*
X01622500Y00382500D01*
X01900000Y00105000D01*
X02205000Y00105000D01*
X02250000Y00150000D01*
X02290000Y00150000D01*
X02190000Y00150000D02*
X02010000Y00330000D01*
X01970000Y00330000D01*
X01995000Y00365000D02*
X01985000Y00375000D01*
X01955000Y00375000D01*
X01925000Y00345000D01*
X01925000Y00285000D01*
X01895000Y00255000D01*
X01865000Y00255000D01*
X01835000Y00285000D01*
X01835000Y00600000D01*
X01880000Y00600000D01*
X01835000Y00600000D02*
X01640000Y00600000D01*
X01590000Y00650000D01*
X01410000Y00650000D01*
X01365000Y00695000D01*
X01185000Y00695000D01*
X01182500Y00692500D01*
X00860000Y01015000D01*
X00860000Y01030000D01*
X00860000Y01330000D02*
X00560000Y01330000D01*
X00560000Y01430000D01*
X00430000Y01470000D02*
X00540000Y01580000D01*
X00690000Y01580000D01*
X00790000Y01480000D01*
X00840000Y01480000D02*
X00880000Y01480000D01*
X01200000Y01160000D01*
X01200000Y01120000D01*
X01230000Y01090000D01*
X01270000Y01090000D01*
X01345000Y01015000D01*
X01345000Y00930000D01*
X01410000Y00865000D01*
X01550000Y00870000D02*
X01550000Y01040000D01*
X01550000Y01140000D02*
X01535000Y01140000D01*
X01435000Y01240000D01*
X01435000Y01390000D01*
X01320000Y01505000D01*
X01320000Y01785000D01*
X01265000Y01840000D01*
X01235000Y01840000D01*
X01085000Y01990000D01*
X01085000Y02020000D01*
X01050000Y02055000D01*
X00920000Y02055000D01*
X00865000Y02110000D01*
X00830000Y02110000D01*
X00810000Y02055000D02*
X00785000Y02030000D01*
X00785000Y01875000D01*
X01200000Y01460000D01*
X01200000Y01190000D01*
X01250000Y01140000D01*
X01250000Y01340000D02*
X01250000Y01440000D01*
X01250000Y01640000D02*
X01225000Y01640000D01*
X00855000Y02010000D01*
X00830000Y02010000D01*
X00810000Y02055000D02*
X00850000Y02055000D01*
X00895000Y02010000D01*
X00930000Y02010000D01*
X01030000Y02110000D02*
X01065000Y02110000D01*
X01120000Y02055000D01*
X01150000Y02055000D01*
X01185000Y02020000D01*
X01185000Y01990000D01*
X01355000Y01820000D01*
X01355000Y01770000D02*
X01425000Y01840000D01*
X01470000Y01845000D02*
X01430000Y01885000D01*
X01430000Y02010000D01*
X01485000Y02055000D02*
X01530000Y02010000D01*
X01525000Y02010000D01*
X01500000Y01985000D01*
X01500000Y01520000D01*
X01550000Y01470000D01*
X01550000Y01440000D01*
X01550000Y01340000D01*
X01470000Y01255000D02*
X01470000Y01845000D01*
X01355000Y01770000D02*
X01355000Y01705000D01*
X01250000Y01740000D02*
X01190000Y01800000D01*
X01115000Y01800000D01*
X00860000Y01730000D02*
X00560000Y01730000D01*
X00485000Y01805000D01*
X00485000Y02020000D01*
X00430000Y02075000D01*
X00430000Y02110000D01*
X00330000Y02110000D01*
X00330000Y02010000D02*
X00150000Y01830000D01*
X00150000Y01800000D01*
X00075000Y01725000D01*
X00075000Y01680000D01*
X00145000Y01610000D01*
X00145000Y01570000D01*
X00150000Y01570000D01*
X00075000Y01495000D01*
X00075000Y01410000D01*
X00145000Y01340000D01*
X00150000Y01340000D01*
X00075000Y01265000D01*
X00075000Y01190000D01*
X00145000Y01120000D01*
X00150000Y01120000D01*
X00075000Y01045000D01*
X00075000Y00970000D01*
X00145000Y00900000D01*
X00150000Y00900000D01*
X00075000Y00825000D01*
X00075000Y00780000D01*
X00150000Y00705000D01*
X00150000Y00670000D01*
X00860000Y01330000D02*
X00860000Y01430000D01*
X00840000Y01480000D02*
X00640000Y01680000D01*
X00520000Y01680000D01*
X00500000Y01700000D01*
X00150000Y01700000D01*
X00150000Y01470000D02*
X00430000Y01470000D01*
X00695000Y02010000D02*
X00640000Y02065000D01*
X00575000Y02065000D01*
X00530000Y02110000D01*
X00695000Y02010000D02*
X00730000Y02010000D01*
X01230000Y02110000D02*
X01265000Y02110000D01*
X01320000Y02055000D01*
X01485000Y02055000D01*
X01530000Y02110000D02*
X01575000Y02065000D01*
X01925000Y01880000D02*
X02000000Y01880000D01*
X02130000Y02010000D01*
X02230000Y02075000D02*
X02230000Y02110000D01*
X02230000Y02075000D02*
X02275000Y02030000D01*
X02275000Y01990000D01*
X02170000Y01885000D01*
X02055000Y01885000D01*
X02015000Y01780000D02*
X01925000Y01690000D01*
X02270000Y01040000D02*
X02490000Y01040000D01*
X02490000Y00940000D02*
X02565000Y00865000D01*
X02565000Y00555000D01*
X02490000Y00480000D01*
X02372500Y00362500D01*
X02370000Y00365000D01*
X01995000Y00365000D01*
X01880000Y00340000D02*
X01880000Y00300000D01*
X01880000Y00340000D02*
X02235000Y00695000D01*
X02235000Y01005000D01*
X02270000Y01040000D01*
X02280000Y00990000D02*
X02340000Y00990000D01*
X02490000Y00840000D01*
X02485000Y00840000D01*
X02485000Y00815000D01*
X02385000Y00715000D01*
X02375000Y00715000D01*
X02280000Y00620000D01*
X02280000Y00530000D01*
X02280000Y00470000D02*
X02390000Y00580000D01*
X02390000Y00670000D01*
X02390000Y00780000D02*
X02280000Y00890000D01*
X01990000Y00780000D02*
X01945000Y00735000D01*
X01945000Y00605000D01*
X01880000Y00540000D01*
X01880000Y00500000D01*
X01622500Y00382500D02*
X01580000Y00340000D01*
X01580000Y00300000D01*
X01410000Y00250000D02*
X01365000Y00205000D01*
X01295000Y00205000D01*
X01250000Y00250000D01*
X01200000Y00250000D01*
X01185000Y00295000D02*
X01265000Y00295000D01*
X01310000Y00250000D01*
X01310000Y00255000D01*
X01555000Y00500000D01*
X01580000Y00500000D01*
X01182500Y00692500D02*
X01140000Y00650000D01*
X01100000Y00650000D01*
X01185000Y00295000D02*
X01140000Y00250000D01*
X01100000Y00250000D01*
X02280000Y00430000D02*
X02280000Y00470000D01*
X02372500Y00362500D02*
X02370000Y00360000D01*
X02370000Y00330000D01*
D18*
X01550000Y00870000D03*
X01410000Y00865000D03*
X01155000Y00975000D03*
X01470000Y01255000D03*
X01435000Y01440000D03*
X01355000Y01705000D03*
X01435000Y01790000D03*
X01425000Y01840000D03*
X01355000Y01820000D03*
X01250000Y01805000D03*
X01115000Y01800000D03*
X01075000Y01840000D03*
X00805000Y01665000D03*
X00790000Y01480000D03*
X01665000Y01930000D03*
X01795000Y01800000D03*
X01925000Y01880000D03*
X02055000Y01885000D03*
X02015000Y01780000D03*
X01925000Y01690000D03*
X02100000Y01260000D03*
X00415000Y00505000D03*
D19*
X00415000Y01385000D01*
X00560000Y01530000D01*
X00805000Y01585000D02*
X00860000Y01530000D01*
X00805000Y01585000D02*
X00805000Y01665000D01*
X01075000Y01840000D02*
X01185000Y01840000D01*
X01220000Y01805000D01*
X01250000Y01805000D01*
X01435000Y01790000D02*
X01435000Y01440000D01*
X01395000Y01395000D02*
X01250000Y01540000D01*
X01395000Y01395000D02*
X01395000Y00970000D01*
X01535000Y00830000D01*
X01565000Y00830000D01*
X01995000Y01260000D01*
X02100000Y01260000D01*
X02215000Y01320000D02*
X01700000Y00805000D01*
X01525000Y00805000D01*
X01370000Y00960000D01*
X01370000Y01120000D01*
X01250000Y01240000D01*
X01550000Y01240000D02*
X01730000Y01420000D01*
X02490000Y01420000D01*
X02490000Y01320000D02*
X02215000Y01320000D01*
X02490000Y01520000D02*
X01570000Y01520000D01*
X01550000Y01540000D01*
X01795000Y01800000D02*
X01935000Y01800000D01*
X01955000Y01820000D01*
X02490000Y01820000D01*
X02490000Y01920000D02*
X02240000Y01920000D01*
X02165000Y01845000D01*
X01945000Y01845000D01*
X01940000Y01840000D01*
X01755000Y01840000D01*
X01665000Y01930000D01*
M02*
